<?xml version="1.0" encoding="UTF-8"?>
<svg width="253px" height="46px" viewBox="0 0 253 46" version="1.1" xmlns="http://www.w3.org/2000/svg" xmlns:xlink="http://www.w3.org/1999/xlink">
    <!-- Generator: Sketch 52.6 (67491) - http://www.bohemiancoding.com/sketch -->
    <title>logo</title>
    <desc>Created with Sketch.</desc>
    <g id="Page-1" stroke="none" stroke-width="1" fill="none" fill-rule="evenodd">
        <g id="logo" transform="translate(0.000000, -0.314689)">
            <polyline id="Fill-504" fill="#FFFFFE" points="30.28 17.846 38.38 13.206 38.38 0.734 19.46 11.565 11.37 6.867 11.37 19.366 19.38 24.082 30.28 17.846"></polyline>
            <polyline id="Fill-505" fill="#FFFFFE" points="38.38 13.206 30.28 17.846 30.18 30.446 19.38 24.082 11.319 19.339 0.5 25.526 19.32 36.661 19.279 45.911 30.12 39.693 41.04 45.941 41.06 24.209 49.18 19.549 38.38 13.206"></polyline>
            <polygon id="Fill-506" fill="#4D4E4C" points="56.46 43.674 60.91 43.674 60.91 6.953 56.46 6.953"></polygon>
            <path d="M90.379,25.869 L90.379,43.674 L85.93,43.674 L85.93,27.427 C85.93,21.252 82.93,19.193 79.09,19.193 C75.02,19.193 70.46,21.752 70.46,28.874 L70.46,43.674 L66.01,43.674 L66.01,15.855 L69.91,15.855 L70.18,20.194 C72.13,16.689 75.69,15.298 79.53,15.298 C85.479,15.298 90.379,18.692 90.379,25.869" id="Fill-507" fill="#4D4E4C"></path>
            <path d="M119.419,25.869 L119.419,43.674 L114.97,43.674 L114.97,27.427 C114.97,21.252 111.96,19.193 108.12,19.193 C104.06,19.193 99.5,21.752 99.5,28.874 L99.5,43.674 L95.05,43.674 L95.05,15.855 L98.94,15.855 L99.22,20.194 C101.17,16.689 104.729,15.298 108.57,15.298 C114.52,15.298 119.419,18.692 119.419,25.869" id="Fill-508" fill="#4D4E4C"></path>
            <path d="M127.66,29.764 C127.66,36.385 131.05,40.391 136.669,40.391 C142.29,40.391 145.689,36.385 145.689,29.764 C145.689,23.143 142.29,19.137 136.669,19.137 C131.05,19.137 127.66,23.143 127.66,29.764 M150.14,29.764 C150.14,38.777 145.069,44.23 136.669,44.23 C128.27,44.23 123.21,38.777 123.21,29.764 C123.21,20.751 128.27,15.299 136.669,15.299 C145.069,15.299 150.14,20.751 150.14,29.764" id="Fill-509" fill="#4D4E4C"></path>
            <polyline id="Fill-510" fill="#4D4E4C" points="177.859 15.855 166.29 43.674 161.839 43.674 150.26 15.855 155.33 15.855 164.12 39.167 173.19 15.855 177.859 15.855"></polyline>
            <path d="M181.75,27.483 L198.609,27.483 C198,22.364 195.16,19.193 190.43,19.193 C185.48,19.193 182.419,22.253 181.75,27.483 M202.669,31.433 L181.689,31.433 C182.25,37.053 185.649,40.335 190.76,40.335 C194.83,40.335 197.61,38.889 198.609,36.218 L202.339,38.165 C200.22,41.949 196.77,44.23 190.76,44.23 C182.359,44.23 177.3,38.778 177.3,29.764 C177.3,20.751 182.029,15.298 190.43,15.298 C198.5,15.298 202.89,21.14 202.89,28.317 C202.89,29.597 202.78,30.654 202.669,31.433" id="Fill-511" fill="#4D4E4C"></path>
            <path d="M230.81,25.869 L230.81,43.674 L226.359,43.674 L226.359,27.427 C226.359,21.252 223.35,19.193 219.52,19.193 C215.45,19.193 210.89,21.752 210.89,28.874 L210.89,43.674 L206.439,43.674 L206.439,15.855 L210.34,15.855 L210.609,20.194 C212.56,16.689 216.12,15.298 219.96,15.298 C225.91,15.298 230.81,18.692 230.81,25.869" id="Fill-512" fill="#4D4E4C"></path>
            <path d="M253.02,41.726 C251.299,43.284 248.899,44.23 245.839,44.23 C241.73,44.23 238.17,42.171 238.11,36.775 L238.11,19.694 L232.549,19.694 L232.549,15.855 L238.11,15.855 L238.11,9.178 L242.56,7.954 L242.56,15.855 L252.85,15.855 L252.85,19.694 L242.56,19.694 L242.56,35.995 C242.56,38.722 244.29,40.057 246.729,40.057 C248.74,40.057 250.18,39.278 251.46,37.998 L253.02,41.726" id="Fill-513" fill="#4D4E4C"></path>
            <polyline id="Fill-514" fill="#BCD789" points="38.38 0.736 38.38 13.206 19.38 24.082 19.38 11.613 38.38 0.736"></polyline>
            <polyline id="Fill-515" fill="#152236" points="41.04 45.941 30.12 39.693 30.189 30.446 30.189 30.445 30.28 17.846 30.189 30.446 41.06 24.21 41.04 45.941"></polyline>
            <path d="M30.18,30.444 L19.38,24.082 L30.18,30.444 M19.38,24.082 L11.319,19.339 L15.35,21.708 L19.38,24.082" id="Fill-516" fill="#4790C1"></path>
            <polyline id="Fill-517" fill="#4790C1" points="19.32 36.661 19.32 36.661 0.5 25.526 11.319 19.339 19.38 24.082 19.32 36.661"></polyline>
            <polyline id="Fill-518" fill="#8EB3D4" points="19.38 24.082 19.38 24.082 30.28 17.846 19.38 24.082"></polyline>
            <polyline id="Fill-519" fill="#8EB3D4" points="19.38 24.081 15.35 21.708 11.37 19.366 11.37 6.867 19.46 11.565 19.38 11.613 19.38 24.081"></polyline>
            <polyline id="Fill-520" fill="#71A37E" points="19.38 24.082 19.38 11.613 19.46 11.565 30.28 17.846 19.38 24.082"></polyline>
            <polyline id="Fill-521" fill="#4790C1" points="19.38 24.082 15.35 21.708 19.38 24.081 19.38 24.082"></polyline>
            <polyline id="Fill-522" fill="#3F8A77" points="19.38 24.082 19.38 24.081 19.38 24.082"></polyline>
            <polyline id="Fill-523" fill="#707080" points="19.279 45.911 19.32 36.661 30.189 30.447 30.12 39.693 19.279 45.911"></polyline>
            <polyline id="Fill-524" fill="#152236" points="30.12 39.693 30.12 39.693 30.189 30.447 30.189 30.446 30.12 39.693"></polyline>
            <polyline id="Fill-525" fill="#325372" points="30.18 30.446 19.38 24.082 30.18 30.444 30.18 30.446"></polyline>
            <polyline id="Fill-526" fill="#325372" points="19.32 36.661 19.38 24.082 30.18 30.446 30.18 30.444 30.189 30.445 30.189 30.447 19.32 36.661"></polyline>
            <polyline id="Fill-527" fill="#161E33" points="30.189 30.447 30.189 30.445 30.189 30.447"></polyline>
            <polyline id="Fill-528" fill="#91C347" points="41.06 24.21 41.06 24.209 49.18 19.549 41.06 24.21"></polyline>
            <polyline id="Fill-529" fill="#91C347" points="41.06 24.21 41.06 24.041 30.28 17.846 38.38 13.206 49.18 19.549 41.06 24.209 41.06 24.21"></polyline>
            <polyline id="Fill-530" fill="#16221D" points="30.189 30.446 30.28 17.846 41.06 24.041 41.06 24.21 30.189 30.446"></polyline>
        </g>
    </g>
</svg>