<?xml version="1.0" encoding="UTF-8"?>
<svg width="103px" height="103px" viewBox="0 0 103 103" version="1.1" xmlns="http://www.w3.org/2000/svg" xmlns:xlink="http://www.w3.org/1999/xlink">
    <!-- Generator: Sketch 52.6 (67491) - http://www.bohemiancoding.com/sketch -->
    <title>Group</title>
    <desc>Created with Sketch.</desc>
    <g id="Page-1" stroke="none" stroke-width="1" fill="none" fill-rule="evenodd">
        <g id="Group" fill="#FFFFFE">
            <polyline id="Fill-834" points="34.9 20.127 34.9 82.363 79.2 51.243 34.9 20.127"></polyline>
            <path d="M99.4,51.243 L96.3,51.243 C96.3,63.693 91.3,74.933 83.1,83.093 C74.899,91.243 63.7,96.283 51.3,96.283 C38.8,96.283 27.6,91.243 19.399,83.093 C11.3,74.933 6.2,63.693 6.2,51.243 C6.2,38.803 11.3,27.56 19.399,19.4 C27.6,11.245 38.8,6.211 51.3,6.209 C63.7,6.211 74.899,11.245 83.1,19.4 C91.3,27.56 96.3,38.803 96.3,51.243 L102.5,51.243 C102.5,37.103 96.8,24.274 87.5,15.01 C78.2,5.741 65.399,-0.001 51.3,0 C37.1,-0.001 24.3,5.741 15,15.01 C5.8,24.274 0,37.103 0,51.243 C0,65.383 5.8,78.213 15,87.483 C24.3,96.753 37.1,102.493 51.3,102.493 C65.399,102.493 78.2,96.753 87.5,87.483 C96.8,78.213 102.5,65.383 102.5,51.243 L99.4,51.243" id="Fill-836"></path>
        </g>
    </g>
</svg>