<svg width="345" height="320" viewBox="0 0 345 320" xmlns="http://www.w3.org/2000/svg"><title>about-star</title><g fill="none" fill-rule="evenodd"><path fill="#797A76" d="M286.795 319.54l-77.089-44.11.475-65.31-.005-.01.639-88.97-.634 88.98 76.764-44.04-.15 153.46"/><path fill="#46948D" d="M133.432 254.02L.508 175.38l76.464-43.68 56.873 33.48-.413 88.84"/><path d="M133.128 319.34l.304-65.32 76.744-43.9-.47 65.31-76.578 43.91m77.048-109.23l-76.331-44.93 76.331 44.93" fill="#474645"/><path d="M209.706 275.43l.47-65.31h.005l-.475 65.31m.475-65.31l-.005-.01.005.01" fill="#212220"/><path fill="#182828" d="M133.432 254.02l.413-88.84 76.331 44.93v.01l-76.744 43.9"/><path fill="#0F1514" d="M210.176 210.12v-.01l.005.01h-.005"/><path fill="#253924" d="M210.181 210.12l.634-88.98 76.131 43.76-.001 1.18-76.764 44.04"/><path fill="#6C9557" d="M210.815 121.14l-76.378-44.35L268.069.32v88.06l-57.258 32.76"/><path fill="#81B0AC" d="M133.845 165.18l-56.537-33.29V43.61l57.129 33.18-.592.34v88.05l76.966-44.04h.004l-76.97 44.04"/><path fill="#39693F" d="M133.845 165.18V77.13l.592-.34 76.378 44.35-76.97 44.04"/><path fill="#497941" d="M286.945 166.08l.001-1.18-76.131-43.76 57.254-32.76 76.255 44.79-57.379 32.91"/></g></svg>