<svg width="186" height="49" viewBox="0 0 186 49" xmlns="http://www.w3.org/2000/svg"><title>amerisource</title><g fill="#797A76" fill-rule="evenodd"><path d="M14.643 43.64h-2.349l-1.775-5.08H4.232l-1.907 5.08H-.028l6.334-16.59h2.329l6.008 16.59M7.425 29.78l-2.518 6.87h4.939l-2.378-6.87h-.043m23.404 13.86h-1.912v-7.46c0-1.37-.606-2.19-1.953-2.19-1.189 0-2.775.65-2.775 2.33v7.32h-1.91v-7.46c0-1.37-.601-2.19-1.953-2.19-1.194 0-2.773.65-2.773 2.33v7.32h-1.908V32.5h1.77v1.4h.044c.699-.91 1.821-1.68 3.12-1.68 1.215 0 2.632.49 3.24 1.94.792-1.1 2.19-1.94 3.375-1.94 1.818 0 3.635.79 3.635 4.06v7.36m6.324.28c-3.326 0-5.208-2.63-5.208-5.76 0-3.61 1.699-5.94 5.31-5.94 3.497 0 5.191 2.54 5.191 5.83v.43h-8.45c0 2.22 1.166 3.95 3.352 3.95 1.678 0 2.7-.84 3.124-2.5l1.884.23c-.721 2.49-2.608 3.75-5.073 3.75-.044 0-.087.01-.13.01m-.105-10.21c-1.865 0-2.934 1.58-3.052 3.28h6.411c-.237-1.8-1.264-3.28-3.359-3.28m8.431 9.93h-1.911V32.5h1.911v1.91h.045c.908-1.51 2.003-2.04 3.936-2.04v2.09c-.375-.02-.954-.05-1.283-.05-1.837 0-2.698 1.7-2.698 2.99v6.24m5.297 0h1.905V32.5h-1.905zm8.312.27c-2.453 0-4.682-1.11-4.937-3.93l2.046-.26c0 2.08 1.631 2.71 3.171 2.71.883 0 2.486-.28 2.486-1.92 0-2.77-7.263-.69-7.263-5.05 0-2.26 2.215-3.24 4.193-3.24 1.512 0 4.774.77 4.774 3.63l-1.911.26c0-1.63-1.329-2.4-2.77-2.4-1.024 0-2.376.31-2.376 1.66 0 2.51 7.405.72 7.405 5.12 0 2.35-2.401 3.42-4.818 3.42m11.108 0c-3.402 0-5.448-2.47-5.448-5.84 0-3.38 2.046-5.85 5.448-5.85 3.396 0 5.45 2.47 5.45 5.85 0 3.37-2.054 5.84-5.45 5.84m0-10.2c-2.753 0-3.402 2.52-3.402 4.36 0 1.84.649 4.36 3.402 4.36 2.749 0 3.396-2.52 3.396-4.36 0-1.84-.647-4.36-3.396-4.36M80.7 43.91c-2.238 0-3.937-.97-3.937-4.07V32.5h1.909v7.34c0 1.58.979 2.31 2.354 2.31 1.771 0 2.983-1.15 2.983-2.94V32.5h1.903v11.14h-1.903v-1.49h-.048c-.725 1.11-1.82 1.76-3.261 1.76m8.916-.27h-1.908V32.5h1.908v1.91h.045c.915-1.51 2.008-2.04 3.939-2.04v2.09c-.375-.02-.959-.05-1.28-.05-1.841 0-2.704 1.7-2.704 2.99v6.24m9.575.27c-3.591 0-5.547-2.32-5.547-5.73 0-3.44 1.934-5.96 5.523-5.96 2.33 0 4.47 1.22 5.004 3.76l-2.046.2c-.28-1.51-1.42-2.47-2.958-2.47-2.701 0-3.472 2.35-3.472 4.38 0 2.16.908 4.34 3.425 4.34 1.884 0 3.12-1.12 3.189-3.01l2.052.16c-.323 2.7-2.377 4.33-5.17 4.33m11.072.01c-3.322 0-5.205-2.63-5.205-5.76 0-3.61 1.698-5.94 5.311-5.94 3.497 0 5.196 2.54 5.196 5.83v.43h-8.457c0 2.22 1.166 3.95 3.352 3.95 1.676 0 2.702-.84 3.121-2.5l1.888.23c-.725 2.49-2.607 3.75-5.077 3.75-.043 0-.087.01-.129.01m-.102-10.21c-1.868 0-2.938 1.58-3.053 3.28h6.404c-.237-1.8-1.255-3.28-3.351-3.28m15.183 9.93h-8.477V27.05h7.752c4.029 0 5.266 2.33 5.266 4.31 0 1.7-1.048 3.08-2.423 3.49v.05c2.026.49 2.912 2.17 2.912 4.22 0 1.25-.606 4.52-5.03 4.52m-6.29-7.64v5.72h5.896c1.769-.02 3.045-.83 3.045-2.7 0-2.88-1.955-3.02-3.841-3.02h-5.1m0-7.04v5.13h5.055c1.792 0 3.401-.44 3.401-2.64 0-2.49-1.769-2.49-3.426-2.49h-5.03m17.431 14.96c-3.321 0-5.204-2.63-5.204-5.76 0-3.61 1.701-5.94 5.308-5.94 3.495 0 5.196 2.54 5.196 5.83v.43h-8.455c0 2.22 1.165 3.95 3.353 3.95 1.681 0 2.705-.84 3.121-2.5l1.889.23c-.724 2.49-2.61 3.75-5.078 3.75-.043 0-.087.01-.13.01m-.107-10.21c-1.863 0-2.931 1.58-3.048 3.28h6.405c-.23-1.8-1.257-3.28-3.357-3.28m8.434 9.93h-1.91V32.5h1.91v1.91h.048c.907-1.51 1.999-2.04 3.935-2.04v2.09c-.373-.02-.953-.05-1.282-.05-1.839 0-2.701 1.7-2.701 2.99v6.24m9.736 5.21c-2.703 0-5.008-1.14-5.169-4.07h2.044c-.042 1.79 1.403 2.58 3.054 2.58 3.237 0 3.286-2.28 3.286-3.86v-1.59h-.049c-1.049 1.35-2.168 2-3.796 2-1.931 0-5.075-1.11-5.075-5.84 0-3.24 1.606-5.85 5.096-5.85 1.794 0 3.123.72 3.775 1.8l.049.02V32.5h1.911v11.23c0 1.67-.331 5.12-5.126 5.12m-.375-15c-1.954 0-3.42 1.35-3.42 4.22 0 2.33 1.212 4.21 3.42 4.21 2.215 0 3.635-2.03 3.59-4.28-.072-3.08-1.493-4.15-3.59-4.15m11.68 10.07c-3.321 0-5.206-2.63-5.206-5.76 0-3.61 1.702-5.94 5.313-5.94 3.492 0 5.192 2.54 5.192 5.83v.43h-8.453c0 2.22 1.166 3.95 3.354 3.95 1.678 0 2.704-.84 3.118-2.5l1.887.23c-.72 2.49-2.607 3.75-5.075 3.75-.043 0-.087.01-.13.01m-.101-10.21c-1.869 0-2.937 1.58-3.053 3.28h6.405c-.234-1.8-1.259-3.28-3.352-3.28m15.669 9.93h-1.907v-7.16c0-1.9-1.001-2.49-2.352-2.49-1.772 0-2.981 1.15-2.981 2.94v6.71h-1.909V32.5h1.909v1.49h.046c.721-1.11 1.816-1.77 3.262-1.77 2.233 0 3.932.98 3.932 4.08v7.34M52.596 26.69c1.548-1.77 2.622-3.87 3.245-6.07 1.279-5.13-.133-10.4-3.962-13.9-2.989-2.49-5.671-3.66-8.574-3.66-1.626 0-3.32.37-5.176 1.08-.507.2-.988.64-1.476.72 0 0 1.779-2.47 5.045-3.83 1.673-.62 3.189-.85 4.528-.85 2.996 0 5.105 1.16 6.105 1.67 3.965 1.89 7.125 6.37 7.616 10.76.553 5.85-2.278 11.19-7.351 14.08"/><path d="M64.63 26.95H52.575c4.433-1.27 8.666-5.49 9.768-9.98 1.31-5.06-.016-10.28-3.958-13.75h6.245v23.73m-13.07 0H40.829c1.271-1.49 2.249-4.01 2.659-6.98a14.387 14.387 0 0 1 8.072 6.98"/><path d="M51.776 27.01l-.402-1.21c-1.227-3.54-4.167-6.6-7.665-8.18a20.905 20.905 0 0 0-.247-4.14c.104.04.203.09.309.13 5.114 2.38 8.169 7.8 8.005 13.4"/><path d="M51.983 27.01c.599-2.94.504-6.06-.609-8.71-1.412-3.89-4.906-7.1-8.906-8.35-.92-2.28-2.216-3.85-3.457-4.34.635-.09 1.264-.14 1.882-.14 2.133 0 4.148.53 5.939 1.4 5.183 2.6 8.082 8.08 7.442 13.93-.297 2.26-.981 4.39-2.291 6.21m132.272 8.74a1.67 1.67 0 0 1-1.674-1.67 1.676 1.676 0 1 1 1.674 1.67m0-3.09c-.757 0-1.391.64-1.391 1.42 0 .77.634 1.41 1.391 1.41.758 0 1.388-.64 1.388-1.41 0-.78-.63-1.42-1.388-1.42m.844 2.4h-.33l-.542-.85h-.294v.85h-.288v-1.97h.731c.435 0 .649.18.649.55 0 .36-.234.52-.477.56l.551.86m-1.166-1.71v.6h.339c.276 0 .465-.05.465-.31 0-.21-.185-.29-.436-.29h-.368"/></g></svg>