<?xml version="1.0" encoding="UTF-8"?>
<svg width="87px" height="47px" viewBox="0 0 87 47" version="1.1" xmlns="http://www.w3.org/2000/svg" xmlns:xlink="http://www.w3.org/1999/xlink">
    <!-- Generator: Sketch 44.1 (41455) - http://www.bohemiancoding.com/sketch -->
    <title>arrow</title>
    <desc>Created with Sketch.</desc>
    <defs></defs>
    <g id="Page-1" stroke="none" stroke-width="1" fill="none" fill-rule="evenodd">
        <g id="arrow" fill="#799A3F">
            <path d="M1.275,2.39 L50.474,2.39 C57.402,2.39 63.665,5.2 68.207,9.74 C72.747,14.28 75.552,20.54 75.553,27.47 L75.553,31.09 C75.553,31.65 76,32.09 76.553,32.09 C77.105,32.09 77.553,31.65 77.553,31.09 L77.552,27.47 C77.552,12.52 65.428,0.39 50.474,0.39 L1.275,0.39 C0.723,0.39 0.275,0.84 0.275,1.39 C0.275,1.95 0.723,2.39 1.275,2.39" id="Fill-82"></path>
            <polyline id="Fill-83" points="66.081 28.03 76.553 46.16 87.024 28.03 66.081 28.03"></polyline>
        </g>
    </g>
</svg>