<svg width="44" height="75" viewBox="0 0 44 75" xmlns="http://www.w3.org/2000/svg"><title>chess-icon</title><g fill="#46948D" fill-rule="evenodd"><path d="M40.703 65.72h-2.007l.001-6.75-6.851-4.11c-2.831-1.71-4.365-4.72-5.227-7.82-.222-.8-.4-1.62-.542-2.42h.687v-2.01h-.971c-.093-.84-.152-1.65-.188-2.42h.79v-2h-.836c.001-1.36.064-2.47.115-3.14h2.012c-.049.61-.12 1.73-.12 3.16 0 2.33.199 5.46.987 8.3.788 2.85 2.151 5.34 4.324 6.63l7.339 4.41.487.29v7.88m-3.438-30.67H18.403c-.035-.46-.064-.72-.065-.73l-1.993.23s.02.18.046.5h-9.75v-8.61H12.3c-2.908-3.77-4.676-9.17-4.682-15.14v-1h10.637a5.817 5.817 0 0 0 4.066 1.66c1.583 0 3.018-.64 4.065-1.66h9.901v1c-.005 5.97-1.774 11.37-4.679 15.14h5.657v8.61m-28.618-6.6v4.59h26.611v-4.59h-8.326l1.752-1.72c3.145-3.08 5.364-8.35 5.579-14.43H9.644c.216 6.08 2.433 11.35 5.578 14.43l1.751 1.72H8.647"/><path d="M22.321 11.96a5.817 5.817 0 0 1-4.066-1.66 5.807 5.807 0 0 1-1.732-4.14 5.8 5.8 0 0 1 5.798-5.8 5.802 5.802 0 0 1 4.065 9.94 5.816 5.816 0 0 1-4.065 1.66m0-9.59a3.797 3.797 0 0 0-3.793 3.79 3.79 3.79 0 1 0 3.793-3.79M5.38 65.72H3.375v-7.88l.487-.29 7.339-4.41c2.171-1.29 3.534-3.78 4.322-6.63.788-2.84.989-5.97.988-8.3 0-1.43-.071-2.55-.12-3.16-.026-.32-.046-.5-.046-.5l1.993-.23c.001.01.03.27.065.73.051.67.114 1.78.114 3.14h-1.015v2h.969c-.035.77-.094 1.58-.187 2.42h-1.038v2.01H18c-.142.8-.32 1.62-.542 2.42-.863 3.1-2.395 6.11-5.226 7.82L5.38 58.97v6.75M.208 74.7h43.489v-8.98H.208v8.98zm2.005-2.01H41.69v-4.96H2.213v4.96z"/><path d="M17.502 40.19h8.893v-2h-8.893zm-.256 4.43h9.518v-2.01h-9.518z"/></g></svg>