<svg width="64" height="64" viewBox="0 0 64 64" xmlns="http://www.w3.org/2000/svg"><title>circle-icon</title><g fill="#46948D" fill-rule="evenodd"><path d="M32.073 46.21c-7.82 0-14.159-6.34-14.161-14.17.002-7.82 6.341-14.16 14.161-14.16a14.1 14.1 0 0 1 8.138 2.57l-1.313 1.87a11.804 11.804 0 0 0-6.825-2.16c-6.562.01-11.868 5.32-11.879 11.88a11.886 11.886 0 0 0 11.879 11.88A11.883 11.883 0 0 0 43.95 32.04c0-.82-.11-1.61-.26-2.38L41 32.53l-1.684-1.54 5.464-5.89 5.96 5.52-1.54 1.69-3.24-3.03c.17.89.28 1.82.28 2.76 0 7.83-6.344 14.17-14.167 14.17"/><path d="M31.923 55.28c-12.872 0-23.304-10.43-23.306-23.3.002-12.87 10.434-23.31 23.306-23.31 12.867 0 23.307 10.44 23.307 23.31s-10.44 23.3-23.307 23.3m0-44.33c-11.611.03-21.003 9.42-21.024 21.03.021 11.61 9.413 21 21.024 21.02 11.607-.02 20.997-9.41 21.017-21.02-.02-11.61-9.41-21-21.017-21.03"/><path d="M31.923 63.2c-7.119 0-13.673-2.41-18.924-6.42l-.058 3.98h-2.283l.088-8.04 8.12.08-.001 2.29-4.407-.07c4.857 3.69 10.894 5.9 17.465 5.9 6.594 0 12.667-2.2 17.527-5.91h.01l1.38 1.81c-5.25 4-11.812 6.38-18.917 6.38M55.72 52.3l-3.11-7.5 2.1-.89 1.53 3.73c2.92-4.52 4.62-9.88 4.62-15.66 0-8-3.23-15.22-8.47-20.46S39.918 3.04 31.923 3.04c-7.996 0-15.223 3.24-20.464 8.48-5.241 5.24-8.477 12.46-8.477 20.46 0 6.59 2.197 12.65 5.902 17.52l-1.815 1.38A31.113 31.113 0 0 1 .7 31.98C.702 14.74 14.679.76 31.923.76 49.17.76 63.14 14.74 63.14 31.98c0 6.19-1.81 11.95-4.92 16.8l4.03-1.66v.01l.9 2.09-7.43 3.08"/></g></svg>