<svg width="131" height="65" viewBox="0 0 131 65" xmlns="http://www.w3.org/2000/svg"><title>elanco</title><g fill="#797A76" fill-rule="evenodd"><path d="M86.723 33.78c-2.357 0-3.34 7.07-3.34 8.25 0 1.05.361 1.54 1.278 1.54 2.357 0 3.339-7.11 3.339-8.25 0-1.15-.425-1.54-1.277-1.54"/><path d="M83.678 47.57c-3.995 0-6.254-2.2-6.254-6.1 0-4.35 2.357-11.65 10.347-11.65 3.537 0 6.255 1.73 6.255 5.99 0 4.42-2.456 11.76-10.348 11.76zm-12.885 0c-4.715 0-7.008-3.02-5.796-8.71 1.212-5.74 4.683-9.04 9.66-9.04 2.424 0 3.734.62 5.109 1.99l-3.34 3.44c-.491-.68-1.343-1.24-2.129-1.24-1.309 0-2.292 1.05-3.012 4.48-.721 3.44-.655 4.85.982 4.85 1.277 0 2.456-.62 3.406-1.5l1.702 3.34c-2.193 1.8-4.519 2.39-6.582 2.39zm-14.015-.43l2.292-10.81c.295-1.31.132-1.9-.818-1.9-.917 0-1.637.46-2.358 1.58l-2.391 11.13h-5.697l2.259-10.64c.524-2.56.721-4.06.459-5.73l5.043-.95c.131.55.262 1.14.294 1.83 1.31-1.14 3.275-1.83 5.141-1.83 4.225 0 4.65 2.39 4.126 4.84l-2.652 12.48h-5.698zm-13.851.65c-.688-.36-1.179-1.37-1.277-1.99-.753.78-2.423 1.86-4.388 1.86-3.438 0-4.879-2.16-4.879-5.76 0-3.6 1.441-7.33 3.635-9.53 1.932-1.93 3.995-2.55 6.975-2.55 2.324 0 5.206.39 6.45 1.01-.491 1.18-.982 3.21-1.276 4.62l-1.278 6.09c-.131.56-.098 1.74.655 2.55l-4.617 3.7zm-14.678-.22c-4.814 0-4.388-2.49-3.668-5.87l2.456-11.52c.852-3.93.917-5.18.884-6.13l5.927-.98c.066.82-.131 2.56-.491 4.23l-2.685 12.54c-.622 2.98-.688 3.76.589 3.76.197 0 .393-.03.622-.09l.164 3.53c-.818.3-2.226.53-3.798.53zm-6.058-.43H8.503l4.847-22.82h13.262l-1.441 4.81h-6.975l-.819 3.83h5.698l-.982 4.65h-5.697l-.983 4.65h7.826l-1.048 4.88zM.45 23.08l7.471 41.7 122.631-21.69V.25L.45 23.08z"/><path d="M40.045 34.96c-1.211 1.41-1.932 4.71-1.932 6.81 0 1.15.328 1.64 1.114 1.64.688 0 1.866-1.18 1.997-1.74l1.572-7.4c-.196-.16-.491-.23-.688-.23-.425 0-1.244-.03-2.063.92m86.361 11.51h.673v1.81h.305v-1.81h.672v-.27h-1.65v.27m3.131 1.27h-.014l-.489-1.54h-.534v2.08h.305V46.4h.015l.573 1.88h.246l.588-1.88h.013v1.88h.306V46.2h-.55l-.459 1.54"/></g></svg>