<svg width="123" height="57" viewBox="0 0 123 57" xmlns="http://www.w3.org/2000/svg"><title>gnp</title><g fill="none" fill-rule="evenodd"><path fill="#FFF" d="M104.527 48.63l.133.06-.115.08h-.107v-.14h.089m18.472-13.37v1.61c-.325.13-.651.27-.977.39v-1.61c.326-.12.652-.25.977-.39m0-9.04v1.63c-.325.14-.651.28-.977.41v-1.62l.977-.42"/><path d="M115.943 38.99l-.168-.08h-.112v.18h.135l.145-.1zm-.034.27l.214.39h-.225l-.19-.38h-.045v.38h-.225v-.91h.371c.224 0 .359.06.359.26 0 .18-.112.24-.259.26z" fill="#797A76"/><path d="M116.347 39.2c0-.35-.258-.61-.572-.61-.326 0-.584.26-.584.61 0 .34.258.59.584.59.314 0 .572-.25.572-.59zm-.572-.84c.459 0 .83.37.83.84 0 .46-.371.83-.83.83a.83.83 0 0 1-.841-.83c0-.47.37-.84.841-.84z" fill="#797A76"/><path d="M116.123 39.65l-.214-.39c.147-.02.259-.08.259-.26 0-.2-.135-.26-.359-.26h-.371v.91h.225v-.38h.045l.19.38h.225zm-.348-1.06c.314 0 .572.26.572.61 0 .34-.258.59-.572.59a.576.576 0 0 1-.584-.59c0-.35.258-.61.584-.61z" fill="#FFF"/><path fill="#797A76" d="M89.628 38.35v8.54h-2.232l.034-6.56h-.023l-2.176 6.56h-2.109l-2.075-6.56h-.023l.045 6.56h-2.231v-8.54h3.589l1.817 5.68h.023l1.907-5.68h3.454"/><path d="M121.619 46.66V10.37c0-4.57-3.724-8.31-8.311-8.31H10.201c-4.588 0-8.311 3.74-8.311 8.31v36.29c0 4.58 3.723 8.3 8.311 8.3h103.107c4.587 0 8.311-3.72 8.311-8.3zm1.38-9.79v9.79c0 5.34-4.342 9.69-9.691 9.69H10.201C4.851 56.35.51 52 .51 46.66V33.14c.213.1.426.2.639.31v-1.66a18.69 18.69 0 0 0-.639-.31v-7.63c.213.12.426.23.639.33v-1.67c-.213-.11-.426-.21-.639-.34v-11.8C.51 5.03 4.851.68 10.201.68h103.107c5.349 0 9.691 4.35 9.691 9.69v15.85l-.977.42v1.62c.326-.13.652-.27.977-.41v7.41c-.325.14-.651.27-.977.39v1.61c.326-.12.652-.26.977-.39z" fill="#FFF"/><path d="M120.699 46.66V10.37c0-4.07-3.308-7.38-7.391-7.38H10.201c-4.083 0-7.392 3.31-7.392 7.38v36.29c0 4.07 3.309 7.38 7.392 7.38h103.107c4.083 0 7.391-3.31 7.391-7.38zm.92-36.29v36.29c0 4.58-3.724 8.3-8.311 8.3H10.201c-4.588 0-8.311-3.72-8.311-8.3V10.37c0-4.57 3.723-8.31 8.311-8.31h103.107c4.587 0 8.311 3.74 8.311 8.31z" fill="#797A76"/><path d="M119.769 46.66V10.37c0-3.56-2.895-6.46-6.461-6.46H10.201a6.466 6.466 0 0 0-6.461 6.46v36.29c0 3.55 2.894 6.46 6.461 6.46h103.107c3.566 0 6.461-2.91 6.461-6.46zm.93-36.29v36.29c0 4.07-3.308 7.38-7.391 7.38H10.201c-4.083 0-7.392-3.31-7.392-7.38V10.37c0-4.07 3.309-7.38 7.392-7.38h103.107c4.083 0 7.391 3.31 7.391 7.38z" fill="#797A76"/><path d="M118.389 46.66V10.37c0-2.79-2.278-5.07-5.081-5.07H10.201c-2.804 0-5.081 2.28-5.081 5.07v36.29c0 2.79 2.277 5.07 5.081 5.07h103.107c2.803 0 5.081-2.28 5.081-5.07zm1.38-36.29v36.29c0 3.55-2.895 6.46-6.461 6.46H10.201c-3.567 0-6.461-2.91-6.461-6.46V10.37c0-3.56 2.894-6.46 6.461-6.46h103.107c3.566 0 6.461 2.9 6.461 6.46z" fill="#FFF"/><path d="M41.732 21.14c.123-.29.258-.68.112-.93-.157-.25-.561-.34-.684-.34h-7.549l.09-.46.359-1.65.067-.3h.303a3.894 3.894 0 0 0 3.892-3.89c0-1.04-.404-2.02-1.133-2.76a3.897 3.897 0 0 0-2.759-1.13c-1.032 0-2.019.4-2.748 1.13a3.922 3.922 0 0 0-1.144 2.76c0 .75.212 1.47.616 2.1l.135.2-.123.21-2.232 3.61-.113.18H7.711c-.393.07-.65.2-.752.41-.157.29-.011.71.034.82 5.642 9.27 6.035 23.32 6.057 25.79l23.399.09c-.281-15.95 5.238-25.77 5.283-25.84zm6.797 22.02c2.659 0 4.241-1.29 4.241-3.44 0-2.42-1.537-3.52-4.801-3.52H44.57v10.69h2.849v-3.73h1.11zm6.08-22.98v-5.95h-4.431v2.02h1.672v2.11c-.258.12-.628.19-1.01.19-2.086 0-3.578-1.28-3.578-3.38 0-2.49 1.907-3.45 4.217-3.45.673 0 1.717.17 2.603.68l.235-2.32c-1.043-.4-2.535-.48-3.241-.48-3.915 0-6.753 1.55-6.753 5.57 0 4.05 3.298 5.49 6.147 5.49.976 0 2.322-.04 4.139-.48zm0 13.5V22.99h-2.602l.045 7.27h-.034l-3.612-7.27h-3.634v10.69h2.613l-.09-7.3h.034l3.735 7.3h3.545zm6.225 13.21v-8.54h-2.288v3.26h-2.692v-3.26h-2.277v8.54h2.277v-3.65h2.692v3.65h2.288zm1.402-13.21v-1.61h-3.881v-1.93h3.534v-1.63h-3.534v-1.76h3.747v-1.62h-6.035v8.55h6.169zm1.851-17.48c0-2.74-1.469-4.43-4.285-4.43-2.826 0-4.296 1.69-4.296 4.43 0 2.72 1.503 4.42 4.296 4.42 2.794 0 4.285-1.7 4.285-4.42zm-.358 17.48h2.288v-8.55h-2.288v8.55zm6.718 13.21l-3.298-8.54h-2.793l-3.241 8.54h2.31l.674-1.82h3.208l.639 1.82h2.501zm2.872-30.69c0-2.74-1.481-4.43-4.296-4.43-2.815 0-4.285 1.69-4.285 4.43 0 2.72 1.492 4.42 4.285 4.42 2.792 0 4.296-1.7 4.296-4.42zm1.996 17.25v-4.76h-3.544v1.61h1.334V32c-.201.09-.504.14-.807.14-1.66 0-2.849-1.02-2.849-2.7 0-2 1.514-2.77 3.365-2.77.539 0 1.369.15 2.076.56l.19-1.86c-.83-.33-2.019-.38-2.58-.38-3.141 0-5.407 1.23-5.407 4.45 0 3.24 2.625 4.4 4.914 4.4.785 0 1.861-.04 3.308-.39zm2.581 13.44l-.831-2.32c-.426-1.04-.482-1.69-1.211-1.89v-.03c1.099-.25 1.637-1.02 1.637-2.15 0-1.47-1.233-2.15-2.759-2.15h-4.06v8.54h2.276v-3.37h.472c.852 0 1.143.36 1.603 1.83l.495 1.54h2.378zm4.565-30.73c0-3.31-2.087-4.24-5.07-4.24h-3.119v8.56h3.119c2.916 0 5.07-1.12 5.07-4.32zm1.738 17.52v-8.55h-2.288v3.27h-2.692v-3.27h-2.277v8.55h2.277v-3.66h2.692v3.66h2.288zm5.429 13.21v-8.54h-3.454l-1.907 5.68h-.023l-1.817-5.68h-3.589v8.54h2.231l-.045-6.56h.023l2.075 6.56h2.109l2.176-6.56h.023l-.034 6.56h2.232zm2.815-19.59c0-1.47-1.188-2.17-2.781-2.17h-3.937v8.55h3.6c1.537 0 3.343-.43 3.343-2.47 0-1.04-.595-1.66-1.728-1.89v-.03c.955-.31 1.503-.92 1.503-1.99zm6.743 19.59l-3.298-8.54h-2.793l-3.253 8.54h2.321l.673-1.82h3.208l.64 1.82h2.502zm2.725-17.48c0-2.74-1.47-4.42-4.285-4.42-2.815 0-4.296 1.68-4.296 4.42 0 2.72 1.503 4.43 4.296 4.43s4.285-1.71 4.285-4.43zm4.374 17.29l-.112-1.79c-.628.25-1.379.44-2.131.44-1.671 0-2.849-1.01-2.849-2.7 0-1.59 1.043-2.77 2.669-2.77.785 0 1.492.21 2.222.61l.19-1.85c-.83-.25-1.671-.45-2.535-.45-2.827 0-4.913 1.49-4.913 4.46 0 3.23 2.648 4.39 4.924 4.39 1.155 0 1.885-.18 2.535-.34zm3.77-13.02l-.83-2.32c-.438-1.04-.483-1.7-1.223-1.89v-.03c1.11-.25 1.648-1.01 1.648-2.15 0-1.47-1.245-2.16-2.758-2.16h-4.073v8.55h2.278V30.3h.482c.841 0 1.133.37 1.604 1.84l.494 1.54h2.378zm1.738 9.99l3.141-5.32h-2.625l-1.649 3.42-1.682-3.42h-2.625l3.163 5.32v3.22h2.277v-3.22zm4.812-4.47a.83.83 0 0 0-.83-.84.833.833 0 0 0-.841.84c0 .46.37.83.841.83.459 0 .83-.37.83-.83zm1.784-28.83v36.29c0 2.79-2.278 5.07-5.081 5.07H10.201c-2.804 0-5.081-2.28-5.081-5.07V10.37c0-2.79 2.277-5.07 5.081-5.07h103.107c2.803 0 5.081 2.28 5.081 5.07z" fill="#FFF"/><path fill="#797A76" d="M114.934 38.35l-3.141 5.32v3.22h-2.277v-3.22l-3.163-5.32h2.625l1.682 3.42 1.649-3.42h2.625m-7.572-10.66c0-.8-.797-.94-1.66-.94h-.605v1.94h.605c.73 0 1.66-.03 1.66-1zm1.863 3.67l.83 2.32h-2.378l-.494-1.54c-.471-1.47-.763-1.84-1.604-1.84h-.482v3.38h-2.278v-8.55h4.073c1.513 0 2.758.69 2.758 2.16 0 1.14-.538 1.9-1.648 2.15v.03c.74.19.785.85 1.223 1.89zm-3.052 13.55l.112 1.79c-.65.16-1.38.34-2.535.34-2.276 0-4.924-1.16-4.924-4.39 0-2.97 2.086-4.46 4.913-4.46.864 0 1.705.2 2.535.45l-.19 1.85c-.73-.4-1.437-.61-2.222-.61-1.626 0-2.669 1.18-2.669 2.77 0 1.69 1.178 2.7 2.849 2.7.752 0 1.503-.19 2.131-.44"/><path d="M105.702 26.75c.863 0 1.66.14 1.66.94 0 .97-.93 1-1.66 1h-.605v-1.94h.605" fill="#FFF"/><path d="M99.566 29.41c0-1.48-.56-2.74-1.94-2.74-1.391 0-1.94 1.26-1.94 2.74 0 1.41.549 2.73 1.94 2.73 1.38 0 1.94-1.32 1.94-2.73zm-1.94-4.42c2.815 0 4.285 1.68 4.285 4.42 0 2.72-1.492 4.43-4.285 4.43s-4.296-1.71-4.296-4.43c0-2.74 1.481-4.42 4.296-4.42z" fill="#797A76"/><path d="M97.626 26.67c1.38 0 1.94 1.26 1.94 2.74 0 1.41-.56 2.73-1.94 2.73-1.391 0-1.94-1.32-1.94-2.73 0-1.48.549-2.74 1.94-2.74" fill="#FFF"/><path d="M95.506 43.45l-1.021-3.34h-.022l-1.1 3.34h2.143zm.382-5.1l3.298 8.54h-2.502l-.64-1.82h-3.208l-.673 1.82h-2.321l3.253-8.54h2.793z" fill="#797A76"/><path fill="#FFF" d="M94.485 40.11l1.021 3.34h-2.143l1.1-3.34h.022"/><path d="M90.167 27.61c0-.78-.74-.86-1.492-.86h-.662v1.76h.629c.751 0 1.525-.18 1.525-.9zm.224 3.47c0-.93-.897-1.02-1.683-1.02h-.695v2.01h.674c.829 0 1.704-.13 1.704-.99zm-.729-5.95c1.593 0 2.781.7 2.781 2.17 0 1.07-.548 1.68-1.503 1.99v.03c1.133.23 1.728.85 1.728 1.89 0 2.04-1.806 2.47-3.343 2.47h-3.6v-8.55h3.937z" fill="#797A76"/><path d="M88.708 30.06c.786 0 1.683.09 1.683 1.02 0 .86-.875.99-1.704.99h-.674v-2.01h.695m-.033-3.31c.752 0 1.492.08 1.492.86 0 .72-.774.9-1.525.9h-.629v-1.76h.662" fill="#FFF"/><path fill="#797A76" d="M84.199 25.13v8.55h-2.288v-3.66h-2.692v3.66h-2.277v-8.55h2.277v3.27h2.692v-3.27h2.288m-4.094-8.93c0-1.7-.999-2.59-2.669-2.59h-.875v5.17h.875c1.715 0 2.669-.88 2.669-2.58zm-2.714-4.28c2.983 0 5.07.93 5.07 4.24 0 3.2-2.154 4.32-5.07 4.32h-3.119v-8.56h3.119z"/><path d="M77.436 13.61c1.67 0 2.669.89 2.669 2.59 0 1.7-.954 2.58-2.669 2.58h-.875v-5.17h.875" fill="#FFF"/><path d="M75.215 40.9c0-.79-.797-.94-1.672-.94h-.595v1.93h.595c.74 0 1.672-.02 1.672-.99zm1.85 3.67l.831 2.32h-2.378l-.495-1.54c-.46-1.47-.751-1.83-1.603-1.83h-.472v3.37h-2.276v-8.54h4.06c1.526 0 2.759.68 2.759 2.15 0 1.13-.538 1.9-1.637 2.15v.03c.729.2.785.85 1.211 1.89zm-1.75-15.88v4.76c-1.447.35-2.523.39-3.308.39-2.289 0-4.914-1.16-4.914-4.4 0-3.22 2.266-4.45 5.407-4.45.561 0 1.75.05 2.58.38l-.19 1.86a4.406 4.406 0 0 0-2.076-.56c-1.851 0-3.365.77-3.365 2.77 0 1.68 1.189 2.7 2.849 2.7.303 0 .606-.05.807-.14v-1.7h-1.334v-1.61h3.544" fill="#797A76"/><path d="M73.543 39.96c.875 0 1.672.15 1.672.94 0 .97-.932.99-1.672.99h-.595v-1.93h.595" fill="#FFF"/><path d="M70.963 16.2c0-1.49-.549-2.73-1.94-2.73-1.38 0-1.93 1.24-1.93 2.73 0 1.41.55 2.73 1.93 2.73 1.391 0 1.94-1.32 1.94-2.73zm-1.94-4.43c2.815 0 4.296 1.69 4.296 4.43 0 2.72-1.504 4.42-4.296 4.42-2.793 0-4.285-1.7-4.285-4.42 0-2.74 1.47-4.43 4.285-4.43z" fill="#797A76"/><path d="M69.023 13.47c1.391 0 1.94 1.24 1.94 2.73 0 1.41-.549 2.73-1.94 2.73-1.38 0-1.93-1.32-1.93-2.73 0-1.49.55-2.73 1.93-2.73" fill="#FFF"/><path d="M66.768 43.45l-1.009-3.34h-.034l-1.1 3.34h2.143zm.381-5.1l3.298 8.54h-2.501l-.639-1.82h-3.208l-.674 1.82h-2.31l3.241-8.54h2.793z" fill="#797A76"/><path fill="#FFF" d="M65.759 40.11l1.009 3.34h-2.143l1.1-3.34h.034"/><path fill="#797A76" d="M63.729 33.68h2.288v-8.55h-2.288zM61.732 16.2c0-1.49-.55-2.73-1.93-2.73-1.39 0-1.94 1.24-1.94 2.73 0 1.41.55 2.73 1.94 2.73 1.38 0 1.93-1.32 1.93-2.73zm-1.93-4.43c2.816 0 4.285 1.69 4.285 4.43 0 2.72-1.491 4.42-4.285 4.42-2.793 0-4.296-1.7-4.296-4.42 0-2.74 1.47-4.43 4.296-4.43zm2.434 20.3v1.61h-6.169v-8.55h6.035v1.62h-3.747v1.76h3.534v1.63h-3.534v1.93h3.881"/><path d="M59.802 13.47c1.38 0 1.93 1.24 1.93 2.73 0 1.41-.55 2.73-1.93 2.73-1.39 0-1.94-1.32-1.94-2.73 0-1.49.55-2.73 1.94-2.73" fill="#FFF"/><path fill="#797A76" d="M60.834 38.35v8.54h-2.288v-3.65h-2.692v3.65h-2.277v-8.54h2.277v3.26h2.692v-3.26h2.288m-6.225-15.36v10.69h-3.545l-3.735-7.3h-.034l.09 7.3h-2.613V22.99h3.634l3.612 7.27h.034l-.045-7.27h2.602m0-8.76v5.95c-1.817.44-3.163.48-4.139.48-2.849 0-6.147-1.44-6.147-5.49 0-4.02 2.838-5.57 6.753-5.57.706 0 2.198.08 3.241.48l-.235 2.32c-.886-.51-1.93-.68-2.603-.68-2.31 0-4.217.96-4.217 3.45 0 2.1 1.492 3.38 3.578 3.38.382 0 .752-.07 1.01-.19v-2.11h-1.672v-2.02h4.431M49.92 39.66c0-1.08-.785-1.44-1.761-1.44h-.74v2.92h.74c.976 0 1.761-.36 1.761-1.48zm2.85.06c0 2.15-1.582 3.44-4.241 3.44h-1.11v3.73H44.57V36.2h3.399c3.264 0 4.801 1.1 4.801 3.52z"/><path d="M48.159 38.22c.976 0 1.761.36 1.761 1.44 0 1.12-.785 1.48-1.761 1.48h-.74v-2.92h.74" fill="#FFF"/><path d="M36.931 13.5c0-1.38-1.121-2.5-2.513-2.5a2.502 2.502 0 0 0-2.501 2.5c0 .66.258 1.26.662 1.71l-2.21 4.66h1.57l1.246-4.18c.37.2.785.32 1.233.32a2.506 2.506 0 0 0 2.513-2.51zm2.356 7.89H9.663c-.236 0 1.099 2.81 2.703 8.4 1.593 5.6 2.356 15.42 2.356 15.42h20.089s.225-6.85 1.38-12.89c1.077-5.67 3.096-10.93 3.096-10.93zm2.557-1.18c.146.25.011.64-.112.93-.045.07-5.564 9.89-5.283 25.84l-23.399-.09c-.022-2.47-.415-16.52-6.057-25.79-.045-.11-.191-.53-.034-.82.102-.21.359-.34.752-.41h21.11l.113-.18 2.232-3.61.123-.21-.135-.2a3.867 3.867 0 0 1-.616-2.1c0-1.04.415-2.02 1.144-2.76a3.871 3.871 0 0 1 2.748-1.13c1.043 0 2.019.4 2.759 1.13a3.912 3.912 0 0 1 1.133 2.76c0 2.14-1.739 3.89-3.892 3.89h-.303l-.067.3-.359 1.65-.09.46h7.549c.123 0 .527.09.684.34z" fill="#797A76"/><path d="M28.63 35.69l2.738-3.76-.674-.52-2.613 3.49-.37-.47c-.718-.91-.931-1.14-1.784-1.83l-.639-.52.774-.27c2.344-.81 3.287-1.7 3.287-3.44 0-1.05-.528-2.2-1.559-2.87-.887-.58-1.852-.68-4.14-.68h-5.171v.71c.606.15.909.35.909 1.17l-.056 10.4c-.022.11-.045.2-.079.28a.743.743 0 0 1-.292.33c-.111.06-.235.11-.381.17l-.269.09v.76h4.375v-.75c-.864-.14-.976-.6-.976-1.51V32.1h.459c.842 0 1.223.19 1.885 1 1.009 1.2 1.548 2.2 2.232 3.74l.101.24-3.522 4.79.673.49 3.377-4.42.37.28c.101.09.145.14.213.18.044.05.112.1.247.22l.145.1.157.01h3.006v-.72c-.998-.21-1.447-.7-2.265-2.06l-.158-.26zM9.663 21.39h29.624s-2.019 5.26-3.096 10.93c-1.155 6.04-1.38 12.89-1.38 12.89H14.722s-.763-9.82-2.356-15.42c-1.604-5.59-2.939-8.4-2.703-8.4zM34.418 11a2.504 2.504 0 1 1 0 5.01c-.448 0-.863-.12-1.233-.32l-1.246 4.18h-1.57l2.21-4.66a2.56 2.56 0 0 1-.662-1.71c0-1.38 1.122-2.5 2.501-2.5" fill="#FFF"/><path d="M23.269 31.17c2.053 0 3.387-.94 3.387-2.73 0-2.31-1.85-2.71-4.475-2.71h-.46v5.38l.426.02c.437.04.853.04 1.122.04zm8.099.76l-2.738 3.76.158.26c.818 1.36 1.267 1.85 2.265 2.06v.72h-3.006l-.157-.01-.145-.1c-.135-.12-.203-.17-.247-.22-.068-.04-.112-.09-.213-.18l-.37-.28-3.377 4.42-.673-.49 3.522-4.79-.101-.24c-.684-1.54-1.223-2.54-2.232-3.74-.662-.81-1.043-1-1.885-1h-.459v4.37c0 .91.112 1.37.976 1.51v.75h-4.375v-.76l.269-.09c.146-.06.27-.11.381-.17a.743.743 0 0 0 .292-.33c.034-.08.057-.17.079-.28l.056-10.4c0-.82-.303-1.02-.909-1.17v-.71h5.171c2.288 0 3.253.1 4.14.68a3.47 3.47 0 0 1 1.559 2.87c0 1.74-.943 2.63-3.287 3.44l-.774.27.639.52c.853.69 1.066.92 1.784 1.83l.37.47 2.613-3.49.674.52z" fill="#797A76"/><path d="M26.656 28.44c0 1.79-1.334 2.73-3.387 2.73-.269 0-.685 0-1.122-.04l-.426-.02v-5.38h.46c2.625 0 4.475.4 4.475 2.71M1.149 31.79v1.66c-.213-.11-.426-.21-.639-.31v-1.66c.213.1.426.2.639.31m0-9.28v1.67c-.213-.1-.426-.21-.639-.33v-1.68c.213.13.426.23.639.34" fill="#FFF"/></g></svg>