<svg viewBox="0 0 1397 642" xmlns="http://www.w3.org/2000/svg" xmlns:xlink="http://www.w3.org/1999/xlink"><title>hero</title><defs><path id="a" d="M0 0h1398v642H0z"/></defs><g fill="none" fill-rule="evenodd"><mask id="b" fill="#fff"><use xlink:href="#a"/></mask><g mask="url(#b)"><path d="M0 268h980.298v79h83.94v-79H1397v374H-1V459h1V268z" fill="#FFF"/><path fill="#80A240" fill-rule="nonzero" d="M470.672 539.095l156.684 89.383 182.626-105.783.998-179.365z"/><path d="M0 264.947L461.275.66l-2.637 170.889L0 435.154V264.947z" fill="#008D97" fill-rule="nonzero"/><path fill="#013833" fill-rule="nonzero" d="M903.827 527.53l.554-170.528 461.801-264.587-2.636 170.89z"/><path fill="#449E9D" fill-rule="nonzero" d="M275.082 277.212l114.522 66.615-114.508 65.887z"/><path fill="#1E8049" fill-rule="nonzero" d="M598.708 219.874l212.202 123.43-212.18 122.08z"/><path fill="#013E45" fill-rule="nonzero" d="M810.913 343.312l-212.2-123.43 212.18-122.08z"/><path fill="#008A80" fill-rule="nonzero" d="M810.904 204.58l178.443 103.833-178.66 102.798z"/><path fill="#449E9D" fill-rule="nonzero" d="M989.623 308.521l-178.681-103.93 178.661-102.797z"/><path fill="#013E45" fill-rule="nonzero" d="M484.337 398.763l114.522 66.614-114.505 65.852z"/><path fill="#8CB9AE" fill-rule="nonzero" d="M810.893 97.806l91.012 54.473-90.986 52.35z"/><path fill="#013833" fill-rule="nonzero" d="M598.813 465.35L275.065 277.2 598.64 90.862z"/><path fill="#03474F" fill-rule="nonzero" d="M502.094 473.48l-105.79-61.482 105.734-60.89z"/><path fill="#E06A2D" fill-rule="nonzero" d="M1185.215 366.173l-.332 198.106L1397 440.322v-195.83z"/></g></g></svg>