<?xml version="1.0" encoding="UTF-8"?>
<svg viewBox="0 0 1397 642" version="1.1" xmlns="http://www.w3.org/2000/svg" xmlns:xlink="http://www.w3.org/1999/xlink">
    <!-- Generator: Sketch 44.1 (41455) - http://www.bohemiancoding.com/sketch -->
    <title>hero</title>
    <desc>Created with Sketch.</desc>
    <defs>
        <rect id="path-1" x="0" y="0" width="1398" height="642"></rect>
    </defs>
    <g id="Page-1" stroke="none" stroke-width="1" fill="none" fill-rule="evenodd">
        <g id="hero">
            <mask id="mask-2" fill="white">
                <use xlink:href="#path-1"></use>
            </mask>
            <g id="Rectangle-4"></g>
            <g mask="url(#mask-2)">
                <g transform="translate(-1.000000, 0.000000)">
                    <path d="M1,268 L981.29807,268 L981.29807,347 L1065.23803,347 L1065.23803,268 L1398,268 L1398,642 L0,642 L0,459 L1,459 L1,268 Z" id="Combined-Shape" fill="#FFFFFF" fill-rule="evenodd"></path>
                    <polygon id="Fill-9" fill="#80A240" fill-rule="nonzero" points="471.6719 539.0954 628.3559 628.4784 810.9819 522.6954 811.9799 343.3304"></polygon>
                    <path d="M1,264.94686 L462.2754,0.661 L459.6384,171.55 L1,435.154495 L1,264.94686 Z" id="Combined-Shape" fill="#008D97" fill-rule="nonzero"></path>
                    <polygon id="Fill-11" fill="#013833" fill-rule="nonzero" points="904.8271 527.5294 905.3811 357.0024 1367.1821 92.4154 1364.5461 263.3044"></polygon>
                    <polygon id="Fill-12" fill="#449E9D" fill-rule="nonzero" points="276.0825 277.2125 390.6045 343.8265 276.0955 409.7135"></polygon>
                    <polygon id="Fill-13" fill="#1E8049" fill-rule="nonzero" points="599.7085 219.8742 811.9095 343.3042 599.7295 465.3832"></polygon>
                    <polygon id="Fill-14" fill="#013E45" fill-rule="nonzero" points="811.9131 343.3117 599.7121 219.8827 811.8921 97.8027"></polygon>
                    <polygon id="Fill-15" fill="#008A80" fill-rule="nonzero" points="811.9043 204.5795 990.3473 308.4135 811.6863 411.2105"></polygon>
                    <polygon id="Fill-16" fill="#449E9D" fill-rule="nonzero" points="990.623 308.5211 811.942 204.5911 990.603 101.7941"></polygon>
                    <polygon id="Fill-17" fill="#013E45" fill-rule="nonzero" points="485.3369 398.7628 599.8589 465.3768 485.3539 531.2288"></polygon>
                    <polygon id="Fill-18" fill="#8CB9AE" fill-rule="nonzero" points="811.8926 97.8063 902.9046 152.2793 811.9186 204.6283"></polygon>
                    <polygon id="Fill-19" fill="#013833" fill-rule="nonzero" points="599.8125 465.3507 276.0645 277.1987 599.6415 90.8617"></polygon>
                    <polygon id="Fill-20" fill="#03474F" fill-rule="nonzero" points="503.0937 473.4796 397.3047 411.9976 503.0377 351.1086"></polygon>
                    <polygon id="Fill-21" fill="#E06A2D" fill-rule="nonzero" points="1186.2152 366.1725 1185.8832 564.2785 1398.0002 440.3215 1398.0002 244.4915"></polygon>
                </g>
            </g>
        </g>
    </g>
</svg>
