<svg width="70" height="67" viewBox="0 0 70 67" xmlns="http://www.w3.org/2000/svg"><title>ifpw</title><g fill="#797A76" fill-rule="evenodd"><path d="M3.07.96L1.038 2.98.949 36.93h10.81V.96H3.07m37.506 14.87H26.312v-3.95h14.264V.96H15.409v36.06h10.81V26.57h14.357V15.83m16.634-.05h-2.522v-3.89h2.522c1.069 0 1.944.88 1.944 1.95 0 1.07-.875 1.94-1.944 1.94zm11.872 4.42l.007-.04h-.002V8.35h.001V3.86l-.001-.01v-.21l.001-.01v-.05l-.001-.03v-.02h-.002c-.088-1.41-1.261-2.48-2.687-2.48H43.834l.267 35.71h10.631V26.57h11.785l.008-.01a2.7 2.7 0 0 0 2.554-2.52h.003v-.05l.006-.12-.006-.12V20.2z"/><path d="M58.011 29.93v20.53l.005.09v2.8c0 .9-.732 1.63-1.625 1.63h-.308a1.63 1.63 0 0 1-1.625-1.63v-2.8l.009-.17v-9.9H43.834v9.88l.008.14v2.9c0 .87-.711 1.58-1.58 1.58h-.205c-.869 0-1.58-.71-1.58-1.58v-.02h-.008l.008-2.06v-.82l.002-.06.077-20.42H29.303l.083 30.69h-.004v3.2l2.078 2.08h15.446l2.138-2.14 1.974 1.97h15.981l1.91-1.92V29.93H58.011M22.189 52.79c.029-1.73-.18-3.45-.625-5.09.655-.42 1.282-.89 1.876-1.4a11.945 11.945 0 0 1 1.869 6.43l-.002.06h-3.118zm-.695 4.84c.373-1.37.596-2.75.67-4.13h3.117a11.923 11.923 0 0 1-1.667 5.38c-.684-.47-1.392-.89-2.12-1.25zm-1.825 4.45c.212.12.419.25.624.39-.436.31-.893.59-1.369.84.264-.41.513-.82.745-1.23zm-2.611-1.17c.679.21 1.345.49 1.989.82-.412.74-.877 1.45-1.394 2.14-.911.35-1.875.58-2.877.68a16.855 16.855 0 0 0 2.282-3.64zm-3.499 3.71l-.14-.01v-4.28c.987 0 1.977.13 2.946.38a16.25 16.25 0 0 1-2.575 3.9l-.231.01zm-8.775-5.48c.379 1 .855 1.96 1.426 2.86a11.847 11.847 0 0 1-2.185-2.32c.248-.19.501-.37.759-.54zM3.687 53.5c.048 1.69.334 3.36.853 4.94-.311.21-.614.42-.912.64a11.87 11.87 0 0 1-1.793-5.58h1.852zm.608-5.26c-.395 1.5-.599 3.03-.614 4.55H1.81l-.002-.06c0-1.89.435-3.67 1.208-5.25.418.27.844.52 1.279.76zm5.23-3.65a12.86 12.86 0 0 1-2.461-1.08c.24-.39.496-.78.767-1.16a11.624 11.624 0 0 1 4.034-1.38 17.817 17.817 0 0 0-2.34 3.62zm10.018-1.5a14.62 14.62 0 0 0-.652-.95c.367.19.723.4 1.067.62-.136.11-.274.22-.415.33zm-1.416 5.53a19.423 19.423 0 0 0-1.184-3.37c.842-.29 1.638-.67 2.38-1.15.591 1.04 1.06 2.14 1.408 3.28-.827.49-1.698.91-2.604 1.24zm.313 7.81c.164-.97.251-1.94.263-2.93h2.75a18.721 18.721 0 0 1-.611 3.81c-.781-.35-1.584-.65-2.402-.88zm-.135.7c.797.23 1.577.53 2.337.88a19.267 19.267 0 0 1-1.259 3.09c-.66-.34-1.342-.62-2.039-.85.416-1.01.736-2.05.961-3.12zm-4.886-.66c1.423-.02 2.831.14 4.199.48-.222 1.06-.542 2.1-.961 3.1a12.291 12.291 0 0 0-3.238-.43v-3.15zm-5.169.93c.258 1.01.601 2.01 1.029 2.97-.868.33-1.686.77-2.44 1.3-.585-.92-1.065-1.9-1.441-2.92.903-.55 1.857-1 2.852-1.35zm-.567-3.9c.043 1.07.177 2.14.403 3.2-1.019.35-1.997.81-2.924 1.36-.463-1.46-.719-3-.766-4.56h3.287zm.228-3.81a18.964 18.964 0 0 0-.245 3.1H4.391c.015-1.41.199-2.82.551-4.22.96.47 1.954.84 2.969 1.12zm.13-.7c-.996-.28-1.968-.66-2.906-1.12.379-1.28.903-2.54 1.572-3.74.807.46 1.65.83 2.517 1.11-.53 1.21-.924 2.47-1.183 3.75zm4.665-3.12v3.74c-1.346.01-2.679-.14-3.976-.44.255-1.28.649-2.53 1.182-3.72.918.24 1.856.38 2.794.42zm0-.72c-.834-.03-1.666-.15-2.484-.36a17.104 17.104 0 0 1 2.484-3.71v4.07zm1.413-.03a8.21 8.21 0 0 1-.7.04v-4.07a18.598 18.598 0 0 1 2.518 3.72c-.589.15-1.196.26-1.818.31zm-.154 4.43c-.182.01-.364.03-.546.04v-3.72c.255 0 .509-.01.762-.04.712-.06 1.405-.19 2.075-.37.512 1.1.91 2.24 1.195 3.39-1.118.36-2.285.59-3.486.7zm-.546 3.24V50.3c.203-.01.405-.02.608-.04 1.233-.11 2.432-.35 3.583-.71.222 1.07.347 2.16.376 3.24h-4.567zm0 .71h4.573c-.011.92-.091 1.84-.241 2.75a17.012 17.012 0 0 0-4.332-.49V53.5zm-.713 0v2.29c-.176 0-.352.02-.527.03-1.173.1-2.315.33-3.413.66-.206-.98-.33-1.98-.372-2.98h4.312zm-4.103-3.63c1.28.3 2.592.45 3.919.45h.184v2.47H8.377c-.003-.98.072-1.95.226-2.92zm4.103 10.48v4.11a17.475 17.475 0 0 1-2.443-3.67c.703-.21 1.436-.36 2.19-.42l.253-.02zm-.314-.69c-.841.07-1.656.24-2.438.48-.431-.96-.772-1.96-1.027-2.97 1.066-.32 2.175-.54 3.313-.64l.466-.03v3.14c-.104.01-.21.01-.314.02zm9.087-6.87h-2.782a19.26 19.26 0 0 0-.409-3.47c.917-.33 1.801-.74 2.643-1.23.391 1.52.576 3.1.548 4.7zm1.558-7.08c-.534.46-1.097.89-1.683 1.28a16.627 16.627 0 0 0-1.441-3.29 9.7 9.7 0 0 0 .648-.52c.945.71 1.78 1.57 2.476 2.53zm-5.562-4.19c.549.62 1.044 1.28 1.481 1.97-.723.47-1.502.84-2.325 1.11a19.587 19.587 0 0 0-2.474-3.74c1.158.06 2.272.29 3.318.66zM5.956 43.67l.142.09a19.118 19.118 0 0 0-1.605 3.77 18.21 18.21 0 0 1-1.144-.68 11.801 11.801 0 0 1 2.607-3.18zm1.975 19.5c-.244-.3-.476-.6-.696-.91a10.32 10.32 0 0 1 2.348-1.24 18.082 18.082 0 0 0 2.215 3.46 11.62 11.62 0 0 1-3.867-1.31zm12.963-1.16c-.29-.2-.586-.39-.888-.56.521-1.02.949-2.06 1.283-3.13.665.34 1.313.73 1.939 1.16a11.71 11.71 0 0 1-2.334 2.53zM16.768 39.8l-.018-.02-.015.02H.789v22l-.11.13.11.09v4.05H26.17V39.8h-9.402z"/></g></svg>