<?xml version="1.0" encoding="UTF-8"?>
<svg width="27px" height="27px" viewBox="0 0 27 27" version="1.1" xmlns="http://www.w3.org/2000/svg" xmlns:xlink="http://www.w3.org/1999/xlink">
    <!-- Generator: Sketch 44.1 (41455) - http://www.bohemiancoding.com/sketch -->
    <title>instagram</title>
    <desc>Created with Sketch.</desc>
    <defs></defs>
    <g id="Page-1" stroke="none" stroke-width="1" fill="none" fill-rule="evenodd">
        <g id="001_INV_17_Website_r3" transform="translate(-913.000000, -4032.000000)" fill="#85B8B8">
            <g id="Group-208" transform="translate(741.000000, 3185.600000)">
                <g id="instagram" transform="translate(172.000000, 846.000000)">
                    <path d="M13.415,0.9357 C9.925,0.9357 9.487,0.9507 8.116,1.0127 C6.749,1.0757 5.814,1.2927 4.997,1.6097 C4.152,1.9387 3.436,2.3777 2.722,3.0927 C2.007,3.8067 1.567,4.5237 1.239,5.3687 C0.921,6.1857 0.704,7.1197 0.642,8.4877 C0.579,9.8587 0.564,10.2957 0.564,13.7867 C0.564,17.2757 0.579,17.7137 0.642,19.0847 C0.704,20.4527 0.921,21.3867 1.239,22.2037 C1.567,23.0487 2.007,23.7657 2.722,24.4797 C3.436,25.1947 4.152,25.6337 4.997,25.9617 C5.814,26.2797 6.749,26.4967 8.116,26.5597 C9.487,26.6217 9.925,26.6367 13.415,26.6367 C16.905,26.6367 17.343,26.6217 18.713,26.5597 C20.081,26.4967 21.016,26.2797 21.833,25.9617 C22.678,25.6337 23.394,25.1947 24.108,24.4797 C24.823,23.7657 25.263,23.0487 25.591,22.2037 C25.908,21.3867 26.126,20.4527 26.188,19.0847 C26.251,17.7137 26.266,17.2757 26.266,13.7867 C26.266,10.2957 26.251,9.8587 26.188,8.4877 C26.126,7.1197 25.908,6.1857 25.591,5.3687 C25.263,4.5237 24.823,3.8067 24.108,3.0927 C23.394,2.3777 22.678,1.9387 21.833,1.6097 C21.016,1.2927 20.081,1.0757 18.713,1.0127 C17.343,0.9507 16.905,0.9357 13.415,0.9357 M13.415,3.2507 C16.847,3.2507 17.253,3.2637 18.607,3.3257 C19.86,3.3827 20.541,3.5927 20.994,3.7687 C21.594,4.0017 22.021,4.2797 22.472,4.7297 C22.921,5.1797 23.199,5.6077 23.433,6.2067 C23.608,6.6597 23.818,7.3407 23.875,8.5937 C23.937,9.9487 23.95,10.3547 23.95,13.7867 C23.95,17.2177 23.937,17.6237 23.875,18.9787 C23.818,20.2317 23.608,20.9127 23.433,21.3647 C23.199,21.9647 22.921,22.3927 22.472,22.8427 C22.021,23.2917 21.594,23.5707 20.994,23.8037 C20.541,23.9797 19.86,24.1887 18.607,24.2467 C17.253,24.3087 16.847,24.3217 13.415,24.3217 C9.983,24.3217 9.577,24.3087 8.223,24.2467 C6.97,24.1887 6.289,23.9797 5.836,23.8037 C5.236,23.5707 4.809,23.2917 4.358,22.8427 C3.909,22.3927 3.63,21.9647 3.397,21.3647 C3.222,20.9127 3.012,20.2317 2.955,18.9787 C2.893,17.6237 2.88,17.2177 2.88,13.7867 C2.88,10.3547 2.893,9.9487 2.955,8.5937 C3.012,7.3407 3.222,6.6597 3.397,6.2067 C3.63,5.6077 3.909,5.1797 4.358,4.7297 C4.809,4.2797 5.236,4.0017 5.836,3.7687 C6.289,3.5927 6.97,3.3827 8.223,3.3257 C9.577,3.2637 9.983,3.2507 13.415,3.2507" id="Fill-205"></path>
                    <path d="M13.415,18.0695 C11.049,18.0695 9.132,16.1525 9.132,13.7865 C9.132,11.4205 11.049,9.5025 13.415,9.5025 C15.78,9.5025 17.698,11.4205 17.698,13.7865 C17.698,16.1525 15.78,18.0695 13.415,18.0695 M13.415,7.1875 C9.77,7.1875 6.816,10.1415 6.816,13.7865 C6.816,17.4305 9.77,20.3845 13.415,20.3845 C17.06,20.3845 20.014,17.4305 20.014,13.7865 C20.014,10.1415 17.06,7.1875 13.415,7.1875" id="Fill-206"></path>
                    <path d="M21.8164,6.9264 C21.8164,7.7784 21.1264,8.4684 20.2744,8.4684 C19.4224,8.4684 18.7324,7.7784 18.7324,6.9264 C18.7324,6.0744 19.4224,5.3844 20.2744,5.3844 C21.1264,5.3844 21.8164,6.0744 21.8164,6.9264" id="Fill-207"></path>
                </g>
            </g>
        </g>
    </g>
</svg>