<svg width="27" height="27" viewBox="0 0 27 27" xmlns="http://www.w3.org/2000/svg"><title>instagram</title><g fill="#85B8B8" fill-rule="evenodd"><path d="M13.415.536c-3.49 0-3.928.015-5.299.077-1.367.063-2.302.28-3.119.597a6.294 6.294 0 0 0-2.275 1.483 6.285 6.285 0 0 0-1.483 2.276c-.318.817-.535 1.75-.597 3.119-.063 1.37-.078 1.808-.078 5.299 0 3.489.015 3.927.078 5.298.062 1.368.279 2.302.597 3.119a6.285 6.285 0 0 0 1.483 2.276 6.278 6.278 0 0 0 2.275 1.482c.817.318 1.752.535 3.119.598 1.371.062 1.809.077 5.299.077s3.928-.015 5.298-.077c1.368-.063 2.303-.28 3.12-.598a6.278 6.278 0 0 0 2.275-1.482 6.285 6.285 0 0 0 1.483-2.276c.317-.817.535-1.751.597-3.12.063-1.37.078-1.808.078-5.297 0-3.491-.015-3.928-.078-5.3-.062-1.367-.28-2.301-.597-3.118a6.285 6.285 0 0 0-1.483-2.276 6.294 6.294 0 0 0-2.275-1.483c-.817-.317-1.752-.534-3.12-.597-1.37-.062-1.808-.077-5.298-.077m0 2.315c3.432 0 3.838.013 5.192.075 1.253.057 1.934.267 2.387.443.6.233 1.027.51 1.478.96.449.45.727.879.961 1.478.175.453.385 1.134.442 2.387.062 1.355.075 1.76.075 5.193 0 3.43-.013 3.837-.075 5.192-.057 1.253-.267 1.934-.442 2.386a4.003 4.003 0 0 1-.961 1.478 3.999 3.999 0 0 1-1.478.96c-.453.177-1.134.386-2.387.444-1.354.062-1.76.075-5.192.075-3.432 0-3.838-.013-5.192-.075-1.253-.058-1.934-.267-2.387-.443a3.999 3.999 0 0 1-1.478-.961 3.99 3.99 0 0 1-.961-1.478c-.175-.452-.385-1.133-.442-2.386-.062-1.355-.075-1.761-.075-5.192 0-3.432.013-3.838.075-5.193.057-1.253.267-1.934.442-2.387a3.995 3.995 0 0 1 .961-1.477c.451-.45.878-.728 1.478-.961.453-.176 1.134-.386 2.387-.443 1.354-.062 1.76-.075 5.192-.075"/><path d="M13.415 17.67a4.283 4.283 0 1 1 0-8.568 4.283 4.283 0 0 1 0 8.567m0-10.882a6.598 6.598 0 1 0 0 13.197 6.598 6.598 0 1 0 0-13.197m8.401-.261a1.542 1.542 0 1 1-3.083.001 1.542 1.542 0 0 1 3.083 0"/></g></svg>