<svg width="51" height="79" viewBox="0 0 51 79" xmlns="http://www.w3.org/2000/svg"><title>light-icon</title><path d="M30.962 78.56H19.683v-5.93h-4.702v-4.51h-2.637v-2.25h2.637v-3.95h-2.637v-2.26h2.637v-3.95h-2.637v-2.25h2.637v-5.01C6.327 44.52.31 35.8.309 25.67.309 11.85 11.507.66 25.322.66c13.816 0 25.014 11.19 25.014 25.01 0 10.13-6.018 18.85-14.672 22.78v5.01h2.637v2.25h-2.637v3.95h2.637v2.26h-2.637v3.95h2.637v2.25h-2.637v4.51h-4.702v5.93zm-9.03-2.25h6.78v-3.68h-6.78v3.68zm-4.701-5.92h16.181v-2.27H17.231v2.27zm0-4.52h16.181v-3.95H17.231v3.95zm0-6.21h16.181v-3.95H17.231v3.95zM35.079 18.1l1.592 1.59-7.291 7.29v26.48h4.032v-6.49l.692-.29c8.21-3.44 13.981-11.55 13.981-21.01 0-6.29-2.546-11.97-6.668-16.1a22.676 22.676 0 0 0-16.095-6.66A22.682 22.682 0 0 0 9.226 9.57c-4.121 4.13-6.668 9.81-6.668 16.1-.002 9.46 5.771 17.57 13.984 21.01l.69.29-.001 6.49h4.54V26.98l-7.288-7.28 1.59-1.6 7.947 7.95v27.41h3.111V26.05l7.948-7.95z" fill="#46948D" fill-rule="evenodd"/></svg>