<?xml version="1.0" encoding="UTF-8"?>
<svg width="23px" height="21px" viewBox="0 0 23 21" version="1.1" xmlns="http://www.w3.org/2000/svg" xmlns:xlink="http://www.w3.org/1999/xlink">
    <!-- Generator: Sketch 44.1 (41455) - http://www.bohemiancoding.com/sketch -->
    <title>linkedin</title>
    <desc>Created with Sketch.</desc>
    <defs></defs>
    <g id="Page-1" stroke="none" stroke-width="1" fill="none" fill-rule="evenodd">
        <g id="001_INV_17_Website_r3" transform="translate(-794.000000, -4035.000000)" fill="#85B8B8">
            <g id="Group-208" transform="translate(741.000000, 3185.600000)">
                <path d="M75.0522,869.9723 L70.4802,869.9723 L70.4802,862.6153 C70.4802,860.7693 69.8222,859.5093 68.1672,859.5093 C66.9062,859.5093 66.1522,860.3603 65.8212,861.1813 C65.7022,861.4763 65.6722,861.8853 65.6722,862.2943 L65.6722,869.9723 L61.1042,869.9723 C61.1042,869.9723 61.1632,857.5163 61.1042,856.2263 L65.6722,856.2263 L65.6722,858.1733 C66.2792,857.2403 67.3602,855.9033 69.7882,855.9033 C72.7952,855.9033 75.0522,857.8673 75.0522,862.0913 L75.0522,869.9723 Z M56.2912,854.3523 L56.2622,854.3523 C54.7282,854.3523 53.7342,853.2953 53.7342,851.9733 C53.7342,850.6303 54.7572,849.6003 56.3182,849.6003 C57.8862,849.6003 58.8452,850.6303 58.8742,851.9733 C58.8742,853.2953 57.8862,854.3523 56.2912,854.3523 L56.2912,854.3523 Z M54.0062,869.9713 L58.5782,869.9713 L58.5782,856.2263 L54.0062,856.2263 L54.0062,869.9713 Z" id="linkedin"></path>
            </g>
        </g>
    </g>
</svg>