<svg width="23" height="21" viewBox="0 0 23 21" xmlns="http://www.w3.org/2000/svg"><title>linkedin</title><path d="M22.052 20.572H17.48v-7.357c0-1.846-.658-3.106-2.313-3.106-1.26 0-2.015.851-2.346 1.672-.119.295-.149.704-.149 1.113v7.678H8.104s.06-12.456 0-13.746h4.568v1.947c.607-.933 1.688-2.27 4.116-2.27 3.007 0 5.264 1.964 5.264 6.188v7.881zM3.292 4.952h-.03C1.728 4.952.734 3.895.734 2.573.734 1.23 1.757.2 3.318.2c1.568 0 2.527 1.03 2.556 2.373 0 1.322-.988 2.38-2.583 2.38zm-2.286 15.62h4.572V6.825H1.006V20.57z" fill="#85B8B8" fill-rule="evenodd"/></svg>