<?xml version="1.0" encoding="UTF-8"?>
<svg width="251px" height="44px" viewBox="0 0 251 44" version="1.1" xmlns="http://www.w3.org/2000/svg" xmlns:xlink="http://www.w3.org/1999/xlink">
    <!-- Generator: Sketch 44.1 (41455) - http://www.bohemiancoding.com/sketch -->
    <title>logo</title>
    <desc>Created with Sketch.</desc>
    <defs></defs>
    <g id="Page-1" stroke="none" stroke-width="1" fill="none" fill-rule="evenodd">
        <g id="logo" transform="translate(-88.000000, -51.000000)" fill="#FFFFFF">
            <g transform="translate(88.000000, 51.000000)">
                <g id="mark">
                    <path d="M28.2681,36.3276 L37.6241,41.8586 L37.6831,22.3956 L28.2811,16.8706 L28.2681,36.3276 Z M38.1811,42.8366 L27.7091,36.6456 L27.7231,15.8946 L38.2431,22.0776 L38.1811,42.8366 Z" id="Fill-171"></path>
                    <path d="M18.23,22.6602 L18.21,41.8522 L27.706,36.3232 L27.715,28.1462 L18.23,22.6602 Z M17.65,42.8252 L17.672,22.0452 L17.926,21.8422 L18.094,21.9362 L28.274,27.8242 L28.263,36.6442 L17.65,42.8252 Z" id="Fill-172"></path>
                    <path d="M1.1255,23.5498 L17.9405,33.3518 L27.4255,27.9958 L10.5925,18.2358 L1.1255,23.5498 Z M17.9355,33.9958 L0.0005,23.5408 L10.5975,17.5928 L10.7345,17.6728 L28.5495,28.0018 L17.9355,33.9958 Z" id="Fill-173"></path>
                    <path d="M10.875,17.7524 L17.952,21.8594 L27.427,16.3874 L10.828,6.7544 L10.875,17.7524 Z M17.951,22.5054 L10.318,18.0744 L10.265,5.7824 L28.261,16.2254 L28.261,16.5474 L28.122,16.6304 L17.951,22.5054 Z" id="Fill-174"></path>
                    <path d="M18.2744,10.8237 L18.2334,21.6967 L35.1174,11.9657 L35.2284,1.0977 L18.2744,10.8237 Z M17.6704,22.6647 L17.7164,10.4997 L17.8564,10.4187 L35.7964,0.1277 L35.6724,12.2897 L17.6704,22.6647 Z" id="Fill-175"></path>
                    <path d="M28.2827,16.5483 L28.2747,27.5093 L44.9297,17.9153 L35.3947,12.4553 L28.2827,16.5483 Z M27.7147,28.4593 L27.7237,16.2243 L35.3937,11.8113 L46.0527,17.9133 L27.7147,28.4593 Z" id="Fill-176"></path>
                </g>
                <g id="innovent" transform="translate(58.000000, 7.000000)">
                    <polygon id="Fill-177" points="0.122 35.587 4.43 35.587 4.43 0.046 0.122 0.046"></polygon>
                    <path d="M32.9585,18.3545 L32.9585,35.5865 L28.6505,35.5865 L28.6505,19.8625 C28.6505,13.8845 25.7425,11.8925 22.0265,11.8925 C18.0965,11.8925 13.6795,14.3705 13.6795,21.2625 L13.6795,35.5865 L9.3725,35.5865 L9.3725,8.6615 L13.1415,8.6615 L13.4115,12.8615 C15.2955,9.4695 18.7415,8.1235 22.4585,8.1235 C28.2195,8.1235 32.9585,11.4085 32.9585,18.3545" id="Fill-178"></path>
                    <path d="M61.9595,18.3545 L61.9595,35.5865 L57.6505,35.5865 L57.6505,19.8625 C57.6505,13.8845 54.7435,11.8925 51.0275,11.8925 C47.0965,11.8925 42.6805,14.3705 42.6805,21.2625 L42.6805,35.5865 L38.3735,35.5865 L38.3735,8.6615 L42.1425,8.6615 L42.4115,12.8615 C44.2955,9.4695 47.7425,8.1235 51.4585,8.1235 C57.2205,8.1235 61.9595,11.4085 61.9595,18.3545" id="Fill-179"></path>
                    <path d="M69.937,22.124 C69.937,28.533 73.222,32.41 78.661,32.41 C84.1,32.41 87.385,28.533 87.385,22.124 C87.385,15.716 84.1,11.839 78.661,11.839 C73.222,11.839 69.937,15.716 69.937,22.124 M91.693,22.124 C91.693,30.848 86.792,36.125 78.661,36.125 C70.529,36.125 65.629,30.848 65.629,22.124 C65.629,13.401 70.529,8.124 78.661,8.124 C86.792,8.124 91.693,13.401 91.693,22.124" id="Fill-180"></path>
                    <polygon id="Fill-181" points="118.5269 8.6616 107.3259 35.5866 103.0179 35.5866 91.8169 8.6616 96.7169 8.6616 105.2259 31.2246 114.0039 8.6616"></polygon>
                    <path d="M122.2915,19.9165 L138.6085,19.9165 C138.0155,14.9615 135.2705,11.8925 130.6925,11.8925 C125.8995,11.8925 122.9375,14.8545 122.2915,19.9165 M142.5395,23.7395 L122.2375,23.7395 C122.7765,29.1785 126.0615,32.3555 131.0155,32.3555 C134.9465,32.3555 137.6385,30.9565 138.6085,28.3715 L142.2165,30.2555 C140.1705,33.9165 136.8315,36.1245 131.0155,36.1245 C122.8835,36.1245 117.9835,30.8475 117.9835,22.1245 C117.9835,13.4005 122.5615,8.1235 130.6925,8.1235 C138.5005,8.1235 142.7555,13.7775 142.7555,20.7245 C142.7555,21.9625 142.6475,22.9855 142.5395,23.7395" id="Fill-182"></path>
                    <path d="M169.7759,18.3545 L169.7759,35.5865 L165.4679,35.5865 L165.4679,19.8625 C165.4679,13.8845 162.5599,11.8925 158.8449,11.8925 C154.9139,11.8925 150.4979,14.3705 150.4979,21.2625 L150.4979,35.5865 L146.1899,35.5865 L146.1899,8.6615 L149.9589,8.6615 L150.2279,12.8615 C152.1129,9.4695 155.5599,8.1235 159.2749,8.1235 C165.0369,8.1235 169.7759,11.4085 169.7759,18.3545" id="Fill-183"></path>
                    <path d="M192.1719,33.7021 C190.5029,35.2101 188.1869,36.1251 185.2249,36.1251 C181.2399,36.1251 177.7939,34.1331 177.7399,28.9091 L177.7399,12.3771 L172.3549,12.3771 L172.3549,8.6611 L177.7399,8.6611 L177.7399,2.1991 L182.0469,1.0141 L182.0469,8.6611 L192.0099,8.6611 L192.0099,12.3771 L182.0469,12.3771 L182.0469,28.1551 C182.0469,30.7941 183.7169,32.0861 186.0869,32.0861 C188.0249,32.0861 189.4249,31.3321 190.6639,30.0951 L192.1719,33.7021 Z" id="Fill-184"></path>
                </g>
            </g>
        </g>
    </g>
</svg>