<svg width="251" height="44" viewBox="0 0 251 44" xmlns="http://www.w3.org/2000/svg"><title>logo</title><g fill="#FFF" fill-rule="evenodd"><path d="M28.268 36.328l9.356 5.53.06-19.462-9.403-5.525-.013 19.457zm9.913 6.509L27.71 36.646l.014-20.751 10.52 6.183-.062 20.759z"/><path d="M18.23 22.66l-.02 19.192 9.496-5.529.009-8.177-9.485-5.486zm-.58 20.165l.022-20.78.254-.203.168.094 10.18 5.888-.011 8.82-10.613 6.181z"/><path d="M1.125 23.55l16.816 9.802 9.485-5.356-16.833-9.76-9.467 5.314zm16.81 10.446L.002 23.54l10.597-5.948.136.08 17.815 10.33-10.614 5.994z"/><path d="M10.875 17.752l7.077 4.107 9.475-5.472-16.599-9.633.047 10.998zm7.076 4.753l-7.633-4.43-.053-12.293 17.996 10.443v.322l-.139.083-10.171 5.875z"/><path d="M18.274 10.824l-.04 10.873 16.883-9.731.111-10.868-16.954 9.726zm-.604 11.84l.046-12.164.14-.081L35.796.128l-.124 12.162L17.67 22.665z"/><path d="M28.283 16.548l-.008 10.961 16.655-9.594-9.535-5.46-7.112 4.093zm-.568 11.911l.009-12.235 7.67-4.413 10.659 6.102L27.715 28.46zm30.407 14.128h4.308V7.046h-4.308zm32.837-17.232v17.232H86.65V26.861c0-5.977-2.908-7.97-6.624-7.97-3.93 0-8.346 2.478-8.346 9.37v14.324h-4.308V15.663h3.77l.27 4.2c1.883-3.392 5.33-4.738 9.046-4.738 5.762 0 10.5 3.284 10.5 10.23m29.002 0v17.232h-4.31V26.861c0-5.977-2.907-7.97-6.623-7.97-3.93 0-8.346 2.478-8.346 9.37v14.324h-4.308V15.663h3.77l.268 4.2c1.884-3.392 5.331-4.738 9.047-4.738 5.762 0 10.501 3.284 10.501 10.23m7.978 3.769c0 6.409 3.285 10.286 8.724 10.286s8.724-3.877 8.724-10.286c0-6.408-3.285-10.285-8.724-10.285s-8.724 3.877-8.724 10.285m21.756 0c0 8.724-4.901 14.001-13.032 14.001-8.132 0-13.032-5.277-13.032-14.001 0-8.723 4.9-14 13.032-14 8.131 0 13.032 5.277 13.032 14m26.834-13.462l-11.201 26.925h-4.308l-11.201-26.925h4.9l8.509 22.563 8.778-22.563zm3.764 11.254h16.317c-.593-4.955-3.338-8.024-7.916-8.024-4.793 0-7.755 2.962-8.4 8.024m20.247 3.823h-20.302c.54 5.44 3.824 8.616 8.778 8.616 3.931 0 6.623-1.398 7.593-3.983l3.608 1.883c-2.046 3.661-5.385 5.87-11.2 5.87-8.133 0-13.033-5.277-13.033-14 0-8.725 4.578-14.002 12.71-14.002 7.807 0 12.063 5.655 12.063 12.601 0 1.238-.108 2.261-.216 3.015m27.236-5.384v17.232h-4.308V26.861c0-5.977-2.908-7.97-6.623-7.97-3.931 0-8.347 2.478-8.347 9.37v14.324h-4.308V15.663h3.769l.269 4.2c1.885-3.392 5.332-4.738 9.047-4.738 5.762 0 10.5 3.284 10.5 10.23m22.397 15.347c-1.67 1.508-3.985 2.423-6.947 2.423-3.985 0-7.431-1.992-7.485-7.216V19.377h-5.385v-3.716h5.385V9.2l4.307-1.185v7.647h9.963v3.716h-9.963v15.778c0 2.64 1.67 3.931 4.04 3.931 1.938 0 3.338-.754 4.577-1.99l1.508 3.606z"/></g></svg>