<svg width="251" height="45" viewBox="0 0 251 45" xmlns="http://www.w3.org/2000/svg"><title>logo-dark</title><g fill="none" fill-rule="evenodd"><path fill="#474745" d="M59.042 43.663h4.328V7.958h-4.328zm32.987-17.312v17.312h-4.328V27.866c0-6.005-2.921-8.007-6.655-8.007-3.949 0-8.384 2.489-8.384 9.413v14.391h-4.329v-27.05h3.788l.27 4.22c1.894-3.408 5.356-4.761 9.088-4.761 5.789 0 10.55 3.301 10.55 10.279m28.232 0v17.312h-4.328V27.866c0-6.005-2.922-8.007-6.654-8.007-3.949 0-8.386 2.489-8.386 9.413v14.391h-4.327v-27.05h3.786l.272 4.22c1.893-3.408 5.355-4.761 9.087-4.761 5.789 0 10.55 3.301 10.55 10.279m8.015 3.788c0 6.437 3.3 10.333 8.765 10.333 5.463 0 8.763-3.896 8.763-10.333 0-6.439-3.3-10.333-8.763-10.333-5.465 0-8.765 3.894-8.765 10.333m21.855 0c0 8.763-4.923 14.065-13.09 14.065-8.17 0-13.093-5.302-13.093-14.065 0-8.765 4.923-14.066 13.093-14.066 8.167 0 13.09 5.301 13.09 14.066m26.958-13.526l-11.252 27.05h-4.328l-11.253-27.05h4.923l8.549 22.668 8.817-22.668h4.544m3.783 11.307h16.392c-.596-4.977-3.354-8.061-7.953-8.061-4.814 0-7.79 2.976-8.439 8.061m20.34 3.842h-20.394c.541 5.463 3.841 8.655 8.818 8.655 3.949 0 6.654-1.406 7.628-4.003l3.624 1.893c-2.055 3.679-5.41 5.897-11.252 5.897-8.169 0-13.092-5.302-13.092-14.065 0-8.765 4.598-14.067 12.767-14.067 7.844 0 12.118 5.681 12.118 12.659 0 1.245-.107 2.273-.217 3.031m27.363-5.411v17.312h-4.327V27.866c0-6.005-2.922-8.007-6.655-8.007-3.95 0-8.385 2.489-8.385 9.413v14.391h-4.329v-27.05h3.788l.27 4.22c1.894-3.408 5.355-4.761 9.089-4.761 5.788 0 10.549 3.301 10.549 10.279m21.597 15.418c-1.677 1.515-4.004 2.435-6.979 2.435-4.003 0-7.466-2.002-7.52-7.249V20.347h-5.41v-3.734h5.41v-6.491l4.328-1.19v7.681h10.008v3.734h-10.008v15.85c0 2.651 1.677 3.949 4.058 3.949 1.947 0 3.354-.757 4.599-2.002l1.514 3.625"/><path fill="#6C9557" d="M29.099 17.134l-10.516-6.108L36.983.497v12.125l-7.884 4.511"/><path fill="#797A76" d="M39.562 44.452l-10.615-6.074.065-8.993h-.001l.088-12.251-.087 12.251 10.57-6.063-.02 21.13"/><path fill="#46948D" d="M18.444 35.43L.141 24.601l10.529-6.014 7.831 4.61-.057 12.233"/><path fill="#81B0AC" d="M18.501 23.197l-7.785-4.584V6.458l7.867 4.568-.082.047v12.124l10.598-6.064v.001l-10.598 6.063"/><path fill="#39693F" d="M18.501 23.197V11.073l.082-.047 10.516 6.108-10.598 6.063"/><path d="M18.403 44.424l.041-8.994 10.567-6.045-.064 8.993-10.544 6.046m10.609-15.039l-10.511-6.188 10.51 6.188" fill="#474645"/><path d="M28.947 38.378l.064-8.993h.001l-.065 8.993m.065-8.993h-.001.001" fill="#212220"/><path fill="#182828" d="M18.444 35.43l.057-12.233 10.511 6.188h-.001L18.444 35.43"/><path fill="#0F1514" d="M29.011 29.385h.001-.001"/><path fill="#497941" d="M39.582 23.322v-.164l-10.483-6.024 7.884-4.512 10.5 6.168-7.901 4.532"/><path fill="#253924" d="M29.012 29.385l.087-12.251 10.483 6.024v.164l-10.57 6.063"/></g></svg>