<?xml version="1.0" encoding="UTF-8"?>
<svg width="251px" height="45px" viewBox="0 0 251 45" version="1.1" xmlns="http://www.w3.org/2000/svg" xmlns:xlink="http://www.w3.org/1999/xlink">
    <!-- Generator: Sketch 44.1 (41455) - http://www.bohemiancoding.com/sketch -->
    <title>logo-dark</title>
    <desc>Created with Sketch.</desc>
    <defs></defs>
    <g id="Page-1" stroke="none" stroke-width="1" fill="none" fill-rule="evenodd">
        <g id="logo-dark">
            <polygon id="Fill-25" fill="#474745" points="59.042 43.663 63.37 43.663 63.37 7.958 59.042 7.958"></polygon>
            <path d="M92.029,26.351 L92.029,43.663 L87.701,43.663 L87.701,27.866 C87.701,21.861 84.78,19.859 81.046,19.859 C77.097,19.859 72.662,22.348 72.662,29.272 L72.662,43.663 L68.333,43.663 L68.333,16.613 L72.121,16.613 L72.391,20.833 C74.285,17.425 77.747,16.072 81.479,16.072 C87.268,16.072 92.029,19.373 92.029,26.351" id="Fill-26" fill="#474745"></path>
            <path d="M120.261,26.351 L120.261,43.663 L115.933,43.663 L115.933,27.866 C115.933,21.861 113.011,19.859 109.279,19.859 C105.33,19.859 100.893,22.348 100.893,29.272 L100.893,43.663 L96.566,43.663 L96.566,16.613 L100.352,16.613 L100.624,20.833 C102.517,17.425 105.979,16.072 109.711,16.072 C115.5,16.072 120.261,19.373 120.261,26.351" id="Fill-27" fill="#474745"></path>
            <path d="M128.276,30.139 C128.276,36.576 131.576,40.472 137.041,40.472 C142.504,40.472 145.804,36.576 145.804,30.139 C145.804,23.7 142.504,19.806 137.041,19.806 C131.576,19.806 128.276,23.7 128.276,30.139 M150.131,30.139 C150.131,38.902 145.208,44.204 137.041,44.204 C128.871,44.204 123.948,38.902 123.948,30.139 C123.948,21.374 128.871,16.073 137.041,16.073 C145.208,16.073 150.131,21.374 150.131,30.139" id="Fill-28" fill="#474745"></path>
            <polyline id="Fill-29" fill="#474745" points="177.089 16.613 165.837 43.663 161.509 43.663 150.256 16.613 155.179 16.613 163.728 39.281 172.545 16.613 177.089 16.613"></polyline>
            <path d="M180.872,27.92 L197.264,27.92 C196.668,22.943 193.91,19.859 189.311,19.859 C184.497,19.859 181.521,22.835 180.872,27.92 M201.212,31.762 L180.818,31.762 C181.359,37.225 184.659,40.417 189.636,40.417 C193.585,40.417 196.29,39.011 197.264,36.414 L200.888,38.307 C198.833,41.986 195.478,44.204 189.636,44.204 C181.467,44.204 176.544,38.902 176.544,30.139 C176.544,21.374 181.142,16.072 189.311,16.072 C197.155,16.072 201.429,21.753 201.429,28.731 C201.429,29.976 201.322,31.004 201.212,31.762" id="Fill-30" fill="#474745"></path>
            <path d="M228.575,26.351 L228.575,43.663 L224.248,43.663 L224.248,27.866 C224.248,21.861 221.326,19.859 217.593,19.859 C213.643,19.859 209.208,22.348 209.208,29.272 L209.208,43.663 L204.879,43.663 L204.879,16.613 L208.667,16.613 L208.937,20.833 C210.831,17.425 214.292,16.072 218.026,16.072 C223.814,16.072 228.575,19.373 228.575,26.351" id="Fill-31" fill="#474745"></path>
            <path d="M250.172,41.769 C248.495,43.284 246.168,44.204 243.193,44.204 C239.19,44.204 235.727,42.202 235.673,36.955 L235.673,20.347 L230.263,20.347 L230.263,16.613 L235.673,16.613 L235.673,10.122 L240.001,8.932 L240.001,16.613 L250.009,16.613 L250.009,20.347 L240.001,20.347 L240.001,36.197 C240.001,38.848 241.678,40.146 244.059,40.146 C246.006,40.146 247.413,39.389 248.658,38.144 L250.172,41.769" id="Fill-32" fill="#474745"></path>
            <polyline id="Fill-33" fill="#6C9557" points="29.099 17.134 18.583 11.026 36.983 0.497 36.983 12.622 29.099 17.133"></polyline>
            <polyline id="Fill-34" fill="#797A76" points="39.562 44.452 28.947 38.378 29.012 29.385 29.011 29.385 29.099 17.134 29.012 29.385 39.582 23.322 39.562 44.452"></polyline>
            <polyline id="Fill-35" fill="#46948D" points="18.444 35.43 0.141 24.601 10.67 18.587 18.501 23.197 18.444 35.43"></polyline>
            <polyline id="Fill-36" fill="#81B0AC" points="18.501 23.197 10.716 18.613 10.716 6.458 18.583 11.026 18.501 11.073 18.501 23.197 29.099 17.133 29.099 17.134 18.501 23.197"></polyline>
            <polyline id="Fill-37" fill="#39693F" points="18.501 23.197 18.501 11.073 18.583 11.026 29.099 17.134 18.501 23.197"></polyline>
            <path d="M18.403,44.424 L18.444,35.43 L29.011,29.385 L28.947,38.378 L18.403,44.424 M29.012,29.385 L18.501,23.197 L29.011,29.385" id="Fill-38" fill="#474645"></path>
            <path d="M28.947,38.378 L28.947,38.378 L29.011,29.385 L29.012,29.385 L28.947,38.378 M29.012,29.385 L29.011,29.385 L29.012,29.385" id="Fill-39" fill="#212220"></path>
            <polyline id="Fill-40" fill="#182828" points="18.444 35.43 18.501 23.197 29.012 29.385 29.011 29.385 18.444 35.43"></polyline>
            <polyline id="Fill-41" fill="#0F1514" points="29.011 29.385 29.012 29.385 29.011 29.385"></polyline>
            <polyline id="Fill-42" fill="#497941" points="39.582 23.322 39.582 23.158 29.099 17.134 36.983 12.622 47.483 18.79 39.582 23.322"></polyline>
            <polyline id="Fill-43" fill="#253924" points="29.012 29.385 29.099 17.134 39.582 23.158 39.582 23.322 29.012 29.385"></polyline>
        </g>
    </g>
</svg>