<svg width="271" height="59" viewBox="0 0 271 59" xmlns="http://www.w3.org/2000/svg"><title>realpage</title><path d="M47.56 58.89H48V.14h-.89v58.75h.45M22.15 18.11c0 2.61-2.11 4.72-4.72 4.72s-4.72-2.11-4.72-4.72c0-2.6 2.11-4.72 4.72-4.72s4.72 2.12 4.72 4.72m12.6 20.15a4.716 4.716 0 1 1-9.432.008 4.716 4.716 0 0 1 9.432-.008m233.94-16.99a.92.92 0 0 0-.35-.05H268v.7h.34c.32 0 .48-.12.48-.38 0-.12-.05-.23-.13-.27zm.18 1.78l-.65-.87H268v.87h-.37v-2.11h.76c.55 0 .79.18.79.59 0 .35-.21.58-.56.62l.7.9h-.45zm-.47-2.61c-.86 0-1.55.7-1.55 1.55 0 .86.69 1.55 1.55 1.55.85 0 1.55-.69 1.55-1.55 0-.85-.7-1.55-1.55-1.55zm0 3.39c-1.02 0-1.84-.83-1.84-1.84 0-1.01.82-1.83 1.84-1.83 1.01 0 1.83.82 1.83 1.83 0 1.01-.82 1.84-1.83 1.84zm-203.91-.42h-1.94v4.32h1.94c1.9 0 2.73-.67 2.73-2.24 0-1.49-.78-2.08-2.73-2.08zm3.14 13.12l-3.59-6.27h-1.49v6.27h-2.99V20.87h5.22c2.28 0 3.32.28 4.25 1.16.85.78 1.28 1.92 1.28 3.39 0 1.21-.29 2.19-.86 2.95-.59.76-1.13 1.09-2.44 1.44l3.89 6.72h-3.27zm20.03 0V20.87h9.54v2.54h-6.55v3.86h5.37v2.54h-5.37v4.18h6.86v2.54h-9.85m31.5-12.08l-1.8 5.67h3.63l-1.83-5.67zm3.87 12.08l-1.24-3.87h-5.24l-1.28 3.87h-3.14l5.68-15.66h2.68l5.67 15.66h-3.13zm19.56 0V20.87h2.99v13.12h6.41v2.54h-9.4m30.59-13.12h-2.08v5.22l.38.02h.37c.34 0 .55.03.67.03 2.32 0 3.35-.86 3.35-2.78 0-1.71-.83-2.49-2.69-2.49zm3.99 6.48c-1.11.94-2.49 1.35-4.63 1.35-.59 0-.92-.03-1.44-.07v5.36h-2.99V20.87h5.36c2.04 0 3.18.35 4.15 1.28.88.88 1.33 2.06 1.33 3.51 0 1.73-.62 3.23-1.78 4.23zm23.31-5.44l-1.8 5.67h3.63l-1.83-5.67zm3.87 12.08l-1.23-3.87h-5.25l-1.28 3.87h-3.13l5.67-15.66h2.68l5.67 15.66h-3.13zm30.43-.21c-1.66.38-2.63.52-3.94.52-5.2 0-8.8-3.32-8.8-8.16 0-2.38.9-4.44 2.58-5.99 1.62-1.47 3.42-2.08 6.13-2.08 1.13 0 2.27.11 3.27.35.76.19 1.23.36 2.33.83l-.72 2.49c-.57-.21-.99-.35-1.28-.45-1.11-.38-2.23-.57-3.22-.57-3.52 0-5.96 2.16-5.96 5.27 0 3.21 2.68 5.65 6.17 5.65.71 0 1.11-.07 2.04-.33v-4.32h2.99v6.41c-.71.16-1.23.28-1.59.38m19.7.21V20.87h9.54v2.54h-6.55v3.86h5.37v2.54h-5.37v4.18h6.86v2.54h-9.85" fill="#797A76" fill-rule="evenodd"/></svg>