<svg id="Layer_1" xmlns="http://www.w3.org/2000/svg" viewBox="0 0 1458 1080"><style>.st0,.st1{fill:none;stroke:#c56d2f;stroke-width:50.4466;stroke-linecap:square;stroke-miterlimit:10}.st1{stroke:#a2a2a3}.st2{fill:#a2a2a3}.st3{fill:none;stroke:#81a863;stroke-width:50.4466;stroke-linecap:square;stroke-miterlimit:10}.st4{fill:#81a863}.st5{fill:#4aa6a4}.st6{fill:none;stroke:#4aa6a4;stroke-width:50.4466;stroke-linecap:square;stroke-miterlimit:10}.st7{fill:#4f4f50}.st8{opacity:.3}.st9{fill:#9bc4bd}.st10{fill:none;stroke:#4f4f50;stroke-linecap:round;stroke-linejoin:round;stroke-miterlimit:10}.st10,.st11{stroke-width:8.9023}.st11,.st12,.st13,.st14{fill:none;stroke:#4f4f50;stroke-linecap:round;stroke-linejoin:round}.st12{stroke-width:8.9023;stroke-dasharray:12.2127,24.4254}.st13,.st14{stroke-miterlimit:10}.st13{stroke-dasharray:11.8698,23.7396;stroke-width:8.9023}.st14{stroke-width:7.9626}</style><path class="st0" d="M242.3 241.6C294.7 135.2 404.1 62 530.7 62H884"/><path class="st1" d="M1146.4 885c-13.6 26.2-32.6 49.1-55.4 67.4-5.5 4.4-11.2 8.6-17.2 12.4"/><path class="st2" d="M1076.8 413.4V270.5l183.8-107.2v143.2z"/><path class="st3" d="M454.1 618.1V423.9c0-95.3 77.3-172.6 172.6-172.6"/><path class="st4" d="M68.9 1021.6v-143l183.7-107.2v143.2z"/><path class="st5" d="M596.1 690.8V547.9l183.7-107.2v143.2z"/><path class="st6" d="M920.7 997.3c-92.4 0-171.9-52.3-207.3-131.5"/><path class="st7" d="M154.5 700.5c-.3-1.4-.9-2.6-1.6-3.6-.7-1-1.7-1.8-3-2.4-1.3-.6-2.8-.8-4.6-.8-1.1 0-2.2.2-3.2.5s-1.8.8-2.6 1.5c-.7.7-1.3 1.5-1.8 2.4-.4.9-.6 2-.6 3.2 0 1 .2 1.9.6 2.8.4.9 1 1.7 1.7 2.3.2.2.5.4 1 .7.4.2.9.5 1.4.7l1.5.6c.5.2.9.3 1.1.4l5.8 2.2c1.6.6 3 1.2 4.2 1.7 1.2.5 2.4 1.4 3.6 2.6 1.1 1.1 1.8 2.4 2.3 3.8.4 1.4.7 2.9.7 4.4 0 1.1-.1 2.1-.3 3-.2 1-.6 2.1-1.3 3.5-1.1 2-2.7 3.6-4.7 4.8-2.1 1.2-4.6 1.8-7.6 1.8-1.2 0-2.3-.1-3.5-.4-1.1-.3-2.2-.6-3.1-1.2-1-.5-1.8-1.2-2.5-2s-1.3-1.8-1.8-3v5.8h-4.8v-15.4h4.8c0 1.7.3 3.2.7 4.6.4 1.4 1.1 2.7 1.9 3.8.8 1.1 1.9 1.9 3.2 2.6s2.8.9 4.6.9c1.3 0 2.4-.1 3.5-.4s2.1-.9 3-1.9c.8-.8 1.3-1.8 1.7-2.7.3-1 .5-2 .5-3.2 0-1.2-.2-2.2-.5-3s-.8-1.5-1.3-2c-.6-.6-1.3-1.1-2.1-1.5-.8-.4-1.7-.8-2.7-1.2l-7.3-2.9c-1.4-.6-2.8-1.1-4-1.8-1.2-.6-2.3-1.4-3.2-2.3s-1.6-1.9-2.1-3.1c-.5-1.2-.8-2.7-.8-4.4 0-1.6.2-3 .5-4.2.3-1.2.9-2.2 1.7-3.2 1.6-1.9 3.3-3.2 5-4 1.8-.7 3.9-1.1 6.4-1.1 2.1 0 4 .4 5.9 1.1 1.8.7 3.3 2 4.4 4v-4.3h4.9v14.9h-4.9c-.2-1.7-.4-3.2-.7-4.6zm30.2 2.1v3.8h-9.6v21.5c0 .6 0 1.1.1 1.6s.3 1 .5 1.5.6.8 1 1.1c.4.3 1 .4 1.7.4.8 0 1.4-.2 1.9-.7.5-.5.8-1.1 1-1.8s.3-1.5.4-2.2.1-1.4.1-2h4.1v1.2c0 .4 0 .8-.1 1.2-.1 1.6-.4 3.1-1.1 4.5s-1.7 2.5-3.3 3.2c-.6.1-1.2.3-1.7.4-.6.1-1.1.2-1.7.2-.6 0-1.1 0-1.6-.1s-1-.2-1.6-.3c-1.1-.2-2-.7-2.7-1.5-.7-.8-1.3-1.6-1.7-2.6-.1-.3-.2-.8-.3-1.3s-.1-1.1-.2-1.7c0-.6-.1-1.1-.1-1.6v-20.9h-5.7v-3.8h5.7v-6.5l5.2-1.9v8.4h9.7zm16.6 3.1c.5-.9 1.2-1.7 1.9-2.2.8-.5 1.7-.9 2.7-1.1 1-.2 2.3-.4 3.9-.4h1.3v4.8c-.3-.1-.7-.1-1.1-.2-.4 0-.7-.1-1.1-.1-1.9 0-3.5.4-4.7 1.1-1.2.7-2.1 1.7-2.8 2.8-.7 1.2-1.1 2.5-1.4 4s-.4 3.1-.4 4.7v12.7h6.3v4h-16.8v-4h5.3v-25.5h-5.3v-3.8h10.5v6.6c.7-1.3 1.2-2.5 1.7-3.4zm31 29c-1.7 1.1-3.9 1.6-6.7 1.6-1.2 0-2.3-.1-3.4-.4s-2.1-.7-3-1.2c-.9-.6-1.7-1.3-2.4-2.2s-1.2-2-1.5-3.2c-.2-.8-.3-1.5-.3-2v-1.1c0-1.9.4-3.5 1.1-4.7.7-1.3 1.6-2.4 2.8-3.2 1.2-.8 2.5-1.4 4-1.8 1.5-.4 3.1-.6 4.8-.6h8.8v-3.1c-.1-1.2-.3-2.2-.5-3s-.8-1.7-1.7-2.6c-.6-.6-1.3-1-2.3-1.3-.9-.3-1.8-.4-2.6-.4-1.4 0-2.6.1-3.6.4-1 .3-2 1-3 2.2-.5.6-.8 1.2-.9 1.9-.1.7-.3 1.4-.4 2.1h-5.4c.1-2.4.8-4.5 2-6.1s2.9-2.9 5.2-3.6c.9-.3 1.9-.5 2.8-.6.9-.1 1.9-.1 2.9-.1 1.8 0 3.4.2 4.8.6 1.4.4 2.9 1.2 4.3 2.3 1.4 1.1 2.2 2.3 2.6 3.7.4 1.4.6 2.9.6 4.6V732h5.3v4h-10.1v-6.6c-1.1 2.4-2.5 4.2-4.2 5.3zm-10.4-3.9c1 1.2 2.4 1.8 4.3 1.8s3.5-.4 4.8-1.1c1.3-.7 2.3-1.7 3.1-2.9s1.4-2.6 1.7-4.1c.4-1.6.6-3.1.6-4.7-.8-.1-1.7-.2-2.5-.2h-2.6c-1.3 0-2.6 0-3.9.1a12 12 0 0 0-3.5.8c-1 .4-1.9 1.1-2.6 2-.7.9-1 2.2-1 3.9.2 1.7.7 3.2 1.6 4.4zm46.6-28.2v3.8h-9.6v21.5c0 .6 0 1.1.1 1.6s.3 1 .5 1.5c.3.4.6.8 1 1.1.4.3 1 .4 1.7.4.8 0 1.4-.2 1.9-.7.5-.5.8-1.1 1-1.8s.3-1.5.4-2.2.1-1.4.1-2h4.1v1.2c0 .4 0 .8-.1 1.2-.1 1.6-.4 3.1-1.1 4.5s-1.7 2.5-3.3 3.2c-.6.1-1.2.3-1.7.4-.6.1-1.1.2-1.7.2-.6 0-1.1 0-1.6-.1s-1-.2-1.6-.3c-1.1-.2-2-.7-2.7-1.5-.7-.8-1.3-1.6-1.7-2.6-.1-.3-.2-.8-.3-1.3s-.1-1.1-.2-1.7c0-.6-.1-1.1-.1-1.6v-20.9H248v-3.8h5.7v-6.5l5.2-1.9v8.4h9.6zm11.3 17.6c.1 1.6.3 3.2.7 4.7.4 1.5 1.1 2.9 2.2 4.2 1.1 1.4 2.3 2.2 3.5 2.6 1.2.4 2.7.6 4.4.6 1 0 2-.2 2.9-.5.9-.4 1.8-.9 2.6-1.5s1.4-1.3 1.9-2.2c.5-.8.8-1.8 1-2.7h4.9c-.3 1.8-.9 3.4-1.7 4.7-.8 1.4-1.9 2.5-3.1 3.4-1.2.9-2.6 1.6-4.2 2-1.6.4-3.3.7-5.1.7-2.7 0-5-.4-7-1.3-1.9-.8-3.5-2-4.7-3.6-1.2-1.5-2.1-3.3-2.7-5.4-.6-2.1-.9-4.4-.9-6.9 0-1.8.2-3.6.6-5.4.4-1.8 1-3.5 1.9-5.1 1.3-2.3 3.1-4.1 5.5-5.3s4.9-1.8 7.5-1.8c1.5 0 3.1.2 4.8.7 1.7.5 3.1 1.2 4.3 2.2 1.3 1.1 2.3 2.3 3.1 3.7.7 1.4 1.3 2.9 1.6 4.5.3 1.2.4 2.3.5 3.3s.2 2.1.2 3.3v.9h-24.7zm18.5-7.8c-.4-1.3-1-2.5-1.7-3.5-.8-1-1.7-1.9-2.8-2.6-1.1-.7-2.5-1-4-1s-2.9.3-4 1-2.2 1.5-3 2.5c-.8 1-1.4 2.2-1.9 3.5-.4 1.3-.7 2.7-.8 4h18.8c-.1-1.2-.3-2.5-.6-3.9zm19.4 29.2c.6.7 1.2 1.2 1.9 1.6.7.4 1.5.6 2.4.8.9.1 1.8.2 2.7.2.7 0 1.5-.1 2.3-.2.8-.1 1.6-.4 2.3-.7s1.4-.7 2-1.2c.6-.5 1.1-1.1 1.5-1.8.7-1.2 1.1-2.6 1.2-4 .1-1.5.2-2.9.2-4.3v-2c-.7 1.1-1.5 2.1-2.3 2.9-.8.8-1.6 1.4-2.5 1.9-.9.5-1.9.9-2.9 1.1s-2.3.4-3.6.4c-2.4 0-4.4-.5-6.2-1.4-1.7-.9-3.2-2.2-4.4-3.7-1.2-1.6-2-3.3-2.6-5.4s-.9-4.1-.9-6.3.2-4.2.5-6.1 1-3.7 2-5.5c.6-1.1 1.4-2 2.3-2.8s1.9-1.4 2.9-2c1-.5 2.1-.9 3.2-1.2s2.2-.4 3.2-.4c2.4 0 4.6.5 6.6 1.5s3.6 2.6 4.7 4.8v-5.3h10.6v3.8h-5.5v26.3c0 1.2 0 2.4-.1 3.4-.1 1.1-.2 2.1-.5 3-.3 1-.7 1.9-1.2 2.8-.5.9-1.2 1.8-2.1 2.7-.6.6-1.4 1.2-2.3 1.6-.9.4-1.8.8-2.8 1.1-1 .3-1.9.5-2.9.6-1 .1-1.9.2-2.8.2-1.5 0-3.1-.1-4.7-.4-1.6-.2-3-.7-4.3-1.3s-2.4-1.6-3.3-2.7-1.4-2.7-1.7-4.6h5.7c.5 1.1.8 1.9 1.4 2.6zm10.8-10.4c1.4-.8 2.5-1.8 3.4-3.1.9-1.1 1.4-2.4 1.8-3.9.3-1.5.5-3 .5-4.4 0-.9 0-1.8-.1-2.6 0-.8-.1-1.6-.3-2.4-.2-.8-.4-1.5-.7-2.3-.3-.7-.7-1.5-1.2-2.3-.8-1.2-1.9-2.2-3.2-3-1.3-.8-2.8-1.2-4.2-1.2-1.9 0-3.4.4-4.7 1.2-1.3.8-2.3 1.8-3.1 3.1s-1.3 2.7-1.7 4.3c-.3 1.6-.5 3.2-.5 4.8s.2 3.2.5 4.7 1 3 1.8 4.3c.8 1.2 1.9 2.2 3.1 2.9s2.6 1.1 4.1 1.1c1.7-.1 3.2-.5 4.5-1.2zm32.4-24.9h-5.2l8.2 23.3 7.9-23.3h-5.2v-3.8h13.6v3.8h-2.9l-11 29.8c-.3.9-.7 1.7-1 2.5s-.7 1.6-1.1 2.5c-.4.8-.8 1.7-1.4 2.5s-1.2 1.5-2.1 2c-.7.5-1.5.8-2.5 1.1-.9.2-1.8.4-2.6.4-.7 0-1.3-.1-2-.2s-1.3-.2-2-.3v-4.2c1.2.3 2.5.4 3.8.4.9 0 1.6-.2 2.2-.7.6-.5 1.1-1 1.5-1.7.4-.7.7-1.4 1-2.2.3-.8.5-1.5.7-2.2l-11.2-29.6h-3.2v-3.8h14.2v3.7zm292.6-8.9c-2-2.3-5-3.4-8.9-3.4-2.8 0-5.1.5-7 1.5-1.9 1-3.5 2.4-4.6 4.1s-2 3.7-2.5 5.9-.8 4.6-.8 7c0 2.4.2 4.8.7 7.1.4 2.3 1.2 4.4 2.3 6.2 1.1 1.8 2.6 3.3 4.5 4.4s4.2 1.7 7.1 1.7c3.6 0 6.4-1.1 8.5-3.2 2.1-2.1 3.2-4.9 3.4-8.4h5.9c-.1 2.6-.6 5-1.5 6.9-.9 2-2.2 3.7-3.8 5s-3.4 2.4-5.5 3.1-4.5 1.1-7 1.1c-3.1 0-6.1-.5-8.7-1.6s-5-2.8-7.1-5.4c-.8-1.1-1.6-2.3-2.2-3.7s-1.1-2.8-1.5-4.3c-.4-1.5-.7-2.9-.9-4.4-.2-1.5-.3-2.9-.3-4.3 0-3.3.4-6.3 1.2-9.1.8-2.8 2-5.2 3.5-7.1 1.8-2.4 4-4.2 6.6-5.5s5.6-1.9 9.1-1.9c1.4 0 2.8.1 4.1.4 1.3.3 2.6.7 3.7 1.2 1.1.6 2.2 1.3 3.1 2.3.9.9 1.7 2.1 2.3 3.4v-6.6h4.6V706h-5c-.1-3.3-1.3-6.3-3.3-8.6zm26.3 8.3c.5-.9 1.2-1.7 1.9-2.2.8-.5 1.7-.9 2.7-1.1 1-.2 2.3-.4 3.9-.4h1.3v4.8c-.3-.1-.7-.1-1.1-.2-.4 0-.7-.1-1.1-.1-1.9 0-3.5.4-4.7 1.1-1.2.7-2.1 1.7-2.8 2.8-.7 1.2-1.1 2.5-1.4 4-.3 1.5-.4 3.1-.4 4.7v12.7h6.3v4h-16.8v-4h5.3v-25.5h-5.3v-3.8h10.5v6.6c.6-1.3 1.1-2.5 1.7-3.4zm19.4 14.5c.1 1.6.3 3.2.7 4.7s1.1 2.9 2.2 4.2c1.1 1.4 2.3 2.2 3.5 2.6 1.2.4 2.7.6 4.4.6 1 0 2-.2 2.9-.5.9-.4 1.8-.9 2.5-1.5s1.4-1.3 1.9-2.2c.5-.8.8-1.8 1-2.7h4.9c-.3 1.8-.9 3.4-1.7 4.7-.9 1.4-1.9 2.5-3.1 3.4-1.2.9-2.6 1.6-4.2 2-1.6.4-3.3.7-5.1.7-2.7 0-5-.4-7-1.3-1.9-.8-3.5-2-4.8-3.6-1.2-1.5-2.1-3.3-2.7-5.4-.6-2.1-.9-4.4-.9-6.9 0-1.8.2-3.6.6-5.4s1-3.5 1.9-5.1c1.3-2.3 3.1-4.1 5.5-5.3 2.4-1.2 4.9-1.8 7.5-1.8 1.5 0 3.1.2 4.8.7 1.7.5 3.1 1.2 4.3 2.2 1.3 1.1 2.3 2.3 3.1 3.7.7 1.4 1.3 2.9 1.6 4.5.3 1.2.4 2.3.5 3.3s.2 2.1.2 3.3v.9h-24.5zm18.5-7.8c-.4-1.3-1-2.5-1.7-3.5-.8-1-1.7-1.9-2.8-2.6-1.1-.7-2.5-1-4-1s-2.9.3-4 1c-1.2.6-2.2 1.5-3 2.5-.8 1-1.4 2.2-1.9 3.5-.4 1.3-.7 2.7-.8 4h18.8c0-1.2-.2-2.5-.6-3.9zm28.5 22.3c-1.7 1.1-3.9 1.6-6.7 1.6-1.2 0-2.3-.1-3.4-.4-1.1-.3-2.1-.7-3-1.2-.9-.6-1.7-1.3-2.4-2.2-.7-.9-1.2-2-1.5-3.2-.2-.8-.3-1.5-.3-2v-1.1c0-1.9.4-3.5 1.1-4.7.7-1.3 1.6-2.4 2.8-3.2 1.2-.8 2.5-1.4 4-1.8 1.5-.4 3.1-.6 4.8-.6h8.8v-3.1c-.1-1.2-.3-2.2-.5-3-.3-.8-.8-1.7-1.7-2.6-.6-.6-1.3-1-2.3-1.3-.9-.3-1.8-.4-2.6-.4-1.4 0-2.6.1-3.6.4-1 .3-2 1-3 2.2-.5.6-.8 1.2-.9 1.9-.1.7-.3 1.4-.4 2.1H730c.1-2.4.8-4.5 2-6.1 1.2-1.7 2.9-2.9 5.2-3.6.9-.3 1.9-.5 2.8-.6.9-.1 1.9-.1 2.9-.1 1.8 0 3.4.2 4.8.6 1.4.4 2.9 1.2 4.3 2.3 1.4 1.1 2.2 2.3 2.6 3.7.4 1.4.6 2.9.6 4.6V732h5.3v4h-10.1v-6.6c-1.1 2.4-2.5 4.2-4.2 5.3zm-10.4-3.9c1 1.2 2.4 1.8 4.3 1.8s3.5-.4 4.8-1.1c1.3-.7 2.3-1.7 3.1-2.9s1.4-2.6 1.7-4.1c.4-1.6.6-3.1.6-4.7-.8-.1-1.7-.2-2.6-.2h-2.5c-1.3 0-2.6 0-3.9.1-1.3.1-2.5.4-3.5.8s-1.9 1.1-2.6 2c-.7.9-1 2.2-1 3.9.2 1.7.7 3.2 1.6 4.4zm46.6-28.2v3.8h-9.6v21.5c0 .6 0 1.1.1 1.6s.3 1 .5 1.5.6.8 1 1.1c.4.3 1 .4 1.7.4.8 0 1.4-.2 1.9-.7.5-.5.8-1.1 1-1.8s.3-1.5.4-2.2c0-.8.1-1.4.1-2h4.1v1.2c0 .4 0 .8-.1 1.2-.1 1.6-.4 3.1-1.1 4.5-.6 1.4-1.7 2.5-3.3 3.2-.6.1-1.2.3-1.7.4-.6.1-1.1.2-1.7.2-.6 0-1.1 0-1.6-.1s-1-.2-1.6-.3c-1.1-.2-2-.7-2.7-1.5-.7-.8-1.3-1.6-1.7-2.6-.1-.3-.2-.8-.3-1.3s-.1-1.1-.2-1.7c0-.6-.1-1.1-.1-1.6v-20.9h-5.7v-3.8h5.7v-6.5l5.2-1.9v8.4h9.7zm4.8 33.2v-4h5.4v-25.5h-5.3v-3.8h10.5v29.3h5.2v4h-15.8zm10.9-40.3h-5.9v-5.4h5.9v5.4zm20.9 7.1v3.8h-5.3l7.8 25.1h.4l7.9-25.1h-5.3v-3.8h13.8v3.8H835l-10 29.4h-6.6l-10.2-29.5h-3.3v-3.8H819zm29 17.6c.1 1.6.3 3.2.7 4.7s1.1 2.9 2.2 4.2c1.1 1.4 2.3 2.2 3.5 2.6 1.2.4 2.7.6 4.4.6 1 0 2-.2 2.9-.5.9-.4 1.8-.9 2.5-1.5s1.4-1.3 1.9-2.2c.5-.8.8-1.8 1-2.7h4.9c-.3 1.8-.9 3.4-1.7 4.7-.9 1.4-1.9 2.5-3.1 3.4-1.2.9-2.6 1.6-4.2 2-1.6.4-3.3.7-5.1.7-2.7 0-5-.4-7-1.3-1.9-.8-3.5-2-4.8-3.6-1.2-1.5-2.1-3.3-2.7-5.4-.6-2.1-.9-4.4-.9-6.9 0-1.8.2-3.6.6-5.4s1-3.5 1.9-5.1c1.3-2.3 3.1-4.1 5.5-5.3 2.4-1.2 4.9-1.8 7.5-1.8 1.5 0 3.1.2 4.8.7 1.7.5 3.1 1.2 4.3 2.2 1.3 1.1 2.3 2.3 3.1 3.7.7 1.4 1.3 2.9 1.6 4.5.3 1.2.4 2.3.5 3.3s.2 2.1.2 3.3v.9H848zm18.5-7.8c-.4-1.3-1-2.5-1.7-3.5-.8-1-1.7-1.9-2.8-2.6-1.1-.7-2.5-1-4-1s-2.9.3-4 1c-1.2.6-2.2 1.5-3 2.5-.8 1-1.4 2.2-1.9 3.5-.4 1.3-.7 2.7-.8 4H867c0-1.2-.2-2.5-.5-3.9zm146-228.7h6.5v-37.2h-6.5v-4.2h36.5v13.6h-5v-9.4h-19.4v16.1h9.4v-6.9h4.6v18h-4.6v-6.8h-9.4v16.9h19.4v-10h5V488h-36.5v-4.3zm56.6-29v3.8h-4.7l7.2 9.5 7.3-9.5h-5v-3.8h13.6v3.8h-3.3l-9.8 12.8 10.1 12.8h3.3v4h-14.5v-4h5.2l-7.7-9.7-7.9 9.7h5.5v4h-14.2v-4h3.2l10.6-13.3-9.8-12.2h-3.3v-3.8h14.2zm28.2 17.6c.1 1.6.3 3.2.7 4.7.4 1.5 1.1 2.9 2.2 4.2 1.1 1.4 2.3 2.2 3.5 2.6 1.2.4 2.7.6 4.4.6 1 0 2-.2 2.9-.5.9-.4 1.8-.9 2.5-1.5s1.4-1.3 1.9-2.2c.5-.8.8-1.8 1-2.7h4.9c-.3 1.8-.9 3.4-1.7 4.7-.9 1.4-1.9 2.5-3.1 3.4s-2.6 1.6-4.2 2-3.3.7-5.1.7c-2.7 0-5-.4-7-1.3-1.9-.9-3.5-2-4.8-3.6-1.2-1.5-2.1-3.3-2.7-5.4-.6-2.1-.9-4.4-.9-6.9 0-1.8.2-3.6.6-5.4s1-3.5 1.9-5.1c1.3-2.3 3.1-4.1 5.5-5.3 2.4-1.2 4.9-1.8 7.5-1.8 1.5 0 3.1.2 4.8.7 1.7.5 3.1 1.2 4.3 2.2 1.3 1.1 2.3 2.3 3.1 3.7.7 1.4 1.3 2.9 1.6 4.5.3 1.2.4 2.3.5 3.3s.2 2.1.2 3.3v.9h-24.5zm18.5-7.8c-.4-1.3-1-2.5-1.7-3.5-.8-1-1.7-1.9-2.8-2.5s-2.5-1-4-1-2.9.3-4 1c-1.2.6-2.2 1.5-3 2.5-.8 1-1.4 2.2-1.9 3.5s-.7 2.7-.8 4h18.8c-.1-1.3-.3-2.6-.6-4zm33.8-1c-.4-1.1-1-2.1-1.7-2.9-.7-.8-1.6-1.5-2.6-2s-2.1-.8-3.3-.8c-1.8 0-3.3.4-4.6 1.1-1.3.8-2.3 1.8-3.1 3-.8 1.2-1.4 2.6-1.7 4.1s-.5 3.1-.5 4.6c0 1.7.2 3.2.5 4.7s1 3 1.8 4.5c.8 1.3 1.9 2.4 3.2 3.1s2.7 1.1 4.3 1.1c1.1 0 2.1-.2 3-.6.9-.4 1.7-.9 2.4-1.6.7-.7 1.2-1.5 1.6-2.4.4-.9.7-1.9.8-2.9h4.8c0 1.9-.4 3.5-1.1 5-.7 1.4-1.7 2.7-2.9 3.7s-2.6 1.8-4.1 2.3c-1.6.5-3.2.8-5 .8-2.4 0-4.6-.4-6.4-1.3s-3.4-2.1-4.7-3.6c-1.3-1.5-2.2-3.3-2.9-5.3-.7-2-1-4.2-1-6.5s.3-4.5.8-6.6c.5-2.1 1.5-4.1 3.1-6.2 1.1-1.5 2.6-2.8 4.4-3.7 1.8-1 3.8-1.4 6-1.4 2.1 0 4 .4 5.5 1.2s2.9 2.1 4 4v-4.1h4V467h-4c0-1.2-.2-2.4-.6-3.5zm29.6 23.3c-1.5 1-3.6 1.6-6.3 1.6-1.2 0-2.3-.1-3.4-.4-1.1-.3-2-.6-2.9-1.2s-1.7-1.2-2.3-2.1c-.6-.9-1.1-1.9-1.4-3.2-.2-.9-.3-1.9-.4-2.9 0-1-.1-2.2-.1-3.6v-16.6h-5.2v-3.8h10.4V475c0 1.1.1 2.2.2 3.3.1 1.1.4 2.1.9 3.1.4.9 1.1 1.7 1.9 2.2.8.6 2 .9 3.4.9 1.6 0 3.1-.4 4.3-1.2 1.3-.8 2.3-2 2.9-3.4.6-1.2 1-2.5 1.1-4 .1-1.4.2-2.8.2-4.1v-13.5h-5.6v-3.8h10.8v29.3h5.3v4h-10.5v-6.4c-.6 2.6-1.8 4.4-3.3 5.4zm36.6-32.1v3.8h-9.6V480c0 .6 0 1.1.1 1.6s.3 1 .5 1.5.6.8 1 1.1c.4.3 1 .4 1.7.4.8 0 1.4-.2 1.9-.7s.8-1.1 1-1.8c.2-.7.3-1.5.4-2.2 0-.8.1-1.4.1-2h4.1v1.2c0 .4 0 .8-.1 1.2-.1 1.6-.4 3.1-1.1 4.5-.6 1.4-1.7 2.5-3.3 3.2-.6.1-1.2.3-1.7.4-.6.1-1.1.2-1.7.2-.6 0-1.1 0-1.6-.1s-1-.2-1.6-.3c-1.1-.2-2-.7-2.7-1.5-.7-.8-1.3-1.6-1.7-2.6-.1-.3-.2-.8-.3-1.3s-.1-1.1-.2-1.7c0-.6-.1-1.1-.1-1.6v-20.9h-5.7v-3.8h5.7v-6.5l5.2-1.9v8.4h9.7zm4.9 33.2v-4h5.4v-25.5h-5.3v-3.8h10.5v29.3h5.2v4h-15.8zm10.9-40.2h-5.9v-5.4h5.9v5.4zm9 16.6c.6-2.1 1.7-4 3.3-5.8 1.5-1.7 3.2-2.9 5.3-3.7 2-.8 4.2-1.2 6.4-1.2 2.6 0 4.8.5 6.8 1.4s3.5 2.2 4.7 3.8 2.1 3.5 2.7 5.6c.6 2.1.9 4.4.9 6.7s-.3 4.5-1 6.6c-.6 2.1-1.6 3.9-2.9 5.5-1.3 1.6-2.9 2.8-4.8 3.8-1.9.9-4.1 1.4-6.7 1.4-2.5 0-4.7-.4-6.7-1.2s-3.7-2.3-5.2-4.4c-1.3-1.8-2.2-3.7-2.8-5.7-.6-2-.9-4-.9-6.2 0-2.3.3-4.5.9-6.6zm5 11.5c.3 1.7.9 3.2 1.9 4.5.9 1.3 2 2.3 3.3 3.1s2.8 1.2 4.4 1.2 3.2-.5 4.7-1.5 2.6-2.2 3.3-3.6c.7-1.3 1.2-2.7 1.5-4.2s.4-3 .4-4.5c0-1.6-.1-3.1-.4-4.7s-.8-3-1.6-4.2c-.8-1.3-1.8-2.3-3-3.1-1.3-.8-2.8-1.2-4.7-1.2-1.8 0-3.4.4-4.8 1.2-1.3.8-2.5 2-3.4 3.5-.7 1.2-1.2 2.6-1.5 4.2s-.4 3-.4 4.4c-.1 1.6.1 3.2.3 4.9zm43.2-20.5c1.6-1.1 3.7-1.7 6.4-1.7 2.5 0 4.7.6 6.3 1.7 1.7 1.1 2.9 2.9 3.7 5.3.1.7.2 1.4.2 2.1v21.1h5.2v4H1295v-4h5.2v-17.2c0-1.1-.1-2.3-.3-3.3-.2-1.1-.5-2.1-1-2.9-.5-.9-1.1-1.5-2-2-.8-.5-2-.8-3.4-.8-1 0-1.8.1-2.4.2-.6.1-1.3.4-2.1 1-.7.5-1.3 1-1.7 1.5-.4.5-.8 1.1-1.1 1.8-.7 1.3-1.1 2.7-1.2 4.2-.1 1.5-.2 2.9-.2 4.4V484h5.2v4h-15.9v-4h5.5v-25.5h-5.4v-3.8h10.6v6c1.2-2.5 2.4-4.2 4-5.4zm-68.4 157.1h3.6V592h-3.6v-2.3h12.6c.5 0 1 .1 1.6.2.8.2 1.6.5 2.2 1 .6.5 1.1 1 1.5 1.6.4.6.7 1.3.9 2.1s.3 1.6.3 2.4c0 1.2-.2 2.3-.5 3.3s-1 1.8-1.9 2.7c-.4.4-.9.7-1.3.9-.5.2-1 .3-1.5.4-.5.1-1 .1-1.6.1h-5.7v8h4.2v2.3h-10.8v-2.3zm6.6-10.2h4.9c.3 0 .8-.1 1.1-.1.4-.1.7-.2 1-.3s.7-.4 1-.7c.5-.5.9-1.1 1-1.8.2-.7.3-1.4.3-2 0-.8-.1-1.6-.3-2.3-.2-.8-.7-1.4-1.3-1.8-.7-.5-1.3-.8-2.1-.9-.7-.1-1.5-.1-2.2-.1h-3.4v10zm21.4-4c.3-.5.6-.9 1.1-1.2.4-.3.9-.5 1.5-.6.6-.1 1.3-.2 2.1-.2h.7v2.6c-.2 0-.4-.1-.6-.1h-.6c-1 0-1.9.2-2.6.6-.7.4-1.2.9-1.5 1.6-.4.6-.6 1.4-.8 2.2-.1.8-.2 1.7-.2 2.6v7h3.5v2.2h-9.2v-2.2h2.9v-14h-2.9v-2.1h5.7v3.6c.3-.8.6-1.5.9-2zm10.7 8c0 .9.2 1.7.4 2.6.2.8.6 1.6 1.2 2.3.6.7 1.2 1.2 1.9 1.5.7.2 1.5.3 2.4.3.6 0 1.1-.1 1.6-.3s1-.5 1.4-.8c.4-.3.8-.7 1-1.2.3-.5.5-1 .5-1.5h2.7c-.2 1-.5 1.8-.9 2.6-.5.7-1 1.4-1.7 1.9s-1.5.9-2.3 1.1c-.9.2-1.8.4-2.8.4-1.5 0-2.8-.2-3.8-.7-1.1-.5-1.9-1.1-2.6-2-.7-.8-1.2-1.8-1.5-3s-.5-2.4-.5-3.8c0-1 .1-2 .3-3s.6-1.9 1-2.8c.7-1.3 1.7-2.2 3-2.9 1.3-.7 2.7-1 4.1-1 .8 0 1.7.1 2.6.4.9.3 1.7.7 2.3 1.2.7.6 1.3 1.3 1.7 2 .4.8.7 1.6.9 2.5.1.7.2 1.3.3 1.8s.1 1.1.1 1.8v.5h-13.3zm10.1-4.3c-.2-.7-.5-1.4-.9-1.9-.4-.6-.9-1-1.6-1.4-.6-.4-1.3-.5-2.2-.5-.8 0-1.6.2-2.2.5-.6.3-1.2.8-1.6 1.4s-.8 1.2-1 1.9c-.2.7-.4 1.5-.4 2.2h10.3c-.1-.7-.2-1.5-.4-2.2zm14.6 1.9v2.6h-8.3v-2.6h8.3zm2.7 8.6h3.6V592h-3.6v-2.3h20v7.5h-2.7V592h-10.7v8.8h5.2V597h2.5v9.9h-2.5v-3.7h-5.2v9.3h10.7V607h2.7v7.8h-20v-2.4zm30.6-15.9v2.1h-2.9l4.3 13.8h.2l4.3-13.8h-2.9v-2.1h7.6v2.1h-1.9l-5.5 16.2h-3.6l-5.6-16.2h-1.8v-2.1h7.8zm15.8 9.7c0 .9.2 1.7.4 2.6.2.8.6 1.6 1.2 2.3.6.7 1.2 1.2 1.9 1.5.7.2 1.5.3 2.4.3.6 0 1.1-.1 1.6-.3s1-.5 1.4-.8c.4-.3.8-.7 1-1.2.3-.5.5-1 .5-1.5h2.7c-.2 1-.5 1.8-.9 2.6-.5.7-1 1.4-1.7 1.9s-1.5.9-2.3 1.1c-.9.2-1.8.4-2.8.4-1.5 0-2.8-.2-3.8-.7-1.1-.5-1.9-1.1-2.6-2-.7-.8-1.2-1.8-1.5-3s-.5-2.4-.5-3.8c0-1 .1-2 .3-3s.6-1.9 1-2.8c.7-1.3 1.7-2.2 3-2.9 1.3-.7 2.7-1 4.1-1 .8 0 1.7.1 2.6.4.9.3 1.7.7 2.3 1.2.7.6 1.3 1.3 1.7 2 .4.8.7 1.6.9 2.5.1.7.2 1.3.3 1.8s.1 1.1.1 1.8v.5h-13.3zm10.2-4.3c-.2-.7-.5-1.4-.9-1.9-.4-.6-.9-1-1.6-1.4-.6-.4-1.3-.5-2.2-.5-.8 0-1.6.2-2.2.5-.6.3-1.2.8-1.6 1.4s-.8 1.2-1 1.9c-.2.7-.4 1.5-.4 2.2h10.3c-.1-.7-.2-1.5-.4-2.2zm13.3-5c.9-.6 2-.9 3.5-.9 1.4 0 2.6.3 3.5.9.9.6 1.6 1.6 2 2.9.1.4.1.8.1 1.2v11.6h2.9v2.2h-8.6v-2.2h2.9v-9.4c0-.6 0-1.2-.1-1.8-.1-.6-.3-1.1-.5-1.6-.3-.5-.6-.8-1.1-1.1-.5-.3-1.1-.4-1.9-.4-.5 0-1 0-1.3.1-.3.1-.7.2-1.2.5-.4.3-.7.5-.9.8-.2.3-.4.6-.6 1-.4.7-.6 1.5-.6 2.3-.1.8-.1 1.6-.1 2.4v7.3h2.9v2.2h-8.7v-2.2h3v-14h-3v-2.1h5.8v3.3c.5-1.5 1.2-2.4 2-3zm24.1-.4v2.1h-5.2v11.8c0 .3 0 .6.1.9 0 .3.1.6.3.8.1.2.3.4.6.6s.5.2.9.2.8-.1 1-.4c.3-.3.4-.6.5-1 .1-.4.2-.8.2-1.2v-1.1h2.3v1.4c0 .9-.2 1.7-.6 2.5-.3.8-1 1.4-1.8 1.7-.3.1-.6.1-.9.2-.3.1-.6.1-.9.1s-.6 0-.9-.1c-.2 0-.5-.1-.9-.1-.6-.1-1.1-.4-1.5-.8s-.7-.9-.9-1.4c-.1-.2-.1-.4-.2-.7 0-.3-.1-.6-.1-.9v-12.4h-3.1v-2.1h3.1V593l2.8-1v4.6h5.2zm-152.3 89.8c-1.5-.6-2.7-1.5-3.7-2.6s-1.8-2.4-2.3-4c-.5-1.5-.8-3.2-.8-5 0-1.8.2-3.5.6-5 .4-1.6 1.2-3.1 2.3-4.5 1.1-1.3 2.4-2.3 4-2.9 1.5-.6 3.2-.9 4.9-.9 1.7 0 3.4.3 4.9.9 1.5.6 2.8 1.6 3.9 3 1.1 1.3 1.8 2.8 2.2 4.3.3 1.6.5 3.2.5 4.9 0 .9 0 1.8-.1 2.5s-.3 1.5-.6 2.4c-.3.7-.6 1.5-.9 2.2-.3.7-.7 1.4-1.2 2-1 1.3-2.3 2.2-3.8 2.8-1.5.6-3.1.9-4.7.9-2.1-.1-3.8-.4-5.2-1zm.9-21.7c-1 .6-1.9 1.4-2.6 2.4-.7 1-1.1 2.1-1.4 3.4s-.4 2.6-.4 3.9c0 .6 0 1.2.1 1.9 0 .7.1 1.3.3 2 .1.7.3 1.3.6 1.9.2.6.5 1.2.9 1.6 1.6 2.2 3.8 3.3 6.6 3.3 2.7 0 4.9-1.2 6.4-3.5.7-1 1.1-2.2 1.3-3.4.2-1.2.4-2.5.4-3.7 0-1.3-.1-2.6-.4-3.9-.3-1.3-.7-2.4-1.4-3.4s-1.5-1.8-2.6-2.4-2.4-.9-3.9-.9-2.8.2-3.9.8zm26.2 4.3c.9-.6 2-.9 3.5-.9 1.4 0 2.6.3 3.5.9.9.6 1.6 1.6 2 2.9.1.4.1.8.1 1.2v11.6h2.9v2.2h-8.6v-2.2h2.9v-9.4c0-.6 0-1.2-.1-1.8-.1-.6-.3-1.1-.5-1.6-.3-.5-.6-.8-1.1-1.1-.5-.3-1.1-.4-1.9-.4-.5 0-1 0-1.3.1-.3.1-.7.2-1.2.5-.4.3-.7.5-.9.8-.2.3-.4.6-.6 1-.4.7-.6 1.5-.6 2.3-.1.8-.1 1.6-.1 2.4v7.3h2.9v2.2h-8.7v-2.2h3v-14h-3v-2.1h5.8v3.3c.5-1.4 1.2-2.4 2-3zm25.2 3.1c-.3-.7-1-1.2-2-1.5-.3-.1-.5-.2-.9-.2s-.6-.1-.9-.1c-.5 0-1 .1-1.5.2s-.9.3-1.2.6c-.4.3-.6.6-.9 1s-.3.9-.3 1.5c0 .3.1.6.2.9.1.3.3.6.5.8.5.3 1 .5 1.6.7l1.8.3c.8.1 1.6.3 2.4.5s1.5.5 2.1.9c.6.4 1.1.9 1.5 1.5.4.6.6 1.4.6 2.4 0 .4 0 .9-.1 1.3 0 .5-.2.9-.4 1.3-.6.9-1.3 1.6-2.1 2.2-.9.6-2 .9-3.4.9-.7 0-1.3-.1-1.9-.2-.5-.1-1-.3-1.5-.5-.4-.2-.8-.6-1.2-1-.3-.4-.7-.9-1-1.5v2.9h-2.2v-6.3h2.2c.1.6.3 1.2.5 1.8s.6 1.2 1.2 1.6c.5.4 1 .6 1.5.8.5.2 1.1.2 1.7.2 1 0 1.9-.3 2.6-.9s1.1-1.4 1.1-2.5c0-.7-.2-1.2-.5-1.5s-.7-.7-1.2-.8c-.5-.2-1-.3-1.5-.4-.5-.1-1.1-.2-1.6-.2-.8-.1-1.5-.3-2.2-.5-.7-.2-1.3-.5-1.9-.9-.5-.4-1-.9-1.3-1.5-.3-.6-.5-1.4-.5-2.3 0-.5 0-1.1.1-1.6.1-.6.3-1.1.7-1.5.8-.9 1.6-1.5 2.5-1.8s1.9-.5 3-.5c.9 0 1.8.2 2.7.6.9.4 1.5 1 2 1.8v-1.8h2.2v5.9h-2.2c.2-1.1 0-1.9-.3-2.6zm6.1 14.8v-2.2h2.9v-14h-2.9v-2.1h5.7v16.1h2.8v2.2h-8.5zm6-22.1h-3.3v-2.9h3.3v2.9zm14.7 3.9v2.1h-5.2v11.8c0 .3 0 .6.1.9 0 .3.1.6.3.8.1.2.3.4.6.6s.5.2.9.2.8-.1 1-.4c.3-.3.4-.6.5-1 .1-.4.2-.8.2-1.2v-1.1h2.3v1.4c0 .9-.2 1.7-.6 2.5-.3.8-1 1.4-1.8 1.7-.3.1-.6.1-.9.2-.3.1-.6.1-.9.1s-.6 0-.9-.1c-.2 0-.5-.1-.9-.1-.6-.1-1.1-.4-1.5-.8s-.7-.9-.9-1.4c-.1-.2-.1-.4-.2-.7 0-.3-.1-.6-.1-.9v-12.4h-3.1v-2.1h3.1V665l2.8-1v4.6h5.2zm6.2 9.6c0 .9.2 1.7.4 2.6.2.8.6 1.6 1.2 2.3.6.7 1.2 1.2 1.9 1.5.7.2 1.5.3 2.4.3.6 0 1.1-.1 1.6-.3s1-.5 1.4-.8c.4-.3.8-.7 1-1.2.3-.5.5-1 .5-1.5h2.7c-.2 1-.5 1.8-.9 2.6-.5.7-1 1.4-1.7 1.9s-1.5.9-2.3 1.1c-.9.2-1.8.4-2.8.4-1.5 0-2.8-.2-3.8-.7-1.1-.5-1.9-1.1-2.6-2-.7-.8-1.2-1.8-1.5-3s-.5-2.4-.5-3.8c0-1 .1-2 .3-3s.6-1.9 1-2.8c.7-1.3 1.7-2.2 3-2.9 1.3-.7 2.7-1 4.1-1 .8 0 1.7.1 2.6.4.9.3 1.7.7 2.3 1.2.7.6 1.3 1.3 1.7 2 .4.8.7 1.6.9 2.5.1.7.2 1.3.3 1.8s.1 1.1.1 1.8v.5h-13.3zm10.1-4.2c-.2-.7-.5-1.4-.9-1.9-.4-.6-.9-1-1.6-1.4-.6-.4-1.3-.5-2.2-.5-.8 0-1.6.2-2.2.5-.6.3-1.2.8-1.6 1.4s-.8 1.2-1 1.9c-.2.7-.4 1.5-.4 2.2h10.3c-.1-.8-.2-1.5-.4-2.2zm-103.2 82.6h3.6v-20.4h-3.6v-2.3h12.6c.5 0 1 .1 1.6.2.8.2 1.6.5 2.2 1 .6.5 1.1 1 1.5 1.6.4.6.7 1.3.9 2.1s.3 1.6.3 2.4c0 1.2-.2 2.3-.5 3.3s-1 1.8-1.9 2.7c-.4.4-.9.7-1.3.9-.5.2-1 .3-1.5.4-.5.1-1 .1-1.6.1h-5.7v8h4.2v2.3h-10.8v-2.3zm6.6-10.3h4.9c.3 0 .8-.1 1.1-.1.4-.1.7-.2 1-.3s.7-.4 1-.7c.5-.5.9-1.1 1-1.8.2-.7.3-1.4.3-2 0-.8-.1-1.6-.3-2.3-.2-.8-.7-1.4-1.3-1.8-.7-.5-1.3-.8-2.1-.9-.7-.1-1.5-.1-2.2-.1h-3.4v10zm15.5-.4c.3-1.2.9-2.2 1.8-3.2.8-.9 1.8-1.6 2.9-2 1.1-.4 2.3-.6 3.5-.6 1.4 0 2.7.3 3.7.8s1.9 1.2 2.6 2.1c.7.9 1.2 1.9 1.5 3.1s.5 2.4.5 3.7c0 1.3-.2 2.5-.5 3.6s-.9 2.1-1.6 3c-.7.9-1.6 1.6-2.6 2.1s-2.3.8-3.7.8c-1.4 0-2.6-.2-3.7-.7-1.1-.5-2-1.3-2.9-2.4-.7-1-1.2-2-1.5-3.1-.3-1.1-.5-2.2-.5-3.4 0-1.5.2-2.7.5-3.8zm2.8 6.3c.2.9.5 1.7 1 2.4s1.1 1.3 1.8 1.7c.7.4 1.5.6 2.4.6.9 0 1.7-.3 2.6-.8.8-.5 1.4-1.2 1.8-2 .4-.7.7-1.5.8-2.3.1-.8.2-1.6.2-2.5 0-.9-.1-1.7-.2-2.6-.2-.9-.5-1.6-.9-2.3-.4-.7-1-1.2-1.7-1.7-.7-.4-1.6-.6-2.6-.6s-1.9.2-2.6.7c-.7.5-1.4 1.1-1.9 1.9-.4.7-.7 1.4-.8 2.3s-.2 1.7-.2 2.4c0 1 .1 1.9.3 2.8zm27.4-8.2c-.3-.7-1-1.2-2-1.5-.3-.1-.5-.2-.9-.2s-.6-.1-.9-.1c-.5 0-1 .1-1.5.2s-.9.3-1.2.6c-.4.3-.6.6-.9 1s-.3.9-.3 1.5c0 .3.1.6.2.9.1.3.3.6.5.8.5.3 1 .5 1.6.7l1.8.3c.8.1 1.6.3 2.4.5s1.5.5 2.1.9c.6.4 1.1.9 1.5 1.5.4.6.6 1.4.6 2.4 0 .4 0 .9-.1 1.3 0 .5-.2.9-.4 1.3-.6.9-1.3 1.6-2.1 2.2-.9.6-2 .9-3.4.9-.7 0-1.3-.1-1.9-.2-.5-.1-1-.3-1.5-.5-.4-.2-.8-.6-1.2-1-.3-.4-.7-.9-1-1.5v2.9h-2.2v-6.3h2.2c.1.6.3 1.2.5 1.8s.6 1.2 1.2 1.6c.5.4 1 .6 1.5.8.5.2 1.1.2 1.7.2 1 0 1.9-.3 2.6-.9s1.1-1.4 1.1-2.5c0-.7-.2-1.2-.5-1.5s-.7-.7-1.2-.8c-.5-.2-1-.3-1.5-.4-.5-.1-1.1-.2-1.6-.2-.8-.1-1.5-.3-2.2-.5-.7-.2-1.3-.5-1.9-.9-.5-.4-1-.9-1.3-1.5-.3-.6-.5-1.4-.5-2.3 0-.5 0-1.1.1-1.6.1-.6.3-1.1.7-1.5.8-.9 1.6-1.5 2.5-1.8s1.9-.5 3-.5c.9 0 1.8.2 2.7.6.9.4 1.5 1 2 1.8v-1.8h2.2v5.9h-2.2c.3-1.1.1-1.9-.3-2.6zm16.5-3.4v2.1h-5.2v11.8c0 .3 0 .6.1.9 0 .3.1.6.3.8.1.2.3.4.6.6s.5.2.9.2.8-.1 1-.4c.3-.3.4-.6.5-1 .1-.4.2-.8.2-1.2v-1.1h2.3v1.4c0 .9-.2 1.7-.6 2.5-.3.8-1 1.4-1.8 1.7-.3.1-.6.1-.9.2-.3.1-.6.1-.9.1s-.6 0-.9-.1c-.2 0-.5-.1-.9-.1-.6-.1-1.1-.4-1.5-.8s-.7-.9-.9-1.4c-.1-.2-.1-.4-.2-.7 0-.3-.1-.6-.1-.9v-12.4h-3.1v-2.1h3.1v-3.6l2.8-1v4.6h5.2zm12.2 16h3.6v-20.4h-3.6v-2.3h20v7.5h-2.7v-5.2H1308v8.8h5.2v-3.8h2.5v9.9h-2.5v-3.7h-5.2v9.3h10.7v-5.5h2.7v7.8h-20v-2.4zm30.6-16v2.1h-2.9l4.3 13.8h.2l4.3-13.8h-2.9v-2.1h7.6v2.1h-1.9l-5.5 16.2h-3.6l-5.6-16.2h-1.8v-2.1h7.8zm15.8 9.7c0 .9.2 1.7.4 2.6.2.8.6 1.6 1.2 2.3.6.7 1.2 1.2 1.9 1.5.7.2 1.5.3 2.4.3.6 0 1.1-.1 1.6-.3s1-.5 1.4-.8c.4-.3.8-.7 1-1.2.3-.5.5-1 .5-1.5h2.7c-.2 1-.5 1.8-.9 2.6-.5.7-1 1.4-1.7 1.9s-1.5.9-2.3 1.1c-.9.2-1.8.4-2.8.4-1.5 0-2.8-.2-3.8-.7-1.1-.5-1.9-1.1-2.6-2-.7-.8-1.2-1.8-1.5-3s-.5-2.4-.5-3.8c0-1 .1-2 .3-3s.6-1.9 1-2.8c.7-1.3 1.7-2.2 3-2.9 1.3-.7 2.7-1 4.1-1 .8 0 1.7.1 2.6.4.9.3 1.7.7 2.3 1.2.7.6 1.3 1.3 1.7 2 .4.8.7 1.6.9 2.5.1.7.2 1.3.3 1.8s.1 1.1.1 1.8v.5h-13.3zm10.2-4.3c-.2-.7-.5-1.4-.9-1.9-.4-.6-.9-1-1.6-1.4-.6-.4-1.3-.5-2.2-.5-.8 0-1.6.2-2.2.5-.6.3-1.2.8-1.6 1.4s-.8 1.2-1 1.9c-.2.7-.4 1.5-.4 2.2h10.3c-.1-.7-.2-1.4-.4-2.2zm13.3-5c.9-.6 2-.9 3.5-.9 1.4 0 2.6.3 3.5.9.9.6 1.6 1.6 2 2.9.1.4.1.8.1 1.2v11.6h2.9v2.2h-8.6v-2.2h2.9v-9.4c0-.6 0-1.2-.1-1.8-.1-.6-.3-1.1-.5-1.6-.3-.5-.6-.8-1.1-1.1-.5-.3-1.1-.4-1.9-.4-.5 0-1 0-1.3.1-.3.1-.7.2-1.2.5-.4.3-.7.5-.9.8-.2.3-.4.6-.6 1-.4.7-.6 1.5-.6 2.3-.1.8-.1 1.6-.1 2.4v7.3h2.9v2.2h-8.7v-2.2h3v-14h-3v-2.1h5.8v3.3c.5-1.4 1.2-2.4 2-3zm24.1-.4v2.1h-5.2v11.8c0 .3 0 .6.1.9 0 .3.1.6.3.8.1.2.3.4.6.6s.5.2.9.2.8-.1 1-.4c.3-.3.4-.6.5-1 .1-.4.2-.8.2-1.2v-1.1h2.3v1.4c0 .9-.2 1.7-.6 2.5-.3.8-1 1.4-1.8 1.7-.3.1-.6.1-.9.2-.3.1-.6.1-.9.1s-.6 0-.9-.1c-.2 0-.5-.1-.9-.1-.6-.1-1.1-.4-1.5-.8s-.7-.9-.9-1.4c-.1-.2-.1-.4-.2-.7 0-.3-.1-.6-.1-.9v-12.4h-3.1v-2.1h3.1v-3.6l2.8-1v4.6h5.2z"/><g class="st8"><path class="st9" d="M834 407.8c-.6 0-1.3-.1-1.9-.4l-175.3-87.7c-1.5-.7-2.4-2.2-2.3-3.9 0-1.6 1-3.1 2.5-3.7l217.1-91.8c1.4-.6 3.1-.4 4.3.7 1.2 1 1.7 2.6 1.4 4.1L838 404.6c-.3 1.2-1.1 2.3-2.3 2.8-.5.3-1.1.4-1.7.4zm-165.4-91.5l162.5 81.3 38.7-166.4-201.2 85.1z"/><path class="st9" d="M746.3 432.8c-.3 0-.6 0-1-.1-1.8-.4-3.1-2-3.2-3.8l-4.2-71c-.1-1.2.4-2.4 1.2-3.2l129.4-129.4c1.6-1.6 4.3-1.6 5.9 0 1.6 1.6 1.6 4.3 0 5.9l-128 128.1 3.3 55.3 22.3-38.2c1.2-2 3.7-2.7 5.7-1.5 2 1.2 2.7 3.7 1.5 5.7L750 430.7c-.9 1.4-2.3 2.1-3.7 2.1zm-59.9-25.7c-1.1 0-2.1-.4-3-1.2-1.6-1.6-1.6-4.3 0-5.9l25-25c1.6-1.6 4.3-1.6 5.9 0 1.6 1.6 1.6 4.3 0 5.9l-25 25c-.7.8-1.8 1.2-2.9 1.2zm22.3 9c-1.1 0-2.1-.4-3-1.2-1.6-1.6-1.6-4.3 0-5.9l8.7-8.7c1.6-1.6 4.3-1.6 5.9 0 1.6 1.6 1.6 4.3 0 5.9l-8.7 8.7c-.8.8-1.8 1.2-2.9 1.2z"/></g><g class="st8"><path class="st4" d="M437.5 872c0-15-12.2-27.2-27.2-27.2S383.1 857 383.1 872v9.1h9.1V872c0-10 8.1-18.1 18.1-18.1 10 0 18.1 8.1 18.1 18.1s-8.1 18.1-18.1 18.1H294.6l6.5 9.1h109.2c15 0 27.2-12.2 27.2-27.2z"/><path class="st4" d="M464.7 872c0-30-24.4-54.4-54.4-54.4S355.9 842 355.9 872v9.1h9.1V872c0-25 20.3-45.3 45.3-45.3 25 0 45.3 20.3 45.3 45.3s-20.3 45.3-45.3 45.3h-51.2v9.1h51.2c30 0 54.4-24.4 54.4-54.4z"/><path class="st4" d="M519.1 953.6l-54.4-40.8v22.7H283.4v9.1h190.4V931l30.2 22.6-30.2 22.7v-13.6H283.4v9.1h181.3v22.6z"/><path class="st4" d="M374 1048.8l40.8-54.4h-22.6v-13.6h-9.1v22.7h13.6l-22.7 30.2-22.6-30.2H365v-22.7h-9.1v13.6h-22.7z"/></g><g class="st8"><path class="st2" d="M1186 775h-143.4c-7.4 0-13.4-6-13.4-13.4V586.7c0-7.4 6-13.4 13.4-13.4h22.4v9h-22.4c-2.5 0-4.5 2-4.5 4.5v174.8c0 2.5 2 4.5 4.5 4.5H1186c2.5 0 4.5-2 4.5-4.5V586.7c0-2.5-2-4.5-4.5-4.5h-22.4v-9h22.4c7.4 0 13.4 6 13.4 13.4v174.8c.1 7.5-6 13.6-13.4 13.6z"/><path class="st2" d="M1163.6 595.7H1065c-2.5 0-4.5-2-4.5-4.5v-26.9c0-1.2.5-2.3 1.3-3.2s2-1.3 3.2-1.3h17.9v-4.5c0-17.6 13.8-31.4 31.4-31.4 17.6 0 31.4 13.8 31.4 31.4v4.5h17.9c2.5 0 4.5 2 4.5 4.5v26.9c0 1.2-.5 2.3-1.3 3.2-.9.8-2 1.3-3.2 1.3zm-94.1-9h89.6v-17.9h-17.9c-2.5 0-4.5-2-4.5-4.5v-9c0-12.6-9.8-22.4-22.4-22.4-12.6 0-22.4 9.8-22.4 22.4v9c0 2.5-2 4.5-4.5 4.5h-17.9v17.9z"/><circle class="st2" cx="1114.3" cy="555.3" r="9"/><path class="st2" d="M1082.9 667.4c-12.4 0-22.4-10.1-22.4-22.4s10.1-22.4 22.4-22.4c12.4 0 22.4 10.1 22.4 22.4s-10 22.4-22.4 22.4zm0-35.9c-7.4 0-13.4 6-13.4 13.4s6 13.4 13.4 13.4 13.4-6 13.4-13.4-6-13.4-13.4-13.4zm0 94.1c-12.4 0-22.4-10.1-22.4-22.4s10.1-22.4 22.4-22.4c12.4 0 22.4 10.1 22.4 22.4s-10 22.4-22.4 22.4zm0-35.8c-7.4 0-13.4 6-13.4 13.4s6 13.4 13.4 13.4 13.4-6 13.4-13.4-6-13.4-13.4-13.4zm71.7-49.3h-31.4c-2.5 0-4.5-2-4.5-4.5s2-4.5 4.5-4.5h31.4c2.5 0 4.5 2 4.5 4.5s-2 4.5-4.5 4.5zm-8.9 17.9h-22.4c-2.5 0-4.5-2-4.5-4.5s2-4.5 4.5-4.5h22.4c2.5 0 4.5 2 4.5 4.5s-2 4.5-4.5 4.5zm8.9 40.4h-31.4c-2.5 0-4.5-2-4.5-4.5s2-4.5 4.5-4.5h31.4c2.5 0 4.5 2 4.5 4.5s-2 4.5-4.5 4.5zm-8.9 17.9h-22.4c-2.5 0-4.5-2-4.5-4.5s2-4.5 4.5-4.5h22.4c2.5 0 4.5 2 4.5 4.5s-2 4.5-4.5 4.5z"/></g><path class="st7" d="M205.4 960v-21.2l-1.2-.7-17.5-10.5c-5.2-3.1-8.4-9-10.3-15.8-1.9-6.8-2.4-14.2-2.4-19.8 0-5.2.4-8.7.4-8.7l-4.7-.5c0 .1-.4 3.8-.4 9.2 0 5.8.5 13.6 2.5 21 2.1 7.4 5.7 14.5 12.4 18.6 10.4 6.2 14.6 8.8 16.3 9.8v18.5h4.9"/><path class="st7" d="M124.3 884.6v-20.5h13.5c-6.9-9-11.1-21.8-11.1-36v-2.4H195v2.4c0 14.2-4.2 27.1-11.1 36h13.5v20.5h-73.1m4.8-4.8h63.4v-10.9h-14v-2.4l1.7 1.7-1.7-1.7v2.4h-5.8l4.2-4.1c7.5-7.3 12.8-19.9 13.3-34.3h-58.6c.5 14.5 5.8 27 13.3 34.3l4.2 4.1h-19.8v10.9z"/><path class="st7" d="M147.8 815.8c0-7.6 6.2-13.8 13.8-13.8 7.6 0 13.8 6.2 13.8 13.8 0 7.6-6.2 13.8-13.8 13.8-7.6 0-13.8-6.1-13.8-13.8m4.8 0c0 5 4 9 9 9s9-4 9-9-4-9-9-9c-4.9 0-9 4-9 9M116.5 960v-21.2l1.2-.7 17.5-10.5c5.2-3.1 8.4-9 10.3-15.8 1.9-6.8 2.4-14.2 2.4-19.8 0-5.2-.4-8.7-.4-8.7l4.7-.5c0 .1.4 3.8.4 9.2 0 5.8-.5 13.6-2.5 21-2.1 7.4-5.7 14.5-12.4 18.6-10.4 6.2-14.6 8.8-16.3 9.8v18.5h-4.9"/><path class="st7" d="M109 957.6h103.5V979H109v-21.4zm101.2 19v-2.4 2.4zm-96.4-2.4h94v-11.8h-94v11.8zm36.4-82.1h21.2v4.8h-21.2zm-.6 10.5h22.7v4.8h-22.7zm598.6-367c0-32.9-26.7-59.6-59.6-59.6-32.9 0-59.6 26.7-59.6 59.6 0 24.1 14.3 44.9 34.9 54.2v11.9h-6.3v5.4h6.3v9.4h-6.3v5.4h6.3v9.4h-6.3v5.4h6.3v10.7h11.2v14.1H702v-14.1h11.2v-10.7h6.3v-5.4h-6.3v-9.4h6.3v-5.4h-6.3v-9.4h6.3v-5.4h-6.3v-11.9c20.6-9.4 35-30.1 35-54.2m-51.5 120.5h-16.1v-8.8h16.1v8.8zm11.2-14.1h-38.5v-5.4h38.5v5.4zm0-10.7h-38.5v-9.4h38.5v9.4zm0-14.8h-38.5v-9.4h38.5v9.4zm-9.6-14.8v-63l17.4-17.4-3.8-3.8-18.9 18.9v65.3h-7.4v-65.3l-18.9-18.9-3.8 3.8 17.4 17.4v63h-10.8v-15.5l-1.6-.7c-19.6-8.2-33.3-27.5-33.3-50 0-15 6.1-28.5 15.9-38.3 9.8-9.8 23.4-15.9 38.3-15.9 15 0 28.5 6.1 38.3 15.9 9.8 9.8 15.9 23.3 15.9 38.3 0 22.5-13.7 41.8-33.3 50l-1.6.7v15.5h-9.8zm470.8-279.5c18.6 0 33.7-15.1 33.7-33.7 0-2.3-.2-4.4-.7-6.6l7.7 7.2 3.7-4-14.2-13.1-13 14 4 3.7 6.4-6.8c.4 1.8.6 3.7.6 5.7 0 15.6-12.7 28.3-28.3 28.3-15.6 0-28.3-12.7-28.3-28.3 0-15.6 12.7-28.3 28.3-28.3 6.1 0 11.6 1.9 16.3 5.1l3.1-4.4c-5.5-3.9-12.2-6.1-19.4-6.1-18.6 0-33.7 15.1-33.7 33.7.1 18.6 15.2 33.6 33.8 33.6"/><path class="st7" d="M1168.7 343.9c30.6 0 55.5-24.8 55.5-55.5 0-30.6-24.8-55.5-55.5-55.5-30.6 0-55.5 24.8-55.5 55.5 0 30.6 24.9 55.5 55.5 55.5m0-105.6c27.6.1 50 22.4 50.1 50.1-.1 27.6-22.4 50-50.1 50.1-27.6 0-50-22.4-50.1-50.1.1-27.7 22.5-50 50.1-50.1"/><path class="st7" d="M1210.5 343.2c-11.6 8.8-26 14.1-41.7 14.1-15.6 0-30-5.3-41.6-14l10.5.1V338l-19.3-.2-.2 19.1h5.4l.1-9.5c12.5 9.6 28.1 15.3 45.1 15.3 16.9 0 32.5-5.7 45-15.2l-3.3-4.3zm30.4-18.8l-9.6 3.9c7.4-11.6 11.7-25.3 11.7-40 0-41.1-33.3-74.3-74.3-74.3-41.1 0-74.3 33.3-74.3 74.3 0 16.9 5.7 32.5 15.2 45l4.3-3.3c-8.8-11.6-14.1-26-14.1-41.7 0-19 7.7-36.2 20.2-48.7s29.7-20.2 48.7-20.2c19 0 36.2 7.7 48.7 20.2s20.2 29.7 20.2 48.7c0 13.8-4.1 26.5-11 37.3l-3.7-8.9-5 2.1 7.4 17.9 17.7-7.3-2.1-5z"/><path class="st10" d="M454.1 813.2V423.9c0-95.3 77.3-172.6 172.6-172.6s172.6 77.3 172.6 172.6v234.6m281.4 299.2c53.9-35.3 89.4-96.2 89.4-165.4V528.5"/><path class="st11" d="M969 997.3h-6"/><path class="st12" d="M938.6 997.3h-17.9c-119.2 0-216.9-89.2-226.2-205.8"/><path class="st11" d="M693.9 779.3c-.1-2-.1-4-.1-5.9"/><path class="st13" d="M296.9 772.9v46.4c0 43.4 35.2 78.6 78.6 78.6 43.4 0 78.6-35.2 78.6-78.6"/><path class="st10" d="M1145.4 740v43.4c0 103-83.5 186.6-186.6 186.6h-48.7c-103 0-186.6-83.5-186.6-186.6v-10.1"/><path class="st14" d="M366.4 921.7c-53.2 0-96.3-43.1-96.3-96.3v-52.5"/><path class="st13" d="M1145.4 751.1V528.6m-22.1-454.4c28 16 46.9 46.2 46.9 80.8"/><path class="st10" d="M530.7 62h456M209.5 657.5V383.2M767.2 85.7h309.9c38.3 0 69.3 31 69.3 69.3M236.2 657.5V387.7c0-166.8 135.2-302 302-302"/><path class="st13" d="M209.5 383.2C209.5 205.8 353.3 62 530.7 62"/></svg>