<?xml version="1.0" encoding="utf-8"?>
<!-- Generator: Adobe Illustrator 22.0.1, SVG Export Plug-In . SVG Version: 6.00 Build 0)  -->
<svg version="1.1" id="Layer_1" xmlns="http://www.w3.org/2000/svg" xmlns:xlink="http://www.w3.org/1999/xlink" x="0px" y="0px"
	 viewBox="0 0 720 720" style="enable-background:new 0 0 720 720;" xml:space="preserve">
<style type="text/css">
	.st0{fill:#C56D2F;}
	.st1{fill:#A2A2A3;}
	.st2{fill:#81A863;}
	.st3{fill:#4AA6A4;}
	.st4{fill:#4F4F50;}
	.st5{opacity:0.3;}
	.st6{fill:#9BC4BD;}
</style>
<g>
	<g>
		<path class="st0" d="M105.7,212.9l-24-11.8l5.9-12c14.9-30.3,37.9-55.9,66.4-74.1c29.4-18.7,63.3-28.5,98.3-28.5h200.5v26.7H252.3
			c-29.8,0-58.9,8.4-83.9,24.3c-24.4,15.5-44.1,37.4-56.8,63.3L105.7,212.9z"/>
	</g>
	<g>
		<path class="st1" d="M536,596.5l-14.5-22.4l11.2-7.3c2.8-1.8,5.4-3.7,8-5.8c10.8-8.7,19.5-19.2,25.8-31.5l6.2-11.8l23.7,12.3
			l-6.2,11.8c-8.1,15.5-19.1,29-32.8,40c-3.3,2.6-6.7,5.1-10.2,7.4L536,596.5z"/>
	</g>
	<g>
		<polygon class="st1" points="541.6,286 541.6,210.3 638.9,153.5 638.9,229.4 		"/>
	</g>
	<g>
		<path class="st2" d="M225.1,407.8h-26.7V291.5c0-57.8,47-104.8,104.8-104.8v26.7c-43,0-78,35-78,78V407.8z"/>
	</g>
	<g>
		<polygon class="st2" points="7.7,608.1 7.7,532.4 105.1,475.6 105.1,551.4 		"/>
	</g>
	<g>
		<polygon class="st3" points="286.9,432.9 286.9,357.2 384.3,300.4 384.3,376.3 		"/>
	</g>
	<g>
		<path class="st3" d="M472.2,608.6h-13.4c-26.4,0-51.8-7.3-73.4-21.2c-21.4-13.7-38.2-33.2-48.6-56.4l-5.4-12.2l24.4-10.9l5.4,12.2
			c8.2,18.4,21.5,33.9,38.6,44.8c17.3,11.1,37.7,17,59,17h13.4V608.6z"/>
	</g>
	<g>
		<g>
			<path class="st4" d="M53.1,438c-0.2-0.7-0.5-1.4-0.9-1.9s-0.9-1-1.6-1.2c-0.7-0.3-1.5-0.4-2.4-0.4c-0.6,0-1.2,0.1-1.7,0.3
				c-0.5,0.2-1,0.4-1.4,0.8c-0.4,0.3-0.7,0.8-0.9,1.3s-0.3,1.1-0.3,1.7c0,0.5,0.1,1,0.3,1.5c0.2,0.5,0.5,0.9,0.9,1.2
				c0.1,0.1,0.3,0.2,0.5,0.4s0.5,0.2,0.8,0.4s0.5,0.2,0.8,0.3s0.5,0.2,0.6,0.2l3.1,1.2c0.8,0.3,1.6,0.6,2.2,0.9s1.3,0.7,1.9,1.4
				c0.6,0.6,1,1.3,1.2,2c0.2,0.8,0.4,1.5,0.4,2.3c0,0.6,0,1.1-0.1,1.6c-0.1,0.5-0.3,1.1-0.7,1.8c-0.6,1.1-1.4,1.9-2.5,2.5
				s-2.4,0.9-4,0.9c-0.6,0-1.2-0.1-1.8-0.2c-0.6-0.1-1.1-0.3-1.7-0.6c-0.5-0.3-1-0.6-1.4-1.1c-0.4-0.4-0.7-1-0.9-1.6v3.1h-2.6v-8.2
				h2.6c0,0.9,0.1,1.7,0.4,2.4s0.6,1.4,1,2s1,1,1.7,1.4s1.5,0.5,2.4,0.5c0.7,0,1.3-0.1,1.9-0.2c0.6-0.1,1.1-0.5,1.6-1
				c0.4-0.5,0.7-0.9,0.9-1.4c0.2-0.5,0.3-1.1,0.3-1.7c0-0.6-0.1-1.2-0.3-1.6c-0.2-0.4-0.4-0.8-0.7-1.1s-0.7-0.6-1.1-0.8
				c-0.4-0.2-0.9-0.4-1.4-0.6l-3.9-1.5c-0.8-0.3-1.5-0.6-2.1-0.9c-0.7-0.3-1.2-0.7-1.7-1.2s-0.8-1-1.1-1.7s-0.4-1.4-0.4-2.3
				c0-0.9,0.1-1.6,0.3-2.2s0.5-1.2,0.9-1.7c0.8-1,1.7-1.7,2.7-2.1c0.9-0.4,2.1-0.6,3.4-0.6c1.1,0,2.1,0.2,3.1,0.6
				c1,0.4,1.7,1.1,2.3,2.1v-2.3H56v7.9h-2.6C53.4,439.6,53.3,438.7,53.1,438z"/>
		</g>
		<g>
			<path class="st4" d="M69,439.1v2H64v11.4c0,0.3,0,0.6,0.1,0.9c0,0.3,0.1,0.5,0.3,0.8c0.1,0.2,0.3,0.4,0.5,0.6
				c0.2,0.1,0.5,0.2,0.9,0.2c0.4,0,0.8-0.1,1-0.4c0.2-0.3,0.4-0.6,0.5-1c0.1-0.4,0.2-0.8,0.2-1.2s0-0.8,0-1.1h2.2v0.6
				c0,0.2,0,0.4,0,0.6c0,0.8-0.2,1.6-0.6,2.4c-0.3,0.8-0.9,1.3-1.8,1.7c-0.3,0.1-0.6,0.1-0.9,0.2s-0.6,0.1-0.9,0.1
				c-0.3,0-0.6,0-0.8-0.1c-0.2,0-0.5-0.1-0.8-0.1c-0.6-0.1-1-0.4-1.4-0.8c-0.4-0.4-0.7-0.9-0.9-1.4c-0.1-0.2-0.1-0.4-0.2-0.7
				s-0.1-0.6-0.1-0.9c0-0.3,0-0.6,0-0.9v-0.7v-10.3h-3v-2h3v-3.4l2.7-1v4.5H69z"/>
		</g>
		<g>
			<path class="st4" d="M77.9,440.8c0.3-0.5,0.6-0.9,1-1.2c0.4-0.3,0.9-0.5,1.4-0.6c0.6-0.1,1.2-0.2,2-0.2h0.7v2.5
				c-0.2,0-0.4-0.1-0.6-0.1s-0.4,0-0.6,0c-1,0-1.8,0.2-2.5,0.6s-1.1,0.9-1.5,1.5s-0.6,1.3-0.7,2.1c-0.1,0.8-0.2,1.6-0.2,2.5v6.7h3.3
				v2.1h-8.9v-2.1h2.8v-13.5h-2.8v-2H77v3.5C77.3,441.9,77.6,441.3,77.9,440.8z"/>
		</g>
		<g>
			<path class="st4" d="M94.3,456.1c-0.9,0.6-2.1,0.9-3.5,0.9c-0.6,0-1.2-0.1-1.8-0.2c-0.6-0.1-1.1-0.4-1.6-0.7
				c-0.5-0.3-0.9-0.7-1.3-1.2c-0.4-0.5-0.6-1-0.8-1.7c-0.1-0.4-0.2-0.8-0.2-1v-0.6c0-1,0.2-1.8,0.6-2.5s0.9-1.2,1.5-1.7
				c0.6-0.4,1.3-0.8,2.1-1c0.8-0.2,1.7-0.3,2.5-0.3c0.3,0,0.6,0,1,0c0.3,0,0.6,0,1,0h2.8v-1.6c0-0.6-0.1-1.2-0.3-1.6
				c-0.1-0.4-0.4-0.9-0.9-1.4c-0.3-0.3-0.7-0.6-1.2-0.7c-0.5-0.2-1-0.2-1.4-0.2c-0.7,0-1.4,0.1-1.9,0.2c-0.5,0.2-1.1,0.6-1.6,1.2
				c-0.2,0.3-0.4,0.6-0.5,1c-0.1,0.4-0.1,0.7-0.2,1.1h-2.8c0.1-1.3,0.4-2.4,1-3.2s1.6-1.5,2.8-1.9c0.5-0.2,1-0.3,1.5-0.3
				c0.5,0,1-0.1,1.5-0.1c0.9,0,1.8,0.1,2.6,0.3c0.8,0.2,1.5,0.6,2.3,1.2c0.7,0.6,1.2,1.2,1.4,2s0.3,1.6,0.3,2.4v10.1h2.8v2.1h-5.3
				v-3.5C95.9,454.6,95.2,455.5,94.3,456.1z M88.8,454c0.5,0.6,1.3,0.9,2.3,0.9c1,0,1.9-0.2,2.5-0.6s1.2-0.9,1.7-1.5
				c0.4-0.6,0.7-1.4,0.9-2.2c0.2-0.8,0.3-1.7,0.3-2.5c-0.4-0.1-0.9-0.1-1.4-0.1c-0.5,0-0.9,0-1.4,0c-0.7,0-1.4,0-2,0.1
				c-0.7,0-1.3,0.2-1.9,0.4c-0.6,0.2-1,0.6-1.4,1.1c-0.4,0.5-0.5,1.2-0.5,2C88,452.6,88.3,453.4,88.8,454z"/>
		</g>
		<g>
			<path class="st4" d="M113.4,439.1v2h-5.1v11.4c0,0.3,0,0.6,0.1,0.9c0,0.3,0.1,0.5,0.3,0.8c0.1,0.2,0.3,0.4,0.5,0.6
				c0.2,0.1,0.5,0.2,0.9,0.2c0.4,0,0.8-0.1,1-0.4c0.2-0.3,0.4-0.6,0.5-1c0.1-0.4,0.2-0.8,0.2-1.2s0-0.8,0-1.1h2.2v0.6
				c0,0.2,0,0.4,0,0.6c0,0.8-0.2,1.6-0.6,2.4c-0.3,0.8-0.9,1.3-1.8,1.7c-0.3,0.1-0.6,0.1-0.9,0.2s-0.6,0.1-0.9,0.1
				c-0.3,0-0.6,0-0.8-0.1c-0.2,0-0.5-0.1-0.8-0.1c-0.6-0.1-1-0.4-1.4-0.8c-0.4-0.4-0.7-0.9-0.9-1.4c-0.1-0.2-0.1-0.4-0.2-0.7
				s-0.1-0.6-0.1-0.9c0-0.3,0-0.6,0-0.9v-0.7v-10.3h-3v-2h3v-3.4l2.7-1v4.5H113.4z"/>
		</g>
		<g>
			<path class="st4" d="M119.4,448.5c0,0.9,0.2,1.7,0.4,2.5s0.6,1.6,1.2,2.2c0.6,0.7,1.2,1.2,1.8,1.4s1.4,0.3,2.3,0.3
				c0.5,0,1.1-0.1,1.6-0.3s0.9-0.5,1.4-0.8c0.4-0.3,0.7-0.7,1-1.2s0.4-0.9,0.5-1.5h2.6c-0.2,0.9-0.5,1.8-0.9,2.5
				c-0.5,0.7-1,1.3-1.7,1.8c-0.7,0.5-1.4,0.8-2.2,1.1c-0.8,0.2-1.7,0.4-2.7,0.4c-1.4,0-2.7-0.2-3.7-0.7c-1-0.5-1.9-1.1-2.5-1.9
				s-1.1-1.8-1.4-2.9c-0.3-1.1-0.5-2.3-0.5-3.6c0-0.9,0.1-1.9,0.3-2.9c0.2-1,0.5-1.9,1-2.7c0.7-1.2,1.6-2.2,2.9-2.8
				c1.2-0.7,2.6-1,4-1c0.8,0,1.7,0.1,2.5,0.4c0.9,0.3,1.6,0.6,2.3,1.2c0.7,0.6,1.2,1.2,1.6,2c0.4,0.7,0.7,1.5,0.9,2.4
				c0.1,0.7,0.2,1.2,0.3,1.8c0.1,0.5,0.1,1.1,0.1,1.8v0.5H119.4z M129.2,444.3c-0.2-0.7-0.5-1.3-0.9-1.9s-0.9-1-1.5-1.4
				c-0.6-0.3-1.3-0.5-2.1-0.5c-0.8,0-1.5,0.2-2.1,0.5c-0.6,0.3-1.1,0.8-1.6,1.3s-0.8,1.2-1,1.9c-0.2,0.7-0.4,1.4-0.4,2.1h10
				C129.5,445.7,129.4,445,129.2,444.3z"/>
		</g>
		<g>
			<path class="st4" d="M139.5,459.8c0.3,0.3,0.6,0.6,1,0.8c0.4,0.2,0.8,0.3,1.3,0.4c0.5,0.1,0.9,0.1,1.4,0.1c0.4,0,0.8,0,1.2-0.1
				c0.4-0.1,0.8-0.2,1.2-0.4c0.4-0.2,0.8-0.4,1.1-0.6c0.3-0.3,0.6-0.6,0.8-0.9c0.4-0.7,0.6-1.4,0.7-2.1c0.1-0.8,0.1-1.5,0.1-2.3
				v-1.1c-0.4,0.6-0.8,1.1-1.2,1.5c-0.4,0.4-0.9,0.8-1.3,1c-0.5,0.3-1,0.5-1.6,0.6s-1.2,0.2-1.9,0.2c-1.3,0-2.4-0.2-3.3-0.7
				s-1.7-1.2-2.3-2c-0.6-0.8-1.1-1.8-1.4-2.9c-0.3-1.1-0.5-2.2-0.5-3.3c0-1.2,0.1-2.3,0.3-3.2c0.2-1,0.5-2,1.1-2.9
				c0.3-0.6,0.7-1.1,1.2-1.5c0.5-0.4,1-0.8,1.5-1c0.6-0.3,1.1-0.5,1.7-0.6c0.6-0.1,1.1-0.2,1.7-0.2c1.3,0,2.4,0.3,3.5,0.8
				c1.1,0.5,1.9,1.4,2.5,2.5v-2.8h5.6v2H151V455c0,0.7,0,1.3-0.1,1.8c0,0.6-0.1,1.1-0.3,1.6c-0.1,0.5-0.4,1-0.6,1.5
				c-0.3,0.5-0.6,1-1.1,1.4c-0.3,0.3-0.7,0.6-1.2,0.8c-0.5,0.2-1,0.4-1.5,0.6c-0.5,0.2-1,0.3-1.6,0.3c-0.5,0.1-1,0.1-1.5,0.1
				c-0.8,0-1.6-0.1-2.5-0.2s-1.6-0.4-2.3-0.7c-0.7-0.3-1.3-0.8-1.7-1.5c-0.5-0.6-0.8-1.4-0.9-2.4h3C139,459,139.2,459.4,139.5,459.8
				z M145.2,454.3c0.7-0.4,1.3-1,1.8-1.6c0.5-0.6,0.8-1.3,0.9-2.1c0.2-0.8,0.3-1.6,0.3-2.3c0-0.5,0-1,0-1.4c0-0.4-0.1-0.9-0.2-1.3
				c-0.1-0.4-0.2-0.8-0.4-1.2c-0.2-0.4-0.4-0.8-0.6-1.2c-0.4-0.7-1-1.2-1.7-1.6c-0.7-0.4-1.5-0.6-2.2-0.6c-1,0-1.8,0.2-2.5,0.6
				c-0.7,0.4-1.2,1-1.6,1.6c-0.4,0.7-0.7,1.4-0.9,2.3c-0.2,0.8-0.3,1.7-0.3,2.5s0.1,1.7,0.3,2.5c0.2,0.8,0.5,1.6,1,2.3
				c0.5,0.7,1,1.2,1.7,1.6s1.4,0.6,2.2,0.6C143.7,454.9,144.5,454.7,145.2,454.3z"/>
		</g>
		<g>
			<path class="st4" d="M162.4,441.1h-2.7l4.3,12.4l4.2-12.4h-2.8v-2h7.2v2H171l-5.8,15.8c-0.2,0.5-0.4,0.9-0.5,1.3
				c-0.2,0.4-0.4,0.8-0.6,1.3s-0.4,0.9-0.7,1.3s-0.6,0.8-1.1,1c-0.4,0.2-0.8,0.4-1.3,0.6c-0.5,0.1-1,0.2-1.4,0.2
				c-0.4,0-0.7,0-1.1-0.1c-0.3-0.1-0.7-0.1-1.1-0.2v-2.2c0.6,0.2,1.3,0.2,2,0.2c0.5,0,0.8-0.1,1.2-0.4c0.3-0.2,0.6-0.6,0.8-0.9
				c0.2-0.4,0.4-0.8,0.5-1.2c0.1-0.4,0.3-0.8,0.4-1.1l-5.9-15.7h-1.7v-2h7.5V441.1z"/>
		</g>
	</g>
	<g>
		<g>
			<path class="st4" d="M317.3,436.4c-1.1-1.2-2.6-1.8-4.7-1.8c-1.5,0-2.7,0.3-3.7,0.8c-1,0.5-1.8,1.3-2.4,2.2s-1.1,1.9-1.3,3.1
				c-0.3,1.2-0.4,2.4-0.4,3.7c0,1.3,0.1,2.5,0.4,3.8c0.2,1.2,0.6,2.3,1.2,3.3c0.6,1,1.4,1.8,2.4,2.3c1,0.6,2.2,0.9,3.7,0.9
				c1.9,0,3.4-0.6,4.5-1.7s1.7-2.6,1.8-4.4h3.1c0,1.4-0.3,2.6-0.8,3.7c-0.5,1.1-1.2,1.9-2,2.7c-0.8,0.7-1.8,1.3-2.9,1.6
				c-1.1,0.4-2.4,0.6-3.7,0.6c-1.7,0-3.2-0.3-4.6-0.8c-1.4-0.6-2.7-1.5-3.7-2.9c-0.5-0.6-0.8-1.2-1.2-1.9c-0.3-0.7-0.6-1.5-0.8-2.3
				s-0.4-1.6-0.5-2.3c-0.1-0.8-0.2-1.5-0.2-2.3c0-1.7,0.2-3.3,0.7-4.8s1.1-2.7,1.8-3.8c1-1.3,2.1-2.2,3.5-2.9c1.4-0.7,3-1,4.8-1
				c0.7,0,1.5,0.1,2.2,0.2s1.4,0.4,2,0.7c0.6,0.3,1.2,0.7,1.7,1.2c0.5,0.5,0.9,1.1,1.2,1.8v-3.5h2.4v8.6h-2.6
				C319,439.2,318.4,437.6,317.3,436.4z"/>
		</g>
		<g>
			<path class="st4" d="M331.3,440.8c0.3-0.5,0.6-0.9,1-1.2c0.4-0.3,0.9-0.5,1.4-0.6c0.6-0.1,1.2-0.2,2-0.2h0.7v2.5
				c-0.2,0-0.4-0.1-0.6-0.1s-0.4,0-0.6,0c-1,0-1.8,0.2-2.5,0.6s-1.1,0.9-1.5,1.5s-0.6,1.3-0.7,2.1c-0.1,0.8-0.2,1.6-0.2,2.5v6.7h3.3
				v2.1h-8.9v-2.1h2.8v-13.5h-2.8v-2h5.5v3.5C330.7,441.9,331,441.3,331.3,440.8z"/>
		</g>
		<g>
			<path class="st4" d="M341.6,448.5c0,0.9,0.2,1.7,0.4,2.5s0.6,1.6,1.2,2.2c0.6,0.7,1.2,1.2,1.8,1.4s1.4,0.3,2.3,0.3
				c0.5,0,1.1-0.1,1.6-0.3s0.9-0.5,1.4-0.8c0.4-0.3,0.7-0.7,1-1.2s0.4-0.9,0.5-1.5h2.6c-0.2,0.9-0.5,1.8-0.9,2.5
				c-0.5,0.7-1,1.3-1.7,1.8c-0.7,0.5-1.4,0.8-2.2,1.1s-1.7,0.4-2.7,0.4c-1.4,0-2.7-0.2-3.7-0.7c-1-0.5-1.9-1.1-2.5-1.9
				s-1.1-1.8-1.4-2.9c-0.3-1.1-0.5-2.3-0.5-3.6c0-0.9,0.1-1.9,0.3-2.9c0.2-1,0.5-1.9,1-2.7c0.7-1.2,1.6-2.2,2.9-2.8
				c1.2-0.7,2.6-1,4-1c0.8,0,1.7,0.1,2.5,0.4c0.9,0.3,1.6,0.6,2.3,1.2c0.7,0.6,1.2,1.2,1.6,2c0.4,0.7,0.7,1.5,0.9,2.4
				c0.1,0.7,0.2,1.2,0.3,1.8c0.1,0.5,0.1,1.1,0.1,1.8v0.5H341.6z M351.3,444.3c-0.2-0.7-0.5-1.3-0.9-1.9s-0.9-1-1.5-1.4
				c-0.6-0.3-1.3-0.5-2.1-0.5c-0.8,0-1.5,0.2-2.1,0.5c-0.6,0.3-1.1,0.8-1.6,1.3s-0.8,1.2-1,1.9c-0.2,0.7-0.4,1.4-0.4,2.1h10
				C351.6,445.7,351.5,445,351.3,444.3z"/>
		</g>
		<g>
			<path class="st4" d="M366.5,456.1c-0.9,0.6-2.1,0.9-3.5,0.9c-0.6,0-1.2-0.1-1.8-0.2c-0.6-0.1-1.1-0.4-1.6-0.7
				c-0.5-0.3-0.9-0.7-1.3-1.2c-0.4-0.5-0.6-1-0.8-1.7c-0.1-0.4-0.2-0.8-0.2-1v-0.6c0-1,0.2-1.8,0.6-2.5s0.9-1.2,1.5-1.7
				c0.6-0.4,1.3-0.8,2.1-1c0.8-0.2,1.7-0.3,2.5-0.3c0.3,0,0.6,0,1,0c0.3,0,0.6,0,1,0h2.8v-1.6c0-0.6-0.1-1.2-0.3-1.6
				c-0.1-0.4-0.4-0.9-0.9-1.4c-0.3-0.3-0.7-0.6-1.2-0.7c-0.5-0.2-1-0.2-1.4-0.2c-0.7,0-1.4,0.1-1.9,0.2c-0.5,0.2-1.1,0.6-1.6,1.2
				c-0.2,0.3-0.4,0.6-0.5,1c-0.1,0.4-0.1,0.7-0.2,1.1h-2.8c0.1-1.3,0.4-2.4,1-3.2s1.6-1.5,2.8-1.9c0.5-0.2,1-0.3,1.5-0.3
				c0.5,0,1-0.1,1.5-0.1c0.9,0,1.8,0.1,2.6,0.3s1.5,0.6,2.3,1.2c0.7,0.6,1.2,1.2,1.4,2c0.2,0.8,0.3,1.6,0.3,2.4v10.1h2.8v2.1h-5.3
				v-3.5C368.1,454.6,367.4,455.5,366.5,456.1z M361,454c0.5,0.6,1.3,0.9,2.3,0.9s1.9-0.2,2.5-0.6s1.2-0.9,1.7-1.5
				c0.4-0.6,0.7-1.4,0.9-2.2c0.2-0.8,0.3-1.7,0.3-2.5c-0.4-0.1-0.9-0.1-1.4-0.1c-0.5,0-0.9,0-1.4,0c-0.7,0-1.4,0-2,0.1
				c-0.7,0-1.3,0.2-1.9,0.4s-1,0.6-1.4,1.1c-0.4,0.5-0.5,1.2-0.5,2C360.2,452.6,360.4,453.4,361,454z"/>
		</g>
		<g>
			<path class="st4" d="M385.6,439.1v2h-5.1v11.4c0,0.3,0,0.6,0.1,0.9c0,0.3,0.1,0.5,0.3,0.8s0.3,0.4,0.5,0.6
				c0.2,0.1,0.5,0.2,0.9,0.2c0.4,0,0.8-0.1,1-0.4c0.2-0.3,0.4-0.6,0.5-1s0.2-0.8,0.2-1.2s0-0.8,0-1.1h2.2v0.6c0,0.2,0,0.4,0,0.6
				c0,0.8-0.2,1.6-0.6,2.4c-0.3,0.8-0.9,1.3-1.8,1.7c-0.3,0.1-0.6,0.1-0.9,0.2s-0.6,0.1-0.9,0.1s-0.6,0-0.8-0.1s-0.5-0.1-0.8-0.1
				c-0.6-0.1-1-0.4-1.4-0.8c-0.4-0.4-0.7-0.9-0.9-1.4c-0.1-0.2-0.1-0.4-0.2-0.7s-0.1-0.6-0.1-0.9c0-0.3,0-0.6,0-0.9v-0.7v-10.3h-3
				v-2h3v-3.4l2.7-1v4.5H385.6z"/>
		</g>
		<g>
			<path class="st4" d="M388.2,456.7v-2.1h2.8v-13.5h-2.8v-2h5.5v15.5h2.7v2.1H388.2z M394,435.4h-3.1v-2.8h3.1V435.4z"/>
		</g>
		<g>
			<path class="st4" d="M405,439.1v2h-2.8l4.1,13.3h0.2l4.2-13.3H408v-2h7.3v2h-1.8l-5.3,15.6h-3.5l-5.4-15.6h-1.8v-2H405z"/>
		</g>
		<g>
			<path class="st4" d="M420.4,448.5c0,0.9,0.2,1.7,0.4,2.5c0.2,0.8,0.6,1.6,1.2,2.2c0.6,0.7,1.2,1.2,1.8,1.4s1.4,0.3,2.3,0.3
				c0.5,0,1.1-0.1,1.6-0.3s0.9-0.5,1.4-0.8c0.4-0.3,0.7-0.7,1-1.2c0.3-0.5,0.4-0.9,0.5-1.5h2.6c-0.2,0.9-0.5,1.8-0.9,2.5
				c-0.5,0.7-1,1.3-1.7,1.8c-0.7,0.5-1.4,0.8-2.2,1.1c-0.8,0.2-1.7,0.4-2.7,0.4c-1.4,0-2.7-0.2-3.7-0.7c-1-0.5-1.9-1.1-2.5-1.9
				c-0.7-0.8-1.1-1.8-1.4-2.9s-0.5-2.3-0.5-3.6c0-0.9,0.1-1.9,0.3-2.9c0.2-1,0.5-1.9,1-2.7c0.7-1.2,1.6-2.2,2.9-2.8
				c1.2-0.7,2.6-1,4-1c0.8,0,1.7,0.1,2.5,0.4s1.6,0.6,2.3,1.2c0.7,0.6,1.2,1.2,1.6,2c0.4,0.7,0.7,1.5,0.9,2.4
				c0.1,0.7,0.2,1.2,0.3,1.8c0.1,0.5,0.1,1.1,0.1,1.8v0.5H420.4z M430.1,444.3c-0.2-0.7-0.5-1.3-0.9-1.9s-0.9-1-1.5-1.4
				c-0.6-0.3-1.3-0.5-2.1-0.5s-1.5,0.2-2.1,0.5c-0.6,0.3-1.1,0.8-1.6,1.3s-0.8,1.2-1,1.9c-0.2,0.7-0.4,1.4-0.4,2.1h10
				C430.5,445.7,430.3,445,430.1,444.3z"/>
		</g>
	</g>
	<g>
		<g>
			<path class="st4" d="M470.5,301.3v2.2H467v19.7h3.4v2.2h-9.7v-2.2h3.4v-19.7h-3.4v-2.2H470.5z"/>
		</g>
		<g>
			<path class="st4" d="M479.6,308.3c0.9-0.7,2-1,3.2-1c1.4,0,2.4,0.3,3.3,1c0.8,0.7,1.4,1.6,1.7,2.7c0.2-1.1,0.8-2.1,1.8-2.7
				c1-0.7,2-1,3.2-1c1.4,0,2.5,0.3,3.5,1s1.6,1.6,1.8,2.7c0.1,0.6,0.2,1.2,0.2,1.6s0,0.8,0,1.2v9.6h2.6v2.1h-8.1v-2.1h2.8v-8.8
				c0-0.6,0-1.2-0.1-1.8s-0.2-1.2-0.4-1.6s-0.6-0.9-1-1.2c-0.5-0.3-1.1-0.5-1.9-0.5s-1.6,0.2-2.2,0.7c-0.6,0.5-1.1,1.1-1.4,1.8
				c-0.2,0.6-0.4,1.2-0.4,2c0,0.7-0.1,1.4-0.1,2.1v7.4h2.7v2.1h-8.2v-2.1h2.7v-8.8c0-0.6,0-1.2-0.1-1.8c0-0.6-0.2-1.2-0.4-1.6
				s-0.6-0.9-1-1.2c-0.5-0.3-1.1-0.5-1.9-0.5c-0.8,0-1.5,0.2-2.1,0.7c-0.6,0.5-1.1,1.1-1.4,1.8c-0.3,0.6-0.4,1.2-0.5,2
				c0,0.7-0.1,1.4-0.1,2.1v7.4h2.8v2.1h-8.4v-2.1h2.9v-13.5h-2.9v-2h5.6v3.2C478.1,309.8,478.7,308.9,479.6,308.3z"/>
		</g>
		<g>
			<path class="st4" d="M509.9,308.3c0.9-0.7,2.2-1,3.7-1c0.7,0,1.4,0.1,1.9,0.2c0.6,0.1,1.1,0.4,1.6,0.7c0.5,0.3,0.9,0.7,1.4,1.2
				c0.4,0.5,0.8,1.1,1.2,1.8c0.4,0.7,0.7,1.5,0.8,2.4c0.1,0.9,0.2,1.8,0.2,2.7c0,1-0.1,2.1-0.3,3.3c-0.2,1.1-0.6,2.1-1.3,3
				c-0.7,0.9-1.5,1.7-2.4,2.2c-0.9,0.5-1.9,0.8-3.1,0.8c-1.4,0-2.5-0.3-3.6-0.8c-1-0.5-1.9-1.4-2.5-2.7v6.7h2.8v2h-8.4v-2h2.8v-19.1
				H502v-2h5.5v3.4C508.1,309.9,508.9,308.9,509.9,308.3z M508.5,311.8c-0.5,0.7-0.7,1.5-0.9,2.2c-0.1,0.8-0.2,1.5-0.2,2.4
				c0,0.9,0.1,1.7,0.2,2.5c0.1,0.8,0.4,1.6,0.9,2.3s1,1.3,1.7,1.7s1.5,0.6,2.3,0.6c0.9,0,1.8-0.2,2.4-0.6s1.2-1,1.6-1.6
				c0.4-0.7,0.7-1.4,0.9-2.2c0.2-0.8,0.3-1.6,0.3-2.4c0-0.9-0.1-1.8-0.2-2.6c-0.2-0.9-0.5-1.7-0.9-2.5c-0.4-0.7-0.9-1.2-1.6-1.7
				s-1.4-0.6-2.2-0.6C510.9,309.3,509.5,310.2,508.5,311.8z"/>
		</g>
		<g>
			<path class="st4" d="M522.6,323.3h2.8v-20.1h-2.8v-2h5.5v22.1h2.7v2.1h-8.2V323.3z"/>
		</g>
		<g>
			<path class="st4" d="M535.8,317.2c0,0.9,0.2,1.7,0.4,2.5c0.2,0.8,0.6,1.6,1.2,2.2c0.6,0.7,1.2,1.2,1.8,1.4s1.4,0.3,2.3,0.3
				c0.5,0,1.1-0.1,1.6-0.3s0.9-0.5,1.4-0.8c0.4-0.3,0.7-0.7,1-1.2c0.3-0.5,0.4-0.9,0.5-1.5h2.6c-0.2,0.9-0.5,1.8-0.9,2.5
				s-1,1.3-1.7,1.8c-0.7,0.5-1.4,0.8-2.2,1.1c-0.8,0.2-1.7,0.4-2.7,0.4c-1.4,0-2.7-0.2-3.7-0.7s-1.9-1.1-2.5-1.9
				c-0.7-0.8-1.1-1.8-1.4-2.9s-0.5-2.3-0.5-3.6c0-0.9,0.1-1.9,0.3-2.9c0.2-1,0.5-1.9,1-2.7c0.7-1.2,1.6-2.1,2.9-2.8
				c1.2-0.7,2.6-1,4-1c0.8,0,1.7,0.1,2.5,0.4s1.6,0.6,2.3,1.2c0.7,0.6,1.2,1.2,1.6,2c0.4,0.7,0.7,1.5,0.9,2.4
				c0.1,0.7,0.2,1.2,0.3,1.8c0.1,0.5,0.1,1.1,0.1,1.8v0.5H535.8z M545.6,313.1c-0.2-0.7-0.5-1.3-0.9-1.9c-0.4-0.6-0.9-1-1.5-1.4
				c-0.6-0.3-1.3-0.5-2.1-0.5s-1.5,0.2-2.1,0.5c-0.6,0.3-1.1,0.8-1.6,1.3c-0.4,0.6-0.8,1.2-1,1.9c-0.2,0.7-0.4,1.4-0.4,2.1h10
				C545.9,314.5,545.8,313.8,545.6,313.1z"/>
		</g>
		<g>
			<path class="st4" d="M558.4,308.3c0.9-0.7,2-1,3.2-1c1.4,0,2.4,0.3,3.3,1c0.8,0.7,1.4,1.6,1.7,2.7c0.2-1.1,0.8-2.1,1.8-2.7
				s2-1,3.2-1c1.4,0,2.5,0.3,3.5,1c1,0.7,1.6,1.6,1.8,2.7c0.1,0.6,0.2,1.2,0.2,1.6s0,0.8,0,1.2v9.6h2.6v2.1h-8.1v-2.1h2.8v-8.8
				c0-0.6,0-1.2-0.1-1.8s-0.2-1.2-0.4-1.6s-0.6-0.9-1-1.2c-0.5-0.3-1.1-0.5-1.9-0.5s-1.6,0.2-2.2,0.7c-0.6,0.5-1.1,1.1-1.4,1.8
				c-0.2,0.6-0.4,1.2-0.4,2c0,0.7-0.1,1.4-0.1,2.1v7.4h2.7v2.1h-8.2v-2.1h2.7v-8.8c0-0.6,0-1.2-0.1-1.8c0-0.6-0.2-1.2-0.4-1.6
				s-0.6-0.9-1-1.2c-0.5-0.3-1.1-0.5-1.9-0.5c-0.8,0-1.5,0.2-2.1,0.7c-0.6,0.5-1.1,1.1-1.4,1.8c-0.3,0.6-0.4,1.2-0.5,2
				c0,0.7-0.1,1.4-0.1,2.1v7.4h2.8v2.1H551v-2.1h2.9v-13.5H551v-2h5.6v3.2C556.9,309.8,557.5,308.9,558.4,308.3z"/>
		</g>
		<g>
			<path class="st4" d="M584.6,317.2c0,0.9,0.2,1.7,0.4,2.5c0.2,0.8,0.6,1.6,1.2,2.2c0.6,0.7,1.2,1.2,1.8,1.4s1.4,0.3,2.3,0.3
				c0.5,0,1.1-0.1,1.6-0.3s0.9-0.5,1.4-0.8c0.4-0.3,0.7-0.7,1-1.2c0.3-0.5,0.4-0.9,0.5-1.5h2.6c-0.2,0.9-0.5,1.8-0.9,2.5
				s-1,1.3-1.7,1.8c-0.7,0.5-1.4,0.8-2.2,1.1c-0.8,0.2-1.7,0.4-2.7,0.4c-1.4,0-2.7-0.2-3.7-0.7s-1.9-1.1-2.5-1.9
				c-0.7-0.8-1.1-1.8-1.4-2.9s-0.5-2.3-0.5-3.6c0-0.9,0.1-1.9,0.3-2.9c0.2-1,0.5-1.9,1-2.7c0.7-1.2,1.6-2.1,2.9-2.8
				c1.2-0.7,2.6-1,4-1c0.8,0,1.7,0.1,2.5,0.4s1.6,0.6,2.3,1.2c0.7,0.6,1.2,1.2,1.6,2c0.4,0.7,0.7,1.5,0.9,2.4
				c0.1,0.7,0.2,1.2,0.3,1.8c0.1,0.5,0.1,1.1,0.1,1.8v0.5H584.6z M594.4,313.1c-0.2-0.7-0.5-1.3-0.9-1.9c-0.4-0.6-0.9-1-1.5-1.4
				c-0.6-0.3-1.3-0.5-2.1-0.5s-1.5,0.2-2.1,0.5c-0.6,0.3-1.1,0.8-1.6,1.3c-0.4,0.6-0.8,1.2-1,1.9c-0.2,0.7-0.4,1.4-0.4,2.1h10
				C594.7,314.5,594.6,313.8,594.4,313.1z"/>
		</g>
		<g>
			<path class="st4" d="M607.2,308.2c0.8-0.6,2-0.9,3.4-0.9c1.4,0,2.5,0.3,3.4,0.9c0.9,0.6,1.5,1.5,2,2.8c0.1,0.4,0.1,0.8,0.1,1.1
				c0,0.4,0,0.7,0,1.1v10.1h2.8v2.1h-8.3v-2.1h2.8v-9.1c0-0.6,0-1.2-0.1-1.8c-0.1-0.6-0.3-1.1-0.5-1.5c-0.2-0.5-0.6-0.8-1-1.1
				c-0.5-0.3-1-0.4-1.8-0.4c-0.5,0-0.9,0-1.3,0.1c-0.3,0.1-0.7,0.2-1.1,0.5c-0.4,0.2-0.7,0.5-0.9,0.8s-0.4,0.6-0.6,0.9
				c-0.4,0.7-0.6,1.4-0.6,2.2c-0.1,0.8-0.1,1.5-0.1,2.3v7.1h2.8v2.1h-8.4v-2.1h2.9v-13.5h-2.9v-2h5.6v3.2
				C605.8,309.7,606.4,308.8,607.2,308.2z"/>
		</g>
		<g>
			<path class="st4" d="M630.5,307.8v2h-5.1v11.4c0,0.3,0,0.6,0.1,0.9s0.1,0.5,0.3,0.8c0.1,0.2,0.3,0.4,0.5,0.6
				c0.2,0.1,0.5,0.2,0.9,0.2c0.4,0,0.8-0.1,1-0.4c0.2-0.3,0.4-0.6,0.5-1c0.1-0.4,0.2-0.8,0.2-1.2c0-0.4,0-0.8,0-1.1h2.2v0.6
				c0,0.2,0,0.4,0,0.6c0,0.8-0.2,1.6-0.6,2.4c-0.3,0.8-0.9,1.3-1.8,1.7c-0.3,0.1-0.6,0.1-0.9,0.2c-0.3,0.1-0.6,0.1-0.9,0.1
				s-0.6,0-0.8-0.1s-0.5-0.1-0.8-0.1c-0.6-0.1-1-0.4-1.4-0.8c-0.4-0.4-0.7-0.9-0.9-1.4c-0.1-0.2-0.1-0.4-0.2-0.7
				c0-0.3-0.1-0.6-0.1-0.9c0-0.3,0-0.6,0-0.9v-0.7v-10.3h-3v-2h3v-3.4l2.7-1v4.5H630.5z"/>
		</g>
		<g>
			<path class="st4" d="M642.6,324.8c-0.9,0.6-2.1,0.9-3.5,0.9c-0.6,0-1.2-0.1-1.8-0.2c-0.6-0.1-1.1-0.4-1.6-0.7
				c-0.5-0.3-0.9-0.7-1.3-1.2s-0.6-1-0.8-1.7c-0.1-0.4-0.2-0.8-0.2-1v-0.6c0-1,0.2-1.8,0.6-2.5c0.4-0.7,0.9-1.2,1.5-1.7
				s1.3-0.8,2.1-1s1.7-0.3,2.5-0.3c0.3,0,0.6,0,1,0c0.3,0,0.6,0,1,0h2.8v-1.6c0-0.6-0.1-1.2-0.3-1.6c-0.1-0.4-0.4-0.9-0.9-1.4
				c-0.3-0.3-0.7-0.6-1.2-0.7c-0.5-0.2-1-0.2-1.4-0.2c-0.7,0-1.4,0.1-1.9,0.2c-0.5,0.2-1.1,0.6-1.6,1.2c-0.2,0.3-0.4,0.6-0.5,1
				s-0.1,0.7-0.2,1.1H634c0.1-1.3,0.4-2.4,1-3.2c0.6-0.9,1.6-1.5,2.8-1.9c0.5-0.2,1-0.3,1.5-0.3s1-0.1,1.5-0.1
				c0.9,0,1.8,0.1,2.6,0.3s1.5,0.6,2.3,1.2c0.7,0.6,1.2,1.2,1.4,2c0.2,0.8,0.3,1.6,0.3,2.4v10.1h2.8v2.1h-5.3V322
				C644.3,323.3,643.5,324.2,642.6,324.8z M637.1,322.8c0.5,0.6,1.3,0.9,2.3,0.9c1,0,1.9-0.2,2.5-0.6s1.2-0.9,1.7-1.5
				c0.4-0.6,0.7-1.4,0.9-2.2c0.2-0.8,0.3-1.7,0.3-2.5c-0.4-0.1-0.9-0.1-1.4-0.1s-0.9,0-1.4,0c-0.7,0-1.4,0-2,0.1s-1.3,0.2-1.9,0.4
				c-0.6,0.2-1,0.6-1.4,1.1c-0.4,0.5-0.5,1.2-0.5,2C636.3,321.4,636.6,322.1,637.1,322.8z"/>
		</g>
		<g>
			<path class="st4" d="M661.8,307.8v2h-5.1v11.4c0,0.3,0,0.6,0.1,0.9s0.1,0.5,0.3,0.8c0.1,0.2,0.3,0.4,0.5,0.6
				c0.2,0.1,0.5,0.2,0.9,0.2c0.4,0,0.8-0.1,1-0.4c0.2-0.3,0.4-0.6,0.5-1c0.1-0.4,0.2-0.8,0.2-1.2s0-0.8,0-1.1h2.2v0.6
				c0,0.2,0,0.4,0,0.6c0,0.8-0.2,1.6-0.6,2.4c-0.3,0.8-0.9,1.3-1.8,1.7c-0.3,0.1-0.6,0.1-0.9,0.2c-0.3,0.1-0.6,0.1-0.9,0.1
				s-0.6,0-0.8-0.1s-0.5-0.1-0.8-0.1c-0.6-0.1-1-0.4-1.4-0.8c-0.4-0.4-0.7-0.9-0.9-1.4c-0.1-0.2-0.1-0.4-0.2-0.7
				c0-0.3-0.1-0.6-0.1-0.9c0-0.3,0-0.6,0-0.9v-0.7v-10.3h-3v-2h3v-3.4l2.7-1v4.5H661.8z"/>
		</g>
		<g>
			<path class="st4" d="M664.3,325.4v-2.1h2.8v-13.5h-2.8v-2h5.5v15.5h2.7v2.1H664.3z M670.1,304.1H667v-2.8h3.1V304.1z"/>
		</g>
		<g>
			<path class="st4" d="M674.9,312.9c0.3-1.1,0.9-2.1,1.7-3.1c0.8-0.9,1.7-1.5,2.8-1.9s2.2-0.6,3.4-0.6c1.4,0,2.6,0.2,3.6,0.7
				c1,0.5,1.8,1.2,2.5,2c0.7,0.8,1.1,1.8,1.5,3c0.3,1.1,0.5,2.3,0.5,3.5c0,1.2-0.2,2.4-0.5,3.5s-0.8,2.1-1.5,2.9
				c-0.7,0.8-1.5,1.5-2.5,2c-1,0.5-2.2,0.7-3.5,0.7c-1.3,0-2.5-0.2-3.6-0.7c-1-0.4-2-1.2-2.8-2.3c-0.7-1-1.2-2-1.5-3
				c-0.3-1-0.5-2.1-0.5-3.3C674.4,315.2,674.6,314,674.9,312.9z M677.5,319c0.1,0.9,0.5,1.7,1,2.4c0.5,0.7,1.1,1.2,1.8,1.6
				s1.5,0.6,2.3,0.6s1.7-0.3,2.5-0.8s1.4-1.1,1.8-1.9c0.4-0.7,0.6-1.4,0.8-2.2c0.1-0.8,0.2-1.6,0.2-2.4c0-0.8-0.1-1.7-0.2-2.5
				s-0.4-1.6-0.8-2.2c-0.4-0.7-0.9-1.2-1.6-1.6s-1.5-0.6-2.5-0.6c-1,0-1.8,0.2-2.5,0.7s-1.3,1.1-1.8,1.8c-0.4,0.7-0.6,1.4-0.8,2.2
				c-0.1,0.8-0.2,1.6-0.2,2.3C677.3,317.2,677.4,318.1,677.5,319z"/>
		</g>
		<g>
			<path class="st4" d="M700.4,308.2c0.8-0.6,2-0.9,3.4-0.9c1.4,0,2.5,0.3,3.4,0.9c0.9,0.6,1.5,1.5,2,2.8c0.1,0.4,0.1,0.8,0.1,1.1
				c0,0.4,0,0.7,0,1.1v10.1h2.8v2.1h-8.3v-2.1h2.8v-9.1c0-0.6,0-1.2-0.1-1.8c-0.1-0.6-0.3-1.1-0.5-1.5c-0.2-0.5-0.6-0.8-1-1.1
				c-0.5-0.3-1-0.4-1.8-0.4c-0.5,0-0.9,0-1.3,0.1c-0.3,0.1-0.7,0.2-1.1,0.5c-0.4,0.2-0.7,0.5-0.9,0.8s-0.4,0.6-0.6,0.9
				c-0.4,0.7-0.6,1.4-0.6,2.2c-0.1,0.8-0.1,1.5-0.1,2.3v7.1h2.8v2.1h-8.4v-2.1h2.9v-13.5h-2.9v-2h5.6v3.2
				C698.9,309.7,699.6,308.8,700.4,308.2z"/>
		</g>
	</g>
	<g>
		<g>
			<path class="st4" d="M617.6,391.4h1.9v-10.8h-1.9v-1.2h5.8c0.3,0,0.6,0,0.9,0c0.3,0,0.5,0.1,0.9,0.1c0.4,0.1,0.8,0.3,1.1,0.5
				c0.3,0.2,0.6,0.5,0.8,0.9c0.2,0.3,0.4,0.7,0.5,1.1s0.1,0.8,0.1,1.3c0,0.6-0.1,1.2-0.3,1.7c-0.2,0.5-0.5,1-1,1.4
				c-0.2,0.2-0.5,0.4-0.7,0.5s-0.5,0.2-0.8,0.2c-0.3,0-0.5,0.1-0.8,0.1h-0.8h-2.1v4.2h2.2v1.2h-5.7V391.4z M621.1,385.9h2
				c0.2,0,0.4,0,0.6,0c0.2,0,0.4,0,0.6-0.1s0.4-0.1,0.6-0.2c0.2-0.1,0.3-0.2,0.5-0.4c0.3-0.3,0.5-0.6,0.6-0.9s0.1-0.7,0.1-1.1
				c0-0.4-0.1-0.8-0.2-1.2c-0.1-0.4-0.4-0.7-0.7-1c-0.3-0.3-0.7-0.4-1.1-0.5c-0.4,0-0.8-0.1-1.2-0.1h-1.8V385.9z"/>
		</g>
		<g>
			<path class="st4" d="M632.4,383.8c0.2-0.3,0.3-0.5,0.6-0.6c0.2-0.2,0.5-0.3,0.8-0.3c0.3-0.1,0.7-0.1,1.1-0.1h0.4v1.4
				c-0.1,0-0.2,0-0.3-0.1c-0.1,0-0.2,0-0.3,0c-0.6,0-1,0.1-1.4,0.3s-0.6,0.5-0.8,0.8s-0.3,0.7-0.4,1.2c-0.1,0.4-0.1,0.9-0.1,1.4v3.7
				h1.8v1.2h-4.9v-1.2h1.5V384h-1.5v-1.1h3v1.9C632.1,384.5,632.3,384.1,632.4,383.8z"/>
		</g>
		<g>
			<path class="st4" d="M638.1,388.1c0,0.5,0.1,0.9,0.2,1.4c0.1,0.4,0.3,0.9,0.6,1.2c0.3,0.4,0.7,0.7,1,0.8c0.4,0.1,0.8,0.2,1.3,0.2
				c0.3,0,0.6-0.1,0.9-0.2c0.3-0.1,0.5-0.2,0.7-0.4c0.2-0.2,0.4-0.4,0.6-0.6s0.2-0.5,0.3-0.8h1.4c-0.1,0.5-0.3,1-0.5,1.4
				c-0.2,0.4-0.5,0.7-0.9,1c-0.4,0.3-0.8,0.5-1.2,0.6c-0.5,0.1-1,0.2-1.5,0.2c-0.8,0-1.5-0.1-2-0.4c-0.6-0.2-1-0.6-1.4-1
				c-0.4-0.4-0.6-1-0.8-1.6c-0.2-0.6-0.2-1.3-0.2-2c0-0.5,0.1-1,0.2-1.6c0.1-0.5,0.3-1,0.6-1.5c0.4-0.7,0.9-1.2,1.6-1.5
				s1.4-0.5,2.2-0.5c0.4,0,0.9,0.1,1.4,0.2c0.5,0.1,0.9,0.4,1.2,0.6c0.4,0.3,0.7,0.7,0.9,1.1c0.2,0.4,0.4,0.8,0.5,1.3
				c0.1,0.4,0.1,0.7,0.2,1c0,0.3,0,0.6,0,1v0.3H638.1z M643.4,385.8c-0.1-0.4-0.3-0.7-0.5-1c-0.2-0.3-0.5-0.5-0.8-0.7
				c-0.3-0.2-0.7-0.3-1.2-0.3s-0.8,0.1-1.2,0.3c-0.3,0.2-0.6,0.4-0.9,0.7c-0.2,0.3-0.4,0.6-0.5,1c-0.1,0.4-0.2,0.8-0.2,1.2h5.5
				C643.6,386.6,643.6,386.2,643.4,385.8z"/>
		</g>
		<g>
			<path class="st4" d="M651.2,386.8v1.4h-4.4v-1.4H651.2z"/>
		</g>
		<g>
			<path class="st4" d="M652.6,391.4h1.9v-10.8h-1.9v-1.2h10.6v4h-1.4v-2.7h-5.7v4.7h2.7v-2h1.3v5.2h-1.3v-2h-2.7v4.9h5.7v-2.9h1.4
				v4.1h-10.6V391.4z"/>
		</g>
		<g>
			<path class="st4" d="M668.8,382.9v1.1h-1.5l2.3,7.3h0.1l2.3-7.3h-1.5v-1.1h4v1.1h-1l-2.9,8.6h-1.9l-3-8.6h-1v-1.1H668.8z"/>
		</g>
		<g>
			<path class="st4" d="M677.2,388.1c0,0.5,0.1,0.9,0.2,1.4c0.1,0.4,0.3,0.9,0.6,1.2c0.3,0.4,0.7,0.7,1,0.8c0.4,0.1,0.8,0.2,1.3,0.2
				c0.3,0,0.6-0.1,0.9-0.2c0.3-0.1,0.5-0.2,0.7-0.4c0.2-0.2,0.4-0.4,0.6-0.6s0.2-0.5,0.3-0.8h1.4c-0.1,0.5-0.3,1-0.5,1.4
				c-0.2,0.4-0.5,0.7-0.9,1c-0.4,0.3-0.8,0.5-1.2,0.6c-0.5,0.1-1,0.2-1.5,0.2c-0.8,0-1.5-0.1-2-0.4c-0.6-0.2-1-0.6-1.4-1
				c-0.4-0.4-0.6-1-0.8-1.6c-0.2-0.6-0.2-1.3-0.2-2c0-0.5,0.1-1,0.2-1.6c0.1-0.5,0.3-1,0.6-1.5c0.4-0.7,0.9-1.2,1.6-1.5
				s1.4-0.5,2.2-0.5c0.4,0,0.9,0.1,1.4,0.2c0.5,0.1,0.9,0.4,1.2,0.6c0.4,0.3,0.7,0.7,0.9,1.1c0.2,0.4,0.4,0.8,0.5,1.3
				c0.1,0.4,0.1,0.7,0.2,1c0,0.3,0,0.6,0,1v0.3H677.2z M682.6,385.8c-0.1-0.4-0.3-0.7-0.5-1c-0.2-0.3-0.5-0.5-0.8-0.7
				c-0.3-0.2-0.7-0.3-1.2-0.3s-0.8,0.1-1.2,0.3c-0.3,0.2-0.6,0.4-0.9,0.7c-0.2,0.3-0.4,0.6-0.5,1c-0.1,0.4-0.2,0.8-0.2,1.2h5.5
				C682.7,386.6,682.7,386.2,682.6,385.8z"/>
		</g>
		<g>
			<path class="st4" d="M689.6,383.1c0.5-0.3,1.1-0.5,1.9-0.5c0.7,0,1.4,0.2,1.8,0.5c0.5,0.3,0.8,0.8,1.1,1.5c0,0.2,0.1,0.4,0.1,0.6
				c0,0.2,0,0.4,0,0.6v5.5h1.5v1.2h-4.5v-1.2h1.5v-5c0-0.3,0-0.7-0.1-1c0-0.3-0.1-0.6-0.3-0.8c-0.1-0.2-0.3-0.4-0.6-0.6
				c-0.2-0.1-0.6-0.2-1-0.2c-0.3,0-0.5,0-0.7,0c-0.2,0-0.4,0.1-0.6,0.3c-0.2,0.1-0.4,0.3-0.5,0.4c-0.1,0.1-0.2,0.3-0.3,0.5
				c-0.2,0.4-0.3,0.8-0.3,1.2c0,0.4,0,0.8,0,1.3v3.9h1.5v1.2h-4.6v-1.2h1.6V384h-1.6v-1.1h3.1v1.7
				C688.8,384,689.2,383.5,689.6,383.1z"/>
		</g>
		<g>
			<path class="st4" d="M702.4,382.9v1.1h-2.8v6.3c0,0.2,0,0.3,0,0.5c0,0.2,0.1,0.3,0.1,0.4s0.2,0.2,0.3,0.3
				c0.1,0.1,0.3,0.1,0.5,0.1c0.2,0,0.4-0.1,0.6-0.2c0.1-0.1,0.2-0.3,0.3-0.5s0.1-0.4,0.1-0.6c0-0.2,0-0.4,0-0.6h1.2v0.4
				c0,0.1,0,0.2,0,0.4c0,0.5-0.1,0.9-0.3,1.3c-0.2,0.4-0.5,0.7-1,0.9c-0.2,0-0.3,0.1-0.5,0.1c-0.2,0-0.3,0.1-0.5,0.1s-0.3,0-0.5,0
				c-0.1,0-0.3,0-0.5-0.1c-0.3-0.1-0.6-0.2-0.8-0.4c-0.2-0.2-0.4-0.5-0.5-0.8c0-0.1-0.1-0.2-0.1-0.4s0-0.3-0.1-0.5s0-0.3,0-0.5v-0.4
				V384h-1.7v-1.1h1.7V381l1.5-0.6v2.4H702.4z"/>
		</g>
	</g>
	<g>
		<g>
			<path class="st4" d="M621.7,430.5c-0.8-0.3-1.4-0.8-2-1.4c-0.5-0.6-0.9-1.3-1.2-2.1c-0.3-0.8-0.4-1.7-0.4-2.6
				c0-0.9,0.1-1.8,0.3-2.7s0.6-1.6,1.2-2.4c0.6-0.7,1.3-1.2,2.1-1.5s1.7-0.5,2.6-0.5c0.9,0,1.8,0.2,2.6,0.5c0.8,0.3,1.5,0.8,2.1,1.6
				c0.6,0.7,1,1.5,1.1,2.3c0.2,0.8,0.3,1.7,0.3,2.6c0,0.5,0,0.9-0.1,1.3c0,0.4-0.1,0.8-0.3,1.3c-0.1,0.4-0.3,0.8-0.5,1.2
				c-0.2,0.4-0.4,0.7-0.6,1.1c-0.6,0.7-1.2,1.2-2,1.5s-1.6,0.5-2.5,0.5C623.4,431,622.5,430.8,621.7,430.5z M622.2,419
				c-0.6,0.3-1,0.8-1.4,1.3c-0.3,0.5-0.6,1.1-0.8,1.8s-0.2,1.4-0.2,2c0,0.3,0,0.7,0,1c0,0.3,0.1,0.7,0.1,1s0.2,0.7,0.3,1
				c0.1,0.3,0.3,0.6,0.5,0.9c0.9,1.2,2,1.8,3.5,1.8c1.4,0,2.6-0.6,3.4-1.9c0.3-0.6,0.6-1.2,0.7-1.8c0.1-0.7,0.2-1.3,0.2-1.9
				c0-0.7-0.1-1.4-0.2-2.1c-0.1-0.7-0.4-1.3-0.7-1.8c-0.3-0.5-0.8-1-1.4-1.3c-0.6-0.3-1.3-0.5-2.1-0.5
				C623.5,418.5,622.8,418.7,622.2,419z"/>
		</g>
		<g>
			<path class="st4" d="M636.1,421.3c0.5-0.3,1.1-0.5,1.9-0.5c0.7,0,1.4,0.2,1.8,0.5c0.5,0.3,0.8,0.8,1.1,1.5c0,0.2,0.1,0.4,0.1,0.6
				c0,0.2,0,0.4,0,0.6v5.5h1.5v1.2h-4.5v-1.2h1.5v-5c0-0.3,0-0.7-0.1-1c0-0.3-0.1-0.6-0.3-0.8c-0.1-0.2-0.3-0.4-0.6-0.6
				c-0.2-0.1-0.6-0.2-1-0.2c-0.3,0-0.5,0-0.7,0c-0.2,0-0.4,0.1-0.6,0.3c-0.2,0.1-0.4,0.3-0.5,0.4c-0.1,0.1-0.2,0.3-0.3,0.5
				c-0.2,0.4-0.3,0.8-0.3,1.2c0,0.4,0,0.8,0,1.3v3.9h1.5v1.2h-4.6v-1.2h1.6v-7.4H632v-1.1h3.1v1.7
				C635.3,422.1,635.6,421.6,636.1,421.3z"/>
		</g>
		<g>
			<path class="st4" d="M649.4,422.9c-0.2-0.4-0.5-0.6-1.1-0.8c-0.1,0-0.3-0.1-0.5-0.1c-0.2,0-0.3,0-0.5,0c-0.3,0-0.5,0-0.8,0.1
				c-0.2,0.1-0.5,0.2-0.7,0.3s-0.3,0.3-0.5,0.5c-0.1,0.2-0.2,0.5-0.2,0.8c0,0.1,0,0.3,0.1,0.5c0.1,0.2,0.2,0.3,0.3,0.4
				c0.3,0.2,0.5,0.3,0.9,0.4c0.3,0.1,0.6,0.1,0.9,0.2c0.4,0.1,0.9,0.2,1.3,0.3c0.4,0.1,0.8,0.3,1.1,0.5c0.3,0.2,0.6,0.5,0.8,0.8
				c0.2,0.3,0.3,0.8,0.3,1.3c0,0.2,0,0.5,0,0.7s-0.1,0.5-0.2,0.7c-0.3,0.5-0.7,0.8-1.1,1.2c-0.5,0.3-1,0.5-1.8,0.5
				c-0.4,0-0.7,0-1-0.1c-0.3-0.1-0.5-0.1-0.8-0.3s-0.4-0.3-0.6-0.5c-0.2-0.2-0.4-0.5-0.6-0.8v1.5h-1.2v-3.3h1.2c0,0.3,0.1,0.6,0.3,1
				s0.3,0.6,0.6,0.8c0.3,0.2,0.5,0.3,0.8,0.4c0.3,0.1,0.6,0.1,0.9,0.1c0.5,0,1-0.2,1.4-0.5s0.6-0.7,0.6-1.3c0-0.3-0.1-0.6-0.2-0.8
				c-0.2-0.2-0.4-0.3-0.6-0.4s-0.5-0.2-0.8-0.2c-0.3,0-0.6-0.1-0.8-0.1c-0.4-0.1-0.8-0.1-1.2-0.2c-0.4-0.1-0.7-0.3-1-0.5
				c-0.3-0.2-0.5-0.5-0.7-0.8c-0.2-0.3-0.2-0.7-0.2-1.2c0-0.3,0-0.6,0.1-0.9c0-0.3,0.2-0.6,0.4-0.8c0.4-0.5,0.9-0.8,1.3-1
				s1-0.3,1.6-0.3c0.5,0,1,0.1,1.4,0.3c0.5,0.2,0.8,0.5,1.1,1v-1h1.2v3.1h-1.2C649.7,423.7,649.6,423.3,649.4,422.9z"/>
		</g>
		<g>
			<path class="st4" d="M652.7,430.8v-1.2h1.6v-7.4h-1.5v-1.1h3v8.5h1.5v1.2H652.7z M655.8,419.1h-1.7v-1.6h1.7V419.1z"/>
		</g>
		<g>
			<path class="st4" d="M663.6,421.1v1.1h-2.8v6.3c0,0.2,0,0.3,0,0.5c0,0.2,0.1,0.3,0.1,0.4s0.2,0.2,0.3,0.3
				c0.1,0.1,0.3,0.1,0.5,0.1c0.2,0,0.4-0.1,0.6-0.2c0.1-0.1,0.2-0.3,0.3-0.5s0.1-0.4,0.1-0.6c0-0.2,0-0.4,0-0.6h1.2v0.4
				c0,0.1,0,0.2,0,0.4c0,0.5-0.1,0.9-0.3,1.3c-0.2,0.4-0.5,0.7-1,0.9c-0.2,0-0.3,0.1-0.5,0.1c-0.2,0-0.3,0.1-0.5,0.1s-0.3,0-0.5,0
				c-0.1,0-0.3,0-0.5-0.1c-0.3-0.1-0.6-0.2-0.8-0.4c-0.2-0.2-0.4-0.5-0.5-0.8c0-0.1-0.1-0.2-0.1-0.4s0-0.3-0.1-0.5s0-0.3,0-0.5v-0.4
				v-5.7h-1.7v-1.1h1.7v-1.9l1.5-0.6v2.4H663.6z"/>
		</g>
		<g>
			<path class="st4" d="M666.9,426.2c0,0.5,0.1,0.9,0.2,1.4c0.1,0.4,0.3,0.9,0.6,1.2c0.3,0.4,0.7,0.7,1,0.8c0.4,0.1,0.8,0.2,1.3,0.2
				c0.3,0,0.6-0.1,0.9-0.2c0.3-0.1,0.5-0.2,0.7-0.4c0.2-0.2,0.4-0.4,0.6-0.6s0.2-0.5,0.3-0.8h1.4c-0.1,0.5-0.3,1-0.5,1.4
				c-0.2,0.4-0.5,0.7-0.9,1c-0.4,0.3-0.8,0.5-1.2,0.6c-0.5,0.1-1,0.2-1.5,0.2c-0.8,0-1.5-0.1-2-0.4c-0.6-0.2-1-0.6-1.4-1
				c-0.4-0.4-0.6-1-0.8-1.6c-0.2-0.6-0.2-1.3-0.2-2c0-0.5,0.1-1,0.2-1.6c0.1-0.5,0.3-1,0.6-1.5c0.4-0.7,0.9-1.2,1.6-1.5
				s1.4-0.5,2.2-0.5c0.4,0,0.9,0.1,1.4,0.2c0.5,0.1,0.9,0.4,1.2,0.6c0.4,0.3,0.7,0.7,0.9,1.1c0.2,0.4,0.4,0.8,0.5,1.3
				c0.1,0.4,0.1,0.7,0.2,1c0,0.3,0,0.6,0,1v0.3H666.9z M672.3,424c-0.1-0.4-0.3-0.7-0.5-1c-0.2-0.3-0.5-0.5-0.8-0.7
				c-0.3-0.2-0.7-0.3-1.2-0.3s-0.8,0.1-1.2,0.3c-0.3,0.2-0.6,0.4-0.9,0.7c-0.2,0.3-0.4,0.6-0.5,1c-0.1,0.4-0.2,0.8-0.2,1.2h5.5
				C672.4,424.7,672.4,424.4,672.3,424z"/>
		</g>
	</g>
	<g>
		<g>
			<path class="st4" d="M617.6,467.7h1.9v-10.8h-1.9v-1.2h5.8c0.3,0,0.6,0,0.9,0c0.3,0,0.5,0.1,0.9,0.1c0.4,0.1,0.8,0.3,1.1,0.5
				c0.3,0.2,0.6,0.5,0.8,0.9c0.2,0.3,0.4,0.7,0.5,1.1s0.1,0.8,0.1,1.3c0,0.6-0.1,1.2-0.3,1.7c-0.2,0.5-0.5,1-1,1.4
				c-0.2,0.2-0.5,0.4-0.7,0.5s-0.5,0.2-0.8,0.2c-0.3,0-0.5,0.1-0.8,0.1h-0.8h-2.1v4.2h2.2v1.2h-5.7V467.7z M621.1,462.3h2
				c0.2,0,0.4,0,0.6,0c0.2,0,0.4,0,0.6-0.1s0.4-0.1,0.6-0.2c0.2-0.1,0.3-0.2,0.5-0.4c0.3-0.3,0.5-0.6,0.6-0.9s0.1-0.7,0.1-1.1
				c0-0.4-0.1-0.8-0.2-1.2c-0.1-0.4-0.4-0.7-0.7-1c-0.3-0.3-0.7-0.4-1.1-0.5c-0.4,0-0.8-0.1-1.2-0.1h-1.8V462.3z"/>
		</g>
		<g>
			<path class="st4" d="M629.3,462.1c0.2-0.6,0.5-1.2,0.9-1.7c0.4-0.5,0.9-0.8,1.5-1.1c0.6-0.2,1.2-0.3,1.9-0.3c0.8,0,1.4,0.1,2,0.4
				s1,0.6,1.4,1.1c0.4,0.5,0.6,1,0.8,1.6c0.2,0.6,0.3,1.3,0.3,1.9c0,0.7-0.1,1.3-0.3,1.9s-0.5,1.1-0.8,1.6s-0.8,0.8-1.4,1.1
				c-0.6,0.3-1.2,0.4-1.9,0.4c-0.7,0-1.4-0.1-2-0.4c-0.6-0.2-1.1-0.7-1.5-1.3c-0.4-0.5-0.6-1.1-0.8-1.6c-0.2-0.6-0.2-1.2-0.2-1.8
				C629.1,463.3,629.1,462.7,629.3,462.1z M630.8,465.4c0.1,0.5,0.3,0.9,0.5,1.3c0.3,0.4,0.6,0.7,1,0.9s0.8,0.3,1.3,0.3
				c0.5,0,0.9-0.1,1.4-0.4c0.4-0.3,0.8-0.6,1-1c0.2-0.4,0.4-0.8,0.4-1.2c0.1-0.4,0.1-0.9,0.1-1.3c0-0.5,0-0.9-0.1-1.4
				c-0.1-0.5-0.2-0.9-0.5-1.2c-0.2-0.4-0.5-0.7-0.9-0.9s-0.8-0.3-1.4-0.3c-0.5,0-1,0.1-1.4,0.4c-0.4,0.2-0.7,0.6-1,1
				c-0.2,0.4-0.4,0.8-0.4,1.2c-0.1,0.5-0.1,0.9-0.1,1.3C630.6,464.4,630.7,464.9,630.8,465.4z"/>
		</g>
		<g>
			<path class="st4" d="M645.3,461.1c-0.2-0.4-0.5-0.6-1.1-0.8c-0.1,0-0.3-0.1-0.5-0.1c-0.2,0-0.3,0-0.5,0c-0.3,0-0.5,0-0.8,0.1
				c-0.2,0.1-0.5,0.2-0.7,0.3s-0.3,0.3-0.5,0.5c-0.1,0.2-0.2,0.5-0.2,0.8c0,0.1,0,0.3,0.1,0.5c0.1,0.2,0.2,0.3,0.3,0.4
				c0.3,0.2,0.5,0.3,0.9,0.4c0.3,0.1,0.6,0.1,0.9,0.2c0.4,0.1,0.9,0.2,1.3,0.3c0.4,0.1,0.8,0.3,1.1,0.5c0.3,0.2,0.6,0.5,0.8,0.8
				c0.2,0.3,0.3,0.8,0.3,1.3c0,0.2,0,0.5,0,0.7s-0.1,0.5-0.2,0.7c-0.3,0.5-0.7,0.8-1.1,1.2c-0.5,0.3-1,0.5-1.8,0.5
				c-0.4,0-0.7,0-1-0.1c-0.3-0.1-0.5-0.1-0.8-0.3s-0.4-0.3-0.6-0.5c-0.2-0.2-0.4-0.5-0.6-0.8v1.5h-1.2v-3.3h1.2c0,0.3,0.1,0.6,0.3,1
				s0.3,0.6,0.6,0.8c0.3,0.2,0.5,0.3,0.8,0.4c0.3,0.1,0.6,0.1,0.9,0.1c0.5,0,1-0.2,1.4-0.5s0.6-0.7,0.6-1.3c0-0.3-0.1-0.6-0.2-0.8
				c-0.2-0.2-0.4-0.3-0.6-0.4s-0.5-0.2-0.8-0.2c-0.3,0-0.6-0.1-0.8-0.1c-0.4-0.1-0.8-0.1-1.2-0.2c-0.4-0.1-0.7-0.3-1-0.5
				c-0.3-0.2-0.5-0.5-0.7-0.8c-0.2-0.3-0.2-0.7-0.2-1.2c0-0.3,0-0.6,0.1-0.9c0-0.3,0.2-0.6,0.4-0.8c0.4-0.5,0.9-0.8,1.3-1
				s1-0.3,1.6-0.3c0.5,0,1,0.1,1.4,0.3c0.5,0.2,0.8,0.5,1.1,1v-1h1.2v3.1h-1.2C645.6,461.9,645.5,461.4,645.3,461.1z"/>
		</g>
		<g>
			<path class="st4" d="M654,459.3v1.1h-2.8v6.3c0,0.2,0,0.3,0,0.5c0,0.2,0.1,0.3,0.1,0.4s0.2,0.2,0.3,0.3c0.1,0.1,0.3,0.1,0.5,0.1
				c0.2,0,0.4-0.1,0.6-0.2c0.1-0.1,0.2-0.3,0.3-0.5s0.1-0.4,0.1-0.6c0-0.2,0-0.4,0-0.6h1.2v0.4c0,0.1,0,0.2,0,0.4
				c0,0.5-0.1,0.9-0.3,1.3c-0.2,0.4-0.5,0.7-1,0.9c-0.2,0-0.3,0.1-0.5,0.1c-0.2,0-0.3,0.1-0.5,0.1s-0.3,0-0.5,0
				c-0.1,0-0.3,0-0.5-0.1c-0.3-0.1-0.6-0.2-0.8-0.4c-0.2-0.2-0.4-0.5-0.5-0.8c0-0.1-0.1-0.2-0.1-0.4s0-0.3-0.1-0.5s0-0.3,0-0.5V466
				v-5.7h-1.7v-1.1h1.7v-1.9l1.5-0.6v2.4H654z"/>
		</g>
		<g>
			<path class="st4" d="M660.1,463.1v1.4h-4.4v-1.4H660.1z"/>
		</g>
		<g>
			<path class="st4" d="M661.5,467.7h1.9v-10.8h-1.9v-1.2h10.6v4h-1.4v-2.7H665v4.7h2.7v-2h1.3v5.2h-1.3v-2H665v4.9h5.7v-2.9h1.4
				v4.1h-10.6V467.7z"/>
		</g>
		<g>
			<path class="st4" d="M677.7,459.3v1.1h-1.5l2.3,7.3h0.1l2.3-7.3h-1.5v-1.1h4v1.1h-1l-2.9,8.6h-1.9l-3-8.6h-1v-1.1H677.7z"/>
		</g>
		<g>
			<path class="st4" d="M686.1,464.4c0,0.5,0.1,0.9,0.2,1.4c0.1,0.4,0.3,0.9,0.6,1.2c0.3,0.4,0.7,0.7,1,0.8c0.4,0.1,0.8,0.2,1.3,0.2
				c0.3,0,0.6-0.1,0.9-0.2c0.3-0.1,0.5-0.2,0.7-0.4c0.2-0.2,0.4-0.4,0.6-0.6s0.2-0.5,0.3-0.8h1.4c-0.1,0.5-0.3,1-0.5,1.4
				c-0.2,0.4-0.5,0.7-0.9,1c-0.4,0.3-0.8,0.5-1.2,0.6c-0.5,0.1-1,0.2-1.5,0.2c-0.8,0-1.5-0.1-2-0.4c-0.6-0.2-1-0.6-1.4-1
				c-0.4-0.4-0.6-1-0.8-1.6c-0.2-0.6-0.2-1.3-0.2-2c0-0.5,0.1-1,0.2-1.6c0.1-0.5,0.3-1,0.6-1.5c0.4-0.7,0.9-1.2,1.6-1.5
				s1.4-0.5,2.2-0.5c0.4,0,0.9,0.1,1.4,0.2c0.5,0.1,0.9,0.4,1.2,0.6c0.4,0.3,0.7,0.7,0.9,1.1c0.2,0.4,0.4,0.8,0.5,1.3
				c0.1,0.4,0.1,0.7,0.2,1c0,0.3,0,0.6,0,1v0.3H686.1z M691.5,462.1c-0.1-0.4-0.3-0.7-0.5-1c-0.2-0.3-0.5-0.5-0.8-0.7
				c-0.3-0.2-0.7-0.3-1.2-0.3s-0.8,0.1-1.2,0.3c-0.3,0.2-0.6,0.4-0.9,0.7c-0.2,0.3-0.4,0.6-0.5,1c-0.1,0.4-0.2,0.8-0.2,1.2h5.5
				C691.6,462.9,691.6,462.5,691.5,462.1z"/>
		</g>
		<g>
			<path class="st4" d="M698.6,459.5c0.5-0.3,1.1-0.5,1.9-0.5c0.7,0,1.4,0.2,1.8,0.5c0.5,0.3,0.8,0.8,1.1,1.5c0,0.2,0.1,0.4,0.1,0.6
				c0,0.2,0,0.4,0,0.6v5.5h1.5v1.2h-4.5v-1.2h1.5v-5c0-0.3,0-0.7-0.1-1c0-0.3-0.1-0.6-0.3-0.8c-0.1-0.2-0.3-0.4-0.6-0.6
				c-0.2-0.1-0.6-0.2-1-0.2c-0.3,0-0.5,0-0.7,0c-0.2,0-0.4,0.1-0.6,0.3c-0.2,0.1-0.4,0.3-0.5,0.4c-0.1,0.1-0.2,0.3-0.3,0.5
				c-0.2,0.4-0.3,0.8-0.3,1.2c0,0.4,0,0.8,0,1.3v3.9h1.5v1.2h-4.6v-1.2h1.6v-7.4h-1.6v-1.1h3.1v1.7
				C697.7,460.3,698.1,459.8,698.6,459.5z"/>
		</g>
		<g>
			<path class="st4" d="M711.3,459.3v1.1h-2.8v6.3c0,0.2,0,0.3,0,0.5c0,0.2,0.1,0.3,0.1,0.4s0.2,0.2,0.3,0.3
				c0.1,0.1,0.3,0.1,0.5,0.1c0.2,0,0.4-0.1,0.6-0.2c0.1-0.1,0.2-0.3,0.3-0.5s0.1-0.4,0.1-0.6c0-0.2,0-0.4,0-0.6h1.2v0.4
				c0,0.1,0,0.2,0,0.4c0,0.5-0.1,0.9-0.3,1.3c-0.2,0.4-0.5,0.7-1,0.9c-0.2,0-0.3,0.1-0.5,0.1c-0.2,0-0.3,0.1-0.5,0.1s-0.3,0-0.5,0
				c-0.1,0-0.3,0-0.5-0.1c-0.3-0.1-0.6-0.2-0.8-0.4c-0.2-0.2-0.4-0.5-0.5-0.8c0-0.1-0.1-0.2-0.1-0.4s0-0.3-0.1-0.5s0-0.3,0-0.5V466
				v-5.7h-1.7v-1.1h1.7v-1.9l1.5-0.6v2.4H711.3z"/>
		</g>
	</g>
	<g class="st5">
		<g>
			<g>
				<path class="st6" d="M412.9,283c-0.3,0-0.7-0.1-1-0.2l-92.9-46.4c-0.8-0.4-1.2-1.2-1.2-2c0-0.9,0.6-1.6,1.3-2l115-48.6
					c0.8-0.3,1.6-0.2,2.3,0.3c0.6,0.5,0.9,1.4,0.7,2.2l-22.1,95.1c-0.2,0.7-0.6,1.2-1.2,1.5C413.6,282.9,413.3,283,412.9,283z
					 M325.3,234.5l86.1,43l20.5-88.1L325.3,234.5z"/>
			</g>
		</g>
		<g>
			<path class="st6" d="M366.5,296.3c-0.2,0-0.3,0-0.5-0.1c-0.9-0.2-1.6-1-1.7-2l-2.2-37.6c0-0.6,0.2-1.2,0.6-1.7l68.5-68.5
				c0.9-0.9,2.3-0.9,3.1,0c0.9,0.9,0.9,2.3,0,3.1l-67.8,67.8l1.7,29.3l11.8-20.2c0.6-1.1,2-1.4,3-0.8c1.1,0.6,1.4,2,0.8,3
				l-15.5,26.5C368,295.9,367.3,296.3,366.5,296.3z"/>
		</g>
		<g>
			<path class="st6" d="M334.8,282.6c-0.6,0-1.1-0.2-1.6-0.6c-0.9-0.9-0.9-2.3,0-3.1l13.3-13.3c0.9-0.9,2.3-0.9,3.1,0
				c0.9,0.9,0.9,2.3,0,3.1L336.4,282C335.9,282.4,335.4,282.6,334.8,282.6z"/>
		</g>
		<g>
			<path class="st6" d="M346.6,287.4c-0.6,0-1.1-0.2-1.6-0.6c-0.9-0.9-0.9-2.3,0-3.1l4.6-4.6c0.9-0.9,2.3-0.9,3.1,0
				c0.9,0.9,0.9,2.3,0,3.1l-4.6,4.6C347.7,287.2,347.2,287.4,346.6,287.4z"/>
		</g>
	</g>
	<g class="st5">
		<g>
			<path class="st2" d="M203,528.9c0-7.9-6.5-14.4-14.4-14.4s-14.4,6.5-14.4,14.4v4.8h4.8v-4.8c0-5.3,4.3-9.6,9.6-9.6
				s9.6,4.3,9.6,9.6s-4.3,9.6-9.6,9.6h-61.3l3.4,4.8h57.8C196.5,543.3,203,536.8,203,528.9z"/>
		</g>
		<g>
			<path class="st2" d="M217.4,528.9c0-15.9-12.9-28.8-28.8-28.8s-28.8,12.9-28.8,28.8v4.8h4.8v-4.8c0-13.2,10.8-24,24-24
				s24,10.8,24,24s-10.8,24-24,24h-27.1v4.8h27.1C204.4,557.7,217.4,544.7,217.4,528.9z"/>
		</g>
		<g>
			<polygon class="st2" points="246.2,572.1 217.4,550.5 217.4,562.5 121.3,562.5 121.3,567.3 217.4,567.3 222.2,567.3 222.2,560.1 
				238.2,572.1 222.2,584.1 222.2,576.9 217.4,576.9 121.3,576.9 121.3,581.7 217.4,581.7 217.4,593.7 			"/>
		</g>
		<g>
			<polygon class="st2" points="169.3,622.5 191,593.7 178.9,593.7 178.9,586.5 174.1,586.5 174.1,598.5 181.4,598.5 169.3,614.5 
				157.3,598.5 164.5,598.5 164.5,586.5 159.7,586.5 159.7,593.7 147.7,593.7 			"/>
		</g>
	</g>
	<g class="st5">
		<g>
			<g>
				<path class="st1" d="M599.4,477.5h-76c-3.9,0-7.1-3.2-7.1-7.1v-92.6c0-3.9,3.2-7.1,7.1-7.1h11.9v4.7h-11.9
					c-1.3,0-2.4,1.1-2.4,2.4v92.6c0,1.3,1.1,2.4,2.4,2.4h76c1.3,0,2.4-1.1,2.4-2.4v-92.6c0-1.3-1.1-2.4-2.4-2.4h-11.9v-4.7h11.9
					c3.9,0,7.1,3.2,7.1,7.1v92.6C606.5,474.3,603.3,477.5,599.4,477.5z"/>
			</g>
			<g>
				<path class="st1" d="M587.5,382.5h-52.2c-1.3,0-2.4-1.1-2.4-2.4l0-14.2c0-0.6,0.3-1.2,0.7-1.7c0.4-0.4,1-0.7,1.7-0.7h9.5v-2.4
					c0-9.3,7.3-16.6,16.6-16.6c9.3,0,16.6,7.3,16.6,16.6v2.4h9.5c1.3,0,2.4,1.1,2.4,2.4l0,14.2c0,0.6-0.3,1.2-0.7,1.7
					S588.2,382.5,587.5,382.5z M537.7,377.7h47.5l0-9.5h-9.5c-1.3,0-2.4-1.1-2.4-2.4v-4.7c0-6.7-5.2-11.9-11.9-11.9
					c-6.7,0-11.9,5.2-11.9,11.9v4.7c0,1.3-1.1,2.4-2.4,2.4h-9.5L537.7,377.7z"/>
			</g>
			<g>
				<circle class="st1" cx="561.4" cy="361.1" r="4.7"/>
			</g>
		</g>
		<g>
			<path class="st1" d="M544.8,420.5c-6.5,0-11.9-5.3-11.9-11.9s5.3-11.9,11.9-11.9c6.5,0,11.9,5.3,11.9,11.9
				S551.3,420.5,544.8,420.5z M544.8,401.5c-3.9,0-7.1,3.2-7.1,7.1s3.2,7.1,7.1,7.1c3.9,0,7.1-3.2,7.1-7.1S548.7,401.5,544.8,401.5z
				"/>
		</g>
		<g>
			<path class="st1" d="M544.8,451.3c-6.5,0-11.9-5.3-11.9-11.9s5.3-11.9,11.9-11.9c6.5,0,11.9,5.3,11.9,11.9
				S551.3,451.3,544.8,451.3z M544.8,432.3c-3.9,0-7.1,3.2-7.1,7.1c0,3.9,3.2,7.1,7.1,7.1c3.9,0,7.1-3.2,7.1-7.1
				C551.9,435.5,548.7,432.3,544.8,432.3z"/>
		</g>
		<g>
			<path class="st1" d="M582.8,406.2h-16.6c-1.3,0-2.4-1.1-2.4-2.4s1.1-2.4,2.4-2.4h16.6c1.3,0,2.4,1.1,2.4,2.4
				S584.1,406.2,582.8,406.2z"/>
		</g>
		<g>
			<path class="st1" d="M578,415.7h-11.9c-1.3,0-2.4-1.1-2.4-2.4s1.1-2.4,2.4-2.4H578c1.3,0,2.4,1.1,2.4,2.4S579.3,415.7,578,415.7z
				"/>
		</g>
		<g>
			<path class="st1" d="M582.8,437.1h-16.6c-1.3,0-2.4-1.1-2.4-2.4c0-1.3,1.1-2.4,2.4-2.4h16.6c1.3,0,2.4,1.1,2.4,2.4
				C585.1,436,584.1,437.1,582.8,437.1z"/>
		</g>
		<g>
			<path class="st1" d="M578,446.6h-11.9c-1.3,0-2.4-1.1-2.4-2.4s1.1-2.4,2.4-2.4H578c1.3,0,2.4,1.1,2.4,2.4S579.3,446.6,578,446.6z
				"/>
		</g>
	</g>
	<g>
		<g>
			<path class="st4" d="M80,575.5v-11.2l-0.6-0.4l-9.3-5.6c-2.7-1.6-4.5-4.8-5.5-8.4c-1-3.6-1.2-7.5-1.2-10.5c0-2.8,0.2-4.6,0.2-4.6
				l-2.5-0.3c0,0-0.2,2-0.2,4.9c0,3.1,0.3,7.2,1.3,11.1c1.1,3.9,3,7.7,6.6,9.9c5.5,3.3,7.7,4.6,8.6,5.2l0,9.8H80"/>
		</g>
		<g>
			<path class="st4" d="M37.1,535.5v-10.9h7.1c-3.7-4.8-5.9-11.6-5.9-19.1v-1.3h36.2v1.3c0,7.5-2.2,14.3-5.9,19.1h7.1v10.9H37.1
				 M39.6,533h33.6v-5.8h-7.4v-1.3l0.9,0.9l-0.9-0.9v1.3h-3.1l2.2-2.2c4-3.9,6.8-10.5,7-18.2h-31c0.3,7.7,3.1,14.3,7,18.2l2.2,2.2
				H39.6V533z"/>
		</g>
		<g>
			<path class="st4" d="M49.5,499.1c0-4,3.3-7.3,7.3-7.3c4,0,7.3,3.3,7.3,7.3c0,4-3.3,7.3-7.3,7.3C52.8,506.4,49.5,503.1,49.5,499.1
				 M52.1,499.1c0,2.6,2.1,4.8,4.8,4.8c2.6,0,4.8-2.1,4.8-4.8c0-2.6-2.1-4.8-4.8-4.8C54.2,494.3,52.1,496.5,52.1,499.1"/>
		</g>
		<g>
			<path class="st4" d="M33,575.5v-11.2l0.6-0.4l9.3-5.6c2.7-1.6,4.5-4.8,5.5-8.4c1-3.6,1.2-7.5,1.2-10.5c0-2.8-0.2-4.6-0.2-4.6
				l2.5-0.3c0,0,0.2,2,0.2,4.9c0,3.1-0.3,7.2-1.3,11.1c-1.1,3.9-3,7.7-6.6,9.9c-5.5,3.3-7.7,4.6-8.6,5.2l0,9.8H33"/>
		</g>
		<g>
			<path class="st4" d="M29,574.2h54.8v11.3H29V574.2z M82.6,584.3V583V584.3z M31.5,583h49.8v-6.3H31.5V583z"/>
		</g>
		<g>
			<rect x="50.8" y="539.5" class="st4" width="11.2" height="2.5"/>
		</g>
		<g>
			<rect x="50.5" y="545.1" class="st4" width="12" height="2.5"/>
		</g>
	</g>
	<g>
		<g>
			<path class="st4" d="M367.5,350.7c0-17.4-14.1-31.5-31.5-31.5c-17.4,0-31.5,14.1-31.5,31.5c0,12.8,7.6,23.8,18.5,28.7v6.3h-3.3
				v2.8h3.3v5h-3.3v2.8h3.3v5h-3.3v2.8h3.3v5.7h5.9v7.5h14.2v-7.5h5.9v-5.7h3.3v-2.8H349v-5h3.3v-2.8H349v-5h3.3v-2.8H349v-6.3
				C359.9,374.4,367.5,363.4,367.5,350.7 M340.2,414.5h-8.5v-4.6h8.5V414.5z M346.2,407.1h-20.4v-2.9h20.4V407.1z M346.2,401.4
				h-20.4v-5h20.4V401.4z M346.2,393.5h-20.4v-5h20.4V393.5z M341.1,385.7v-33.4l9.2-9.2l-2-2l-10,10v34.6h-3.9v-34.6l-10-10l-2,2
				l9.2,9.2v33.4h-5.7l0-8.2l-0.9-0.4c-10.4-4.3-17.6-14.6-17.6-26.5c0-7.9,3.2-15.1,8.4-20.3c5.2-5.2,12.4-8.4,20.3-8.4
				c7.9,0,15.1,3.2,20.3,8.4c5.2,5.2,8.4,12.4,8.4,20.3c0,11.9-7.3,22.2-17.6,26.5l-0.9,0.4v8.2H341.1z"/>
		</g>
	</g>
	<g>
		<g>
			<path class="st4" d="M590.4,237.7c9.9,0,17.9-8,17.9-17.9c0-1.2-0.1-2.4-0.4-3.5l4.1,3.8l1.9-2.1l-7.5-7l-6.9,7.4l2.1,1.9v0
				l3.4-3.6c0.2,1,0.3,2,0.3,3c0,8.3-6.7,15-15,15c-8.3,0-15-6.7-15-15c0-8.3,6.7-15,15-15c3.2,0,6.2,1,8.6,2.7l1.7-2.4
				c-2.9-2-6.4-3.2-10.3-3.2c-9.9,0-17.9,8-17.9,17.9C572.6,229.7,580.5,237.7,590.4,237.7"/>
		</g>
		<g>
			<path class="st4" d="M590.2,249.1c16.2,0,29.4-13.2,29.4-29.4c0-16.2-13.2-29.4-29.4-29.4c-16.2,0-29.4,13.2-29.4,29.4
				C560.8,236,574,249.1,590.2,249.1 M590.2,193.2c14.6,0,26.5,11.9,26.5,26.5c0,14.6-11.9,26.5-26.5,26.5
				c-14.6,0-26.5-11.9-26.5-26.5C563.7,205.1,575.6,193.3,590.2,193.2"/>
		</g>
		<g>
			<path class="st4" d="M612.3,248.8c-6.1,4.7-13.8,7.5-22.1,7.5c-8.3,0-15.9-2.8-22-7.4l5.6,0.1l0-2.9l-10.2-0.1l-0.1,10.1l2.9,0
				l0.1-5c6.6,5.1,14.9,8.1,23.9,8.1c9,0,17.2-3,23.8-8L612.3,248.8L612.3,248.8z"/>
		</g>
		<g>
			<path class="st4" d="M628.5,238.9L628.5,238.9l-5.1,2.1c3.9-6.1,6.2-13.4,6.2-21.2c0-21.7-17.6-39.4-39.4-39.4
				c-21.7,0-39.4,17.6-39.4,39.4c0,9,3,17.2,8,23.8l2.3-1.7v0c-4.7-6.1-7.4-13.8-7.4-22.1c0-10.1,4.1-19.2,10.7-25.8
				c6.6-6.6,15.7-10.7,25.8-10.7c10.1,0,19.2,4.1,25.8,10.7c6.6,6.6,10.7,15.7,10.7,25.8c0,7.3-2.1,14.1-5.8,19.7l-1.9-4.7l-2.6,1.1
				l3.9,9.5l9.4-3.9L628.5,238.9z"/>
		</g>
	</g>
	<g>
		<path class="st4" d="M211.7,500.1c-1.3,0-2.4-1.1-2.4-2.4V291.5c0-51.7,42.1-93.8,93.8-93.8s93.8,42.1,93.8,93.8v124.2
			c0,1.3-1.1,2.4-2.4,2.4s-2.4-1.1-2.4-2.4V291.5c0-49.1-39.9-89.1-89.1-89.1c-49.1,0-89.1,39.9-89.1,89.1v206.2
			C214.1,499,213,500.1,211.7,500.1z"/>
	</g>
	<g>
		<path class="st4" d="M543.6,576.6c-0.8,0-1.5-0.4-2-1.1c-0.7-1.1-0.4-2.6,0.7-3.3c29-19,46.3-51,46.3-85.6V346.9
			c0-1.3,1.1-2.4,2.4-2.4s2.4,1.1,2.4,2.4v139.7c0,36.2-18.1,69.7-48.4,89.6C544.5,576.5,544.1,576.6,543.6,576.6z"/>
	</g>
	<g>
		<g>
			<path class="st4" d="M484.4,597.6h-3.1c-1.3,0-2.4-1.1-2.4-2.4s1.1-2.4,2.4-2.4h3.1c1.3,0,2.4,1.1,2.4,2.4
				S485.7,597.6,484.4,597.6z"/>
		</g>
		<g>
			<path class="st4" d="M468.3,597.6h-6.5c-1.3,0-2.4-1.1-2.4-2.4s1.1-2.4,2.4-2.4h6.5c1.3,0,2.4,1.1,2.4,2.4
				S469.7,597.6,468.3,597.6z M449,597.2c-0.1,0-0.1,0-0.2,0c-2.2-0.2-4.4-0.4-6.6-0.7c-1.3-0.2-2.2-1.4-2-2.6s1.4-2.2,2.6-2
				c2.1,0.3,4.2,0.5,6.3,0.7c1.3,0.1,2.3,1.2,2.2,2.5C451.2,596.2,450.2,597.2,449,597.2z M429.8,594.1c-0.2,0-0.4,0-0.6-0.1
				c-2.1-0.5-4.3-1.1-6.4-1.7c-1.2-0.4-2-1.7-1.6-2.9c0.4-1.2,1.7-2,2.9-1.6c2,0.6,4.1,1.2,6.1,1.7c1.3,0.3,2,1.6,1.7,2.8
				C431.9,593.4,430.9,594.1,429.8,594.1z M411.4,588.1c-0.3,0-0.6-0.1-0.9-0.2c-2-0.9-4-1.8-6-2.7c-1.2-0.6-1.7-2-1.1-3.1
				c0.6-1.2,2-1.7,3.1-1.1c1.9,0.9,3.8,1.8,5.8,2.6c1.2,0.5,1.8,1.9,1.3,3.1C413.2,587.5,412.3,588.1,411.4,588.1z M394.2,579.1
				c-0.4,0-0.9-0.1-1.2-0.4c-1.9-1.2-3.7-2.4-5.5-3.7c-1.1-0.7-1.3-2.2-0.6-3.3c0.8-1.1,2.2-1.3,3.3-0.6c1.7,1.2,3.5,2.4,5.3,3.5
				c1.1,0.7,1.4,2.1,0.7,3.2C395.7,578.7,395,579.1,394.2,579.1z M378.6,567.5c-0.6,0-1.1-0.2-1.6-0.6c-1.6-1.4-3.3-3-4.8-4.5
				c-0.9-0.9-0.9-2.4,0-3.3c0.9-0.9,2.4-0.9,3.3,0c1.5,1.5,3.1,2.9,4.6,4.3c1,0.9,1.1,2.4,0.2,3.3
				C380,567.3,379.3,567.5,378.6,567.5z M365.2,553.6c-0.7,0-1.4-0.3-1.8-0.9c-1.4-1.7-2.7-3.4-4-5.2c-0.8-1.1-0.5-2.5,0.5-3.3
				c1.1-0.8,2.5-0.5,3.3,0.5c1.2,1.7,2.5,3.4,3.9,5c0.8,1,0.7,2.5-0.3,3.3C366.2,553.4,365.7,553.6,365.2,553.6z M354.2,537.6
				c-0.8,0-1.6-0.4-2-1.2c-1.1-1.9-2.1-3.9-3.1-5.8c-0.6-1.2-0.1-2.6,1.1-3.2c1.2-0.6,2.6-0.1,3.2,1.1c0.9,1.9,1.9,3.7,3,5.6
				c0.6,1.1,0.3,2.6-0.9,3.2C355,537.5,354.6,537.6,354.2,537.6z M346,520.1c-1,0-1.9-0.6-2.2-1.5c-0.8-2-1.5-4.2-2.1-6.2
				c-0.4-1.2,0.3-2.6,1.6-2.9c1.2-0.4,2.6,0.3,2.9,1.6c0.6,2,1.3,4,2,6c0.5,1.2-0.2,2.6-1.4,3C346.6,520,346.3,520.1,346,520.1z
				 M340.8,501.4c-1.1,0-2.1-0.8-2.3-1.9c-0.4-2.1-0.8-4.3-1.1-6.5c-0.2-1.3,0.7-2.5,2-2.7c1.3-0.2,2.5,0.7,2.7,2
				c0.3,2.1,0.6,4.2,1,6.3c0.2,1.3-0.6,2.5-1.9,2.8C341.1,501.4,341,501.4,340.8,501.4z"/>
		</g>
		<g>
			<path class="st4" d="M338.8,482.1c-1.3,0-2.3-1-2.4-2.3c0-1.1,0-2.1,0-3.2c0-1.3,1.1-2.4,2.4-2.4s2.4,1.1,2.4,2.4
				c0,1,0,2.1,0,3.1C341.2,481,340.1,482.1,338.8,482.1C338.8,482.1,338.8,482.1,338.8,482.1z"/>
		</g>
	</g>
	<g>
		<path class="st4" d="M174.4,544.7c-1.2,0-2.2-0.9-2.3-2.1c-0.1-1.3,0.8-2.5,2.1-2.6c2-0.2,3.9-0.6,5.8-1c1.3-0.3,2.5,0.4,2.9,1.7
			c0.3,1.3-0.4,2.5-1.7,2.9c-2.1,0.6-4.3,0.9-6.5,1.2C174.6,544.7,174.5,544.7,174.4,544.7z M161.9,544.1c-0.2,0-0.3,0-0.5,0
			c-2.2-0.4-4.3-1-6.4-1.8c-1.2-0.4-1.9-1.8-1.4-3c0.4-1.2,1.8-1.9,3-1.4c1.9,0.7,3.8,1.2,5.7,1.6c1.3,0.3,2.1,1.5,1.9,2.8
			C164,543.4,163,544.1,161.9,544.1z M192.1,538.7c-0.8,0-1.6-0.4-2-1.1c-0.7-1.1-0.4-2.6,0.8-3.2c1.7-1,3.3-2.2,4.8-3.5
			c1-0.8,2.5-0.7,3.3,0.3c0.8,1,0.7,2.5-0.3,3.3c-1.7,1.4-3.5,2.8-5.4,3.9C192.9,538.6,192.5,538.7,192.1,538.7z M144.9,536.4
			c-0.5,0-1-0.2-1.4-0.5c-1.8-1.3-3.4-2.8-5-4.4c-0.9-0.9-0.9-2.4,0.1-3.3c0.9-0.9,2.4-0.9,3.3,0.1c1.4,1.4,2.9,2.7,4.4,3.9
			c1,0.8,1.2,2.3,0.4,3.3C146.3,536.1,145.6,536.4,144.9,536.4z M205.3,525.5c-0.4,0-0.9-0.1-1.3-0.4c-1.1-0.7-1.4-2.2-0.7-3.3
			c1.1-1.7,2-3.4,2.8-5.2c0.5-1.2,1.9-1.7,3.1-1.2c1.2,0.5,1.7,1.9,1.2,3.1c-0.9,2-1.9,4-3.1,5.9
			C206.9,525.1,206.1,525.5,205.3,525.5z M132.9,522c-0.9,0-1.7-0.5-2.1-1.3c-1-2-1.8-4-2.5-6.1c-0.4-1.2,0.3-2.6,1.5-3
			c1.2-0.4,2.6,0.3,3,1.5c0.6,1.9,1.4,3.7,2.3,5.5c0.6,1.2,0.1,2.6-1,3.2C133.6,522,133.3,522,132.9,522z M211.5,507.8
			c-0.1,0-0.2,0-0.3,0c-1.3-0.1-2.2-1.3-2.1-2.6c0.2-1.4,0.2-2.9,0.2-4.3c0-1.3,1.1-2.4,2.4-2.4s2.4,1.1,2.4,2.4
			c0,1.6-0.1,3.2-0.3,4.8C213.7,506.9,212.7,507.8,211.5,507.8z M128.5,503.9c-1.3,0-2.3-1-2.4-2.3l0-6.3c0-1.3,1.1-2.4,2.4-2.4
			s2.4,1.1,2.4,2.4l0,6.3C130.8,502.8,129.8,503.9,128.5,503.9C128.5,503.9,128.5,503.9,128.5,503.9z M128.5,485
			c-1.3,0-2.4-1.1-2.4-2.4v-6.3c0-1.3,1.1-2.4,2.4-2.4s2.4,1.1,2.4,2.4v6.3C130.8,484,129.8,485,128.5,485z"/>
	</g>
	<g>
		<path class="st4" d="M479.1,583.1h-25.8c-55.8,0-101.2-45.4-101.2-101.2v-5.3c0-1.3,1.1-2.4,2.4-2.4s2.4,1.1,2.4,2.4v5.3
			c0,53.2,43.3,96.4,96.4,96.4h25.8c53.2,0,96.4-43.3,96.4-96.4v-23c0-1.3,1.1-2.4,2.4-2.4s2.4,1.1,2.4,2.4v23
			C580.2,537.7,534.9,583.1,479.1,583.1z"/>
	</g>
	<g>
		<path class="st4" d="M165.3,557.3c-29.3,0-53.1-23.8-53.1-53.1v-27.8c0-1.2,0.9-2.1,2.1-2.1s2.1,0.9,2.1,2.1v27.8
			c0,27,21.9,48.9,48.9,48.9c1.2,0,2.1,0.9,2.1,2.1S166.5,557.3,165.3,557.3z"/>
	</g>
	<g>
		<path class="st4" d="M577.9,467.2c-1.3,0-2.4-1.1-2.4-2.4v-6.3c0-1.3,1.1-2.4,2.4-2.4s2.4,1.1,2.4,2.4v6.3
			C580.2,466.1,579.2,467.2,577.9,467.2z M577.9,448.3c-1.3,0-2.4-1.1-2.4-2.4v-6.3c0-1.3,1.1-2.4,2.4-2.4s2.4,1.1,2.4,2.4v6.3
			C580.2,447.3,579.2,448.3,577.9,448.3z M577.9,429.5c-1.3,0-2.4-1.1-2.4-2.4v-6.3c0-1.3,1.1-2.4,2.4-2.4s2.4,1.1,2.4,2.4v6.3
			C580.2,428.4,579.2,429.5,577.9,429.5z M577.9,410.6c-1.3,0-2.4-1.1-2.4-2.4V402c0-1.3,1.1-2.4,2.4-2.4s2.4,1.1,2.4,2.4v6.3
			C580.2,409.6,579.2,410.6,577.9,410.6z M577.9,391.8c-1.3,0-2.4-1.1-2.4-2.4v-6.3c0-1.3,1.1-2.4,2.4-2.4s2.4,1.1,2.4,2.4v6.3
			C580.2,390.7,579.2,391.8,577.9,391.8z M577.9,372.9c-1.3,0-2.4-1.1-2.4-2.4v-6.3c0-1.3,1.1-2.4,2.4-2.4s2.4,1.1,2.4,2.4v6.3
			C580.2,371.8,579.2,372.9,577.9,372.9z M577.9,354c-1.3,0-2.4-1.1-2.4-2.4V347c0-1.3,1.1-2.4,2.4-2.4s2.4,1.1,2.4,2.4v4.7
			C580.2,353,579.2,354,577.9,354z"/>
	</g>
	<g>
		<path class="st4" d="M590.4,143.7c-1.1,0-2.1-0.8-2.3-2c-0.3-2-0.8-3.9-1.3-5.8c-0.4-1.2,0.3-2.6,1.6-2.9c1.2-0.4,2.6,0.3,2.9,1.6
			c0.6,2.1,1.1,4.3,1.4,6.4c0.2,1.3-0.7,2.5-2,2.7C590.6,143.7,590.5,143.7,590.4,143.7z M583.9,126.1c-0.8,0-1.6-0.4-2-1.1
			c-1-1.7-2.2-3.4-3.4-4.9c-0.8-1-0.6-2.5,0.4-3.3c1-0.8,2.5-0.6,3.3,0.4c1.4,1.7,2.6,3.5,3.8,5.4c0.7,1.1,0.3,2.6-0.8,3.2
			C584.8,126,584.4,126.1,583.9,126.1z M571.4,112.2c-0.5,0-1-0.2-1.4-0.5c-1.6-1.2-3.3-2.3-5-3.3c-1.1-0.6-1.5-2.1-0.9-3.2
			c0.6-1.1,2.1-1.5,3.2-0.9c1.9,1.1,3.7,2.3,5.5,3.6c1,0.8,1.2,2.3,0.5,3.3C572.8,111.8,572.1,112.2,571.4,112.2z"/>
	</g>
	<g>
		<path class="st4" d="M493.8,102.2H252.3c-1.3,0-2.4-1.1-2.4-2.4s1.1-2.4,2.4-2.4h241.5c1.3,0,2.4,1.1,2.4,2.4
			S495.1,102.2,493.8,102.2z"/>
	</g>
	<g>
		<path class="st4" d="M82.2,417.6c-1.3,0-2.4-1.1-2.4-2.4V270c0-1.3,1.1-2.4,2.4-2.4s2.4,1.1,2.4,2.4v145.3
			C84.6,416.5,83.5,417.6,82.2,417.6z"/>
	</g>
	<g>
		<path class="st4" d="M578.4,151.5c-1.3,0-2.4-1.1-2.4-2.4c0-18.9-15.4-34.4-34.4-34.4H377.6c-1.3,0-2.4-1.1-2.4-2.4
			s1.1-2.4,2.4-2.4h164.1c21.5,0,39.1,17.5,39.1,39.1C580.8,150.4,579.7,151.5,578.4,151.5z"/>
	</g>
	<g>
		<path class="st4" d="M96.4,417.6c-1.3,0-2.4-1.1-2.4-2.4V272.4c0-89.5,72.8-162.3,162.3-162.3c1.3,0,2.4,1.1,2.4,2.4
			s-1.1,2.4-2.4,2.4c-86.9,0-157.6,70.7-157.6,157.6v142.9C98.7,416.5,97.7,417.6,96.4,417.6z"/>
	</g>
	<g>
		<path class="st4" d="M82.2,272.3c-1.3,0-2.4-1.1-2.4-2.4c0-2.1,0-4.3,0.1-6.4c0-1.3,1.1-2.3,2.4-2.3c1.3,0,2.3,1.1,2.3,2.4
			c-0.1,2-0.1,4.1-0.1,6.2C84.6,271.3,83.5,272.3,82.2,272.3z M83.2,253.5c-0.1,0-0.2,0-0.3,0c-1.3-0.1-2.2-1.3-2.1-2.6
			c0.2-2.1,0.5-4.2,0.8-6.3c0.2-1.3,1.4-2.2,2.7-2c1.3,0.2,2.2,1.4,2,2.7c-0.3,2-0.6,4.1-0.8,6.1C85.5,252.6,84.4,253.5,83.2,253.5z
			 M86.3,234.9c-0.2,0-0.3,0-0.5-0.1c-1.3-0.3-2.1-1.5-1.8-2.8c0.5-2.1,1-4.1,1.5-6.2c0.3-1.3,1.6-2,2.9-1.7c1.3,0.3,2,1.6,1.7,2.9
			c-0.5,2-1,4-1.5,6C88.4,234.2,87.4,234.9,86.3,234.9z M91.5,216.8c-0.3,0-0.5,0-0.8-0.1c-1.2-0.4-1.9-1.8-1.5-3c0.7-2,1.4-4,2.2-6
			c0.5-1.2,1.8-1.8,3-1.3c1.2,0.5,1.8,1.8,1.3,3c-0.7,1.9-1.5,3.9-2.1,5.8C93.4,216.2,92.5,216.8,91.5,216.8z M98.6,199.3
			c-0.3,0-0.7-0.1-1-0.2c-1.2-0.6-1.7-2-1.1-3.1c0.9-1.9,1.9-3.8,2.9-5.7c0.6-1.2,2-1.6,3.2-1c1.2,0.6,1.6,2,1,3.2
			c-1,1.8-1.9,3.7-2.8,5.6C100.4,198.8,99.5,199.3,98.6,199.3z M107.7,182.8c-0.4,0-0.9-0.1-1.2-0.4c-1.1-0.7-1.4-2.1-0.8-3.2
			c1.1-1.8,2.3-3.6,3.5-5.4c0.7-1.1,2.2-1.4,3.3-0.6c1.1,0.7,1.4,2.2,0.6,3.3c-1.1,1.7-2.3,3.5-3.4,5.2
			C109.2,182.4,108.5,182.8,107.7,182.8z M118.5,167.3c-0.5,0-1-0.2-1.5-0.5c-1-0.8-1.2-2.3-0.4-3.3c1.3-1.7,2.7-3.3,4-4.9
			c0.8-1,2.3-1.1,3.3-0.3c1,0.8,1.1,2.3,0.3,3.3c-1.3,1.6-2.6,3.2-3.9,4.8C119.9,167,119.2,167.3,118.5,167.3z M130.9,153.2
			c-0.6,0-1.2-0.2-1.7-0.7c-0.9-0.9-0.9-2.4,0-3.3c1.5-1.5,3-3,4.5-4.5c0.9-0.9,2.4-0.9,3.3,0.1c0.9,0.9,0.9,2.4-0.1,3.3
			c-1.5,1.4-3,2.9-4.4,4.3C132.2,152.9,131.5,153.2,130.9,153.2z M144.9,140.5c-0.7,0-1.4-0.3-1.8-0.9c-0.8-1-0.7-2.5,0.3-3.3
			c1.6-1.3,3.3-2.7,5-3.9c1-0.8,2.5-0.6,3.3,0.5c0.8,1,0.6,2.5-0.5,3.3c-1.6,1.2-3.3,2.5-4.9,3.8
			C145.9,140.3,145.4,140.5,144.9,140.5z M160.1,129.4c-0.8,0-1.5-0.4-2-1.1c-0.7-1.1-0.4-2.6,0.7-3.3c1.8-1.2,3.6-2.3,5.4-3.4
			c1.1-0.7,2.6-0.3,3.2,0.8c0.7,1.1,0.3,2.6-0.8,3.2c-1.8,1-3.5,2.1-5.3,3.3C161,129.3,160.5,129.4,160.1,129.4z M176.4,120
			c-0.9,0-1.7-0.5-2.1-1.3c-0.6-1.2-0.1-2.6,1.1-3.2c1.9-0.9,3.8-1.9,5.7-2.7c1.2-0.5,2.6,0,3.1,1.2s0,2.6-1.2,3.1
			c-1.9,0.8-3.7,1.7-5.6,2.7C177.2,120,176.8,120,176.4,120z M193.7,112.6c-1,0-1.9-0.6-2.2-1.5c-0.4-1.2,0.2-2.6,1.4-3
			c2-0.7,4-1.4,6-2.1c1.2-0.4,2.6,0.3,3,1.5c0.4,1.2-0.3,2.6-1.5,3c-2,0.6-3.9,1.3-5.9,2C194.3,112.5,194,112.6,193.7,112.6z
			 M211.7,107.1c-1.1,0-2-0.7-2.3-1.8c-0.3-1.3,0.5-2.5,1.7-2.9c2-0.5,4.1-1,6.2-1.4c1.3-0.3,2.5,0.6,2.8,1.8
			c0.3,1.3-0.6,2.5-1.8,2.8c-2,0.4-4.1,0.9-6,1.4C212.1,107.1,211.9,107.1,211.7,107.1z M230.3,103.6c-1.2,0-2.2-0.9-2.3-2.1
			c-0.2-1.3,0.7-2.5,2-2.6c2.1-0.3,4.2-0.5,6.3-0.7c1.3-0.1,2.4,0.8,2.6,2.1c0.1,1.3-0.8,2.4-2.1,2.6c-2.1,0.2-4.1,0.4-6.2,0.7
			C230.5,103.6,230.4,103.6,230.3,103.6z M249.1,102.3c-1.3,0-2.3-1-2.4-2.3c0-1.3,1-2.4,2.3-2.4c1.1,0,2.2,0,3.3,0c0,0,0,0,0,0
			c1.3,0,2.4,1.1,2.4,2.4s-1.1,2.4-2.4,2.4C251.2,102.2,250.2,102.2,249.1,102.3C249.1,102.3,249.1,102.3,249.1,102.3z"/>
	</g>
</g>
</svg>
