<?xml version="1.0" encoding="utf-8"?>
<!-- Generator: Adobe Illustrator 21.0.2, SVG Export Plug-In . SVG Version: 6.00 Build 0)  -->
<svg version="1.1" id="Layer_1" xmlns="http://www.w3.org/2000/svg" xmlns:xlink="http://www.w3.org/1999/xlink" x="0px" y="0px"
	 viewBox="0 0 1458 1080" style="enable-background:new 0 0 1458 1080;" xml:space="preserve">
<style type="text/css">
	.st0{fill:none;stroke:#C56D2F;stroke-width:50.4466;stroke-linecap:square;stroke-miterlimit:10;}
	.st1{fill:none;stroke:#A2A2A3;stroke-width:50.4466;stroke-linecap:square;stroke-miterlimit:10;}
	.st2{fill:#A2A2A3;}
	.st3{fill:none;stroke:#81A863;stroke-width:50.4466;stroke-linecap:square;stroke-miterlimit:10;}
	.st4{fill:#81A863;}
	.st5{fill:#4AA6A4;}
	.st6{fill:none;stroke:#4AA6A4;stroke-width:50.4466;stroke-linecap:square;stroke-miterlimit:10;}
	.st7{fill:#4F4F50;}
	.st8{opacity:0.3;}
	.st9{fill:#9BC4BD;}
	.st10{fill:none;stroke:#4F4F50;stroke-width:8.9023;stroke-linecap:round;stroke-linejoin:round;stroke-miterlimit:10;}
	.st11{fill:none;stroke:#4F4F50;stroke-width:8.9023;stroke-linecap:round;stroke-linejoin:round;}
	
		.st12{fill:none;stroke:#4F4F50;stroke-width:8.9023;stroke-linecap:round;stroke-linejoin:round;stroke-dasharray:12.2127,24.4254;}
	
		.st13{fill:none;stroke:#4F4F50;stroke-width:8.9023;stroke-linecap:round;stroke-linejoin:round;stroke-miterlimit:10;stroke-dasharray:11.8698,23.7396;}
	.st14{fill:none;stroke:#4F4F50;stroke-width:7.9626;stroke-linecap:round;stroke-linejoin:round;stroke-miterlimit:10;}
</style>
<path class="st0" d="M242.3,241.6C294.7,135.2,404.1,62,530.7,62H884"/>
<path class="st1" d="M1146.4,885c-13.6,26.2-32.6,49.1-55.4,67.4c-5.5,4.4-11.2,8.6-17.2,12.4"/>
<path class="st2" d="M1076.8,413.4V270.5l183.8-107.2v143.2L1076.8,413.4z"/>
<path class="st3" d="M454.1,618.1V423.9c0-95.3,77.3-172.6,172.6-172.6"/>
<path class="st4" d="M68.9,1021.6v-143l183.7-107.2v143.2L68.9,1021.6z"/>
<path class="st5" d="M596.1,690.8V547.9l183.7-107.2v143.2L596.1,690.8z"/>
<path class="st6" d="M920.7,997.3c-92.4,0-171.9-52.3-207.3-131.5"/>
<path class="st7" d="M154.5,700.5c-0.3-1.4-0.9-2.6-1.6-3.6c-0.7-1-1.7-1.8-3-2.4c-1.3-0.6-2.8-0.8-4.6-0.8c-1.1,0-2.2,0.2-3.2,0.5
	s-1.8,0.8-2.6,1.5c-0.7,0.7-1.3,1.5-1.8,2.4c-0.4,0.9-0.6,2-0.6,3.2c0,1,0.2,1.9,0.6,2.8c0.4,0.9,1,1.7,1.7,2.3
	c0.2,0.2,0.5,0.4,1,0.7c0.4,0.2,0.9,0.5,1.4,0.7l1.5,0.6c0.5,0.2,0.9,0.3,1.1,0.4l5.8,2.2c1.6,0.6,3,1.2,4.2,1.7s2.4,1.4,3.6,2.6
	c1.1,1.1,1.8,2.4,2.3,3.8c0.4,1.4,0.7,2.9,0.7,4.4c0,1.1-0.1,2.1-0.3,3c-0.2,1-0.6,2.1-1.3,3.5c-1.1,2-2.7,3.6-4.7,4.8
	c-2.1,1.2-4.6,1.8-7.6,1.8c-1.2,0-2.3-0.1-3.5-0.4c-1.1-0.3-2.2-0.6-3.1-1.2c-1-0.5-1.8-1.2-2.5-2s-1.3-1.8-1.8-3v5.8h-4.8v-15.4
	h4.8c0,1.7,0.3,3.2,0.7,4.6c0.4,1.4,1.1,2.7,1.9,3.8c0.8,1.1,1.9,1.9,3.2,2.6s2.8,0.9,4.6,0.9c1.3,0,2.4-0.1,3.5-0.4s2.1-0.9,3-1.9
	c0.8-0.8,1.3-1.8,1.7-2.7c0.3-1,0.5-2,0.5-3.2s-0.2-2.2-0.5-3s-0.8-1.5-1.3-2c-0.6-0.6-1.3-1.1-2.1-1.5s-1.7-0.8-2.7-1.2l-7.3-2.9
	c-1.4-0.6-2.8-1.1-4-1.8c-1.2-0.6-2.3-1.4-3.2-2.3s-1.6-1.9-2.1-3.1c-0.5-1.2-0.8-2.7-0.8-4.4c0-1.6,0.2-3,0.5-4.2s0.9-2.2,1.7-3.2
	c1.6-1.9,3.3-3.2,5-4c1.8-0.7,3.9-1.1,6.4-1.1c2.1,0,4,0.4,5.9,1.1c1.8,0.7,3.3,2,4.4,4v-4.3h4.9v14.9h-4.9
	C155,703.4,154.8,701.9,154.5,700.5L154.5,700.5z M184.7,702.6v3.8h-9.6v21.5c0,0.6,0,1.1,0.1,1.6s0.3,1,0.5,1.5s0.6,0.8,1,1.1
	s1,0.4,1.7,0.4c0.8,0,1.4-0.2,1.9-0.7s0.8-1.1,1-1.8s0.3-1.5,0.4-2.2s0.1-1.4,0.1-2h4.1v1.2c0,0.4,0,0.8-0.1,1.2
	c-0.1,1.6-0.4,3.1-1.1,4.5s-1.7,2.5-3.3,3.2c-0.6,0.1-1.2,0.3-1.7,0.4c-0.6,0.1-1.1,0.2-1.7,0.2c-0.6,0-1.1,0-1.6-0.1
	s-1-0.2-1.6-0.3c-1.1-0.2-2-0.7-2.7-1.5s-1.3-1.6-1.7-2.6c-0.1-0.3-0.2-0.8-0.3-1.3s-0.1-1.1-0.2-1.7c0-0.6-0.1-1.1-0.1-1.6v-20.9
	h-5.7v-3.8h5.7v-6.5l5.2-1.9v8.4h9.7L184.7,702.6z M201.3,705.7c0.5-0.9,1.2-1.7,1.9-2.2c0.8-0.5,1.7-0.9,2.7-1.1
	c1-0.2,2.3-0.4,3.9-0.4h1.3v4.8c-0.3-0.1-0.7-0.1-1.1-0.2c-0.4,0-0.7-0.1-1.1-0.1c-1.9,0-3.5,0.4-4.7,1.1c-1.2,0.7-2.1,1.7-2.8,2.8
	c-0.7,1.2-1.1,2.5-1.4,4s-0.4,3.1-0.4,4.7v12.7h6.3v4h-16.8v-4h5.3v-25.5h-5.3v-3.8h10.5v6.6C200.3,707.8,200.8,706.6,201.3,705.7
	L201.3,705.7z M232.3,734.7c-1.7,1.1-3.9,1.6-6.7,1.6c-1.2,0-2.3-0.1-3.4-0.4s-2.1-0.7-3-1.2c-0.9-0.6-1.7-1.3-2.4-2.2
	s-1.2-2-1.5-3.2c-0.2-0.8-0.3-1.5-0.3-2v-1.1c0-1.9,0.4-3.5,1.1-4.7c0.7-1.3,1.6-2.4,2.8-3.2s2.5-1.4,4-1.8c1.5-0.4,3.1-0.6,4.8-0.6
	h8.8v-3.1c-0.1-1.2-0.3-2.2-0.5-3s-0.8-1.7-1.7-2.6c-0.6-0.6-1.3-1-2.3-1.3c-0.9-0.3-1.8-0.4-2.6-0.4c-1.4,0-2.6,0.1-3.6,0.4
	c-1,0.3-2,1-3,2.2c-0.5,0.6-0.8,1.2-0.9,1.9c-0.1,0.7-0.3,1.4-0.4,2.1h-5.4c0.1-2.4,0.8-4.5,2-6.1s2.9-2.9,5.2-3.6
	c0.9-0.3,1.9-0.5,2.8-0.6c0.9-0.1,1.9-0.1,2.9-0.1c1.8,0,3.4,0.2,4.8,0.6c1.4,0.4,2.9,1.2,4.3,2.3c1.4,1.1,2.2,2.3,2.6,3.7
	c0.4,1.4,0.6,2.9,0.6,4.6V732h5.3v4h-10.1v-6.6C235.4,731.8,234,733.6,232.3,734.7L232.3,734.7z M221.9,730.8c1,1.2,2.4,1.8,4.3,1.8
	s3.5-0.4,4.8-1.1c1.3-0.7,2.3-1.7,3.1-2.9s1.4-2.6,1.7-4.1c0.4-1.6,0.6-3.1,0.6-4.7c-0.8-0.1-1.7-0.2-2.5-0.2h-2.6
	c-1.3,0-2.6,0-3.9,0.1c-1.2,0.1-2.4,0.4-3.5,0.8c-1,0.4-1.9,1.1-2.6,2c-0.7,0.9-1,2.2-1,3.9C220.5,728.1,221,729.6,221.9,730.8
	L221.9,730.8z M268.5,702.6v3.8h-9.6v21.5c0,0.6,0,1.1,0.1,1.6s0.3,1,0.5,1.5c0.3,0.4,0.6,0.8,1,1.1s1,0.4,1.7,0.4
	c0.8,0,1.4-0.2,1.9-0.7s0.8-1.1,1-1.8s0.3-1.5,0.4-2.2s0.1-1.4,0.1-2h4.1v1.2c0,0.4,0,0.8-0.1,1.2c-0.1,1.6-0.4,3.1-1.1,4.5
	s-1.7,2.5-3.3,3.2c-0.6,0.1-1.2,0.3-1.7,0.4c-0.6,0.1-1.1,0.2-1.7,0.2s-1.1,0-1.6-0.1s-1-0.2-1.6-0.3c-1.1-0.2-2-0.7-2.7-1.5
	s-1.3-1.6-1.7-2.6c-0.1-0.3-0.2-0.8-0.3-1.3s-0.1-1.1-0.2-1.7c0-0.6-0.1-1.1-0.1-1.6v-20.9H248v-3.8h5.7v-6.5l5.2-1.9v8.4h9.6V702.6
	z M279.8,720.2c0.1,1.6,0.3,3.2,0.7,4.7c0.4,1.5,1.1,2.9,2.2,4.2c1.1,1.4,2.3,2.2,3.5,2.6c1.2,0.4,2.7,0.6,4.4,0.6
	c1,0,2-0.2,2.9-0.5c0.9-0.4,1.8-0.9,2.6-1.5s1.4-1.3,1.9-2.2c0.5-0.8,0.8-1.8,1-2.7h4.9c-0.3,1.8-0.9,3.4-1.7,4.7
	c-0.8,1.4-1.9,2.5-3.1,3.4s-2.6,1.6-4.2,2s-3.3,0.7-5.1,0.7c-2.7,0-5-0.4-7-1.3c-1.9-0.8-3.5-2-4.7-3.6c-1.2-1.5-2.1-3.3-2.7-5.4
	c-0.6-2.1-0.9-4.4-0.9-6.9c0-1.8,0.2-3.6,0.6-5.4c0.4-1.8,1-3.5,1.9-5.1c1.3-2.3,3.1-4.1,5.5-5.3s4.9-1.8,7.5-1.8
	c1.5,0,3.1,0.2,4.8,0.7c1.7,0.5,3.1,1.2,4.3,2.2c1.3,1.1,2.3,2.3,3.1,3.7c0.7,1.4,1.3,2.9,1.6,4.5c0.3,1.2,0.4,2.3,0.5,3.3
	s0.2,2.1,0.2,3.3v0.9h-24.7L279.8,720.2z M298.3,712.4c-0.4-1.3-1-2.5-1.7-3.5c-0.8-1-1.7-1.9-2.8-2.6c-1.1-0.7-2.5-1-4-1
	s-2.9,0.3-4,1s-2.2,1.5-3,2.5s-1.4,2.2-1.9,3.5c-0.4,1.3-0.7,2.7-0.8,4h18.8C298.8,715.1,298.6,713.8,298.3,712.4z M317.7,741.6
	c0.6,0.7,1.2,1.2,1.9,1.6c0.7,0.4,1.5,0.6,2.4,0.8c0.9,0.1,1.8,0.2,2.7,0.2c0.7,0,1.5-0.1,2.3-0.2c0.8-0.1,1.6-0.4,2.3-0.7
	s1.4-0.7,2-1.2s1.1-1.1,1.5-1.8c0.7-1.2,1.1-2.6,1.2-4c0.1-1.5,0.2-2.9,0.2-4.3v-2c-0.7,1.1-1.5,2.1-2.3,2.9
	c-0.8,0.8-1.6,1.4-2.5,1.9s-1.9,0.9-2.9,1.1s-2.3,0.4-3.6,0.4c-2.4,0-4.4-0.5-6.2-1.4c-1.7-0.9-3.2-2.2-4.4-3.7
	c-1.2-1.6-2-3.3-2.6-5.4s-0.9-4.1-0.9-6.3s0.2-4.2,0.5-6.1s1-3.7,2-5.5c0.6-1.1,1.4-2,2.3-2.8s1.9-1.4,2.9-2c1-0.5,2.1-0.9,3.2-1.2
	s2.2-0.4,3.2-0.4c2.4,0,4.6,0.5,6.6,1.5s3.6,2.6,4.7,4.8v-5.3h10.6v3.8h-5.5v26.3c0,1.2,0,2.4-0.1,3.4c-0.1,1.1-0.2,2.1-0.5,3
	c-0.3,1-0.7,1.9-1.2,2.8c-0.5,0.9-1.2,1.8-2.1,2.7c-0.6,0.6-1.4,1.2-2.3,1.6c-0.9,0.4-1.8,0.8-2.8,1.1s-1.9,0.5-2.9,0.6
	s-1.9,0.2-2.8,0.2c-1.5,0-3.1-0.1-4.7-0.4c-1.6-0.2-3-0.7-4.3-1.3s-2.4-1.6-3.3-2.7s-1.4-2.7-1.7-4.6h5.7
	C316.8,740.1,317.1,740.9,317.7,741.6L317.7,741.6z M328.5,731.2c1.4-0.8,2.5-1.8,3.4-3.1c0.9-1.1,1.4-2.4,1.8-3.9
	c0.3-1.5,0.5-3,0.5-4.4c0-0.9,0-1.8-0.1-2.6c0-0.8-0.1-1.6-0.3-2.4c-0.2-0.8-0.4-1.5-0.7-2.3c-0.3-0.7-0.7-1.5-1.2-2.3
	c-0.8-1.2-1.9-2.2-3.2-3c-1.3-0.8-2.8-1.2-4.2-1.2c-1.9,0-3.4,0.4-4.7,1.2c-1.3,0.8-2.3,1.8-3.1,3.1s-1.3,2.7-1.7,4.3
	c-0.3,1.6-0.5,3.2-0.5,4.8s0.2,3.2,0.5,4.7s1,3,1.8,4.3c0.8,1.2,1.9,2.2,3.1,2.9s2.6,1.1,4.1,1.1
	C325.7,732.3,327.2,731.9,328.5,731.2L328.5,731.2z M360.9,706.3h-5.2l8.2,23.3l7.9-23.3h-5.2v-3.8h13.6v3.8h-2.9l-11,29.8
	c-0.3,0.9-0.7,1.7-1,2.5s-0.7,1.6-1.1,2.5c-0.4,0.8-0.8,1.7-1.4,2.5s-1.2,1.5-2.1,2c-0.7,0.5-1.5,0.8-2.5,1.1
	c-0.9,0.2-1.8,0.4-2.6,0.4c-0.7,0-1.3-0.1-2-0.2s-1.3-0.2-2-0.3v-4.2c1.2,0.3,2.5,0.4,3.8,0.4c0.9,0,1.6-0.2,2.2-0.7s1.1-1,1.5-1.7
	s0.7-1.4,1-2.2s0.5-1.5,0.7-2.2l-11.2-29.6h-3.2v-3.8h14.2v3.7H360.9z M653.5,697.4c-2-2.3-5-3.4-8.9-3.4c-2.8,0-5.1,0.5-7,1.5
	s-3.5,2.4-4.6,4.1s-2,3.7-2.5,5.9s-0.8,4.6-0.8,7s0.2,4.8,0.7,7.1c0.4,2.3,1.2,4.4,2.3,6.2s2.6,3.3,4.5,4.4s4.2,1.7,7.1,1.7
	c3.6,0,6.4-1.1,8.5-3.2c2.1-2.1,3.2-4.9,3.4-8.4h5.9c-0.1,2.6-0.6,5-1.5,6.9c-0.9,2-2.2,3.7-3.8,5s-3.4,2.4-5.5,3.1s-4.5,1.1-7,1.1
	c-3.1,0-6.1-0.5-8.7-1.6s-5-2.8-7.1-5.4c-0.8-1.1-1.6-2.3-2.2-3.7s-1.1-2.8-1.5-4.3s-0.7-2.9-0.9-4.4s-0.3-2.9-0.3-4.3
	c0-3.3,0.4-6.3,1.2-9.1s2-5.2,3.5-7.1c1.8-2.4,4-4.2,6.6-5.5s5.6-1.9,9.1-1.9c1.4,0,2.8,0.1,4.1,0.4c1.3,0.3,2.6,0.7,3.7,1.2
	c1.1,0.6,2.2,1.3,3.1,2.3c0.9,0.9,1.7,2.1,2.3,3.4v-6.6h4.6V706h-5C656.7,702.7,655.5,699.7,653.5,697.4L653.5,697.4z M679.8,705.7
	c0.5-0.9,1.2-1.7,1.9-2.2c0.8-0.5,1.7-0.9,2.7-1.1c1-0.2,2.3-0.4,3.9-0.4h1.3v4.8c-0.3-0.1-0.7-0.1-1.1-0.2c-0.4,0-0.7-0.1-1.1-0.1
	c-1.9,0-3.5,0.4-4.7,1.1c-1.2,0.7-2.1,1.7-2.8,2.8c-0.7,1.2-1.1,2.5-1.4,4c-0.3,1.5-0.4,3.1-0.4,4.7v12.7h6.3v4h-16.8v-4h5.3v-25.5
	h-5.3v-3.8h10.5v6.6C678.7,707.8,679.2,706.6,679.8,705.7L679.8,705.7z M699.2,720.2c0.1,1.6,0.3,3.2,0.7,4.7s1.1,2.9,2.2,4.2
	c1.1,1.4,2.3,2.2,3.5,2.6c1.2,0.4,2.7,0.6,4.4,0.6c1,0,2-0.2,2.9-0.5c0.9-0.4,1.8-0.9,2.5-1.5s1.4-1.3,1.9-2.2
	c0.5-0.8,0.8-1.8,1-2.7h4.9c-0.3,1.8-0.9,3.4-1.7,4.7c-0.9,1.4-1.9,2.5-3.1,3.4c-1.2,0.9-2.6,1.6-4.2,2c-1.6,0.4-3.3,0.7-5.1,0.7
	c-2.7,0-5-0.4-7-1.3c-1.9-0.8-3.5-2-4.8-3.6c-1.2-1.5-2.1-3.3-2.7-5.4c-0.6-2.1-0.9-4.4-0.9-6.9c0-1.8,0.2-3.6,0.6-5.4
	s1-3.5,1.9-5.1c1.3-2.3,3.1-4.1,5.5-5.3s4.9-1.8,7.5-1.8c1.5,0,3.1,0.2,4.8,0.7s3.1,1.2,4.3,2.2c1.3,1.1,2.3,2.3,3.1,3.7
	c0.7,1.4,1.3,2.9,1.6,4.5c0.3,1.2,0.4,2.3,0.5,3.3s0.2,2.1,0.2,3.3v0.9h-24.5L699.2,720.2z M717.7,712.4c-0.4-1.3-1-2.5-1.7-3.5
	c-0.8-1-1.7-1.9-2.8-2.6c-1.1-0.7-2.5-1-4-1s-2.9,0.3-4,1c-1.2,0.6-2.2,1.5-3,2.5s-1.4,2.2-1.9,3.5c-0.4,1.3-0.7,2.7-0.8,4h18.8
	C718.3,715.1,718.1,713.8,717.7,712.4z M746.2,734.7c-1.7,1.1-3.9,1.6-6.7,1.6c-1.2,0-2.3-0.1-3.4-0.4c-1.1-0.3-2.1-0.7-3-1.2
	c-0.9-0.6-1.7-1.3-2.4-2.2s-1.2-2-1.5-3.2c-0.2-0.8-0.3-1.5-0.3-2v-1.1c0-1.9,0.4-3.5,1.1-4.7c0.7-1.3,1.6-2.4,2.8-3.2
	s2.5-1.4,4-1.8c1.5-0.4,3.1-0.6,4.8-0.6h8.8v-3.1c-0.1-1.2-0.3-2.2-0.5-3c-0.3-0.8-0.8-1.7-1.7-2.6c-0.6-0.6-1.3-1-2.3-1.3
	c-0.9-0.3-1.8-0.4-2.6-0.4c-1.4,0-2.6,0.1-3.6,0.4c-1,0.3-2,1-3,2.2c-0.5,0.6-0.8,1.2-0.9,1.9c-0.1,0.7-0.3,1.4-0.4,2.1H730
	c0.1-2.4,0.8-4.5,2-6.1c1.2-1.7,2.9-2.9,5.2-3.6c0.9-0.3,1.9-0.5,2.8-0.6c0.9-0.1,1.9-0.1,2.9-0.1c1.8,0,3.4,0.2,4.8,0.6
	c1.4,0.4,2.9,1.2,4.3,2.3c1.4,1.1,2.2,2.3,2.6,3.7c0.4,1.4,0.6,2.9,0.6,4.6V732h5.3v4h-10.1v-6.6
	C749.3,731.8,747.9,733.6,746.2,734.7L746.2,734.7z M735.8,730.8c1,1.2,2.4,1.8,4.3,1.8s3.5-0.4,4.8-1.1c1.3-0.7,2.3-1.7,3.1-2.9
	s1.4-2.6,1.7-4.1c0.4-1.6,0.6-3.1,0.6-4.7c-0.8-0.1-1.7-0.2-2.6-0.2h-2.5c-1.3,0-2.6,0-3.9,0.1c-1.3,0.1-2.5,0.4-3.5,0.8
	s-1.9,1.1-2.6,2c-0.7,0.9-1,2.2-1,3.9C734.4,728.1,734.9,729.6,735.8,730.8L735.8,730.8z M782.4,702.6v3.8h-9.6v21.5
	c0,0.6,0,1.1,0.1,1.6s0.3,1,0.5,1.5s0.6,0.8,1,1.1s1,0.4,1.7,0.4c0.8,0,1.4-0.2,1.9-0.7s0.8-1.1,1-1.8s0.3-1.5,0.4-2.2
	c0-0.8,0.1-1.4,0.1-2h4.1v1.2c0,0.4,0,0.8-0.1,1.2c-0.1,1.6-0.4,3.1-1.1,4.5c-0.6,1.4-1.7,2.5-3.3,3.2c-0.6,0.1-1.2,0.3-1.7,0.4
	c-0.6,0.1-1.1,0.2-1.7,0.2c-0.6,0-1.1,0-1.6-0.1s-1-0.2-1.6-0.3c-1.1-0.2-2-0.7-2.7-1.5s-1.3-1.6-1.7-2.6c-0.1-0.3-0.2-0.8-0.3-1.3
	s-0.1-1.1-0.2-1.7c0-0.6-0.1-1.1-0.1-1.6v-20.9h-5.7v-3.8h5.7v-6.5l5.2-1.9v8.4h9.7L782.4,702.6z M787.2,735.8v-4h5.4v-25.5h-5.3
	v-3.8h10.5v29.3h5.2v4H787.2L787.2,735.8z M798.1,695.5h-5.9v-5.4h5.9V695.5z M819,702.6v3.8h-5.3l7.8,25.1h0.4l7.9-25.1h-5.3v-3.8
	h13.8v3.8H835l-10,29.4h-6.6l-10.2-29.5h-3.3v-3.8L819,702.6L819,702.6z M848,720.2c0.1,1.6,0.3,3.2,0.7,4.7s1.1,2.9,2.2,4.2
	c1.1,1.4,2.3,2.2,3.5,2.6c1.2,0.4,2.7,0.6,4.4,0.6c1,0,2-0.2,2.9-0.5c0.9-0.4,1.8-0.9,2.5-1.5s1.4-1.3,1.9-2.2
	c0.5-0.8,0.8-1.8,1-2.7h4.9c-0.3,1.8-0.9,3.4-1.7,4.7c-0.9,1.4-1.9,2.5-3.1,3.4c-1.2,0.9-2.6,1.6-4.2,2c-1.6,0.4-3.3,0.7-5.1,0.7
	c-2.7,0-5-0.4-7-1.3c-1.9-0.8-3.5-2-4.8-3.6c-1.2-1.5-2.1-3.3-2.7-5.4c-0.6-2.1-0.9-4.4-0.9-6.9c0-1.8,0.2-3.6,0.6-5.4
	s1-3.5,1.9-5.1c1.3-2.3,3.1-4.1,5.5-5.3s4.9-1.8,7.5-1.8c1.5,0,3.1,0.2,4.8,0.7s3.1,1.2,4.3,2.2c1.3,1.1,2.3,2.3,3.1,3.7
	c0.7,1.4,1.3,2.9,1.6,4.5c0.3,1.2,0.4,2.3,0.5,3.3s0.2,2.1,0.2,3.3v0.9H848V720.2z M866.5,712.4c-0.4-1.3-1-2.5-1.7-3.5
	c-0.8-1-1.7-1.9-2.8-2.6c-1.1-0.7-2.5-1-4-1s-2.9,0.3-4,1c-1.2,0.6-2.2,1.5-3,2.5s-1.4,2.2-1.9,3.5c-0.4,1.3-0.7,2.7-0.8,4H867
	C867,715.1,866.8,713.8,866.5,712.4z M1012.5,483.7h6.5v-37.2h-6.5v-4.2h36.5v13.6h-5v-9.4h-19.4v16.1h9.4v-6.9h4.6v18h-4.6v-6.8
	h-9.4v16.9h19.4v-10h5V488h-36.5V483.7L1012.5,483.7z M1069.1,454.7v3.8h-4.7l7.2,9.5l7.3-9.5h-5v-3.8h13.6v3.8h-3.3l-9.8,12.8
	l10.1,12.8h3.3v4h-14.5v-4h5.2l-7.7-9.7l-7.9,9.7h5.5v4h-14.2v-4h3.2l10.6-13.3l-9.8-12.2h-3.3v-3.8L1069.1,454.7L1069.1,454.7z
	 M1097.3,472.3c0.1,1.6,0.3,3.2,0.7,4.7c0.4,1.5,1.1,2.9,2.2,4.2c1.1,1.4,2.3,2.2,3.5,2.6s2.7,0.6,4.4,0.6c1,0,2-0.2,2.9-0.5
	c0.9-0.4,1.8-0.9,2.5-1.5s1.4-1.3,1.9-2.2c0.5-0.8,0.8-1.8,1-2.7h4.9c-0.3,1.8-0.9,3.4-1.7,4.7c-0.9,1.4-1.9,2.5-3.1,3.4
	s-2.6,1.6-4.2,2s-3.3,0.7-5.1,0.7c-2.7,0-5-0.4-7-1.3c-1.9-0.9-3.5-2-4.8-3.6c-1.2-1.5-2.1-3.3-2.7-5.4s-0.9-4.4-0.9-6.9
	c0-1.8,0.2-3.6,0.6-5.4s1-3.5,1.9-5.1c1.3-2.3,3.1-4.1,5.5-5.3c2.4-1.2,4.9-1.8,7.5-1.8c1.5,0,3.1,0.2,4.8,0.7
	c1.7,0.5,3.1,1.2,4.3,2.2c1.3,1.1,2.3,2.3,3.1,3.7c0.7,1.4,1.3,2.9,1.6,4.5c0.3,1.2,0.4,2.3,0.5,3.3s0.2,2.1,0.2,3.3v0.9h-24.5
	L1097.3,472.3z M1115.8,464.5c-0.4-1.3-1-2.5-1.7-3.5c-0.8-1-1.7-1.9-2.8-2.5s-2.5-1-4-1s-2.9,0.3-4,1c-1.2,0.6-2.2,1.5-3,2.5
	s-1.4,2.2-1.9,3.5s-0.7,2.7-0.8,4h18.8C1116.3,467.2,1116.1,465.9,1115.8,464.5z M1149.6,463.5c-0.4-1.1-1-2.1-1.7-2.9
	s-1.6-1.5-2.6-2s-2.1-0.8-3.3-0.8c-1.8,0-3.3,0.4-4.6,1.1c-1.3,0.8-2.3,1.8-3.1,3c-0.8,1.2-1.4,2.6-1.7,4.1s-0.5,3.1-0.5,4.6
	c0,1.7,0.2,3.2,0.5,4.7s1,3,1.8,4.5c0.8,1.3,1.9,2.4,3.2,3.1s2.7,1.1,4.3,1.1c1.1,0,2.1-0.2,3-0.6s1.7-0.9,2.4-1.6
	c0.7-0.7,1.2-1.5,1.6-2.4s0.7-1.9,0.8-2.9h4.8c0,1.9-0.4,3.5-1.1,5c-0.7,1.4-1.7,2.7-2.9,3.7s-2.6,1.8-4.1,2.3
	c-1.6,0.5-3.2,0.8-5,0.8c-2.4,0-4.6-0.4-6.4-1.3s-3.4-2.1-4.7-3.6c-1.3-1.5-2.2-3.3-2.9-5.3c-0.7-2-1-4.2-1-6.5s0.3-4.5,0.8-6.6
	s1.5-4.1,3.1-6.2c1.1-1.5,2.6-2.8,4.4-3.7c1.8-1,3.8-1.4,6-1.4c2.1,0,4,0.4,5.5,1.2s2.9,2.1,4,4v-4.1h4V467h-4
	C1150.2,465.8,1150,464.6,1149.6,463.5L1149.6,463.5z M1179.2,486.8c-1.5,1-3.6,1.6-6.3,1.6c-1.2,0-2.3-0.1-3.4-0.4s-2-0.6-2.9-1.2
	s-1.7-1.2-2.3-2.1c-0.6-0.9-1.1-1.9-1.4-3.2c-0.2-0.9-0.3-1.9-0.4-2.9c0-1-0.1-2.2-0.1-3.6v-16.6h-5.2v-3.8h10.4V475
	c0,1.1,0.1,2.2,0.2,3.3c0.1,1.1,0.4,2.1,0.9,3.1c0.4,0.9,1.1,1.7,1.9,2.2c0.8,0.6,2,0.9,3.4,0.9c1.6,0,3.1-0.4,4.3-1.2
	c1.3-0.8,2.3-2,2.9-3.4c0.6-1.2,1-2.5,1.1-4c0.1-1.4,0.2-2.8,0.2-4.1v-13.5h-5.6v-3.8h10.8v29.3h5.3v4h-10.5v-6.4
	C1181.9,484,1180.7,485.8,1179.2,486.8L1179.2,486.8z M1215.8,454.7v3.8h-9.6V480c0,0.6,0,1.1,0.1,1.6s0.3,1,0.5,1.5s0.6,0.8,1,1.1
	c0.4,0.3,1,0.4,1.7,0.4c0.8,0,1.4-0.2,1.9-0.7s0.8-1.1,1-1.8c0.2-0.7,0.3-1.5,0.4-2.2c0-0.8,0.1-1.4,0.1-2h4.1v1.2
	c0,0.4,0,0.8-0.1,1.2c-0.1,1.6-0.4,3.1-1.1,4.5c-0.6,1.4-1.7,2.5-3.3,3.2c-0.6,0.1-1.2,0.3-1.7,0.4c-0.6,0.1-1.1,0.2-1.7,0.2
	s-1.1,0-1.6-0.1s-1-0.2-1.6-0.3c-1.1-0.2-2-0.7-2.7-1.5s-1.3-1.6-1.7-2.6c-0.1-0.3-0.2-0.8-0.3-1.3s-0.1-1.1-0.2-1.7
	c0-0.6-0.1-1.1-0.1-1.6v-20.9h-5.7v-3.8h5.7v-6.5l5.2-1.9v8.4h9.7L1215.8,454.7z M1220.7,487.9v-4h5.4v-25.5h-5.3v-3.8h10.5v29.3
	h5.2v4H1220.7L1220.7,487.9z M1231.6,447.7h-5.9v-5.4h5.9V447.7z M1240.6,464.3c0.6-2.1,1.7-4,3.3-5.8c1.5-1.7,3.2-2.9,5.3-3.7
	c2-0.8,4.2-1.2,6.4-1.2c2.6,0,4.8,0.5,6.8,1.4s3.5,2.2,4.7,3.8s2.1,3.5,2.7,5.6s0.9,4.4,0.9,6.7s-0.3,4.5-1,6.6
	c-0.6,2.1-1.6,3.9-2.9,5.5s-2.9,2.8-4.8,3.8c-1.9,0.9-4.1,1.4-6.7,1.4c-2.5,0-4.7-0.4-6.7-1.2s-3.7-2.3-5.2-4.4
	c-1.3-1.8-2.2-3.7-2.8-5.7c-0.6-2-0.9-4-0.9-6.2C1239.7,468.6,1240,466.4,1240.6,464.3L1240.6,464.3z M1245.6,475.8
	c0.3,1.7,0.9,3.2,1.9,4.5c0.9,1.3,2,2.3,3.3,3.1s2.8,1.2,4.4,1.2s3.2-0.5,4.7-1.5s2.6-2.2,3.3-3.6c0.7-1.3,1.2-2.7,1.5-4.2
	s0.4-3,0.4-4.5c0-1.6-0.1-3.1-0.4-4.7s-0.8-3-1.6-4.2c-0.8-1.3-1.8-2.3-3-3.1c-1.3-0.8-2.8-1.2-4.7-1.2c-1.8,0-3.4,0.4-4.8,1.2
	c-1.3,0.8-2.5,2-3.4,3.5c-0.7,1.2-1.2,2.6-1.5,4.2s-0.4,3-0.4,4.4C1245.2,472.5,1245.4,474.1,1245.6,475.8L1245.6,475.8z
	 M1288.8,455.3c1.6-1.1,3.7-1.7,6.4-1.7c2.5,0,4.7,0.6,6.3,1.7c1.7,1.1,2.9,2.9,3.7,5.3c0.1,0.7,0.2,1.4,0.2,2.1v21.1h5.2v4H1295v-4
	h5.2v-17.2c0-1.1-0.1-2.3-0.3-3.3c-0.2-1.1-0.5-2.1-1-2.9c-0.5-0.9-1.1-1.5-2-2c-0.8-0.5-2-0.8-3.4-0.8c-1,0-1.8,0.1-2.4,0.2
	s-1.3,0.4-2.1,1c-0.7,0.5-1.3,1-1.7,1.5c-0.4,0.5-0.8,1.1-1.1,1.8c-0.7,1.3-1.1,2.7-1.2,4.2s-0.2,2.9-0.2,4.4V484h5.2v4h-15.9v-4
	h5.5v-25.5h-5.4v-3.8h10.6v6C1286,458.2,1287.2,456.5,1288.8,455.3L1288.8,455.3z M1220.4,612.4h3.6V592h-3.6v-2.3h12.6
	c0.5,0,1,0.1,1.6,0.2c0.8,0.2,1.6,0.5,2.2,1s1.1,1,1.5,1.6s0.7,1.3,0.9,2.1s0.3,1.6,0.3,2.4c0,1.2-0.2,2.3-0.5,3.3s-1,1.8-1.9,2.7
	c-0.4,0.4-0.9,0.7-1.3,0.9c-0.5,0.2-1,0.3-1.5,0.4c-0.5,0.1-1,0.1-1.6,0.1h-5.7v8h4.2v2.3h-10.8L1220.4,612.4L1220.4,612.4z
	 M1227,602.2h4.9c0.3,0,0.8-0.1,1.1-0.1c0.4-0.1,0.7-0.2,1-0.3s0.7-0.4,1-0.7c0.5-0.5,0.9-1.1,1-1.8c0.2-0.7,0.3-1.4,0.3-2
	c0-0.8-0.1-1.6-0.3-2.3c-0.2-0.8-0.7-1.4-1.3-1.8c-0.7-0.5-1.3-0.8-2.1-0.9c-0.7-0.1-1.5-0.1-2.2-0.1h-3.4V602.2L1227,602.2z
	 M1248.4,598.2c0.3-0.5,0.6-0.9,1.1-1.2c0.4-0.3,0.9-0.5,1.5-0.6s1.3-0.2,2.1-0.2h0.7v2.6c-0.2,0-0.4-0.1-0.6-0.1h-0.6
	c-1,0-1.9,0.2-2.6,0.6c-0.7,0.4-1.2,0.9-1.5,1.6c-0.4,0.6-0.6,1.4-0.8,2.2c-0.1,0.8-0.2,1.7-0.2,2.6v7h3.5v2.2h-9.2v-2.2h2.9v-14
	h-2.9v-2.1h5.7v3.6C1247.8,599.4,1248.1,598.7,1248.4,598.2L1248.4,598.2z M1259.1,606.2c0,0.9,0.2,1.7,0.4,2.6
	c0.2,0.8,0.6,1.6,1.2,2.3s1.2,1.2,1.9,1.5c0.7,0.2,1.5,0.3,2.4,0.3c0.6,0,1.1-0.1,1.6-0.3s1-0.5,1.4-0.8s0.8-0.7,1-1.2
	c0.3-0.5,0.5-1,0.5-1.5h2.7c-0.2,1-0.5,1.8-0.9,2.6c-0.5,0.7-1,1.4-1.7,1.9s-1.5,0.9-2.3,1.1c-0.9,0.2-1.8,0.4-2.8,0.4
	c-1.5,0-2.8-0.2-3.8-0.7c-1.1-0.5-1.9-1.1-2.6-2c-0.7-0.8-1.2-1.8-1.5-3s-0.5-2.4-0.5-3.8c0-1,0.1-2,0.3-3s0.6-1.9,1-2.8
	c0.7-1.3,1.7-2.2,3-2.9s2.7-1,4.1-1c0.8,0,1.7,0.1,2.6,0.4c0.9,0.3,1.7,0.7,2.3,1.2c0.7,0.6,1.3,1.3,1.7,2c0.4,0.8,0.7,1.6,0.9,2.5
	c0.1,0.7,0.2,1.3,0.3,1.8s0.1,1.1,0.1,1.8v0.5h-13.3L1259.1,606.2z M1269.2,601.9c-0.2-0.7-0.5-1.4-0.9-1.9c-0.4-0.6-0.9-1-1.6-1.4
	c-0.6-0.4-1.3-0.5-2.2-0.5c-0.8,0-1.6,0.2-2.2,0.5s-1.2,0.8-1.6,1.4s-0.8,1.2-1,1.9s-0.4,1.5-0.4,2.2h10.3
	C1269.5,603.4,1269.4,602.6,1269.2,601.9L1269.2,601.9z M1283.8,603.8v2.6h-8.3v-2.6H1283.8z M1286.5,612.4h3.6V592h-3.6v-2.3h20
	v7.5h-2.7V592h-10.7v8.8h5.2V597h2.5v9.9h-2.5v-3.7h-5.2v9.3h10.7V607h2.7v7.8h-20V612.4L1286.5,612.4z M1317.1,596.5v2.1h-2.9
	l4.3,13.8h0.2l4.3-13.8h-2.9v-2.1h7.6v2.1h-1.9l-5.5,16.2h-3.6l-5.6-16.2h-1.8v-2.1H1317.1z M1332.9,606.2c0,0.9,0.2,1.7,0.4,2.6
	c0.2,0.8,0.6,1.6,1.2,2.3s1.2,1.2,1.9,1.5c0.7,0.2,1.5,0.3,2.4,0.3c0.6,0,1.1-0.1,1.6-0.3s1-0.5,1.4-0.8s0.8-0.7,1-1.2
	c0.3-0.5,0.5-1,0.5-1.5h2.7c-0.2,1-0.5,1.8-0.9,2.6c-0.5,0.7-1,1.4-1.7,1.9s-1.5,0.9-2.3,1.1c-0.9,0.2-1.8,0.4-2.8,0.4
	c-1.5,0-2.8-0.2-3.8-0.7c-1.1-0.5-1.9-1.1-2.6-2c-0.7-0.8-1.2-1.8-1.5-3s-0.5-2.4-0.5-3.8c0-1,0.1-2,0.3-3s0.6-1.9,1-2.8
	c0.7-1.3,1.7-2.2,3-2.9s2.7-1,4.1-1c0.8,0,1.7,0.1,2.6,0.4c0.9,0.3,1.7,0.7,2.3,1.2c0.7,0.6,1.3,1.3,1.7,2c0.4,0.8,0.7,1.6,0.9,2.5
	c0.1,0.7,0.2,1.3,0.3,1.8s0.1,1.1,0.1,1.8v0.5h-13.3L1332.9,606.2z M1343.1,601.9c-0.2-0.7-0.5-1.4-0.9-1.9c-0.4-0.6-0.9-1-1.6-1.4
	c-0.6-0.4-1.3-0.5-2.2-0.5c-0.8,0-1.6,0.2-2.2,0.5s-1.2,0.8-1.6,1.4s-0.8,1.2-1,1.9s-0.4,1.5-0.4,2.2h10.3
	C1343.4,603.4,1343.3,602.6,1343.1,601.9L1343.1,601.9z M1356.4,596.9c0.9-0.6,2-0.9,3.5-0.9c1.4,0,2.6,0.3,3.5,0.9
	c0.9,0.6,1.6,1.6,2,2.9c0.1,0.4,0.1,0.8,0.1,1.2v11.6h2.9v2.2h-8.6v-2.2h2.9v-9.4c0-0.6,0-1.2-0.1-1.8s-0.3-1.1-0.5-1.6
	c-0.3-0.5-0.6-0.8-1.1-1.1s-1.1-0.4-1.9-0.4c-0.5,0-1,0-1.3,0.1s-0.7,0.2-1.2,0.5c-0.4,0.3-0.7,0.5-0.9,0.8c-0.2,0.3-0.4,0.6-0.6,1
	c-0.4,0.7-0.6,1.5-0.6,2.3c-0.1,0.8-0.1,1.6-0.1,2.4v7.3h2.9v2.2h-8.7v-2.2h3v-14h-3v-2.1h5.8v3.3
	C1354.9,598.4,1355.6,597.5,1356.4,596.9L1356.4,596.9z M1380.5,596.5v2.1h-5.2v11.8c0,0.3,0,0.6,0.1,0.9c0,0.3,0.1,0.6,0.3,0.8
	c0.1,0.2,0.3,0.4,0.6,0.6s0.5,0.2,0.9,0.2s0.8-0.1,1-0.4c0.3-0.3,0.4-0.6,0.5-1s0.2-0.8,0.2-1.2v-1.1h2.3v1.4c0,0.9-0.2,1.7-0.6,2.5
	c-0.3,0.8-1,1.4-1.8,1.7c-0.3,0.1-0.6,0.1-0.9,0.2c-0.3,0.1-0.6,0.1-0.9,0.1s-0.6,0-0.9-0.1c-0.2,0-0.5-0.1-0.9-0.1
	c-0.6-0.1-1.1-0.4-1.5-0.8s-0.7-0.9-0.9-1.4c-0.1-0.2-0.1-0.4-0.2-0.7c0-0.3-0.1-0.6-0.1-0.9v-12.4h-3.1v-2.1h3.1V593l2.8-1v4.6h5.2
	V596.5z M1228.2,686.3c-1.5-0.6-2.7-1.5-3.7-2.6s-1.8-2.4-2.3-4c-0.5-1.5-0.8-3.2-0.8-5s0.2-3.5,0.6-5c0.4-1.6,1.2-3.1,2.3-4.5
	c1.1-1.3,2.4-2.3,4-2.9c1.5-0.6,3.2-0.9,4.9-0.9c1.7,0,3.4,0.3,4.9,0.9c1.5,0.6,2.8,1.6,3.9,3c1.1,1.3,1.8,2.8,2.2,4.3
	c0.3,1.6,0.5,3.2,0.5,4.9c0,0.9,0,1.8-0.1,2.5s-0.3,1.5-0.6,2.4c-0.3,0.7-0.6,1.5-0.9,2.2s-0.7,1.4-1.2,2c-1,1.3-2.3,2.2-3.8,2.8
	s-3.1,0.9-4.7,0.9C1231.3,687.2,1229.6,686.9,1228.2,686.3L1228.2,686.3z M1229.1,664.6c-1,0.6-1.9,1.4-2.6,2.4s-1.1,2.1-1.4,3.4
	s-0.4,2.6-0.4,3.9c0,0.6,0,1.2,0.1,1.9c0,0.7,0.1,1.3,0.3,2c0.1,0.7,0.3,1.3,0.6,1.9c0.2,0.6,0.5,1.2,0.9,1.6
	c1.6,2.2,3.8,3.3,6.6,3.3c2.7,0,4.9-1.2,6.4-3.5c0.7-1,1.1-2.2,1.3-3.4c0.2-1.2,0.4-2.5,0.4-3.7c0-1.3-0.1-2.6-0.4-3.9
	c-0.3-1.3-0.7-2.4-1.4-3.4s-1.5-1.8-2.6-2.4s-2.4-0.9-3.9-0.9S1230.2,664,1229.1,664.6L1229.1,664.6z M1255.3,668.9
	c0.9-0.6,2-0.9,3.5-0.9c1.4,0,2.6,0.3,3.5,0.9c0.9,0.6,1.6,1.6,2,2.9c0.1,0.4,0.1,0.8,0.1,1.2v11.6h2.9v2.2h-8.6v-2.2h2.9v-9.4
	c0-0.6,0-1.2-0.1-1.8s-0.3-1.1-0.5-1.6c-0.3-0.5-0.6-0.8-1.1-1.1s-1.1-0.4-1.9-0.4c-0.5,0-1,0-1.3,0.1s-0.7,0.2-1.2,0.5
	c-0.4,0.3-0.7,0.5-0.9,0.8c-0.2,0.3-0.4,0.6-0.6,1c-0.4,0.7-0.6,1.5-0.6,2.3c-0.1,0.8-0.1,1.6-0.1,2.4v7.3h2.9v2.2h-8.7v-2.2h3v-14
	h-3v-2.1h5.8v3.3C1253.8,670.5,1254.5,669.5,1255.3,668.9L1255.3,668.9z M1280.5,672c-0.3-0.7-1-1.2-2-1.5c-0.3-0.1-0.5-0.2-0.9-0.2
	s-0.6-0.1-0.9-0.1c-0.5,0-1,0.1-1.5,0.2s-0.9,0.3-1.2,0.6c-0.4,0.3-0.6,0.6-0.9,1s-0.3,0.9-0.3,1.5c0,0.3,0.1,0.6,0.2,0.9
	c0.1,0.3,0.3,0.6,0.5,0.8c0.5,0.3,1,0.5,1.6,0.7l1.8,0.3c0.8,0.1,1.6,0.3,2.4,0.5s1.5,0.5,2.1,0.9s1.1,0.9,1.5,1.5s0.6,1.4,0.6,2.4
	c0,0.4,0,0.9-0.1,1.3c0,0.5-0.2,0.9-0.4,1.3c-0.6,0.9-1.3,1.6-2.1,2.2c-0.9,0.6-2,0.9-3.4,0.9c-0.7,0-1.3-0.1-1.9-0.2
	c-0.5-0.1-1-0.3-1.5-0.5c-0.4-0.2-0.8-0.6-1.2-1c-0.3-0.4-0.7-0.9-1-1.5v2.9h-2.2v-6.3h2.2c0.1,0.6,0.3,1.2,0.5,1.8s0.6,1.2,1.2,1.6
	c0.5,0.4,1,0.6,1.5,0.8s1.1,0.2,1.7,0.2c1,0,1.9-0.3,2.6-0.9s1.1-1.4,1.1-2.5c0-0.7-0.2-1.2-0.5-1.5s-0.7-0.7-1.2-0.8
	c-0.5-0.2-1-0.3-1.5-0.4c-0.5-0.1-1.1-0.2-1.6-0.2c-0.8-0.1-1.5-0.3-2.2-0.5s-1.3-0.5-1.9-0.9c-0.5-0.4-1-0.9-1.3-1.5
	s-0.5-1.4-0.5-2.3c0-0.5,0-1.1,0.1-1.6c0.1-0.6,0.3-1.1,0.7-1.5c0.8-0.9,1.6-1.5,2.5-1.8s1.9-0.5,3-0.5c0.9,0,1.8,0.2,2.7,0.6
	c0.9,0.4,1.5,1,2,1.8v-1.8h2.2v5.9h-2.2C1281,673.5,1280.8,672.7,1280.5,672L1280.5,672z M1286.6,686.8v-2.2h2.9v-14h-2.9v-2.1h5.7
	v16.1h2.8v2.2H1286.6z M1292.6,664.7h-3.3v-2.9h3.3V664.7z M1307.3,668.6v2.1h-5.2v11.8c0,0.3,0,0.6,0.1,0.9c0,0.3,0.1,0.6,0.3,0.8
	c0.1,0.2,0.3,0.4,0.6,0.6s0.5,0.2,0.9,0.2s0.8-0.1,1-0.4c0.3-0.3,0.4-0.6,0.5-1s0.2-0.8,0.2-1.2v-1.1h2.3v1.4c0,0.9-0.2,1.7-0.6,2.5
	c-0.3,0.8-1,1.4-1.8,1.7c-0.3,0.1-0.6,0.1-0.9,0.2c-0.3,0.1-0.6,0.1-0.9,0.1s-0.6,0-0.9-0.1c-0.2,0-0.5-0.1-0.9-0.1
	c-0.6-0.1-1.1-0.4-1.5-0.8s-0.7-0.9-0.9-1.4c-0.1-0.2-0.1-0.4-0.2-0.7c0-0.3-0.1-0.6-0.1-0.9v-12.4h-3.1v-2.1h3.1V665l2.8-1v4.6
	L1307.3,668.6L1307.3,668.6z M1313.5,678.2c0,0.9,0.2,1.7,0.4,2.6c0.2,0.8,0.6,1.6,1.2,2.3s1.2,1.2,1.9,1.5c0.7,0.2,1.5,0.3,2.4,0.3
	c0.6,0,1.1-0.1,1.6-0.3s1-0.5,1.4-0.8s0.8-0.7,1-1.2c0.3-0.5,0.5-1,0.5-1.5h2.7c-0.2,1-0.5,1.8-0.9,2.6c-0.5,0.7-1,1.4-1.7,1.9
	s-1.5,0.9-2.3,1.1c-0.9,0.2-1.8,0.4-2.8,0.4c-1.5,0-2.8-0.2-3.8-0.7c-1.1-0.5-1.9-1.1-2.6-2c-0.7-0.8-1.2-1.8-1.5-3
	s-0.5-2.4-0.5-3.8c0-1,0.1-2,0.3-3s0.6-1.9,1-2.8c0.7-1.3,1.7-2.2,3-2.9s2.7-1,4.1-1c0.8,0,1.7,0.1,2.6,0.4c0.9,0.3,1.7,0.7,2.3,1.2
	c0.7,0.6,1.3,1.3,1.7,2c0.4,0.8,0.7,1.6,0.9,2.5c0.1,0.7,0.2,1.3,0.3,1.8s0.1,1.1,0.1,1.8v0.5h-13.3L1313.5,678.2z M1323.6,674
	c-0.2-0.7-0.5-1.4-0.9-1.9c-0.4-0.6-0.9-1-1.6-1.4c-0.6-0.4-1.3-0.5-2.2-0.5c-0.8,0-1.6,0.2-2.2,0.5s-1.2,0.8-1.6,1.4
	s-0.8,1.2-1,1.9s-0.4,1.5-0.4,2.2h10.3C1323.9,675.4,1323.8,674.7,1323.6,674L1323.6,674z M1220.4,756.6h3.6v-20.4h-3.6v-2.3h12.6
	c0.5,0,1,0.1,1.6,0.2c0.8,0.2,1.6,0.5,2.2,1s1.1,1,1.5,1.6s0.7,1.3,0.9,2.1s0.3,1.6,0.3,2.4c0,1.2-0.2,2.3-0.5,3.3s-1,1.8-1.9,2.7
	c-0.4,0.4-0.9,0.7-1.3,0.9c-0.5,0.2-1,0.3-1.5,0.4c-0.5,0.1-1,0.1-1.6,0.1h-5.7v8h4.2v2.3h-10.8L1220.4,756.6L1220.4,756.6z
	 M1227,746.3h4.9c0.3,0,0.8-0.1,1.1-0.1c0.4-0.1,0.7-0.2,1-0.3s0.7-0.4,1-0.7c0.5-0.5,0.9-1.1,1-1.8c0.2-0.7,0.3-1.4,0.3-2
	c0-0.8-0.1-1.6-0.3-2.3c-0.2-0.8-0.7-1.4-1.3-1.8c-0.7-0.5-1.3-0.8-2.1-0.9c-0.7-0.1-1.5-0.1-2.2-0.1h-3.4V746.3L1227,746.3z
	 M1242.5,745.9c0.3-1.2,0.9-2.2,1.8-3.2c0.8-0.9,1.8-1.6,2.9-2s2.3-0.6,3.5-0.6c1.4,0,2.7,0.3,3.7,0.8s1.9,1.2,2.6,2.1
	c0.7,0.9,1.2,1.9,1.5,3.1s0.5,2.4,0.5,3.7s-0.2,2.5-0.5,3.6s-0.9,2.1-1.6,3s-1.6,1.6-2.6,2.1s-2.3,0.8-3.7,0.8
	c-1.4,0-2.6-0.2-3.7-0.7s-2-1.3-2.9-2.4c-0.7-1-1.2-2-1.5-3.1s-0.5-2.2-0.5-3.4C1242,748.2,1242.2,747,1242.5,745.9L1242.5,745.9z
	 M1245.3,752.2c0.2,0.9,0.5,1.7,1,2.4s1.1,1.3,1.8,1.7c0.7,0.4,1.5,0.6,2.4,0.6s1.7-0.3,2.6-0.8c0.8-0.5,1.4-1.2,1.8-2
	c0.4-0.7,0.7-1.5,0.8-2.3c0.1-0.8,0.2-1.6,0.2-2.5s-0.1-1.7-0.2-2.6c-0.2-0.9-0.5-1.6-0.9-2.3s-1-1.2-1.7-1.7
	c-0.7-0.4-1.6-0.6-2.6-0.6s-1.9,0.2-2.6,0.7s-1.4,1.1-1.9,1.9c-0.4,0.7-0.7,1.4-0.8,2.3s-0.2,1.7-0.2,2.4
	C1245,750.4,1245.1,751.3,1245.3,752.2L1245.3,752.2z M1272.7,744c-0.3-0.7-1-1.2-2-1.5c-0.3-0.1-0.5-0.2-0.9-0.2s-0.6-0.1-0.9-0.1
	c-0.5,0-1,0.1-1.5,0.2s-0.9,0.3-1.2,0.6c-0.4,0.3-0.6,0.6-0.9,1s-0.3,0.9-0.3,1.5c0,0.3,0.1,0.6,0.2,0.9c0.1,0.3,0.3,0.6,0.5,0.8
	c0.5,0.3,1,0.5,1.6,0.7l1.8,0.3c0.8,0.1,1.6,0.3,2.4,0.5s1.5,0.5,2.1,0.9s1.1,0.9,1.5,1.5s0.6,1.4,0.6,2.4c0,0.4,0,0.9-0.1,1.3
	c0,0.5-0.2,0.9-0.4,1.3c-0.6,0.9-1.3,1.6-2.1,2.2c-0.9,0.6-2,0.9-3.4,0.9c-0.7,0-1.3-0.1-1.9-0.2c-0.5-0.1-1-0.3-1.5-0.5
	c-0.4-0.2-0.8-0.6-1.2-1c-0.3-0.4-0.7-0.9-1-1.5v2.9h-2.2v-6.3h2.2c0.1,0.6,0.3,1.2,0.5,1.8s0.6,1.2,1.2,1.6c0.5,0.4,1,0.6,1.5,0.8
	s1.1,0.2,1.7,0.2c1,0,1.9-0.3,2.6-0.9s1.1-1.4,1.1-2.5c0-0.7-0.2-1.2-0.5-1.5s-0.7-0.7-1.2-0.8c-0.5-0.2-1-0.3-1.5-0.4
	c-0.5-0.1-1.1-0.2-1.6-0.2c-0.8-0.1-1.5-0.3-2.2-0.5s-1.3-0.5-1.9-0.9c-0.5-0.4-1-0.9-1.3-1.5s-0.5-1.4-0.5-2.3c0-0.5,0-1.1,0.1-1.6
	c0.1-0.6,0.3-1.1,0.7-1.5c0.8-0.9,1.6-1.5,2.5-1.8s1.9-0.5,3-0.5c0.9,0,1.8,0.2,2.7,0.6c0.9,0.4,1.5,1,2,1.8v-1.8h2.2v5.9h-2.2
	C1273.3,745.5,1273.1,744.7,1272.7,744L1272.7,744z M1289.2,740.6v2.1h-5.2v11.8c0,0.3,0,0.6,0.1,0.9c0,0.3,0.1,0.6,0.3,0.8
	c0.1,0.2,0.3,0.4,0.6,0.6s0.5,0.2,0.9,0.2s0.8-0.1,1-0.4c0.3-0.3,0.4-0.6,0.5-1s0.2-0.8,0.2-1.2v-1.1h2.3v1.4c0,0.9-0.2,1.7-0.6,2.5
	c-0.3,0.8-1,1.4-1.8,1.7c-0.3,0.1-0.6,0.1-0.9,0.2c-0.3,0.1-0.6,0.1-0.9,0.1s-0.6,0-0.9-0.1c-0.2,0-0.5-0.1-0.9-0.1
	c-0.6-0.1-1.1-0.4-1.5-0.8s-0.7-0.9-0.9-1.4c-0.1-0.2-0.1-0.4-0.2-0.7c0-0.3-0.1-0.6-0.1-0.9v-12.4h-3.1v-2.1h3.1v-3.6l2.8-1v4.6
	L1289.2,740.6L1289.2,740.6z M1301.4,756.6h3.6v-20.4h-3.6v-2.3h20v7.5h-2.7v-5.2H1308v8.8h5.2v-3.8h2.5v9.9h-2.5v-3.7h-5.2v9.3
	h10.7v-5.5h2.7v7.8h-20L1301.4,756.6L1301.4,756.6z M1332,740.6v2.1h-2.9l4.3,13.8h0.2l4.3-13.8h-2.9v-2.1h7.6v2.1h-1.9l-5.5,16.2
	h-3.6l-5.6-16.2h-1.8v-2.1H1332z M1347.8,750.3c0,0.9,0.2,1.7,0.4,2.6c0.2,0.8,0.6,1.6,1.2,2.3s1.2,1.2,1.9,1.5
	c0.7,0.2,1.5,0.3,2.4,0.3c0.6,0,1.1-0.1,1.6-0.3s1-0.5,1.4-0.8s0.8-0.7,1-1.2c0.3-0.5,0.5-1,0.5-1.5h2.7c-0.2,1-0.5,1.8-0.9,2.6
	c-0.5,0.7-1,1.4-1.7,1.9s-1.5,0.9-2.3,1.1c-0.9,0.2-1.8,0.4-2.8,0.4c-1.5,0-2.8-0.2-3.8-0.7c-1.1-0.5-1.9-1.1-2.6-2
	c-0.7-0.8-1.2-1.8-1.5-3s-0.5-2.4-0.5-3.8c0-1,0.1-2,0.3-3s0.6-1.9,1-2.8c0.7-1.3,1.7-2.2,3-2.9s2.7-1,4.1-1c0.8,0,1.7,0.1,2.6,0.4
	c0.9,0.3,1.7,0.7,2.3,1.2c0.7,0.6,1.3,1.3,1.7,2c0.4,0.8,0.7,1.6,0.9,2.5c0.1,0.7,0.2,1.3,0.3,1.8s0.1,1.1,0.1,1.8v0.5h-13.3
	L1347.8,750.3z M1358,746c-0.2-0.7-0.5-1.4-0.9-1.9c-0.4-0.6-0.9-1-1.6-1.4c-0.6-0.4-1.3-0.5-2.2-0.5c-0.8,0-1.6,0.2-2.2,0.5
	s-1.2,0.8-1.6,1.4s-0.8,1.2-1,1.9s-0.4,1.5-0.4,2.2h10.3C1358.3,747.5,1358.2,746.8,1358,746L1358,746z M1371.3,741
	c0.9-0.6,2-0.9,3.5-0.9c1.4,0,2.6,0.3,3.5,0.9c0.9,0.6,1.6,1.6,2,2.9c0.1,0.4,0.1,0.8,0.1,1.2v11.6h2.9v2.2h-8.6v-2.2h2.9v-9.4
	c0-0.6,0-1.2-0.1-1.8s-0.3-1.1-0.5-1.6c-0.3-0.5-0.6-0.8-1.1-1.1s-1.1-0.4-1.9-0.4c-0.5,0-1,0-1.3,0.1s-0.7,0.2-1.2,0.5
	c-0.4,0.3-0.7,0.5-0.9,0.8c-0.2,0.3-0.4,0.6-0.6,1c-0.4,0.7-0.6,1.5-0.6,2.3c-0.1,0.8-0.1,1.6-0.1,2.4v7.3h2.9v2.2h-8.7v-2.2h3v-14
	h-3v-2.1h5.8v3.3C1369.8,742.6,1370.5,741.6,1371.3,741L1371.3,741z M1395.4,740.6v2.1h-5.2v11.8c0,0.3,0,0.6,0.1,0.9
	c0,0.3,0.1,0.6,0.3,0.8c0.1,0.2,0.3,0.4,0.6,0.6s0.5,0.2,0.9,0.2s0.8-0.1,1-0.4c0.3-0.3,0.4-0.6,0.5-1s0.2-0.8,0.2-1.2v-1.1h2.3v1.4
	c0,0.9-0.2,1.7-0.6,2.5c-0.3,0.8-1,1.4-1.8,1.7c-0.3,0.1-0.6,0.1-0.9,0.2c-0.3,0.1-0.6,0.1-0.9,0.1s-0.6,0-0.9-0.1
	c-0.2,0-0.5-0.1-0.9-0.1c-0.6-0.1-1.1-0.4-1.5-0.8s-0.7-0.9-0.9-1.4c-0.1-0.2-0.1-0.4-0.2-0.7c0-0.3-0.1-0.6-0.1-0.9v-12.4h-3.1
	v-2.1h3.1v-3.6l2.8-1v4.6L1395.4,740.6L1395.4,740.6z M1300.8,746.9v2.6h-8.3v-2.6H1300.8z"/>
<g class="st8">
	<path class="st9" d="M834,407.8c-0.6,0-1.3-0.1-1.9-0.4l-175.3-87.7c-1.5-0.7-2.4-2.2-2.3-3.9c0-1.6,1-3.1,2.5-3.7l217.1-91.8
		c1.4-0.6,3.1-0.4,4.3,0.7c1.2,1,1.7,2.6,1.4,4.1L838,404.6c-0.3,1.2-1.1,2.3-2.3,2.8C835.2,407.7,834.6,407.8,834,407.8z
		 M668.6,316.3l162.5,81.3l38.7-166.4L668.6,316.3z"/>
	<path class="st9" d="M746.3,432.8c-0.3,0-0.6,0-1-0.1c-1.8-0.4-3.1-2-3.2-3.8l-4.2-71c-0.1-1.2,0.4-2.4,1.2-3.2l129.4-129.4
		c1.6-1.6,4.3-1.6,5.9,0c1.6,1.6,1.6,4.3,0,5.9l-128,128.1l3.3,55.3l22.3-38.2c1.2-2,3.7-2.7,5.7-1.5s2.7,3.7,1.5,5.7L750,430.7
		C749.1,432.1,747.7,432.8,746.3,432.8L746.3,432.8z M686.4,407.1c-1.1,0-2.1-0.4-3-1.2c-1.6-1.6-1.6-4.3,0-5.9l25-25
		c1.6-1.6,4.3-1.6,5.9,0c1.6,1.6,1.6,4.3,0,5.9l-25,25C688.6,406.7,687.5,407.1,686.4,407.1z M708.7,416.1c-1.1,0-2.1-0.4-3-1.2
		c-1.6-1.6-1.6-4.3,0-5.9l8.7-8.7c1.6-1.6,4.3-1.6,5.9,0c1.6,1.6,1.6,4.3,0,5.9l-8.7,8.7C710.8,415.7,709.8,416.1,708.7,416.1z"/>
</g>
<g class="st8">
	<path class="st4" d="M437.5,872c0-15-12.2-27.2-27.2-27.2S383.1,857,383.1,872v9.1h9.1V872c0-10,8.1-18.1,18.1-18.1
		s18.1,8.1,18.1,18.1s-8.1,18.1-18.1,18.1H294.6l6.5,9.1h109.2C425.3,899.2,437.5,887,437.5,872L437.5,872z"/>
	<path class="st4" d="M464.7,872c0-30-24.4-54.4-54.4-54.4S355.9,842,355.9,872v9.1h9.1V872c0-25,20.3-45.3,45.3-45.3
		s45.3,20.3,45.3,45.3s-20.3,45.3-45.3,45.3h-51.2v9.1h51.2C440.3,926.4,464.7,902,464.7,872L464.7,872z"/>
	<path class="st4" d="M519.1,953.6l-54.4-40.8v22.7H283.4v9.1h190.4V931l30.2,22.6l-30.2,22.7v-13.6H283.4v9.1h181.3v22.6
		L519.1,953.6z"/>
	<path class="st4" d="M374,1048.8l40.8-54.4h-22.6v-13.6h-9.1v22.7h13.6l-22.7,30.2l-22.6-30.2H365v-22.7h-9.1v13.6h-22.7
		L374,1048.8z"/>
</g>
<g class="st8">
	<path class="st2" d="M1186,775h-143.4c-7.4,0-13.4-6-13.4-13.4V586.7c0-7.4,6-13.4,13.4-13.4h22.4v9h-22.4c-2.5,0-4.5,2-4.5,4.5
		v174.8c0,2.5,2,4.5,4.5,4.5H1186c2.5,0,4.5-2,4.5-4.5V586.7c0-2.5-2-4.5-4.5-4.5h-22.4v-9h22.4c7.4,0,13.4,6,13.4,13.4v174.8
		C1199.5,768.9,1193.4,775,1186,775z"/>
	<path class="st2" d="M1163.6,595.7H1065c-2.5,0-4.5-2-4.5-4.5v-26.9c0-1.2,0.5-2.3,1.3-3.2s2-1.3,3.2-1.3h17.9v-4.5
		c0-17.6,13.8-31.4,31.4-31.4s31.4,13.8,31.4,31.4v4.5h17.9c2.5,0,4.5,2,4.5,4.5v26.9c0,1.2-0.5,2.3-1.3,3.2
		C1165.9,595.2,1164.8,595.7,1163.6,595.7L1163.6,595.7z M1069.5,586.7h89.6v-17.9h-17.9c-2.5,0-4.5-2-4.5-4.5v-9
		c0-12.6-9.8-22.4-22.4-22.4s-22.4,9.8-22.4,22.4v9c0,2.5-2,4.5-4.5,4.5h-17.9L1069.5,586.7L1069.5,586.7z"/>
	<circle class="st2" cx="1114.3" cy="555.3" r="9"/>
	<path class="st2" d="M1082.9,667.4c-12.4,0-22.4-10.1-22.4-22.4s10.1-22.4,22.4-22.4c12.4,0,22.4,10.1,22.4,22.4
		S1095.3,667.4,1082.9,667.4z M1082.9,631.5c-7.4,0-13.4,6-13.4,13.4s6,13.4,13.4,13.4s13.4-6,13.4-13.4S1090.3,631.5,1082.9,631.5z
		 M1082.9,725.6c-12.4,0-22.4-10.1-22.4-22.4s10.1-22.4,22.4-22.4c12.4,0,22.4,10.1,22.4,22.4S1095.3,725.6,1082.9,725.6z
		 M1082.9,689.8c-7.4,0-13.4,6-13.4,13.4s6,13.4,13.4,13.4s13.4-6,13.4-13.4S1090.3,689.8,1082.9,689.8z M1154.6,640.5h-31.4
		c-2.5,0-4.5-2-4.5-4.5s2-4.5,4.5-4.5h31.4c2.5,0,4.5,2,4.5,4.5S1157.1,640.5,1154.6,640.5z M1145.7,658.4h-22.4
		c-2.5,0-4.5-2-4.5-4.5s2-4.5,4.5-4.5h22.4c2.5,0,4.5,2,4.5,4.5S1148.2,658.4,1145.7,658.4z M1154.6,698.8h-31.4
		c-2.5,0-4.5-2-4.5-4.5s2-4.5,4.5-4.5h31.4c2.5,0,4.5,2,4.5,4.5S1157.1,698.8,1154.6,698.8z M1145.7,716.7h-22.4
		c-2.5,0-4.5-2-4.5-4.5s2-4.5,4.5-4.5h22.4c2.5,0,4.5,2,4.5,4.5S1148.2,716.7,1145.7,716.7z"/>
</g>
<path class="st7" d="M205.4,960v-21.2l-1.2-0.7l-17.5-10.5c-5.2-3.1-8.4-9-10.3-15.8c-1.9-6.8-2.4-14.2-2.4-19.8
	c0-5.2,0.4-8.7,0.4-8.7l-4.7-0.5c0,0.1-0.4,3.8-0.4,9.2c0,5.8,0.5,13.6,2.5,21c2.1,7.4,5.7,14.5,12.4,18.6
	c10.4,6.2,14.6,8.8,16.3,9.8v18.5h4.9"/>
<path class="st7" d="M124.3,884.6v-20.5h13.5c-6.9-9-11.1-21.8-11.1-36v-2.4H195v2.4c0,14.2-4.2,27.1-11.1,36h13.5v20.5H124.3
	 M129.1,879.8h63.4v-10.9h-14v-2.4l1.7,1.7l-1.7-1.7v2.4h-5.8l4.2-4.1c7.5-7.3,12.8-19.9,13.3-34.3h-58.6c0.5,14.5,5.8,27,13.3,34.3
	l4.2,4.1h-19.8v10.9H129.1z"/>
<path class="st7" d="M147.8,815.8c0-7.6,6.2-13.8,13.8-13.8s13.8,6.2,13.8,13.8s-6.2,13.8-13.8,13.8S147.8,823.5,147.8,815.8
	 M152.6,815.8c0,5,4,9,9,9s9-4,9-9s-4-9-9-9C156.7,806.8,152.6,810.8,152.6,815.8 M116.5,960v-21.2l1.2-0.7l17.5-10.5
	c5.2-3.1,8.4-9,10.3-15.8c1.9-6.8,2.4-14.2,2.4-19.8c0-5.2-0.4-8.7-0.4-8.7l4.7-0.5c0,0.1,0.4,3.8,0.4,9.2c0,5.8-0.5,13.6-2.5,21
	c-2.1,7.4-5.7,14.5-12.4,18.6c-10.4,6.2-14.6,8.8-16.3,9.8v18.5h-4.9"/>
<path class="st7" d="M109,957.6h103.5V979H109V957.6z M210.2,976.6v-2.4V976.6z M113.8,974.2h94v-11.8h-94
	C113.8,962.4,113.8,974.2,113.8,974.2z M150.2,892.1h21.2v4.8h-21.2V892.1z M149.6,902.6h22.7v4.8h-22.7V902.6z M748.2,535.6
	c0-32.9-26.7-59.6-59.6-59.6c-32.9,0-59.6,26.7-59.6,59.6c0,24.1,14.3,44.9,34.9,54.2v11.9h-6.3v5.4h6.3v9.4h-6.3v5.4h6.3v9.4h-6.3
	v5.4h6.3v10.7h11.2v14.1H702v-14.1h11.2v-10.7h6.3v-5.4h-6.3v-9.4h6.3v-5.4h-6.3v-9.4h6.3v-5.4h-6.3v-11.9
	C733.8,580.4,748.2,559.7,748.2,535.6 M696.7,656.1h-16.1v-8.8h16.1V656.1z M707.9,642h-38.5v-5.4h38.5V642z M707.9,631.3h-38.5
	v-9.4h38.5V631.3z M707.9,616.5h-38.5v-9.4h38.5V616.5z M698.3,601.7v-63l17.4-17.4l-3.8-3.8L693,536.4v65.3h-7.4v-65.3l-18.9-18.9
	l-3.8,3.8l17.4,17.4v63h-10.8v-15.5l-1.6-0.7c-19.6-8.2-33.3-27.5-33.3-50c0-15,6.1-28.5,15.9-38.3c9.8-9.8,23.4-15.9,38.3-15.9
	c15,0,28.5,6.1,38.3,15.9s15.9,23.3,15.9,38.3c0,22.5-13.7,41.8-33.3,50l-1.6,0.7v15.5H698.3L698.3,601.7z M1169.1,322.2
	c18.6,0,33.7-15.1,33.7-33.7c0-2.3-0.2-4.4-0.7-6.6l7.7,7.2l3.7-4l-14.2-13.1l-13,14l4,3.7l6.4-6.8c0.4,1.8,0.6,3.7,0.6,5.7
	c0,15.6-12.7,28.3-28.3,28.3c-15.6,0-28.3-12.7-28.3-28.3c0-15.6,12.7-28.3,28.3-28.3c6.1,0,11.6,1.9,16.3,5.1l3.1-4.4
	c-5.5-3.9-12.2-6.1-19.4-6.1c-18.6,0-33.7,15.1-33.7,33.7C1135.4,307.2,1150.5,322.2,1169.1,322.2"/>
<path class="st7" d="M1168.7,343.9c30.6,0,55.5-24.8,55.5-55.5c0-30.6-24.8-55.5-55.5-55.5c-30.6,0-55.5,24.8-55.5,55.5
	C1113.2,319,1138.1,343.9,1168.7,343.9 M1168.7,238.3c27.6,0.1,50,22.4,50.1,50.1c-0.1,27.6-22.4,50-50.1,50.1
	c-27.6,0-50-22.4-50.1-50.1C1118.7,260.7,1141.1,238.4,1168.7,238.3"/>
<path class="st7" d="M1210.5,343.2c-11.6,8.8-26,14.1-41.7,14.1c-15.6,0-30-5.3-41.6-14l10.5,0.1V338l-19.3-0.2l-0.2,19.1h5.4
	l0.1-9.5c12.5,9.6,28.1,15.3,45.1,15.3c16.9,0,32.5-5.7,45-15.2L1210.5,343.2L1210.5,343.2z M1240.9,324.4l-9.6,3.9
	c7.4-11.6,11.7-25.3,11.7-40c0-41.1-33.3-74.3-74.3-74.3c-41.1,0-74.3,33.3-74.3,74.3c0,16.9,5.7,32.5,15.2,45l4.3-3.3
	c-8.8-11.6-14.1-26-14.1-41.7c0-19,7.7-36.2,20.2-48.7s29.7-20.2,48.7-20.2s36.2,7.7,48.7,20.2s20.2,29.7,20.2,48.7
	c0,13.8-4.1,26.5-11,37.3l-3.7-8.9l-5,2.1l7.4,17.9l17.7-7.3L1240.9,324.4L1240.9,324.4z"/>
<path class="st10" d="M454.1,813.2V423.9c0-95.3,77.3-172.6,172.6-172.6s172.6,77.3,172.6,172.6v234.6 M1080.7,957.7
	c53.9-35.3,89.4-96.2,89.4-165.4V528.5"/>
<path class="st11" d="M969,997.3h-6"/>
<path class="st12" d="M938.6,997.3h-17.9c-119.2,0-216.9-89.2-226.2-205.8"/>
<path class="st11" d="M693.9,779.3c-0.1-2-0.1-4-0.1-5.9"/>
<path class="st13" d="M296.9,772.9v46.4c0,43.4,35.2,78.6,78.6,78.6s78.6-35.2,78.6-78.6"/>
<path class="st10" d="M1145.4,740v43.4c0,103-83.5,186.6-186.6,186.6h-48.7c-103,0-186.6-83.5-186.6-186.6v-10.1"/>
<path class="st14" d="M366.4,921.7c-53.2,0-96.3-43.1-96.3-96.3v-52.5"/>
<path class="st13" d="M1145.4,751.1V528.6 M1123.3,74.2c28,16,46.9,46.2,46.9,80.8"/>
<path class="st10" d="M530.7,62h456 M209.5,657.5V383.2 M767.2,85.7h309.9c38.3,0,69.3,31,69.3,69.3 M236.2,657.5V387.7
	c0-166.8,135.2-302,302-302"/>
<path class="st13" d="M209.5,383.2C209.5,205.8,353.3,62,530.7,62"/>
</svg>
