<?xml version="1.0" encoding="UTF-8"?>
<svg width="26px" height="21px" viewBox="0 0 26 21" version="1.1" xmlns="http://www.w3.org/2000/svg" xmlns:xlink="http://www.w3.org/1999/xlink">
    <!-- Generator: Sketch 44.1 (41455) - http://www.bohemiancoding.com/sketch -->
    <title>twitter</title>
    <desc>Created with Sketch.</desc>
    <defs></defs>
    <g id="Page-1" stroke="none" stroke-width="1" fill="none" fill-rule="evenodd">
        <g id="001_INV_17_Website_r3" transform="translate(-853.000000, -4035.000000)" fill="#85B8B8">
            <g id="Group-208" transform="translate(741.000000, 3185.600000)">
                <path d="M135.0049,854.6095 C135.0049,854.6095 135.4679,862.9115 128.5499,867.7095 C128.5499,867.7095 121.2139,872.9645 112.1719,867.8005 C112.1719,867.8005 116.7889,868.4455 119.7869,865.6345 C119.7869,865.6345 116.2349,865.7255 114.9899,861.9445 C114.9899,861.9445 116.1449,862.1745 117.1559,861.9905 C117.1559,861.9905 113.3729,861.2945 113.1439,856.6385 C113.1439,856.6385 113.9729,857.6525 115.5409,857.4205 C115.5409,857.4205 111.8979,855.3905 113.7909,850.3655 C113.7909,850.3655 117.5739,855.6235 124.6289,855.8515 C124.6289,855.8515 123.7049,851.2405 127.9499,849.7165 C127.9499,849.7165 131.6879,848.7025 133.5779,851.0535 C133.5779,851.0535 135.5189,850.8745 136.8509,849.7625 C136.8509,849.7625 136.9009,851.1015 134.8229,852.7155 C134.8229,852.7155 136.9909,852.4405 137.6369,851.8395 C137.6369,851.8395 136.9009,853.3635 135.0049,854.6095" id="twitter"></path>
            </g>
        </g>
    </g>
</svg>