<svg width="26" height="21" viewBox="0 0 26 21" xmlns="http://www.w3.org/2000/svg"><title>twitter</title><path d="M23.005 5.21s.463 8.301-6.455 13.1c0 0-7.336 5.254-16.378.09 0 0 4.617.645 7.615-2.166 0 0-3.552.091-4.797-3.69 0 0 1.155.23 2.166.046 0 0-3.783-.696-4.012-5.352 0 0 .829 1.014 2.397.782 0 0-3.643-2.03-1.75-7.055 0 0 3.783 5.258 10.838 5.486 0 0-.924-4.61 3.32-6.135 0 0 3.739-1.014 5.629 1.337 0 0 1.94-.179 3.273-1.29 0 0 .05 1.338-2.028 2.952 0 0 2.168-.275 2.814-.876 0 0-.736 1.524-2.632 2.77" fill="#85B8B8" fill-rule="evenodd"/></svg>