<?xml version="1.0" encoding="UTF-8"?>
<svg width="186px" height="49px" viewBox="0 0 186 49" version="1.1" xmlns="http://www.w3.org/2000/svg" xmlns:xlink="http://www.w3.org/1999/xlink">
    <!-- Generator: Sketch 44.1 (41455) - http://www.bohemiancoding.com/sketch -->
    <title>amerisource</title>
    <desc>Created with Sketch.</desc>
    <defs></defs>
    <g id="Page-1" stroke="none" stroke-width="1" fill="none" fill-rule="evenodd">
        <g id="amerisource" transform="translate(-1.000000, 0.000000)" fill="#797A76">
            <path d="M15.643,43.64 L13.294,43.64 L11.519,38.56 L5.232,38.56 L3.325,43.64 L0.972,43.64 L7.306,27.05 L9.635,27.05 L15.643,43.64 M8.425,29.78 L5.907,36.65 L10.846,36.65 L8.468,29.78 L8.425,29.78" id="Fill-54"></path>
            <path d="M31.829,43.64 L29.917,43.64 L29.917,36.18 C29.917,34.81 29.311,33.99 27.964,33.99 C26.775,33.99 25.189,34.64 25.189,36.32 L25.189,43.64 L23.279,43.64 L23.279,36.18 C23.279,34.81 22.678,33.99 21.326,33.99 C20.132,33.99 18.553,34.64 18.553,36.32 L18.553,43.64 L16.645,43.64 L16.645,32.5 L18.415,32.5 L18.415,33.9 L18.459,33.9 C19.158,32.99 20.28,32.22 21.579,32.22 C22.794,32.22 24.211,32.71 24.819,34.16 C25.611,33.06 27.009,32.22 28.194,32.22 C30.012,32.22 31.829,33.01 31.829,36.28 L31.829,43.64" id="Fill-55"></path>
            <path d="M38.153,43.92 C34.827,43.92 32.945,41.29 32.945,38.16 C32.945,34.55 34.644,32.22 38.255,32.22 C41.752,32.22 43.446,34.76 43.446,38.05 L43.446,38.48 L34.996,38.48 C34.996,40.7 36.162,42.43 38.348,42.43 C40.026,42.43 41.048,41.59 41.472,39.93 L43.356,40.16 C42.635,42.65 40.748,43.91 38.283,43.91 C38.239,43.91 38.196,43.92 38.153,43.92 M38.048,33.71 C36.183,33.71 35.114,35.29 34.996,36.99 L41.407,36.99 C41.17,35.19 40.143,33.71 38.048,33.71" id="Fill-56"></path>
            <path d="M46.479,43.64 L44.568,43.64 L44.568,32.5 L46.479,32.5 L46.479,34.41 L46.524,34.41 C47.432,32.9 48.527,32.37 50.46,32.37 L50.46,34.46 C50.085,34.44 49.506,34.41 49.177,34.41 C47.34,34.41 46.479,36.11 46.479,37.4 L46.479,43.64" id="Fill-57"></path>
            <polygon id="Fill-58" points="51.776 43.64 53.681 43.64 53.681 32.5 51.776 32.5"></polygon>
            <path d="M60.088,43.91 C57.635,43.91 55.406,42.8 55.151,39.98 L57.197,39.72 C57.197,41.8 58.828,42.43 60.368,42.43 C61.251,42.43 62.854,42.15 62.854,40.51 C62.854,37.74 55.591,39.82 55.591,35.46 C55.591,33.2 57.806,32.22 59.784,32.22 C61.296,32.22 64.558,32.99 64.558,35.85 L62.647,36.11 C62.647,34.48 61.318,33.71 59.877,33.71 C58.853,33.71 57.501,34.02 57.501,35.37 C57.501,37.88 64.906,36.09 64.906,40.49 C64.906,42.84 62.505,43.91 60.088,43.91" id="Fill-59"></path>
            <path d="M71.196,43.91 C67.794,43.91 65.748,41.44 65.748,38.07 C65.748,34.69 67.794,32.22 71.196,32.22 C74.592,32.22 76.646,34.69 76.646,38.07 C76.646,41.44 74.592,43.91 71.196,43.91 M71.196,33.71 C68.443,33.71 67.794,36.23 67.794,38.07 C67.794,39.91 68.443,42.43 71.196,42.43 C73.945,42.43 74.592,39.91 74.592,38.07 C74.592,36.23 73.945,33.71 71.196,33.71" id="Fill-60"></path>
            <path d="M81.7,43.91 C79.462,43.91 77.763,42.94 77.763,39.84 L77.763,32.5 L79.672,32.5 L79.672,39.84 C79.672,41.42 80.651,42.15 82.026,42.15 C83.797,42.15 85.009,41 85.009,39.21 L85.009,32.5 L86.912,32.5 L86.912,43.64 L85.009,43.64 L85.009,42.15 L84.961,42.15 C84.236,43.26 83.141,43.91 81.7,43.91" id="Fill-61"></path>
            <path d="M90.616,43.64 L88.708,43.64 L88.708,32.5 L90.616,32.5 L90.616,34.41 L90.661,34.41 C91.576,32.9 92.669,32.37 94.6,32.37 L94.6,34.46 C94.225,34.44 93.641,34.41 93.32,34.41 C91.479,34.41 90.616,36.11 90.616,37.4 L90.616,43.64" id="Fill-62"></path>
            <path d="M100.191,43.91 C96.6,43.91 94.644,41.59 94.644,38.18 C94.644,34.74 96.578,32.22 100.167,32.22 C102.497,32.22 104.637,33.44 105.171,35.98 L103.125,36.18 C102.845,34.67 101.705,33.71 100.167,33.71 C97.466,33.71 96.695,36.06 96.695,38.09 C96.695,40.25 97.603,42.43 100.12,42.43 C102.004,42.43 103.24,41.31 103.309,39.42 L105.361,39.58 C105.038,42.28 102.984,43.91 100.191,43.91" id="Fill-63"></path>
            <path d="M111.263,43.92 C107.941,43.92 106.058,41.29 106.058,38.16 C106.058,34.55 107.756,32.22 111.369,32.22 C114.866,32.22 116.565,34.76 116.565,38.05 L116.565,38.48 L108.108,38.48 C108.108,40.7 109.274,42.43 111.46,42.43 C113.136,42.43 114.162,41.59 114.581,39.93 L116.469,40.16 C115.744,42.65 113.862,43.91 111.392,43.91 C111.349,43.91 111.305,43.92 111.263,43.92 M111.161,33.71 C109.293,33.71 108.223,35.29 108.108,36.99 L114.512,36.99 C114.275,35.19 113.257,33.71 111.161,33.71" id="Fill-64"></path>
            <path d="M126.344,43.64 L117.867,43.64 L117.867,27.05 L125.619,27.05 C129.648,27.05 130.885,29.38 130.885,31.36 C130.885,33.06 129.837,34.44 128.462,34.85 L128.462,34.9 C130.488,35.39 131.374,37.07 131.374,39.12 C131.374,40.37 130.768,43.64 126.344,43.64 M120.054,36 L120.054,41.72 L125.95,41.72 C127.719,41.7 128.995,40.89 128.995,39.02 C128.995,36.14 127.04,36 125.154,36 L120.054,36 M120.054,28.96 L120.054,34.09 L125.109,34.09 C126.901,34.09 128.51,33.65 128.51,31.45 C128.51,28.96 126.741,28.96 125.084,28.96 L120.054,28.96" id="Fill-65"></path>
            <path d="M137.485,43.92 C134.164,43.92 132.281,41.29 132.281,38.16 C132.281,34.55 133.982,32.22 137.589,32.22 C141.084,32.22 142.785,34.76 142.785,38.05 L142.785,38.48 L134.33,38.48 C134.33,40.7 135.495,42.43 137.683,42.43 C139.364,42.43 140.388,41.59 140.804,39.93 L142.693,40.16 C141.969,42.65 140.083,43.91 137.615,43.91 C137.572,43.91 137.528,43.92 137.485,43.92 M137.378,33.71 C135.515,33.71 134.447,35.29 134.33,36.99 L140.735,36.99 C140.505,35.19 139.478,33.71 137.378,33.71" id="Fill-66"></path>
            <path d="M145.812,43.64 L143.902,43.64 L143.902,32.5 L145.812,32.5 L145.812,34.41 L145.86,34.41 C146.767,32.9 147.859,32.37 149.795,32.37 L149.795,34.46 C149.422,34.44 148.842,34.41 148.513,34.41 C146.674,34.41 145.812,36.11 145.812,37.4 L145.812,43.64" id="Fill-67"></path>
            <path d="M155.548,48.85 C152.845,48.85 150.54,47.71 150.379,44.78 L152.423,44.78 C152.381,46.57 153.826,47.36 155.477,47.36 C158.714,47.36 158.763,45.08 158.763,43.5 L158.763,41.91 L158.714,41.91 C157.665,43.26 156.546,43.91 154.918,43.91 C152.987,43.91 149.843,42.8 149.843,38.07 C149.843,34.83 151.449,32.22 154.939,32.22 C156.733,32.22 158.062,32.94 158.714,34.02 L158.763,34.04 L158.763,32.5 L160.674,32.5 L160.674,43.73 C160.674,45.4 160.343,48.85 155.548,48.85 M155.173,33.85 C153.219,33.85 151.753,35.2 151.753,38.07 C151.753,40.4 152.965,42.28 155.173,42.28 C157.388,42.28 158.808,40.25 158.763,38 C158.691,34.92 157.27,33.85 155.173,33.85" id="Fill-68"></path>
            <path d="M166.853,43.92 C163.532,43.92 161.647,41.29 161.647,38.16 C161.647,34.55 163.349,32.22 166.96,32.22 C170.452,32.22 172.152,34.76 172.152,38.05 L172.152,38.48 L163.699,38.48 C163.699,40.7 164.865,42.43 167.053,42.43 C168.731,42.43 169.757,41.59 170.171,39.93 L172.058,40.16 C171.338,42.65 169.451,43.91 166.983,43.91 C166.94,43.91 166.896,43.92 166.853,43.92 M166.752,33.71 C164.883,33.71 163.815,35.29 163.699,36.99 L170.104,36.99 C169.87,35.19 168.845,33.71 166.752,33.71" id="Fill-69"></path>
            <path d="M182.421,43.64 L180.514,43.64 L180.514,36.48 C180.514,34.58 179.513,33.99 178.162,33.99 C176.39,33.99 175.181,35.14 175.181,36.93 L175.181,43.64 L173.272,43.64 L173.272,32.5 L175.181,32.5 L175.181,33.99 L175.227,33.99 C175.948,32.88 177.043,32.22 178.489,32.22 C180.722,32.22 182.421,33.2 182.421,36.3 L182.421,43.64" id="Fill-70"></path>
            <path d="M53.596,26.69 C55.144,24.92 56.218,22.82 56.841,20.62 C58.12,15.49 56.708,10.22 52.879,6.72 C49.89,4.23 47.208,3.06 44.305,3.06 C42.679,3.06 40.985,3.43 39.129,4.14 C38.622,4.34 38.141,4.78 37.653,4.86 C37.653,4.86 39.432,2.39 42.698,1.03 C44.371,0.41 45.887,0.18 47.226,0.18 C50.222,0.18 52.331,1.34 53.331,1.85 C57.296,3.74 60.456,8.22 60.947,12.61 C61.5,18.46 58.669,23.8 53.596,26.69" id="Fill-71"></path>
            <path d="M65.63,26.95 L53.575,26.95 C58.008,25.68 62.241,21.46 63.343,16.97 C64.653,11.91 63.327,6.69 59.385,3.22 L65.63,3.22 L65.63,26.95" id="Fill-72"></path>
            <path d="M52.56,26.95 L41.829,26.95 C43.1,25.46 44.078,22.94 44.488,19.97 C47.924,21.15 50.855,23.65 52.56,26.95" id="Fill-73"></path>
            <path d="M52.776,27.01 L52.374,25.8 C51.147,22.26 48.207,19.2 44.709,17.62 C44.722,17.34 44.725,17.07 44.725,16.79 C44.725,15.63 44.629,14.52 44.462,13.48 C44.566,13.52 44.665,13.57 44.771,13.61 C49.885,15.99 52.94,21.41 52.776,27.01" id="Fill-74"></path>
            <path d="M52.983,27.01 C53.582,24.07 53.487,20.95 52.374,18.3 C50.962,14.41 47.468,11.2 43.468,9.95 C42.548,7.67 41.252,6.1 40.011,5.61 C40.646,5.52 41.275,5.47 41.893,5.47 C44.026,5.47 46.041,6 47.832,6.87 C53.015,9.47 55.914,14.95 55.274,20.8 C54.977,23.06 54.293,25.19 52.983,27.01" id="Fill-75"></path>
            <path d="M185.255,35.75 C184.326,35.75 183.581,35 183.581,34.08 C183.581,33.15 184.326,32.4 185.255,32.4 C186.181,32.4 186.93,33.15 186.93,34.08 C186.93,35 186.181,35.75 185.255,35.75 M185.255,32.66 C184.498,32.66 183.864,33.3 183.864,34.08 C183.864,34.85 184.498,35.49 185.255,35.49 C186.013,35.49 186.643,34.85 186.643,34.08 C186.643,33.3 186.013,32.66 185.255,32.66 M186.099,35.06 L185.769,35.06 L185.227,34.21 L184.933,34.21 L184.933,35.06 L184.645,35.06 L184.645,33.09 L185.376,33.09 C185.811,33.09 186.025,33.27 186.025,33.64 C186.025,34 185.791,34.16 185.548,34.2 L186.099,35.06 M184.933,33.35 L184.933,33.95 L185.272,33.95 C185.548,33.95 185.737,33.9 185.737,33.64 C185.737,33.43 185.552,33.35 185.301,33.35 L184.933,33.35" id="Fill-76"></path>
        </g>
    </g>
</svg>