<?xml version="1.0" encoding="UTF-8"?>
<svg width="131px" height="65px" viewBox="0 0 131 65" version="1.1" xmlns="http://www.w3.org/2000/svg" xmlns:xlink="http://www.w3.org/1999/xlink">
    <!-- Generator: Sketch 44.1 (41455) - http://www.bohemiancoding.com/sketch -->
    <title>elanco</title>
    <desc>Created with Sketch.</desc>
    <defs></defs>
    <g id="Page-1" stroke="none" stroke-width="1" fill="none" fill-rule="evenodd">
        <g id="elanco" fill="#797A76">
            <path d="M86.723,33.78 C84.366,33.78 83.383,40.85 83.383,42.03 C83.383,43.08 83.744,43.57 84.661,43.57 C87.018,43.57 88,36.46 88,35.32 C88,34.17 87.575,33.78 86.723,33.78" id="Fill-179"></path>
            <path d="M83.678,47.57 C79.683,47.57 77.424,45.37 77.424,41.47 C77.424,37.12 79.781,29.82 87.771,29.82 C91.308,29.82 94.026,31.55 94.026,35.81 C94.026,40.23 91.57,47.57 83.678,47.57 Z M70.793,47.57 C66.078,47.57 63.785,44.55 64.997,38.86 C66.209,33.12 69.68,29.82 74.657,29.82 C77.081,29.82 78.391,30.44 79.766,31.81 L76.426,35.25 C75.935,34.57 75.083,34.01 74.297,34.01 C72.988,34.01 72.005,35.06 71.285,38.49 C70.564,41.93 70.63,43.34 72.267,43.34 C73.544,43.34 74.723,42.72 75.673,41.84 L77.375,45.18 C75.182,46.98 72.856,47.57 70.793,47.57 Z M56.778,47.14 L59.07,36.33 C59.365,35.02 59.202,34.43 58.252,34.43 C57.335,34.43 56.615,34.89 55.894,36.01 L53.503,47.14 L47.806,47.14 L50.065,36.5 C50.589,33.94 50.786,32.44 50.524,30.77 L55.567,29.82 C55.698,30.37 55.829,30.96 55.861,31.65 C57.171,30.51 59.136,29.82 61.002,29.82 C65.227,29.82 65.652,32.21 65.128,34.66 L62.476,47.14 L56.778,47.14 Z M42.927,47.79 C42.239,47.43 41.748,46.42 41.65,45.8 C40.897,46.58 39.227,47.66 37.262,47.66 C33.824,47.66 32.383,45.5 32.383,41.9 C32.383,38.3 33.824,34.57 36.018,32.37 C37.95,30.44 40.013,29.82 42.993,29.82 C45.317,29.82 48.199,30.21 49.443,30.83 C48.952,32.01 48.461,34.04 48.167,35.45 L46.889,41.54 C46.758,42.1 46.791,43.28 47.544,44.09 L42.927,47.79 Z M28.249,47.57 C23.435,47.57 23.861,45.08 24.581,41.7 L27.037,30.18 C27.889,26.25 27.954,25 27.921,24.05 L33.848,23.07 C33.914,23.89 33.717,25.63 33.357,27.3 L30.672,39.84 C30.05,42.82 29.984,43.6 31.261,43.6 C31.458,43.6 31.654,43.57 31.883,43.51 L32.047,47.04 C31.229,47.34 29.821,47.57 28.249,47.57 Z M22.191,47.14 L8.503,47.14 L13.35,24.32 L26.612,24.32 L25.171,29.13 L18.196,29.13 L17.377,32.96 L23.075,32.96 L22.093,37.61 L16.396,37.61 L15.413,42.26 L23.239,42.26 L22.191,47.14 Z M0.45,23.08 L7.921,64.78 L130.552,43.09 L130.552,0.25 L0.45,23.08 L0.45,23.08 Z" id="Fill-180"></path>
            <path d="M40.045,34.96 C38.834,36.37 38.113,39.67 38.113,41.77 C38.113,42.92 38.441,43.41 39.227,43.41 C39.915,43.41 41.093,42.23 41.224,41.67 L42.796,34.27 C42.6,34.11 42.305,34.04 42.108,34.04 C41.683,34.04 40.864,34.01 40.045,34.96" id="Fill-181"></path>
            <polyline id="Fill-182" points="126.406 46.47 127.079 46.47 127.079 48.28 127.384 48.28 127.384 46.47 128.056 46.47 128.056 46.2 126.406 46.2 126.406 46.47"></polyline>
            <polyline id="Fill-183" points="129.537 47.74 129.523 47.74 129.034 46.2 128.5 46.2 128.5 48.28 128.805 48.28 128.805 46.4 128.82 46.4 129.393 48.28 129.639 48.28 130.227 46.4 130.24 46.4 130.24 48.28 130.546 48.28 130.546 46.2 129.996 46.2 129.537 47.74"></polyline>
        </g>
    </g>
</svg>