<?xml version="1.0" encoding="UTF-8"?>
<svg width="123px" height="57px" viewBox="0 0 123 57" version="1.1" xmlns="http://www.w3.org/2000/svg" xmlns:xlink="http://www.w3.org/1999/xlink">
    <!-- Generator: Sketch 44.1 (41455) - http://www.bohemiancoding.com/sketch -->
    <title>gnp</title>
    <desc>Created with Sketch.</desc>
    <defs></defs>
    <g id="Page-1" stroke="none" stroke-width="1" fill="none" fill-rule="evenodd">
        <g id="gnp">
            <polyline id="Fill-95" fill="#FFFFFF" points="104.527 48.63 104.66 48.69 104.545 48.77 104.438 48.77 104.438 48.63 104.527 48.63"></polyline>
            <path d="M122.999,35.26 L122.999,36.87 C122.674,37 122.348,37.14 122.022,37.26 L122.022,35.65 C122.348,35.53 122.674,35.4 122.999,35.26" id="Fill-96" fill="#FFFFFF"></path>
            <path d="M122.999,26.22 L122.999,27.85 C122.674,27.99 122.348,28.13 122.022,28.26 L122.022,26.64 C122.348,26.5 122.674,26.36 122.999,26.22" id="Fill-97" fill="#FFFFFF"></path>
            <path d="M115.943,38.99 L115.775,38.91 L115.663,38.91 L115.663,39.09 L115.798,39.09 L115.943,38.99 Z M115.909,39.26 L116.123,39.65 L115.898,39.65 L115.708,39.27 L115.663,39.27 L115.663,39.65 L115.438,39.65 L115.438,38.74 L115.809,38.74 C116.033,38.74 116.168,38.8 116.168,39 C116.168,39.18 116.056,39.24 115.909,39.26 L115.909,39.26 Z" id="Fill-98" fill="#797A76"></path>
            <path d="M116.347,39.2 C116.347,38.85 116.089,38.59 115.775,38.59 C115.449,38.59 115.191,38.85 115.191,39.2 C115.191,39.54 115.449,39.79 115.775,39.79 C116.089,39.79 116.347,39.54 116.347,39.2 Z M115.775,38.36 C116.234,38.36 116.605,38.73 116.605,39.2 C116.605,39.66 116.234,40.03 115.775,40.03 C115.304,40.03 114.934,39.66 114.934,39.2 C114.934,38.73 115.304,38.36 115.775,38.36 L115.775,38.36 Z" id="Fill-99" fill="#797A76"></path>
            <path d="M116.123,39.65 L115.909,39.26 C116.056,39.24 116.168,39.18 116.168,39 C116.168,38.8 116.033,38.74 115.809,38.74 L115.438,38.74 L115.438,39.65 L115.663,39.65 L115.663,39.27 L115.708,39.27 L115.898,39.65 L116.123,39.65 Z M115.775,38.59 C116.089,38.59 116.347,38.85 116.347,39.2 C116.347,39.54 116.089,39.79 115.775,39.79 C115.449,39.79 115.191,39.54 115.191,39.2 C115.191,38.85 115.449,38.59 115.775,38.59 L115.775,38.59 Z" id="Fill-100" fill="#FFFFFF"></path>
            <polyline id="Fill-101" fill="#797A76" points="89.628 38.35 89.628 46.89 87.396 46.89 87.43 40.33 87.407 40.33 85.231 46.89 83.122 46.89 81.047 40.33 81.024 40.33 81.069 46.89 78.838 46.89 78.838 38.35 82.427 38.35 84.244 44.03 84.267 44.03 86.174 38.35 89.628 38.35"></polyline>
            <path d="M121.619,46.66 L121.619,10.37 C121.619,5.8 117.895,2.06 113.308,2.06 L10.201,2.06 C5.613,2.06 1.89,5.8 1.89,10.37 L1.89,46.66 C1.89,51.24 5.613,54.96 10.201,54.96 L113.308,54.96 C117.895,54.96 121.619,51.24 121.619,46.66 Z M122.999,36.87 L122.999,46.66 C122.999,52 118.657,56.35 113.308,56.35 L10.201,56.35 C4.851,56.35 0.51,52 0.51,46.66 L0.51,33.14 C0.723,33.24 0.936,33.34 1.149,33.45 L1.149,31.79 C0.936,31.68 0.723,31.58 0.51,31.48 L0.51,23.85 C0.723,23.97 0.936,24.08 1.149,24.18 L1.149,22.51 C0.936,22.4 0.723,22.3 0.51,22.17 L0.51,10.37 C0.51,5.03 4.851,0.68 10.201,0.68 L113.308,0.68 C118.657,0.68 122.999,5.03 122.999,10.37 L122.999,26.22 C122.674,26.36 122.348,26.5 122.022,26.64 L122.022,28.26 C122.348,28.13 122.674,27.99 122.999,27.85 L122.999,35.26 C122.674,35.4 122.348,35.53 122.022,35.65 L122.022,37.26 C122.348,37.14 122.674,37 122.999,36.87 L122.999,36.87 Z" id="Fill-102" fill="#FFFFFF"></path>
            <path d="M120.699,46.66 L120.699,10.37 C120.699,6.3 117.391,2.99 113.308,2.99 L10.201,2.99 C6.118,2.99 2.809,6.3 2.809,10.37 L2.809,46.66 C2.809,50.73 6.118,54.04 10.201,54.04 L113.308,54.04 C117.391,54.04 120.699,50.73 120.699,46.66 Z M121.619,10.37 L121.619,46.66 C121.619,51.24 117.895,54.96 113.308,54.96 L10.201,54.96 C5.613,54.96 1.89,51.24 1.89,46.66 L1.89,10.37 C1.89,5.8 5.613,2.06 10.201,2.06 L113.308,2.06 C117.895,2.06 121.619,5.8 121.619,10.37 L121.619,10.37 Z" id="Fill-103" fill="#797A76"></path>
            <path d="M119.769,46.66 L119.769,10.37 C119.769,6.81 116.874,3.91 113.308,3.91 L10.201,3.91 C6.634,3.91 3.74,6.81 3.74,10.37 L3.74,46.66 C3.74,50.21 6.634,53.12 10.201,53.12 L113.308,53.12 C116.874,53.12 119.769,50.21 119.769,46.66 Z M120.699,10.37 L120.699,46.66 C120.699,50.73 117.391,54.04 113.308,54.04 L10.201,54.04 C6.118,54.04 2.809,50.73 2.809,46.66 L2.809,10.37 C2.809,6.3 6.118,2.99 10.201,2.99 L113.308,2.99 C117.391,2.99 120.699,6.3 120.699,10.37 L120.699,10.37 Z" id="Fill-104" fill="#797A76"></path>
            <path d="M118.389,46.66 L118.389,10.37 C118.389,7.58 116.111,5.3 113.308,5.3 L10.201,5.3 C7.397,5.3 5.12,7.58 5.12,10.37 L5.12,46.66 C5.12,49.45 7.397,51.73 10.201,51.73 L113.308,51.73 C116.111,51.73 118.389,49.45 118.389,46.66 Z M119.769,10.37 L119.769,46.66 C119.769,50.21 116.874,53.12 113.308,53.12 L10.201,53.12 C6.634,53.12 3.74,50.21 3.74,46.66 L3.74,10.37 C3.74,6.81 6.634,3.91 10.201,3.91 L113.308,3.91 C116.874,3.91 119.769,6.81 119.769,10.37 L119.769,10.37 Z" id="Fill-105" fill="#FFFFFF"></path>
            <path d="M41.732,21.14 C41.855,20.85 41.99,20.46 41.844,20.21 C41.687,19.96 41.283,19.87 41.16,19.87 L33.611,19.87 L33.701,19.41 L34.06,17.76 L34.127,17.46 L34.43,17.46 C36.583,17.46 38.322,15.71 38.322,13.57 C38.322,12.53 37.918,11.55 37.189,10.81 C36.449,10.08 35.473,9.68 34.43,9.68 C33.398,9.68 32.411,10.08 31.682,10.81 C30.953,11.55 30.538,12.53 30.538,13.57 C30.538,14.32 30.75,15.04 31.154,15.67 L31.289,15.87 L31.166,16.08 L28.934,19.69 L28.821,19.87 L7.711,19.87 C7.318,19.94 7.061,20.07 6.959,20.28 C6.802,20.57 6.948,20.99 6.993,21.1 C12.635,30.37 13.028,44.42 13.05,46.89 L36.449,46.98 C36.168,31.03 41.687,21.21 41.732,21.14 Z M48.529,43.16 C51.188,43.16 52.77,41.87 52.77,39.72 C52.77,37.3 51.233,36.2 47.969,36.2 L44.57,36.2 L44.57,46.89 L47.419,46.89 L47.419,43.16 L48.529,43.16 Z M54.609,20.18 L54.609,14.23 L50.178,14.23 L50.178,16.25 L51.85,16.25 L51.85,18.36 C51.592,18.48 51.222,18.55 50.84,18.55 C48.754,18.55 47.262,17.27 47.262,15.17 C47.262,12.68 49.169,11.72 51.479,11.72 C52.152,11.72 53.196,11.89 54.082,12.4 L54.317,10.08 C53.274,9.68 51.782,9.6 51.076,9.6 C47.161,9.6 44.323,11.15 44.323,15.17 C44.323,19.22 47.621,20.66 50.47,20.66 C51.446,20.66 52.792,20.62 54.609,20.18 Z M54.609,33.68 L54.609,22.99 L52.007,22.99 L52.052,30.26 L52.018,30.26 L48.406,22.99 L44.772,22.99 L44.772,33.68 L47.385,33.68 L47.295,26.38 L47.329,26.38 L51.064,33.68 L54.609,33.68 Z M60.834,46.89 L60.834,38.35 L58.546,38.35 L58.546,41.61 L55.854,41.61 L55.854,38.35 L53.577,38.35 L53.577,46.89 L55.854,46.89 L55.854,43.24 L58.546,43.24 L58.546,46.89 L60.834,46.89 Z M62.236,33.68 L62.236,32.07 L58.355,32.07 L58.355,30.14 L61.889,30.14 L61.889,28.51 L58.355,28.51 L58.355,26.75 L62.102,26.75 L62.102,25.13 L56.067,25.13 L56.067,33.68 L62.236,33.68 Z M64.087,16.2 C64.087,13.46 62.618,11.77 59.802,11.77 C56.976,11.77 55.506,13.46 55.506,16.2 C55.506,18.92 57.009,20.62 59.802,20.62 C62.596,20.62 64.087,18.92 64.087,16.2 Z M63.729,33.68 L66.017,33.68 L66.017,25.13 L63.729,25.13 L63.729,33.68 Z M70.447,46.89 L67.149,38.35 L64.356,38.35 L61.115,46.89 L63.425,46.89 L64.099,45.07 L67.307,45.07 L67.946,46.89 L70.447,46.89 Z M73.319,16.2 C73.319,13.46 71.838,11.77 69.023,11.77 C66.208,11.77 64.738,13.46 64.738,16.2 C64.738,18.92 66.23,20.62 69.023,20.62 C71.815,20.62 73.319,18.92 73.319,16.2 Z M75.315,33.45 L75.315,28.69 L71.771,28.69 L71.771,30.3 L73.105,30.3 L73.105,32 C72.904,32.09 72.601,32.14 72.298,32.14 C70.638,32.14 69.449,31.12 69.449,29.44 C69.449,27.44 70.963,26.67 72.814,26.67 C73.353,26.67 74.183,26.82 74.89,27.23 L75.08,25.37 C74.25,25.04 73.061,24.99 72.5,24.99 C69.359,24.99 67.093,26.22 67.093,29.44 C67.093,32.68 69.718,33.84 72.007,33.84 C72.792,33.84 73.868,33.8 75.315,33.45 Z M77.896,46.89 L77.065,44.57 C76.639,43.53 76.583,42.88 75.854,42.68 L75.854,42.65 C76.953,42.4 77.491,41.63 77.491,40.5 C77.491,39.03 76.258,38.35 74.732,38.35 L70.672,38.35 L70.672,46.89 L72.948,46.89 L72.948,43.52 L73.42,43.52 C74.272,43.52 74.563,43.88 75.023,45.35 L75.518,46.89 L77.896,46.89 Z M82.461,16.16 C82.461,12.85 80.374,11.92 77.391,11.92 L74.272,11.92 L74.272,20.48 L77.391,20.48 C80.307,20.48 82.461,19.36 82.461,16.16 Z M84.199,33.68 L84.199,25.13 L81.911,25.13 L81.911,28.4 L79.219,28.4 L79.219,25.13 L76.942,25.13 L76.942,33.68 L79.219,33.68 L79.219,30.02 L81.911,30.02 L81.911,33.68 L84.199,33.68 Z M89.628,46.89 L89.628,38.35 L86.174,38.35 L84.267,44.03 L84.244,44.03 L82.427,38.35 L78.838,38.35 L78.838,46.89 L81.069,46.89 L81.024,40.33 L81.047,40.33 L83.122,46.89 L85.231,46.89 L87.407,40.33 L87.43,40.33 L87.396,46.89 L89.628,46.89 Z M92.443,27.3 C92.443,25.83 91.255,25.13 89.662,25.13 L85.725,25.13 L85.725,33.68 L89.325,33.68 C90.862,33.68 92.668,33.25 92.668,31.21 C92.668,30.17 92.073,29.55 90.94,29.32 L90.94,29.29 C91.895,28.98 92.443,28.37 92.443,27.3 Z M99.186,46.89 L95.888,38.35 L93.095,38.35 L89.842,46.89 L92.163,46.89 L92.836,45.07 L96.044,45.07 L96.684,46.89 L99.186,46.89 Z M101.911,29.41 C101.911,26.67 100.441,24.99 97.626,24.99 C94.811,24.99 93.33,26.67 93.33,29.41 C93.33,32.13 94.833,33.84 97.626,33.84 C100.419,33.84 101.911,32.13 101.911,29.41 Z M106.285,46.7 L106.173,44.91 C105.545,45.16 104.794,45.35 104.042,45.35 C102.371,45.35 101.193,44.34 101.193,42.65 C101.193,41.06 102.236,39.88 103.862,39.88 C104.647,39.88 105.354,40.09 106.084,40.49 L106.274,38.64 C105.444,38.39 104.603,38.19 103.739,38.19 C100.912,38.19 98.826,39.68 98.826,42.65 C98.826,45.88 101.474,47.04 103.75,47.04 C104.905,47.04 105.635,46.86 106.285,46.7 Z M110.055,33.68 L109.225,31.36 C108.787,30.32 108.742,29.66 108.002,29.47 L108.002,29.44 C109.112,29.19 109.65,28.43 109.65,27.29 C109.65,25.82 108.405,25.13 106.892,25.13 L102.819,25.13 L102.819,33.68 L105.097,33.68 L105.097,30.3 L105.579,30.3 C106.42,30.3 106.712,30.67 107.183,32.14 L107.677,33.68 L110.055,33.68 Z M111.793,43.67 L114.934,38.35 L112.309,38.35 L110.66,41.77 L108.978,38.35 L106.353,38.35 L109.516,43.67 L109.516,46.89 L111.793,46.89 L111.793,43.67 Z M116.605,39.2 C116.605,38.73 116.234,38.36 115.775,38.36 C115.304,38.36 114.934,38.73 114.934,39.2 C114.934,39.66 115.304,40.03 115.775,40.03 C116.234,40.03 116.605,39.66 116.605,39.2 Z M118.389,10.37 L118.389,46.66 C118.389,49.45 116.111,51.73 113.308,51.73 L10.201,51.73 C7.397,51.73 5.12,49.45 5.12,46.66 L5.12,10.37 C5.12,7.58 7.397,5.3 10.201,5.3 L113.308,5.3 C116.111,5.3 118.389,7.58 118.389,10.37 L118.389,10.37 Z" id="Fill-106" fill="#FFFFFF"></path>
            <polyline id="Fill-107" fill="#797A76" points="114.934 38.35 111.793 43.67 111.793 46.89 109.516 46.89 109.516 43.67 106.353 38.35 108.978 38.35 110.66 41.77 112.309 38.35 114.934 38.35"></polyline>
            <path d="M107.362,27.69 C107.362,26.89 106.565,26.75 105.702,26.75 L105.097,26.75 L105.097,28.69 L105.702,28.69 C106.432,28.69 107.362,28.66 107.362,27.69 Z M109.225,31.36 L110.055,33.68 L107.677,33.68 L107.183,32.14 C106.712,30.67 106.42,30.3 105.579,30.3 L105.097,30.3 L105.097,33.68 L102.819,33.68 L102.819,25.13 L106.892,25.13 C108.405,25.13 109.65,25.82 109.65,27.29 C109.65,28.43 109.112,29.19 108.002,29.44 L108.002,29.47 C108.742,29.66 108.787,30.32 109.225,31.36 L109.225,31.36 Z" id="Fill-108" fill="#797A76"></path>
            <path d="M106.173,44.91 L106.285,46.7 C105.635,46.86 104.905,47.04 103.75,47.04 C101.474,47.04 98.826,45.88 98.826,42.65 C98.826,39.68 100.912,38.19 103.739,38.19 C104.603,38.19 105.444,38.39 106.274,38.64 L106.084,40.49 C105.354,40.09 104.647,39.88 103.862,39.88 C102.236,39.88 101.193,41.06 101.193,42.65 C101.193,44.34 102.371,45.35 104.042,45.35 C104.794,45.35 105.545,45.16 106.173,44.91" id="Fill-109" fill="#797A76"></path>
            <path d="M105.702,26.75 C106.565,26.75 107.362,26.89 107.362,27.69 C107.362,28.66 106.432,28.69 105.702,28.69 L105.097,28.69 L105.097,26.75 L105.702,26.75" id="Fill-110" fill="#FFFFFF"></path>
            <path d="M99.566,29.41 C99.566,27.93 99.006,26.67 97.626,26.67 C96.235,26.67 95.686,27.93 95.686,29.41 C95.686,30.82 96.235,32.14 97.626,32.14 C99.006,32.14 99.566,30.82 99.566,29.41 Z M97.626,24.99 C100.441,24.99 101.911,26.67 101.911,29.41 C101.911,32.13 100.419,33.84 97.626,33.84 C94.833,33.84 93.33,32.13 93.33,29.41 C93.33,26.67 94.811,24.99 97.626,24.99 L97.626,24.99 Z" id="Fill-111" fill="#797A76"></path>
            <path d="M97.626,26.67 C99.006,26.67 99.566,27.93 99.566,29.41 C99.566,30.82 99.006,32.14 97.626,32.14 C96.235,32.14 95.686,30.82 95.686,29.41 C95.686,27.93 96.235,26.67 97.626,26.67" id="Fill-112" fill="#FFFFFF"></path>
            <path d="M95.506,43.45 L94.485,40.11 L94.463,40.11 L93.363,43.45 L95.506,43.45 Z M95.888,38.35 L99.186,46.89 L96.684,46.89 L96.044,45.07 L92.836,45.07 L92.163,46.89 L89.842,46.89 L93.095,38.35 L95.888,38.35 L95.888,38.35 Z" id="Fill-113" fill="#797A76"></path>
            <polyline id="Fill-114" fill="#FFFFFF" points="94.485 40.11 95.506 43.45 93.363 43.45 94.463 40.11 94.485 40.11"></polyline>
            <path d="M90.167,27.61 C90.167,26.83 89.427,26.75 88.675,26.75 L88.013,26.75 L88.013,28.51 L88.642,28.51 C89.393,28.51 90.167,28.33 90.167,27.61 Z M90.391,31.08 C90.391,30.15 89.494,30.06 88.708,30.06 L88.013,30.06 L88.013,32.07 L88.687,32.07 C89.516,32.07 90.391,31.94 90.391,31.08 Z M89.662,25.13 C91.255,25.13 92.443,25.83 92.443,27.3 C92.443,28.37 91.895,28.98 90.94,29.29 L90.94,29.32 C92.073,29.55 92.668,30.17 92.668,31.21 C92.668,33.25 90.862,33.68 89.325,33.68 L85.725,33.68 L85.725,25.13 L89.662,25.13 L89.662,25.13 Z" id="Fill-115" fill="#797A76"></path>
            <path d="M88.708,30.06 C89.494,30.06 90.391,30.15 90.391,31.08 C90.391,31.94 89.516,32.07 88.687,32.07 L88.013,32.07 L88.013,30.06 L88.708,30.06" id="Fill-116" fill="#FFFFFF"></path>
            <path d="M88.675,26.75 C89.427,26.75 90.167,26.83 90.167,27.61 C90.167,28.33 89.393,28.51 88.642,28.51 L88.013,28.51 L88.013,26.75 L88.675,26.75" id="Fill-117" fill="#FFFFFF"></path>
            <polyline id="Fill-118" fill="#797A76" points="84.199 25.13 84.199 33.68 81.911 33.68 81.911 30.02 79.219 30.02 79.219 33.68 76.942 33.68 76.942 25.13 79.219 25.13 79.219 28.4 81.911 28.4 81.911 25.13 84.199 25.13"></polyline>
            <path d="M80.105,16.2 C80.105,14.5 79.106,13.61 77.436,13.61 L76.561,13.61 L76.561,18.78 L77.436,18.78 C79.151,18.78 80.105,17.9 80.105,16.2 Z M77.391,11.92 C80.374,11.92 82.461,12.85 82.461,16.16 C82.461,19.36 80.307,20.48 77.391,20.48 L74.272,20.48 L74.272,11.92 L77.391,11.92 L77.391,11.92 Z" id="Fill-119" fill="#797A76"></path>
            <path d="M77.436,13.61 C79.106,13.61 80.105,14.5 80.105,16.2 C80.105,17.9 79.151,18.78 77.436,18.78 L76.561,18.78 L76.561,13.61 L77.436,13.61" id="Fill-120" fill="#FFFFFF"></path>
            <path d="M75.215,40.9 C75.215,40.11 74.418,39.96 73.543,39.96 L72.948,39.96 L72.948,41.89 L73.543,41.89 C74.283,41.89 75.215,41.87 75.215,40.9 Z M77.065,44.57 L77.896,46.89 L75.518,46.89 L75.023,45.35 C74.563,43.88 74.272,43.52 73.42,43.52 L72.948,43.52 L72.948,46.89 L70.672,46.89 L70.672,38.35 L74.732,38.35 C76.258,38.35 77.491,39.03 77.491,40.5 C77.491,41.63 76.953,42.4 75.854,42.65 L75.854,42.68 C76.583,42.88 76.639,43.53 77.065,44.57 L77.065,44.57 Z" id="Fill-121" fill="#797A76"></path>
            <path d="M75.315,28.69 L75.315,33.45 C73.868,33.8 72.792,33.84 72.007,33.84 C69.718,33.84 67.093,32.68 67.093,29.44 C67.093,26.22 69.359,24.99 72.5,24.99 C73.061,24.99 74.25,25.04 75.08,25.37 L74.89,27.23 C74.183,26.82 73.353,26.67 72.814,26.67 C70.963,26.67 69.449,27.44 69.449,29.44 C69.449,31.12 70.638,32.14 72.298,32.14 C72.601,32.14 72.904,32.09 73.105,32 L73.105,30.3 L71.771,30.3 L71.771,28.69 L75.315,28.69" id="Fill-122" fill="#797A76"></path>
            <path d="M73.543,39.96 C74.418,39.96 75.215,40.11 75.215,40.9 C75.215,41.87 74.283,41.89 73.543,41.89 L72.948,41.89 L72.948,39.96 L73.543,39.96" id="Fill-123" fill="#FFFFFF"></path>
            <path d="M70.963,16.2 C70.963,14.71 70.414,13.47 69.023,13.47 C67.643,13.47 67.093,14.71 67.093,16.2 C67.093,17.61 67.643,18.93 69.023,18.93 C70.414,18.93 70.963,17.61 70.963,16.2 Z M69.023,11.77 C71.838,11.77 73.319,13.46 73.319,16.2 C73.319,18.92 71.815,20.62 69.023,20.62 C66.23,20.62 64.738,18.92 64.738,16.2 C64.738,13.46 66.208,11.77 69.023,11.77 L69.023,11.77 Z" id="Fill-124" fill="#797A76"></path>
            <path d="M69.023,13.47 C70.414,13.47 70.963,14.71 70.963,16.2 C70.963,17.61 70.414,18.93 69.023,18.93 C67.643,18.93 67.093,17.61 67.093,16.2 C67.093,14.71 67.643,13.47 69.023,13.47" id="Fill-125" fill="#FFFFFF"></path>
            <path d="M66.768,43.45 L65.759,40.11 L65.725,40.11 L64.625,43.45 L66.768,43.45 Z M67.149,38.35 L70.447,46.89 L67.946,46.89 L67.307,45.07 L64.099,45.07 L63.425,46.89 L61.115,46.89 L64.356,38.35 L67.149,38.35 L67.149,38.35 Z" id="Fill-126" fill="#797A76"></path>
            <polyline id="Fill-127" fill="#FFFFFF" points="65.759 40.11 66.768 43.45 64.625 43.45 65.725 40.11 65.759 40.11"></polyline>
            <polygon id="Fill-128" fill="#797A76" points="63.729 33.68 66.017 33.68 66.017 25.13 63.729 25.13"></polygon>
            <path d="M61.732,16.2 C61.732,14.71 61.182,13.47 59.802,13.47 C58.412,13.47 57.862,14.71 57.862,16.2 C57.862,17.61 58.412,18.93 59.802,18.93 C61.182,18.93 61.732,17.61 61.732,16.2 Z M59.802,11.77 C62.618,11.77 64.087,13.46 64.087,16.2 C64.087,18.92 62.596,20.62 59.802,20.62 C57.009,20.62 55.506,18.92 55.506,16.2 C55.506,13.46 56.976,11.77 59.802,11.77 L59.802,11.77 Z" id="Fill-129" fill="#797A76"></path>
            <polyline id="Fill-130" fill="#797A76" points="62.236 32.07 62.236 33.68 56.067 33.68 56.067 25.13 62.102 25.13 62.102 26.75 58.355 26.75 58.355 28.51 61.889 28.51 61.889 30.14 58.355 30.14 58.355 32.07 62.236 32.07"></polyline>
            <path d="M59.802,13.47 C61.182,13.47 61.732,14.71 61.732,16.2 C61.732,17.61 61.182,18.93 59.802,18.93 C58.412,18.93 57.862,17.61 57.862,16.2 C57.862,14.71 58.412,13.47 59.802,13.47" id="Fill-131" fill="#FFFFFF"></path>
            <polyline id="Fill-132" fill="#797A76" points="60.834 38.35 60.834 46.89 58.546 46.89 58.546 43.24 55.854 43.24 55.854 46.89 53.577 46.89 53.577 38.35 55.854 38.35 55.854 41.61 58.546 41.61 58.546 38.35 60.834 38.35"></polyline>
            <polyline id="Fill-133" fill="#797A76" points="54.609 22.99 54.609 33.68 51.064 33.68 47.329 26.38 47.295 26.38 47.385 33.68 44.772 33.68 44.772 22.99 48.406 22.99 52.018 30.26 52.052 30.26 52.007 22.99 54.609 22.99"></polyline>
            <path d="M54.609,14.23 L54.609,20.18 C52.792,20.62 51.446,20.66 50.47,20.66 C47.621,20.66 44.323,19.22 44.323,15.17 C44.323,11.15 47.161,9.6 51.076,9.6 C51.782,9.6 53.274,9.68 54.317,10.08 L54.082,12.4 C53.196,11.89 52.152,11.72 51.479,11.72 C49.169,11.72 47.262,12.68 47.262,15.17 C47.262,17.27 48.754,18.55 50.84,18.55 C51.222,18.55 51.592,18.48 51.85,18.36 L51.85,16.25 L50.178,16.25 L50.178,14.23 L54.609,14.23" id="Fill-134" fill="#797A76"></path>
            <path d="M49.92,39.66 C49.92,38.58 49.135,38.22 48.159,38.22 L47.419,38.22 L47.419,41.14 L48.159,41.14 C49.135,41.14 49.92,40.78 49.92,39.66 Z M52.77,39.72 C52.77,41.87 51.188,43.16 48.529,43.16 L47.419,43.16 L47.419,46.89 L44.57,46.89 L44.57,36.2 L47.969,36.2 C51.233,36.2 52.77,37.3 52.77,39.72 L52.77,39.72 Z" id="Fill-135" fill="#797A76"></path>
            <path d="M48.159,38.22 C49.135,38.22 49.92,38.58 49.92,39.66 C49.92,40.78 49.135,41.14 48.159,41.14 L47.419,41.14 L47.419,38.22 L48.159,38.22" id="Fill-136" fill="#FFFFFF"></path>
            <path d="M36.931,13.5 C36.931,12.12 35.81,11 34.418,11 C33.039,11 31.917,12.12 31.917,13.5 C31.917,14.16 32.175,14.76 32.579,15.21 L30.369,19.87 L31.939,19.87 L33.185,15.69 C33.555,15.89 33.97,16.01 34.418,16.01 C35.81,16.01 36.931,14.89 36.931,13.5 Z M39.287,21.39 L9.663,21.39 C9.427,21.39 10.762,24.2 12.366,29.79 C13.959,35.39 14.722,45.21 14.722,45.21 L34.811,45.21 C34.811,45.21 35.036,38.36 36.191,32.32 C37.268,26.65 39.287,21.39 39.287,21.39 Z M41.844,20.21 C41.99,20.46 41.855,20.85 41.732,21.14 C41.687,21.21 36.168,31.03 36.449,46.98 L13.05,46.89 C13.028,44.42 12.635,30.37 6.993,21.1 C6.948,20.99 6.802,20.57 6.959,20.28 C7.061,20.07 7.318,19.94 7.711,19.87 L28.821,19.87 L28.934,19.69 L31.166,16.08 L31.289,15.87 L31.154,15.67 C30.75,15.04 30.538,14.32 30.538,13.57 C30.538,12.53 30.953,11.55 31.682,10.81 C32.411,10.08 33.398,9.68 34.43,9.68 C35.473,9.68 36.449,10.08 37.189,10.81 C37.918,11.55 38.322,12.53 38.322,13.57 C38.322,15.71 36.583,17.46 34.43,17.46 L34.127,17.46 L34.06,17.76 L33.701,19.41 L33.611,19.87 L41.16,19.87 C41.283,19.87 41.687,19.96 41.844,20.21 L41.844,20.21 Z" id="Fill-137" fill="#797A76"></path>
            <path d="M28.63,35.69 L31.368,31.93 L30.694,31.41 L28.081,34.9 L27.711,34.43 C26.993,33.52 26.78,33.29 25.927,32.6 L25.288,32.08 L26.062,31.81 C28.406,31 29.349,30.11 29.349,28.37 C29.349,27.32 28.821,26.17 27.79,25.5 C26.903,24.92 25.938,24.82 23.65,24.82 L18.479,24.82 L18.479,25.53 C19.085,25.68 19.388,25.88 19.388,26.7 L19.332,37.1 C19.31,37.21 19.287,37.3 19.253,37.38 C19.186,37.53 19.085,37.63 18.961,37.71 C18.85,37.77 18.726,37.82 18.58,37.88 L18.311,37.97 L18.311,38.73 L22.686,38.73 L22.686,37.98 C21.822,37.84 21.71,37.38 21.71,36.47 L21.71,32.1 L22.169,32.1 C23.011,32.1 23.392,32.29 24.054,33.1 C25.063,34.3 25.602,35.3 26.286,36.84 L26.387,37.08 L22.865,41.87 L23.538,42.36 L26.915,37.94 L27.285,38.22 C27.386,38.31 27.43,38.36 27.498,38.4 C27.542,38.45 27.61,38.5 27.745,38.62 L27.89,38.72 L28.047,38.73 L31.053,38.73 L31.053,38.01 C30.055,37.8 29.606,37.31 28.788,35.95 L28.63,35.69 Z M9.663,21.39 L39.287,21.39 C39.287,21.39 37.268,26.65 36.191,32.32 C35.036,38.36 34.811,45.21 34.811,45.21 L14.722,45.21 C14.722,45.21 13.959,35.39 12.366,29.79 C10.762,24.2 9.427,21.39 9.663,21.39 L9.663,21.39 Z" id="Fill-138" fill="#FFFFFF"></path>
            <path d="M34.418,11 C35.81,11 36.931,12.12 36.931,13.5 C36.931,14.89 35.81,16.01 34.418,16.01 C33.97,16.01 33.555,15.89 33.185,15.69 L31.939,19.87 L30.369,19.87 L32.579,15.21 C32.175,14.76 31.917,14.16 31.917,13.5 C31.917,12.12 33.039,11 34.418,11" id="Fill-139" fill="#FFFFFF"></path>
            <path d="M23.269,31.17 C25.322,31.17 26.656,30.23 26.656,28.44 C26.656,26.13 24.806,25.73 22.181,25.73 L21.721,25.73 L21.721,31.11 L22.147,31.13 C22.584,31.17 23,31.17 23.269,31.17 Z M31.368,31.93 L28.63,35.69 L28.788,35.95 C29.606,37.31 30.055,37.8 31.053,38.01 L31.053,38.73 L28.047,38.73 L27.89,38.72 L27.745,38.62 C27.61,38.5 27.542,38.45 27.498,38.4 C27.43,38.36 27.386,38.31 27.285,38.22 L26.915,37.94 L23.538,42.36 L22.865,41.87 L26.387,37.08 L26.286,36.84 C25.602,35.3 25.063,34.3 24.054,33.1 C23.392,32.29 23.011,32.1 22.169,32.1 L21.71,32.1 L21.71,36.47 C21.71,37.38 21.822,37.84 22.686,37.98 L22.686,38.73 L18.311,38.73 L18.311,37.97 L18.58,37.88 C18.726,37.82 18.85,37.77 18.961,37.71 C19.085,37.63 19.186,37.53 19.253,37.38 C19.287,37.3 19.31,37.21 19.332,37.1 L19.388,26.7 C19.388,25.88 19.085,25.68 18.479,25.53 L18.479,24.82 L23.65,24.82 C25.938,24.82 26.903,24.92 27.79,25.5 C28.821,26.17 29.349,27.32 29.349,28.37 C29.349,30.11 28.406,31 26.062,31.81 L25.288,32.08 L25.927,32.6 C26.78,33.29 26.993,33.52 27.711,34.43 L28.081,34.9 L30.694,31.41 L31.368,31.93 L31.368,31.93 Z" id="Fill-140" fill="#797A76"></path>
            <path d="M26.656,28.44 C26.656,30.23 25.322,31.17 23.269,31.17 C23,31.17 22.584,31.17 22.147,31.13 L21.721,31.11 L21.721,25.73 L22.181,25.73 C24.806,25.73 26.656,26.13 26.656,28.44" id="Fill-141" fill="#FFFFFF"></path>
            <path d="M1.149,31.79 L1.149,33.45 C0.936,33.34 0.723,33.24 0.51,33.14 L0.51,31.48 C0.723,31.58 0.936,31.68 1.149,31.79" id="Fill-142" fill="#FFFFFF"></path>
            <path d="M1.149,22.51 L1.149,24.18 C0.936,24.08 0.723,23.97 0.51,23.85 L0.51,22.17 C0.723,22.3 0.936,22.4 1.149,22.51" id="Fill-143" fill="#FFFFFF"></path>
        </g>
    </g>
</svg>