<?xml version="1.0" encoding="UTF-8"?>
<svg width="70px" height="67px" viewBox="0 0 70 67" version="1.1" xmlns="http://www.w3.org/2000/svg" xmlns:xlink="http://www.w3.org/1999/xlink">
    <!-- Generator: Sketch 44.1 (41455) - http://www.bohemiancoding.com/sketch -->
    <title>ifpw</title>
    <desc>Created with Sketch.</desc>
    <defs></defs>
    <g id="Page-1" stroke="none" stroke-width="1" fill="none" fill-rule="evenodd">
        <g id="ifpw" fill="#797A76">
            <polyline id="Fill-90" points="3.07 0.96 1.038 2.98 0.949 36.93 11.759 36.93 11.759 0.96 3.07 0.96"></polyline>
            <polyline id="Fill-91" points="40.576 15.83 26.312 15.83 26.312 11.88 40.576 11.88 40.576 0.96 15.409 0.96 15.409 37.02 26.219 37.02 26.219 26.57 40.576 26.57 40.576 15.83"></polyline>
            <path d="M57.21,15.78 L54.688,15.78 L54.688,11.89 L57.21,11.89 C58.279,11.89 59.154,12.77 59.154,13.84 C59.154,14.91 58.279,15.78 57.21,15.78 Z M69.082,20.2 L69.089,20.16 L69.087,20.16 L69.087,8.35 L69.088,8.35 L69.088,3.86 L69.087,3.85 L69.087,3.64 L69.088,3.63 L69.088,3.58 L69.087,3.55 L69.087,3.53 L69.085,3.53 C68.997,2.12 67.824,1.05 66.398,1.05 L43.834,1.05 L44.101,36.76 L54.732,36.76 L54.732,26.57 L66.517,26.57 L66.525,26.56 C67.891,26.49 68.995,25.4 69.079,24.04 L69.082,24.04 L69.082,23.99 L69.088,23.87 L69.082,23.75 L69.082,20.2 L69.082,20.2 Z" id="Fill-92"></path>
            <path d="M58.011,29.93 L58.011,50.46 L58.016,50.55 L58.016,53.35 C58.016,54.25 57.284,54.98 56.391,54.98 L56.083,54.98 C55.189,54.98 54.458,54.25 54.458,53.35 L54.458,50.55 L54.467,50.38 L54.467,40.48 L43.834,40.48 L43.834,50.36 L43.842,50.5 L43.842,53.4 C43.842,54.27 43.131,54.98 42.262,54.98 L42.057,54.98 C41.188,54.98 40.477,54.27 40.477,53.4 L40.477,53.38 L40.469,53.38 L40.477,51.32 L40.477,50.5 L40.479,50.44 L40.556,30.02 L29.303,30.02 L29.386,60.71 L29.382,60.71 L29.382,63.91 L31.46,65.99 L46.906,65.99 L49.044,63.85 L51.018,65.82 L66.999,65.82 L68.909,63.9 L68.909,29.93 L58.011,29.93" id="Fill-93"></path>
            <path d="M22.189,52.79 C22.218,51.06 22.009,49.34 21.564,47.7 C22.219,47.28 22.846,46.81 23.44,46.3 C24.621,48.16 25.309,50.36 25.309,52.73 L25.307,52.79 L22.189,52.79 Z M21.494,57.63 C21.867,56.26 22.09,54.88 22.164,53.5 L25.281,53.5 C25.157,55.46 24.565,57.29 23.614,58.88 C22.93,58.41 22.222,57.99 21.494,57.63 Z M19.669,62.08 C19.881,62.2 20.088,62.33 20.293,62.47 C19.857,62.78 19.4,63.06 18.924,63.31 C19.188,62.9 19.437,62.49 19.669,62.08 Z M17.058,60.91 C17.737,61.12 18.403,61.4 19.047,61.73 C18.635,62.47 18.17,63.18 17.653,63.87 C16.742,64.22 15.778,64.45 14.776,64.55 C15.7,63.43 16.46,62.2 17.058,60.91 Z M13.559,64.62 L13.419,64.61 L13.419,60.33 C14.406,60.33 15.396,60.46 16.365,60.71 C15.707,62.11 14.849,63.42 13.79,64.61 L13.559,64.62 Z M4.784,59.14 C5.163,60.14 5.639,61.1 6.21,62 C5.382,61.33 4.647,60.55 4.025,59.68 C4.273,59.49 4.526,59.31 4.784,59.14 Z M3.687,53.5 C3.735,55.19 4.021,56.86 4.54,58.44 C4.229,58.65 3.926,58.86 3.628,59.08 C2.604,57.45 1.965,55.55 1.835,53.5 L3.687,53.5 Z M4.295,48.24 C3.9,49.74 3.696,51.27 3.681,52.79 L1.81,52.79 L1.808,52.73 C1.808,50.84 2.243,49.06 3.016,47.48 C3.434,47.75 3.86,48 4.295,48.24 Z M9.525,44.59 C8.679,44.32 7.853,43.96 7.064,43.51 C7.304,43.12 7.56,42.73 7.831,42.35 C9.057,41.66 10.418,41.18 11.865,40.97 C10.929,42.09 10.149,43.31 9.525,44.59 Z M19.543,43.09 C19.338,42.76 19.119,42.45 18.891,42.14 C19.258,42.33 19.614,42.54 19.958,42.76 C19.822,42.87 19.684,42.98 19.543,43.09 Z M18.127,48.62 C17.84,47.47 17.445,46.35 16.943,45.25 C17.785,44.96 18.581,44.58 19.323,44.1 C19.914,45.14 20.383,46.24 20.731,47.38 C19.904,47.87 19.033,48.29 18.127,48.62 Z M18.44,56.43 C18.604,55.46 18.691,54.49 18.703,53.5 L21.453,53.5 C21.382,54.78 21.179,56.05 20.842,57.31 C20.061,56.96 19.258,56.66 18.44,56.43 Z M18.305,57.13 C19.102,57.36 19.882,57.66 20.642,58.01 C20.316,59.06 19.897,60.1 19.383,61.1 C18.723,60.76 18.041,60.48 17.344,60.25 C17.76,59.24 18.08,58.2 18.305,57.13 Z M13.419,56.47 C14.842,56.45 16.25,56.61 17.618,56.95 C17.396,58.01 17.076,59.05 16.657,60.05 C15.594,59.76 14.506,59.62 13.419,59.62 L13.419,56.47 Z M8.25,57.4 C8.508,58.41 8.851,59.41 9.279,60.37 C8.411,60.7 7.593,61.14 6.839,61.67 C6.254,60.75 5.774,59.77 5.398,58.75 C6.301,58.2 7.255,57.75 8.25,57.4 Z M7.683,53.5 C7.726,54.57 7.86,55.64 8.086,56.7 C7.067,57.05 6.089,57.51 5.162,58.06 C4.699,56.6 4.443,55.06 4.396,53.5 L7.683,53.5 Z M7.911,49.69 C7.744,50.72 7.663,51.75 7.666,52.79 L4.391,52.79 C4.406,51.38 4.59,49.97 4.942,48.57 C5.902,49.04 6.896,49.41 7.911,49.69 Z M8.041,48.99 C7.045,48.71 6.073,48.33 5.135,47.87 C5.514,46.59 6.038,45.33 6.707,44.13 C7.514,44.59 8.357,44.96 9.224,45.24 C8.694,46.45 8.3,47.71 8.041,48.99 Z M12.706,45.87 L12.706,49.61 C11.36,49.62 10.027,49.47 8.73,49.17 C8.985,47.89 9.379,46.64 9.912,45.45 C10.83,45.69 11.768,45.83 12.706,45.87 Z M12.706,45.15 C11.872,45.12 11.04,45 10.222,44.79 C10.876,43.47 11.703,42.22 12.706,41.08 L12.706,45.15 Z M14.119,45.12 C13.886,45.14 13.652,45.16 13.419,45.16 L13.419,41.09 C14.423,42.24 15.263,43.5 15.937,44.81 C15.348,44.96 14.741,45.07 14.119,45.12 Z M13.965,49.55 C13.783,49.56 13.601,49.58 13.419,49.59 L13.419,45.87 C13.674,45.87 13.928,45.86 14.181,45.83 C14.893,45.77 15.586,45.64 16.256,45.46 C16.768,46.56 17.166,47.7 17.451,48.85 C16.333,49.21 15.166,49.44 13.965,49.55 Z M13.419,52.79 L13.419,50.3 C13.622,50.29 13.824,50.28 14.027,50.26 C15.26,50.15 16.459,49.91 17.61,49.55 C17.832,50.62 17.957,51.71 17.986,52.79 L13.419,52.79 Z M13.419,53.5 L17.992,53.5 C17.981,54.42 17.901,55.34 17.751,56.25 C16.339,55.9 14.887,55.74 13.419,55.76 L13.419,53.5 Z M12.706,53.5 L12.706,55.79 C12.53,55.79 12.354,55.81 12.179,55.82 C11.006,55.92 9.864,56.15 8.766,56.48 C8.56,55.5 8.436,54.5 8.394,53.5 L12.706,53.5 Z M8.603,49.87 C9.883,50.17 11.195,50.32 12.522,50.32 L12.706,50.32 L12.706,52.79 L8.377,52.79 C8.374,51.81 8.449,50.84 8.603,49.87 Z M12.706,60.35 L12.706,64.46 C11.725,63.33 10.91,62.09 10.263,60.79 C10.966,60.58 11.699,60.43 12.453,60.37 L12.706,60.35 Z M12.392,59.66 C11.551,59.73 10.736,59.9 9.954,60.14 C9.523,59.18 9.182,58.18 8.927,57.17 C9.993,56.85 11.102,56.63 12.24,56.53 C12.396,56.52 12.551,56.51 12.706,56.5 L12.706,59.64 C12.602,59.65 12.496,59.65 12.392,59.66 Z M21.479,52.79 L18.697,52.79 C18.667,51.63 18.53,50.47 18.288,49.32 C19.205,48.99 20.089,48.58 20.931,48.09 C21.322,49.61 21.507,51.19 21.479,52.79 Z M23.037,45.71 C22.503,46.17 21.94,46.6 21.354,46.99 C20.991,45.84 20.511,44.74 19.913,43.7 C20.136,43.54 20.351,43.36 20.561,43.18 C21.506,43.89 22.341,44.75 23.037,45.71 Z M17.475,41.52 C18.024,42.14 18.519,42.8 18.956,43.49 C18.233,43.96 17.454,44.33 16.631,44.6 C15.966,43.29 15.141,42.03 14.157,40.86 C15.315,40.92 16.429,41.15 17.475,41.52 Z M5.956,43.67 L6.098,43.76 C5.42,44.97 4.886,46.24 4.493,47.53 C4.105,47.32 3.724,47.09 3.349,46.85 C4.03,45.64 4.915,44.56 5.956,43.67 Z M7.931,63.17 C7.687,62.87 7.455,62.57 7.235,62.26 C7.96,61.75 8.747,61.33 9.583,61.02 C10.181,62.24 10.919,63.4 11.798,64.48 C10.415,64.27 9.111,63.82 7.931,63.17 Z M20.894,62.01 C20.604,61.81 20.308,61.62 20.006,61.45 C20.527,60.43 20.955,59.39 21.289,58.32 C21.954,58.66 22.602,59.05 23.228,59.48 C22.575,60.44 21.787,61.29 20.894,62.01 Z M16.768,39.8 L16.75,39.78 L16.735,39.8 L0.789,39.8 L0.789,61.8 L0.679,61.93 L0.789,62.02 L0.789,66.07 L26.17,66.07 L26.17,39.8 L16.768,39.8 L16.768,39.8 Z" id="Fill-94"></path>
        </g>
    </g>
</svg>