<?xml version="1.0" encoding="UTF-8"?>
<svg width="271px" height="59px" viewBox="0 0 271 59" version="1.1" xmlns="http://www.w3.org/2000/svg" xmlns:xlink="http://www.w3.org/1999/xlink">
    <!-- Generator: Sketch 44.1 (41455) - http://www.bohemiancoding.com/sketch -->
    <title>realpage</title>
    <desc>Created with Sketch.</desc>
    <defs></defs>
    <g id="Page-1" stroke="none" stroke-width="1" fill="none" fill-rule="evenodd">
        <g id="realpage" fill="#797A76">
            <polyline id="Fill-77" points="47.56 58.89 48 58.89 48 0.14 47.11 0.14 47.11 58.89 47.56 58.89"></polyline>
            <path d="M22.15,18.11 C22.15,20.72 20.04,22.83 17.43,22.83 C14.82,22.83 12.71,20.72 12.71,18.11 C12.71,15.51 14.82,13.39 17.43,13.39 C20.04,13.39 22.15,15.51 22.15,18.11" id="Fill-78"></path>
            <path d="M10.37,38.26 C10.37,40.87 8.26,42.98 5.66,42.98 C3.05,42.98 0.94,40.87 0.94,38.26 C0.94,35.66 3.05,33.55 5.66,33.55 C8.26,33.55 10.37,35.66 10.37,38.26" id="Fill-79"></path>
            <path d="M34.75,38.26 C34.75,40.87 32.64,42.98 30.03,42.98 C27.43,42.98 25.32,40.87 25.32,38.26 C25.32,35.66 27.43,33.55 30.03,33.55 C32.64,33.55 34.75,35.66 34.75,38.26" id="Fill-80"></path>
            <path d="M268.69,21.27 C268.62,21.24 268.51,21.22 268.34,21.22 L268,21.22 L268,21.92 L268.34,21.92 C268.66,21.92 268.82,21.8 268.82,21.54 C268.82,21.42 268.77,21.31 268.69,21.27 Z M268.87,23.05 L268.22,22.18 L268,22.18 L268,23.05 L267.63,23.05 L267.63,20.94 L268.39,20.94 C268.94,20.94 269.18,21.12 269.18,21.53 C269.18,21.88 268.97,22.11 268.62,22.15 L269.32,23.05 L268.87,23.05 Z M268.4,20.44 C267.54,20.44 266.85,21.14 266.85,21.99 C266.85,22.85 267.54,23.54 268.4,23.54 C269.25,23.54 269.95,22.85 269.95,21.99 C269.95,21.14 269.25,20.44 268.4,20.44 Z M268.4,23.83 C267.38,23.83 266.56,23 266.56,21.99 C266.56,20.98 267.38,20.16 268.4,20.16 C269.41,20.16 270.23,20.98 270.23,21.99 C270.23,23 269.41,23.83 268.4,23.83 L268.4,23.83 Z" id="Fill-81"></path>
            <path d="M64.49,23.41 L62.55,23.41 L62.55,27.73 L64.49,27.73 C66.39,27.73 67.22,27.06 67.22,25.49 C67.22,24 66.44,23.41 64.49,23.41 Z M67.63,36.53 L64.04,30.26 L62.55,30.26 L62.55,36.53 L59.56,36.53 L59.56,20.87 L64.78,20.87 C67.06,20.87 68.1,21.15 69.03,22.03 C69.88,22.81 70.31,23.95 70.31,25.42 C70.31,26.63 70.02,27.61 69.45,28.37 C68.86,29.13 68.32,29.46 67.01,29.81 L70.9,36.53 L67.63,36.53 L67.63,36.53 Z" id="Fill-82"></path>
            <polyline id="Fill-83" points="87.66 36.53 87.66 20.87 97.2 20.87 97.2 23.41 90.65 23.41 90.65 27.27 96.02 27.27 96.02 29.81 90.65 29.81 90.65 33.99 97.51 33.99 97.51 36.53 87.66 36.53"></polyline>
            <path d="M119.16,24.45 L117.36,30.12 L120.99,30.12 L119.16,24.45 Z M123.03,36.53 L121.79,32.66 L116.55,32.66 L115.27,36.53 L112.13,36.53 L117.81,20.87 L120.49,20.87 L126.16,36.53 L123.03,36.53 L123.03,36.53 Z" id="Fill-84"></path>
            <polyline id="Fill-85" points="142.59 36.53 142.59 20.87 145.58 20.87 145.58 33.99 151.99 33.99 151.99 36.53 142.59 36.53"></polyline>
            <path d="M173.18,23.41 L171.1,23.41 L171.1,28.63 L171.48,28.65 L171.85,28.65 C172.19,28.65 172.4,28.68 172.52,28.68 C174.84,28.68 175.87,27.82 175.87,25.9 C175.87,24.19 175.04,23.41 173.18,23.41 Z M177.17,29.89 C176.06,30.83 174.68,31.24 172.54,31.24 C171.95,31.24 171.62,31.21 171.1,31.17 L171.1,36.53 L168.11,36.53 L168.11,20.87 L173.47,20.87 C175.51,20.87 176.65,21.22 177.62,22.15 C178.5,23.03 178.95,24.21 178.95,25.66 C178.95,27.39 178.33,28.89 177.17,29.89 L177.17,29.89 Z" id="Fill-86"></path>
            <path d="M200.48,24.45 L198.68,30.12 L202.31,30.12 L200.48,24.45 Z M204.35,36.53 L203.12,32.66 L197.87,32.66 L196.59,36.53 L193.46,36.53 L199.13,20.87 L201.81,20.87 L207.48,36.53 L204.35,36.53 L204.35,36.53 Z" id="Fill-87"></path>
            <path d="M234.78,36.32 C233.12,36.7 232.15,36.84 230.84,36.84 C225.64,36.84 222.04,33.52 222.04,28.68 C222.04,26.3 222.94,24.24 224.62,22.69 C226.24,21.22 228.04,20.61 230.75,20.61 C231.88,20.61 233.02,20.72 234.02,20.96 C234.78,21.15 235.25,21.32 236.35,21.79 L235.63,24.28 C235.06,24.07 234.64,23.93 234.35,23.83 C233.24,23.45 232.12,23.26 231.13,23.26 C227.61,23.26 225.17,25.42 225.17,28.53 C225.17,31.74 227.85,34.18 231.34,34.18 C232.05,34.18 232.45,34.11 233.38,33.85 L233.38,29.53 L236.37,29.53 L236.37,35.94 C235.66,36.1 235.14,36.22 234.78,36.32" id="Fill-88"></path>
            <polyline id="Fill-89" points="254.48 36.53 254.48 20.87 264.02 20.87 264.02 23.41 257.47 23.41 257.47 27.27 262.84 27.27 262.84 29.81 257.47 29.81 257.47 33.99 264.33 33.99 264.33 36.53 254.48 36.53"></polyline>
        </g>
    </g>
</svg>