<?xml version="1.0" encoding="UTF-8"?>
<svg width="216px" height="58px" viewBox="0 0 216 58" version="1.1" xmlns="http://www.w3.org/2000/svg" xmlns:xlink="http://www.w3.org/1999/xlink">
    <!-- Generator: Sketch 52.6 (67491) - http://www.bohemiancoding.com/sketch -->
    <title>amerisource</title>
    <desc>Created with Sketch.</desc>
    <g id="Page-1" stroke="none" stroke-width="1" fill="none" fill-rule="evenodd">
        <g id="19_INV_001_InnoventWebsite_r5-10" transform="translate(-1574.000000, -1774.000000)" fill="#6A6A67">
            <g id="amerisource" transform="translate(1574.000000, 1774.000000)">
                <path d="M8.74,35.2 L8.689,35.2 L5.77,43.17 L11.5,43.17 L8.74,35.2 Z M7.39,32.04 L10.09,32.04 L17.06,51.27 L14.33,51.27 L12.28,45.39 L4.979,45.39 L2.77,51.27 L0.04,51.27 L7.39,32.04 Z" id="Fill-131"></path>
                <path d="M18.22,38.36 L20.279,38.36 L20.279,39.99 L20.33,39.99 C21.14,38.93 22.439,38.04 23.95,38.04 C25.36,38.04 27,38.61 27.709,40.28 C28.62,39.01 30.24,38.04 31.62,38.04 C33.73,38.04 35.84,38.96 35.84,42.74 L35.84,51.27 L33.62,51.27 L33.62,42.63 C33.62,41.04 32.92,40.09 31.35,40.09 C29.97,40.09 28.14,40.85 28.14,42.79 L28.14,51.27 L25.92,51.27 L25.92,42.63 C25.92,41.04 25.22,40.09 23.65,40.09 C22.27,40.09 20.44,40.85 20.44,42.79 L20.44,51.27 L18.22,51.27 L18.22,38.36" id="Fill-132"></path>
                <path d="M46.939,43.58 C46.669,41.47 45.479,39.77 43.05,39.77 C40.89,39.77 39.65,41.6 39.509,43.58 L46.939,43.58 Z M39.509,45.3 C39.509,47.87 40.859,49.87 43.4,49.87 C45.35,49.87 46.529,48.9 47.02,46.98 L49.21,47.25 C48.37,50.14 46.18,51.6 43.319,51.6 C39.38,51.68 37.13,48.6 37.13,44.93 C37.13,40.74 39.11,38.04 43.29,38.04 C47.339,38.04 49.319,40.98 49.319,44.79 L49.319,45.3 L39.509,45.3 Z" id="Fill-133"></path>
                <path d="M50.609,38.36 L52.83,38.36 L52.83,40.58 L52.88,40.58 C53.939,38.82 55.21,38.2 57.45,38.2 L57.45,40.63 C57.01,40.61 56.339,40.58 55.96,40.58 C53.83,40.58 52.83,42.55 52.83,44.04 L52.83,51.27 L50.609,51.27 L50.609,38.36" id="Fill-134"></path>
                <polygon id="Fill-135" points="58.97 51.27 61.18 51.27 61.18 38.36 58.97 38.36"></polygon>
                <path d="M65.26,46.74 C65.26,49.14 67.16,49.87 68.939,49.87 C69.97,49.87 71.83,49.55 71.83,47.66 C71.83,44.44 63.4,46.85 63.4,41.79 C63.4,39.17 65.97,38.04 68.26,38.04 C70.02,38.04 73.8,38.93 73.8,42.25 L71.59,42.55 C71.59,40.66 70.05,39.77 68.37,39.77 C67.18,39.77 65.62,40.12 65.62,41.68 C65.62,44.6 74.209,42.52 74.209,47.63 C74.209,50.36 71.419,51.6 68.609,51.6 C65.78,51.6 63.18,50.3 62.89,47.03 L65.26,46.74" id="Fill-136"></path>
                <path d="M81.5,49.87 C84.689,49.87 85.439,46.96 85.439,44.82 C85.439,42.68 84.689,39.77 81.5,39.77 C78.31,39.77 77.56,42.68 77.56,44.82 C77.56,46.96 78.31,49.87 81.5,49.87 Z M81.5,38.04 C85.439,38.04 87.82,40.9 87.82,44.82 C87.82,48.74 85.439,51.6 81.5,51.6 C77.56,51.6 75.18,48.74 75.18,44.82 C75.18,40.9 77.56,38.04 81.5,38.04 Z" id="Fill-137"></path>
                <path d="M99.73,51.27 L97.52,51.27 L97.52,49.55 L97.47,49.55 C96.629,50.85 95.36,51.6 93.68,51.6 C91.09,51.6 89.12,50.47 89.12,46.87 L89.12,38.36 L91.33,38.36 L91.33,46.87 C91.33,48.71 92.47,49.55 94.06,49.55 C96.12,49.55 97.52,48.22 97.52,46.14 L97.52,38.36 L99.73,38.36 L99.73,51.27" id="Fill-138"></path>
                <path d="M101.819,38.36 L104.03,38.36 L104.03,40.58 L104.08,40.58 C105.14,38.82 106.41,38.2 108.65,38.2 L108.65,40.63 C108.22,40.61 107.54,40.58 107.16,40.58 C105.029,40.58 104.03,42.55 104.03,44.04 L104.03,51.27 L101.819,51.27 L101.819,38.36" id="Fill-139"></path>
                <path d="M118.54,42.63 C118.21,40.88 116.89,39.77 115.109,39.77 C111.97,39.77 111.08,42.5 111.08,44.85 C111.08,47.36 112.13,49.87 115.05,49.87 C117.24,49.87 118.669,48.58 118.75,46.39 L121.13,46.58 C120.75,49.71 118.37,51.6 115.13,51.6 C110.97,51.6 108.7,48.9 108.7,44.95 C108.7,40.96 110.939,38.04 115.109,38.04 C117.81,38.04 120.29,39.44 120.91,42.39 L118.54,42.63" id="Fill-140"></path>
                <path d="M131.75,43.58 C131.47,41.47 130.29,39.77 127.859,39.77 C125.7,39.77 124.45,41.6 124.319,43.58 L131.75,43.58 Z M124.319,45.3 C124.319,47.87 125.669,49.87 128.209,49.87 C130.15,49.87 131.339,48.9 131.83,46.98 L134.02,47.25 C133.18,50.14 130.99,51.6 128.129,51.6 C124.18,51.68 121.939,48.6 121.939,44.93 C121.939,40.74 123.91,38.04 128.1,38.04 C132.149,38.04 134.12,40.98 134.12,44.79 L134.12,45.3 L124.319,45.3 Z" id="Fill-141"></path>
                <path d="M138.17,49.06 L145.01,49.06 C147.07,49.03 148.55,48.09 148.55,45.93 C148.55,42.58 146.279,42.42 144.089,42.42 L138.17,42.42 L138.17,49.06 Z M138.17,40.2 L144.04,40.2 C146.12,40.2 147.979,39.69 147.979,37.15 C147.979,34.26 145.93,34.26 144.01,34.26 L138.17,34.26 L138.17,40.2 Z M135.64,32.04 L144.629,32.04 C149.3,32.04 150.74,34.74 150.74,37.04 C150.74,39.01 149.52,40.61 147.93,41.09 L147.93,41.15 C150.28,41.71 151.31,43.66 151.31,46.04 C151.31,47.49 150.6,51.27 145.47,51.27 L135.64,51.27 L135.64,32.04 Z" id="Fill-142"></path>
                <path d="M162.16,43.58 C161.89,41.47 160.709,39.77 158.27,39.77 C156.11,39.77 154.87,41.6 154.729,43.58 L162.16,43.58 Z M154.729,45.3 C154.729,47.87 156.089,49.87 158.63,49.87 C160.57,49.87 161.76,48.9 162.25,46.98 L164.43,47.25 C163.6,50.14 161.41,51.6 158.55,51.6 C154.6,51.68 152.36,48.6 152.36,44.93 C152.36,40.74 154.33,38.04 158.52,38.04 C162.569,38.04 164.54,40.98 164.54,44.79 L164.54,45.3 L154.729,45.3 Z" id="Fill-143"></path>
                <path d="M165.839,38.36 L168.05,38.36 L168.05,40.58 L168.11,40.58 C169.16,38.82 170.43,38.2 172.67,38.2 L172.67,40.63 C172.24,40.61 171.569,40.58 171.19,40.58 C169.05,40.58 168.05,42.55 168.05,44.04 L168.05,51.27 L165.839,51.27 L165.839,38.36" id="Fill-144"></path>
                <path d="M174.94,44.82 C174.94,47.52 176.35,49.71 178.91,49.71 C181.48,49.71 183.13,47.36 183.07,44.74 C182.99,41.17 181.35,39.93 178.91,39.93 C176.65,39.93 174.94,41.5 174.94,44.82 Z M183.07,38.36 L185.29,38.36 L185.29,51.39 C185.29,53.33 184.91,57.33 179.339,57.33 C176.209,57.33 173.54,56.01 173.35,52.6 L175.72,52.6 C175.67,54.68 177.35,55.6 179.27,55.6 C183.02,55.6 183.07,52.95 183.07,51.11 L183.07,49.28 L183.02,49.28 C181.8,50.85 180.51,51.6 178.62,51.6 C176.37,51.6 172.729,50.3 172.729,44.82 C172.729,41.06 174.59,38.04 178.64,38.04 C180.72,38.04 182.26,38.88 183.02,40.12 L183.07,40.15 L183.07,38.36 Z" id="Fill-145"></path>
                <path d="M196.229,43.58 C195.959,41.47 194.77,39.77 192.34,39.77 C190.18,39.77 188.939,41.6 188.8,43.58 L196.229,43.58 Z M188.8,45.3 C188.8,47.87 190.15,49.87 192.689,49.87 C194.64,49.87 195.83,48.9 196.31,46.98 L198.5,47.25 C197.66,50.14 195.47,51.6 192.61,51.6 C188.669,51.68 186.419,48.6 186.419,44.93 C186.419,40.74 188.39,38.04 192.58,38.04 C196.63,38.04 198.61,40.98 198.61,44.79 L198.61,45.3 L188.8,45.3 Z" id="Fill-146"></path>
                <path d="M199.9,38.36 L202.12,38.36 L202.12,40.09 L202.169,40.09 C203.01,38.8 204.28,38.04 205.96,38.04 C208.55,38.04 210.52,39.17 210.52,42.77 L210.52,51.27 L208.31,51.27 L208.31,42.98 C208.31,40.76 207.14,40.09 205.58,40.09 C203.52,40.09 202.12,41.42 202.12,43.5 L202.12,51.27 L199.9,51.27 L199.9,38.36" id="Fill-147"></path>
                <path d="M48.439,1.86 C44.66,3.44 42.59,6.3 42.59,6.3 C43.16,6.21 43.709,5.69 44.3,5.47 C50.3,3.15 54.839,3.96 60.26,8.45 C64.69,12.51 66.33,18.62 64.85,24.58 C64.12,27.14 62.879,29.57 61.08,31.62 C66.97,28.27 70.25,22.08 69.61,15.29 C69.04,10.2 65.38,5 60.77,2.81 C59.1,1.94 54.73,-0.47 48.439,1.86" id="Fill-148"></path>
                <path d="M61.06,31.93 C66.209,30.44 71.11,25.55 72.39,20.35 C73.91,14.48 72.38,8.42 67.8,4.4 L75.05,4.4 L75.05,31.93 L61.06,31.93" id="Fill-149"></path>
                <path d="M47.44,31.93 L59.89,31.93 C57.91,28.09 54.509,25.19 50.52,23.82 C50.04,27.27 48.91,30.19 47.44,31.93" id="Fill-150"></path>
                <path d="M50.85,16.45 C50.729,16.4 50.609,16.35 50.49,16.3 C50.689,17.5 50.8,18.78 50.8,20.13 C50.8,20.46 50.79,20.78 50.78,21.1 C54.83,22.94 58.25,26.48 59.67,30.59 L60.13,31.99 C60.32,25.49 56.79,19.21 50.85,16.45" id="Fill-151"></path>
                <path d="M54.4,8.63 C51.72,7.34 48.61,6.68 45.33,7.17 C46.77,7.74 48.27,9.55 49.34,12.21 C53.98,13.65 58.03,17.38 59.67,21.89 C60.959,24.96 61.07,28.58 60.38,31.99 C61.9,29.88 62.689,27.41 63.029,24.79 C63.779,18 60.41,11.65 54.4,8.63" id="Fill-152"></path>
                <path d="M213.43,40.04 L213.83,40.04 C214.139,40.04 214.37,39.99 214.37,39.68 C214.37,39.44 214.15,39.34 213.86,39.34 L213.43,39.34 L213.43,40.04 Z M213.1,39.04 L213.94,39.04 C214.45,39.04 214.7,39.26 214.7,39.68 C214.7,40.11 214.43,40.29 214.139,40.33 L214.78,41.33 L214.4,41.33 L213.77,40.34 L213.43,40.34 L213.43,41.33 L213.1,41.33 L213.1,39.04 Z M213.81,41.83 C214.68,41.83 215.42,41.08 215.42,40.19 C215.42,39.29 214.68,38.54 213.81,38.54 C212.93,38.54 212.189,39.29 212.189,40.19 C212.189,41.08 212.93,41.83 213.81,41.83 Z M213.81,38.24 C214.88,38.24 215.75,39.11 215.75,40.19 C215.75,41.26 214.88,42.13 213.81,42.13 C212.729,42.13 211.86,41.26 211.86,40.19 C211.86,39.11 212.729,38.24 213.81,38.24 Z" id="Fill-153"></path>
            </g>
        </g>
    </g>
</svg>