<?xml version="1.0" encoding="UTF-8"?>
<svg width="155px" height="47px" viewBox="0 0 155 47" version="1.1" xmlns="http://www.w3.org/2000/svg" xmlns:xlink="http://www.w3.org/1999/xlink">
    <!-- Generator: Sketch 52.6 (67491) - http://www.bohemiancoding.com/sketch -->
    <title>avia</title>
    <desc>Created with Sketch.</desc>
    <g id="Page-1" stroke="none" stroke-width="1" fill="none" fill-rule="evenodd">
        <g id="19_INV_001_InnoventWebsite_r5-10" transform="translate(-1886.000000, -1786.000000)" fill="#6A6A67">
            <g id="avia" transform="translate(1886.000000, 1786.000000)">
                <polygon id="Fill-177" points="94.9 46.6 103.98 46.6 103.98 0.27 94.9 0.27"></polygon>
                <path d="M90.98,0.06 L66.83,46.5 L42.79,0.06 L53.11,0.06 C54.07,1.92 66.01,24.93 66.83,26.58 C67.86,24.59 79.94,1.16 80.55,0.06 L90.98,0.06" id="Fill-178"></path>
                <path d="M37.94,23.38 C37.94,21.45 37.58,19.65 36.86,17.96 C36.13,16.28 35.14,14.8 33.86,13.53 C32.59,12.25 31.11,11.26 29.43,10.54 C27.74,9.82 25.94,9.45 24.01,9.45 C22.08,9.45 20.26,9.82 18.54,10.54 C16.82,11.26 15.32,12.25 14.05,13.53 C12.78,14.8 11.78,16.28 11.06,17.96 C10.34,19.65 9.98,21.45 9.98,23.38 C9.98,25.31 10.34,27.13 11.06,28.85 C11.78,30.57 12.78,32.07 14.05,33.34 C15.32,34.61 16.82,35.61 18.54,36.33 C20.26,37.06 22.08,37.42 24.01,37.42 L33.31,37.42 L33.31,46.6 L24.01,46.6 C20.84,46.6 17.85,46 15.03,44.79 C12.209,43.59 9.73,41.92 7.6,39.79 C5.47,37.66 3.8,35.18 2.6,32.36 C1.39,29.54 0.79,26.55 0.79,23.38 C0.79,20.15 1.39,17.14 2.6,14.35 C3.8,11.57 5.47,9.12 7.6,7.03 C9.73,4.93 12.209,3.28 15.03,2.07 C17.85,0.87 20.84,0.27 24.01,0.27 C27.24,0.27 30.25,0.87 33.04,2.07 C35.82,3.28 38.27,4.93 40.36,7.03 C42.46,9.12 44.11,11.57 45.32,14.35 C46.52,17.14 47.12,20.15 47.12,23.38 L47.12,46.6 L37.94,46.6 L37.94,23.38" id="Fill-179"></path>
                <path d="M145.39,23.38 C145.39,21.45 145.03,19.65 144.3,17.96 C143.58,16.28 142.58,14.8 141.31,13.53 C140.04,12.25 138.56,11.26 136.87,10.54 C135.19,9.82 133.39,9.45 131.46,9.45 C129.53,9.45 127.71,9.82 125.99,10.54 C124.27,11.26 122.77,12.25 121.5,13.53 C120.23,14.8 119.23,16.28 118.51,17.96 C117.79,19.65 117.42,21.45 117.42,23.38 C117.42,25.31 117.79,27.13 118.51,28.85 C119.23,30.57 120.23,32.07 121.5,33.34 C122.77,34.61 124.27,35.61 125.99,36.33 C127.71,37.06 129.53,37.42 131.46,37.42 L140.76,37.42 L140.76,46.6 L131.46,46.6 C128.29,46.6 125.3,46 122.48,44.79 C119.66,43.59 117.18,41.92 115.05,39.79 C112.92,37.66 111.25,35.18 110.05,32.36 C108.84,29.54 108.24,26.55 108.24,23.38 C108.24,20.15 108.84,17.14 110.05,14.35 C111.25,11.57 112.92,9.12 115.05,7.03 C117.18,4.93 119.66,3.28 122.48,2.07 C125.3,0.87 128.29,0.27 131.46,0.27 C134.69,0.27 137.7,0.87 140.49,2.07 C143.27,3.28 145.72,4.93 147.81,7.03 C149.91,9.12 151.56,11.57 152.77,14.35 C153.97,17.14 154.57,20.15 154.57,23.38 L154.57,46.6 L145.39,46.6 L145.39,23.38" id="Fill-180"></path>
            </g>
        </g>
    </g>
</svg>