<?xml version="1.0" encoding="UTF-8"?>
<svg width="211px" height="52px" viewBox="0 0 211 52" version="1.1" xmlns="http://www.w3.org/2000/svg" xmlns:xlink="http://www.w3.org/1999/xlink">
    <!-- Generator: Sketch 52.6 (67491) - http://www.bohemiancoding.com/sketch -->
    <title>compliant</title>
    <desc>Created with Sketch.</desc>
    <g id="Page-1" stroke="none" stroke-width="1" fill="none" fill-rule="evenodd">
        <g id="19_INV_001_InnoventWebsite_r5-10" transform="translate(-1655.000000, -1923.000000)" fill="#6A6A67">
            <g id="compliant" transform="translate(1655.000000, 1923.000000)">
                <path d="M15.3,7.65 C15.1,5.42 14.14,4.41 12.08,4.41 C9.11,4.41 8.11,6.97 8.11,9.99 C8.11,13 9.11,15.57 12.08,15.57 C14.39,15.57 15.52,14.48 15.6,12.15 L23.39,12.15 C23.339,13.78 23.16,15.37 21.75,16.73 C19.72,18.68 16.15,19.54 12.25,19.54 C3.16,19.54 0.169,15.79 0.169,9.99 C0.169,5.7 2.1,0.44 12.25,0.44 C16.8,0.44 19.97,1.29 21.55,2.8 C22.68,3.88 23.06,4.99 23.09,7.65 L15.3,7.65" id="Fill-205"></path>
                <path d="M36.73,4.56 C34.22,4.56 32.38,6.27 32.38,9.99 C32.38,13.71 34.22,15.42 36.73,15.42 C39.24,15.42 41.08,13.71 41.08,9.99 C41.08,6.27 39.24,4.56 36.73,4.56 Z M46.51,16.4 C44.54,18.28 41.41,19.54 36.73,19.54 C27.86,19.54 24.59,15.42 24.59,9.99 C24.59,6.47 26,3.93 28.09,2.45 C29.819,1.22 32.06,0.44 36.73,0.44 C45.6,0.44 48.87,4.56 48.87,9.99 C48.87,12.78 48.02,14.96 46.51,16.4 Z" id="Fill-206"></path>
                <polyline id="Fill-207" points="51.08 0.92 62.669 0.92 66.46 13.08 66.51 13.08 70.18 0.92 81.82 0.92 81.82 19.06 74.729 19.06 74.729 5.42 74.68 5.42 69.7 19.06 62.31 19.06 57.64 5.42 57.569 5.42 57.569 19.06 51.08 19.06 51.08 0.92"></polyline>
                <path d="M92.189,9.41 L93.75,9.41 C96.47,9.41 97.45,8.81 97.45,7.02 C97.45,5.51 96.7,4.74 94.51,4.74 L92.189,4.74 L92.189,9.41 Z M84.55,0.92 L97.5,0.92 C101.87,0.92 104.93,2.5 104.93,7.22 C104.93,11.65 102,13.23 98.17,13.23 L92.189,13.23 L92.189,19.06 L84.55,19.06 L84.55,0.92 Z" id="Fill-208"></path>
                <polyline id="Fill-209" points="107.15 0.92 114.79 0.92 114.79 14.64 123.149 14.64 123.149 19.06 107.15 19.06 107.15 0.92"></polyline>
                <polygon id="Fill-210" points="125.64 19.06 133.28 19.06 133.28 0.92 125.64 0.92"></polygon>
                <path d="M151.49,12.08 L148.68,5.74 L145.74,12.08 L151.49,12.08 Z M144.26,0.92 L153.78,0.92 L163.03,19.06 L154.61,19.06 L153.29,16.04 L143.909,16.04 L142.5,19.06 L135.01,19.06 L144.26,0.92 Z" id="Fill-211"></path>
                <polyline id="Fill-212" points="164.14 0.92 175.32 0.92 181.43 13.08 181.51 13.08 181.51 0.92 188.13 0.92 188.13 19.06 177.31 19.06 170.82 6.14 170.77 6.14 170.77 19.06 164.14 19.06 164.14 0.92"></polyline>
                <polyline id="Fill-213" points="196.53 5.34 190.58 5.34 190.58 0.92 210.12 0.92 210.12 5.34 204.17 5.34 204.17 19.06 196.53 19.06 196.53 5.34"></polyline>
                <path d="M7.439,28.67 L8.29,28.67 C9.77,28.67 10.31,28.34 10.31,27.36 C10.31,26.55 9.899,26.12 8.7,26.12 L7.439,26.12 L7.439,28.67 Z M3.28,24.04 L10.34,24.04 C12.72,24.04 14.399,24.9 14.399,27.48 C14.399,29.89 12.79,30.75 10.709,30.75 L7.439,30.75 L7.439,33.93 L3.28,33.93 L3.28,24.04 Z" id="Fill-214"></path>
                <polyline id="Fill-215" points="15.47 24.04 19.63 24.04 19.63 27.69 23.759 27.69 23.759 24.04 27.919 24.04 27.919 33.93 23.759 33.93 23.759 30.11 19.63 30.11 19.63 33.93 15.47 33.93 15.47 24.04"></polyline>
                <path d="M37.61,30.12 L36.07,26.67 L34.47,30.12 L37.61,30.12 Z M33.66,24.04 L38.85,24.04 L43.89,33.93 L39.3,33.93 L38.58,32.29 L33.47,32.29 L32.7,33.93 L28.61,33.93 L33.66,24.04 Z" id="Fill-216"></path>
                <path d="M48.75,28.42 L50.339,28.42 C51.229,28.42 51.92,28.15 51.92,27.21 C51.92,26.34 51.29,26.04 50.27,26.04 L48.75,26.04 L48.75,28.42 Z M44.59,24.04 L51.629,24.04 C54.33,24.04 56,24.57 56,26.76 C56,28.07 55.1,28.89 53.86,29.11 L53.86,29.24 C54.82,29.27 55.62,29.61 55.78,30.62 L56.31,33.93 L52.15,33.93 L51.81,31.72 C51.62,30.5 51.439,30.34 50.01,30.34 L48.75,30.34 L48.75,33.93 L44.59,33.93 L44.59,24.04 Z" id="Fill-217"></path>
                <polyline id="Fill-218" points="57.32 24.04 63.64 24.04 65.71 30.67 65.74 30.67 67.74 24.04 74.08 24.04 74.08 33.93 70.22 33.93 70.22 26.49 70.189 26.49 67.48 33.93 63.45 33.93 60.899 26.49 60.86 26.49 60.86 33.93 57.32 33.93 57.32 24.04"></polyline>
                <path d="M83.98,30.12 L82.45,26.67 L80.84,30.12 L83.98,30.12 Z M80.04,24.04 L85.229,24.04 L90.27,33.93 L85.68,33.93 L84.959,32.29 L79.85,32.29 L79.07,33.93 L74.99,33.93 L80.04,24.04 Z" id="Fill-219"></path>
                <path d="M97.63,27.71 C97.51,26.49 96.99,25.94 95.87,25.94 C94.25,25.94 93.709,27.34 93.709,28.98 C93.709,30.63 94.25,32.03 95.87,32.03 C97.13,32.03 97.75,31.44 97.79,30.16 L102.04,30.16 C102.01,31.05 101.91,31.92 101.15,32.66 C100.04,33.72 98.09,34.19 95.97,34.19 C91.01,34.19 89.37,32.15 89.37,28.98 C89.37,26.64 90.43,23.78 95.97,23.78 C98.45,23.78 100.169,24.24 101.04,25.06 C101.65,25.65 101.86,26.26 101.87,27.71 L97.63,27.71" id="Fill-220"></path>
                <polyline id="Fill-221" points="106.07 30.97 101.22 24.04 106.41 24.04 108.47 28.12 110.65 24.04 115.09 24.04 110.23 30.97 110.23 33.93 106.07 33.93 106.07 30.97"></polyline>
                <path d="M123.93,30.09 L121.79,25.79 L119.65,30.09 L123.93,30.09 Z M120.5,24.04 L123.419,24.04 L128.689,33.93 L125.95,33.93 L124.76,31.71 L118.82,31.71 L117.74,33.93 L115.25,33.93 L120.5,24.04 Z" id="Fill-222"></path>
                <polyline id="Fill-223" points="130.22 24.04 132.53 24.04 132.53 32.31 138.2 32.31 138.2 33.93 130.22 33.93 130.22 24.04"></polyline>
                <polyline id="Fill-224" points="140.45 24.04 142.77 24.04 142.77 32.31 148.439 32.31 148.439 33.93 140.45 33.93 140.45 24.04"></polyline>
                <polygon id="Fill-225" points="150.959 33.93 153.269 33.93 153.269 24.04 150.959 24.04"></polygon>
                <path d="M163.949,30.09 L161.81,25.79 L159.659,30.09 L163.949,30.09 Z M160.52,24.04 L163.43,24.04 L168.71,33.93 L165.959,33.93 L164.78,31.71 L158.83,31.71 L157.75,33.93 L155.27,33.93 L160.52,24.04 Z" id="Fill-226"></path>
                <polyline id="Fill-227" points="170.05 24.04 173.3 24.04 179.14 31.63 179.17 31.63 179.17 24.04 181.26 24.04 181.26 33.93 178.15 33.93 172.16 26.2 172.13 26.2 172.13 33.93 170.05 33.93 170.05 24.04"></polyline>
                <path d="M191.85,27.17 C191.79,25.94 190.38,25.39 189.13,25.39 C187.68,25.39 185.71,26.23 185.71,28.98 C185.71,31.74 187.68,32.57 189.13,32.57 C191.03,32.57 191.85,31.6 191.98,30.77 L194.38,30.77 C194.2,33.4 191.61,34.19 188.96,34.19 C185.53,34.19 183.31,32.45 183.31,28.98 C183.31,25.65 185.53,23.78 189.09,23.78 C191.28,23.78 194.14,24.51 194.25,27.17 L191.85,27.17" id="Fill-228"></path>
                <polyline id="Fill-229" points="204.449 25.65 198.59 25.65 198.59 27.98 204.23 27.98 204.23 29.6 198.59 29.6 198.59 32.31 204.71 32.31 204.71 33.93 196.28 33.93 196.28 24.04 204.449 24.04 204.449 25.65"></polyline>
                <polygon id="Fill-230" points="3.029 51.11 205.18 51.11 205.18 38.47 3.029 38.47"></polygon>
                <path d="M52.2,43.4 C52.07,42.5 51.31,42.19 50.38,42.19 C48.779,42.19 48.01,43.27 48.01,44.74 C48.01,46.18 48.65,47.38 50.31,47.38 C51.24,47.38 52.09,47.07 52.169,46.09 L54.76,46.09 C54.66,48.47 52.6,49.05 50.06,49.05 C47.55,49.05 45.5,47.81 45.5,44.8 C45.5,41.77 47.45,40.53 50.459,40.53 C52.6,40.53 54.68,41.26 54.709,43.4 L52.2,43.4" id="Fill-231"></path>
                <path d="M62.03,47.38 C63.899,47.38 64.51,46.21 64.51,44.79 C64.51,43.37 63.899,42.19 62.03,42.19 C60.16,42.19 59.55,43.37 59.55,44.79 C59.55,46.21 60.16,47.38 62.03,47.38 Z M62.03,40.53 C65.55,40.53 67.03,42.35 67.03,44.79 C67.03,47.23 65.55,49.05 62.03,49.05 C58.51,49.05 57.029,47.23 57.029,44.79 C57.029,42.35 58.51,40.53 62.03,40.53 Z" id="Fill-232"></path>
                <path d="M74.45,47.38 C76.31,47.38 76.919,46.21 76.919,44.79 C76.919,43.37 76.31,42.19 74.45,42.19 C72.58,42.19 71.959,43.37 71.959,44.79 C71.959,46.21 72.58,47.38 74.45,47.38 Z M74.45,40.53 C77.959,40.53 79.439,42.35 79.439,44.79 C79.439,47.23 77.959,49.05 74.45,49.05 C70.919,49.05 69.439,47.23 69.439,44.79 C69.439,42.35 70.919,40.53 74.45,40.53 Z" id="Fill-233"></path>
                <path d="M84.779,44.4 L86.279,44.4 C87.2,44.4 87.82,44.17 87.82,43.37 C87.82,42.67 87.34,42.31 86.47,42.31 L84.779,42.31 L84.779,44.4 Z M82.33,40.75 L87.029,40.75 C88.919,40.75 90.34,41.55 90.34,43.4 C90.34,45.02 89.279,45.96 86.75,45.96 L84.779,45.96 L84.779,48.83 L82.33,48.83 L82.33,40.75 Z" id="Fill-234"></path>
                <polyline id="Fill-235" points="93.07 40.75 100.3 40.75 100.3 42.4 95.52 42.4 95.52 43.9 100.04 43.9 100.04 45.56 95.52 45.56 95.52 47.17 100.4 47.17 100.4 48.83 93.07 48.83 93.07 40.75"></polyline>
                <path d="M106.189,44.2 L108.14,44.2 C109.26,44.2 109.62,43.86 109.62,43.24 C109.62,42.46 108.979,42.31 107.8,42.31 L106.189,42.31 L106.189,44.2 Z M103.75,40.75 L108.88,40.75 C110.91,40.75 112.07,41.45 112.07,42.86 C112.07,43.89 111.2,44.61 109.93,44.82 L109.93,44.84 C110.65,44.89 111.31,45.04 111.59,45.55 C112,46.29 112.04,47.99 112.4,48.83 L109.8,48.83 C109.529,48.05 109.56,46.89 109.33,46.32 C109.18,45.95 108.8,45.76 107.83,45.76 L106.189,45.76 L106.189,48.83 L103.75,48.83 L103.75,40.75 Z" id="Fill-236"></path>
                <path d="M120.089,42.31 L118.37,45.73 L121.76,45.73 L120.089,42.31 Z M118.74,40.75 L121.67,40.75 L126.04,48.83 L123.3,48.83 L122.51,47.23 L117.61,47.23 L116.79,48.83 L114.28,48.83 L118.74,40.75 Z" id="Fill-237"></path>
                <polyline id="Fill-238" points="130.05 42.4 126.81 42.4 126.81 40.75 135.73 40.75 135.73 42.4 132.49 42.4 132.49 48.83 130.05 48.83 130.05 42.4"></polyline>
                <polygon id="Fill-239" points="138.13 48.83 140.58 48.83 140.58 40.75 138.13 40.75"></polygon>
                <polyline id="Fill-240" points="149.34 48.83 146.399 48.83 142.84 40.75 145.5 40.75 147.95 47.33 150.5 40.75 152.88 40.75 149.34 48.83"></polyline>
                <polyline id="Fill-241" points="155.38 40.75 162.61 40.75 162.61 42.4 157.83 42.4 157.83 43.9 162.36 43.9 162.36 45.56 157.83 45.56 157.83 47.17 162.719 47.17 162.719 48.83 155.38 48.83 155.38 40.75"></polyline>
            </g>
        </g>
    </g>
</svg>