<?xml version="1.0" encoding="UTF-8"?>
<svg width="216px" height="41px" viewBox="0 0 216 41" version="1.1" xmlns="http://www.w3.org/2000/svg" xmlns:xlink="http://www.w3.org/1999/xlink">
    <!-- Generator: Sketch 52.6 (67491) - http://www.bohemiancoding.com/sketch -->
    <title>exxonmobil</title>
    <desc>Created with Sketch.</desc>
    <g id="Page-1" stroke="none" stroke-width="1" fill="none" fill-rule="evenodd">
        <g id="19_INV_001_InnoventWebsite_r5-10" transform="translate(-2469.000000, -1793.000000)" fill="#6A6A67">
            <g id="exxonmobil" transform="translate(2469.000000, 1793.000000)">
                <path d="M213.2,28.07 L212.72,28.07 L212.72,29.38 L212.45,29.38 L212.45,28.07 L211.98,28.07 L211.98,27.85 L213.2,27.85 L213.2,28.07 Z M214.32,28.98 L214.75,27.85 L215.17,27.85 L215.17,29.38 L214.9,29.38 L214.9,28.14 L214.89,28.14 L214.41,29.38 L214.22,29.38 L213.74,28.14 L213.74,29.38 L213.46,29.38 L213.46,27.85 L213.88,27.85 L214.32,28.98 Z" id="Fill-166"></path>
                <path d="M82.33,8.52 L88.13,8.52 L88.13,10.5 C88.75,9.96 90.76,8.03 94.47,8.03 C98.84,8.03 102.31,11.26 102.31,16.32 L102.31,29.46 L96.18,29.46 L96.18,17.95 C96.18,15.13 94.81,13.45 92.32,13.45 C89.9,13.45 88.45,15.03 88.45,17.95 L88.45,29.46 L82.33,29.46 L82.33,8.52" id="Fill-168"></path>
                <path d="M140.63,18.99 C140.63,25.03 145.47,29.93 151.8,29.93 C158.13,29.93 162.97,25.03 162.97,18.99 C162.97,12.95 158.13,8.03 151.8,8.03 C145.47,8.03 140.63,12.95 140.63,18.99 Z M146.67,18.99 C146.67,16.09 148.83,13.72 151.84,13.72 C154.85,13.72 157.01,16.09 157.01,18.99 C157.01,21.88 154.85,24.26 151.84,24.26 C148.83,24.26 146.67,21.88 146.67,18.99 Z" id="Fill-169"></path>
                <path d="M56.57,18.99 C56.57,25.03 61.41,29.93 67.74,29.93 C74.08,29.93 78.91,25.03 78.91,18.99 C78.91,12.95 74.08,8.04 67.74,8.04 C61.41,8.04 56.57,12.95 56.57,18.99 Z M62.62,18.99 C62.62,16.09 64.78,13.72 67.78,13.72 C70.79,13.72 72.95,16.09 72.95,18.99 C72.95,21.88 70.79,24.26 67.78,24.26 C64.78,24.26 62.62,21.88 62.62,18.99 Z" id="Fill-170"></path>
                <path d="M192.66,6.2 L198.86,6.2 L198.86,0.87 L192.66,0.87 L192.66,6.2 Z M192.66,29.46 L198.86,29.46 L198.86,8.52 L192.66,8.52 L192.66,29.46 Z" id="Fill-171"></path>
                <polygon id="Fill-172" points="203.65 29.46 209.85 29.46 209.85 0.87 203.65 0.87"></polygon>
                <path d="M172.44,29.46 L172.5,27.84 C172.94,28.17 174.85,29.93 178.87,29.93 C184.15,29.93 189.04,25.21 189.04,18.99 C189.04,12.76 184.45,8.04 178.94,8.04 C174.73,8.04 172.8,9.97 172.5,10.18 L172.5,0.87 L166.55,0.87 L166.55,29.46 L172.44,29.46 Z M182.76,18.98 C182.76,21.93 180.5,24.22 177.53,24.22 C174.54,24.22 172.28,21.94 172.28,18.99 C172.28,16.01 174.56,13.75 177.54,13.75 C180.53,13.75 182.76,16.03 182.76,18.98 Z" id="Fill-173"></path>
                <polyline id="Fill-174" points="20.49 29.46 30.25 17.24 21.62 8.52 30.19 8.52 34.02 12.47 41.06 3.4 48.25 3.4 37.93 16.4 41.95 20.43 51.22 8.52 58.43 8.52 45.87 24.38 61.82 40.41 53.12 40.41 42.03 29.13 36.14 36.76 28.93 36.76 38.14 25.24 34.12 21.17 27.67 29.46 20.49 29.46"></polyline>
                <polyline id="Fill-175" points="0.24 0.87 19.07 0.87 19.07 6.2 6.65 6.2 6.65 12.12 18.51 12.12 18.51 17.29 6.65 17.29 6.65 24.12 19.07 24.12 19.07 29.46 0.24 29.46 0.24 0.87"></polyline>
                <polyline id="Fill-176" points="107.2 0.87 117.32 0.87 122.1 21.74 122.32 21.74 127.21 0.87 137.05 0.87 137.05 29.46 131.03 29.46 131.03 7.87 130.75 7.87 125.45 29.46 118.68 29.46 113.5 7.87 113.23 7.87 113.23 29.46 107.2 29.46 107.2 0.87"></polyline>
            </g>
        </g>
    </g>
</svg>