<?xml version="1.0" encoding="UTF-8"?>
<svg width="17px" height="34px" viewBox="0 0 17 34" version="1.1" xmlns="http://www.w3.org/2000/svg" xmlns:xlink="http://www.w3.org/1999/xlink">
    <!-- Generator: Sketch 52.6 (67491) - http://www.bohemiancoding.com/sketch -->
    <title>Fill 491</title>
    <desc>Created with Sketch.</desc>
    <g id="Page-1" stroke="none" stroke-width="1" fill="none" fill-rule="evenodd">
        <g id="19_INV_001_InnoventWebsite_r5-10" transform="translate(-4779.000000, -2710.000000)" fill="#2A75A2">
            <g id="Group-546" transform="translate(2810.000000, 112.000000)">
                <path d="M1973.24,2631.55 L1979.91,2631.55 C1979.91,2631.55 1979.91,2622.35 1979.91,2614.88 L1984.859,2614.88 L1985.47,2608.21 L1980.17,2608.21 L1980.17,2605.54 C1980.17,2604.24 1981.04,2603.94 1981.64,2603.94 C1982.25,2603.94 1985.39,2603.94 1985.39,2603.94 L1985.39,2598.22 L1980.23,2598.2 C1974.51,2598.2 1973.21,2602.47 1973.21,2605.19 L1973.21,2608.21 L1969.91,2608.21 L1969.91,2614.88 L1973.24,2614.88 C1973.24,2622.44 1973.24,2631.55 1973.24,2631.55" id="Fill-491"></path>
            </g>
        </g>
    </g>
</svg>