<?xml version="1.0" encoding="UTF-8"?>
<svg width="98px" height="94px" viewBox="0 0 98 94" version="1.1" xmlns="http://www.w3.org/2000/svg" xmlns:xlink="http://www.w3.org/1999/xlink">
    <!-- Generator: Sketch 52.6 (67491) - http://www.bohemiancoding.com/sketch -->
    <title>ifpw</title>
    <desc>Created with Sketch.</desc>
    <g id="Page-1" stroke="none" stroke-width="1" fill="none" fill-rule="evenodd">
        <g id="19_INV_001_InnoventWebsite_r5-10" transform="translate(-2201.000000, -1759.000000)" fill="#6A6A67">
            <g id="ifpw" transform="translate(2201.000000, 1759.000000)">
                <path d="M18.49,88.33 C17.98,88.33 17.58,88.74 17.58,89.24 L17.58,92.9 L19.39,92.9 L19.39,89.24 C19.39,88.74 18.99,88.33 18.49,88.33" id="Fill-194"></path>
                <path d="M14.09,88.33 C13.58,88.33 13.18,88.74 13.18,89.24 L13.18,92.9 L15,92.9 L15,89.24 C15,88.74 14.59,88.33 14.09,88.33" id="Fill-195"></path>
                <path d="M27.28,88.33 C26.78,88.33 26.37,88.74 26.37,89.24 L26.37,92.9 L28.19,92.9 L28.19,89.24 C28.19,88.74 27.78,88.33 27.28,88.33" id="Fill-196"></path>
                <path d="M22.88,88.33 C22.38,88.33 21.98,88.74 21.98,89.24 L21.98,92.9 L23.79,92.9 L23.79,89.24 C23.79,88.74 23.39,88.33 22.88,88.33" id="Fill-197"></path>
                <path d="M9.69,88.33 C9.19,88.33 8.78,88.74 8.78,89.24 L8.78,92.9 L10.6,92.9 L10.6,89.24 C10.6,88.74 10.19,88.33 9.69,88.33" id="Fill-198"></path>
                <path d="M28.88,78.74 L28.88,83.34 L26.07,83.34 L26.07,80.18 C26.07,79.61 25.61,79.16 25.05,79.16 C24.48,79.16 24.03,79.61 24.03,80.18 L24.03,83.34 L21.69,83.34 L21.69,80.18 C21.69,79.61 21.24,79.16 20.67,79.16 C20.11,79.16 19.65,79.61 19.65,80.18 L19.65,83.34 L17.32,83.34 L17.32,80.18 C17.32,79.61 16.86,79.16 16.3,79.16 C15.73,79.16 15.28,79.61 15.28,80.18 L15.28,83.34 L12.94,83.34 L12.94,80.18 C12.94,79.61 12.49,79.16 11.92,79.16 C11.36,79.16 10.9,79.61 10.9,80.18 L10.9,83.34 L8.09,83.34 L8.09,78.74 C7.75,78.6 7.5,78.27 7.5,77.87 C7.5,77.35 7.92,76.93 8.44,76.93 L28.53,76.93 C29.05,76.93 29.47,77.35 29.47,77.87 C29.47,78.27 29.22,78.6 28.88,78.74 Z M9,74.63 C9,74.44 9.08,74.19 9.46,74.06 C9.8,73.96 10.22,73.71 10.31,73.15 C10.62,71.34 11.64,69.65 13.19,68.38 C14.14,67.6 15.23,67.04 16.36,66.73 L16.36,66.31 C16.36,66.02 16.56,65.78 16.82,65.7 L16.82,63.46 C16.56,63.38 16.36,63.14 16.36,62.85 C16.36,62.49 16.65,62.2 17.01,62.2 L17.18,62.2 C17.22,61.67 17.89,61.44 17.99,60.71 C18.05,60.23 17.81,59.51 17.81,59.01 C17.81,58.39 18.15,57.87 18.49,57.87 C18.82,57.87 19.16,58.39 19.16,59.01 C19.16,59.57 18.92,60.23 18.98,60.71 C19.08,61.44 19.75,61.67 19.79,62.2 L19.96,62.2 C20.32,62.2 20.61,62.49 20.61,62.85 C20.61,63.14 20.41,63.38 20.15,63.46 L20.15,65.7 C20.41,65.78 20.61,66.02 20.61,66.31 L20.61,66.73 C21.74,67.04 22.83,67.6 23.78,68.38 C25.33,69.65 26.35,71.34 26.66,73.15 C26.75,73.71 27.17,73.96 27.51,74.06 C27.89,74.19 27.97,74.44 27.97,74.63 L27.97,75.55 L9,75.55 L9,74.63 Z M33.47,56.99 L4.07,56.99 C2.24,56.99 0.75,58.48 0.75,60.32 L0.75,89.58 C0.75,91.41 2.24,92.9 4.07,92.9 L6.17,92.9 L6.17,86.55 C5.8,86.43 5.54,86.08 5.54,85.66 C5.54,85.14 5.96,84.72 6.48,84.72 L30.49,84.72 C31.01,84.72 31.43,85.14 31.43,85.66 C31.43,86.08 31.17,86.43 30.8,86.55 L30.8,92.9 L33.47,92.9 C35.31,92.9 36.8,91.41 36.8,89.58 L36.8,60.32 C36.8,58.48 35.31,56.99 33.47,56.99 Z" id="Fill-199"></path>
                <polygon id="Fill-200" points="18.1 65.67 18.87 65.67 18.87 63.49 18.1 63.49"></polygon>
                <polyline id="Fill-201" points="3.98 0.75 1.1 3.62 0.97 51.79 16.31 51.79 16.31 0.75 3.98 0.75"></polyline>
                <path d="M81.93,41.85 L81.93,70.98 L81.94,71.1 L81.94,75.08 C81.94,76.35 80.9,77.39 79.63,77.39 L79.19,77.39 C77.93,77.39 76.89,76.35 76.89,75.08 L76.89,71.1 L76.9,70.86 L76.9,56.81 L61.82,56.81 L61.82,70.83 L61.83,71.04 L61.83,75.14 C61.83,76.38 60.82,77.39 59.58,77.39 L59.29,77.39 C58.06,77.39 57.05,76.38 57.05,75.14 L57.05,75.12 L57.04,75.12 L57.05,72.2 L57.05,71.04 L57.06,70.95 L57.16,41.98 L41.2,41.98 L41.32,85.52 L41.31,85.52 L41.31,90.06 L44.26,93.02 L66.17,93.02 L69.21,89.98 L72.01,92.77 L94.68,92.77 L97.39,90.05 L97.39,41.85 L81.93,41.85" id="Fill-202"></path>
                <path d="M80.79,21.78 L77.21,21.78 L77.21,16.26 L80.79,16.26 C82.31,16.26 83.55,17.5 83.55,19.02 C83.55,20.54 82.31,21.78 80.79,21.78 Z M97.64,28.05 L97.65,27.99 L97.64,27.99 L97.64,4.39 C97.52,2.4 95.85,0.87 93.83,0.87 L61.82,0.87 L62.19,51.53 L77.28,51.53 L77.28,37.08 L94,37.08 L94.01,37.07 C95.95,36.98 97.51,35.42 97.63,33.49 L97.64,33.49 L97.64,28.05 Z" id="Fill-203"></path>
                <polyline id="Fill-204" points="57.19 21.84 36.96 21.84 36.96 16.24 57.19 16.24 57.19 0.75 21.49 0.75 21.49 51.91 36.82 51.91 36.82 37.08 57.19 37.08 57.19 21.84"></polyline>
            </g>
        </g>
    </g>
</svg>