<?xml version="1.0" encoding="UTF-8"?>
<svg width="35px" height="34px" viewBox="0 0 35 34" version="1.1" xmlns="http://www.w3.org/2000/svg" xmlns:xlink="http://www.w3.org/1999/xlink">
    <!-- Generator: Sketch 52.6 (67491) - http://www.bohemiancoding.com/sketch -->
    <title>instagram</title>
    <desc>Created with Sketch.</desc>
    <g id="Page-1" stroke="none" stroke-width="1" fill="none" fill-rule="evenodd">
        <g id="19_INV_001_InnoventWebsite_r5-10" transform="translate(-4827.000000, -2710.000000)" fill="#2A75A2">
            <g id="instagram" transform="translate(4825.000000, 2710.000000)">
                <path d="M19.42,22.44 C16.35,22.44 13.87,19.95 13.87,16.88 C13.87,13.81 16.35,11.32 19.42,11.32 C22.49,11.32 24.98,13.81 24.98,16.88 C24.98,19.95 22.49,22.44 19.42,22.44 Z M19.42,8.32 C14.7,8.32 10.86,12.15 10.86,16.88 C10.86,21.61 14.7,25.44 19.42,25.44 C24.15,25.44 27.99,21.61 27.99,16.88 C27.99,12.15 24.15,8.32 19.42,8.32 Z" id="Fill-492"></path>
                <path d="M28.32,5.98 C27.22,5.98 26.32,6.87 26.32,7.98 C26.32,9.08 27.22,9.98 28.32,9.98 C29.43,9.98 30.33,9.08 30.33,7.98 C30.33,6.87 29.43,5.98 28.32,5.98" id="Fill-493"></path>
                <path d="M33,23.62 C32.919,25.24 32.649,26.12 32.419,26.71 C32.12,27.49 31.759,28.05 31.18,28.63 C30.589,29.21 30.04,29.57 29.26,29.88 C28.669,30.11 27.79,30.38 26.16,30.45 C24.399,30.53 23.88,30.55 19.42,30.55 C14.97,30.55 14.439,30.53 12.69,30.45 C11.06,30.38 10.18,30.11 9.589,29.88 C8.81,29.57 8.26,29.21 7.669,28.63 C7.09,28.05 6.729,27.49 6.43,26.71 C6.2,26.12 5.93,25.24 5.85,23.62 C5.77,21.86 5.75,21.33 5.75,16.88 C5.75,12.43 5.77,11.9 5.85,10.14 C5.93,8.51 6.2,7.63 6.43,7.04 C6.729,6.27 7.09,5.71 7.669,5.13 C8.26,4.54 8.81,4.18 9.589,3.88 C10.18,3.65 11.06,3.38 12.69,3.31 C14.439,3.23 14.97,3.21 19.42,3.21 C23.88,3.21 24.399,3.23 26.16,3.31 C27.79,3.38 28.669,3.65 29.26,3.88 C30.04,4.18 30.589,4.54 31.18,5.13 C31.759,5.71 32.12,6.27 32.419,7.04 C32.649,7.63 32.919,8.51 33,10.14 C33.08,11.9 33.09,12.43 33.09,16.88 C33.09,21.33 33.08,21.86 33,23.62 Z M35.22,5.96 C34.8,4.86 34.23,3.93 33.3,3 C32.37,2.08 31.44,1.51 30.35,1.08 C29.29,0.67 28.069,0.39 26.299,0.3 C24.52,0.22 23.95,0.2 19.42,0.2 C14.899,0.2 14.33,0.22 12.55,0.3 C10.77,0.39 9.56,0.67 8.5,1.08 C7.41,1.51 6.48,2.08 5.55,3 C4.62,3.93 4.05,4.86 3.63,5.96 C3.21,7.02 2.93,8.23 2.85,10 C2.77,11.78 2.75,12.35 2.75,16.88 C2.75,21.41 2.77,21.97 2.85,23.75 C2.93,25.53 3.21,26.74 3.63,27.8 C4.05,28.9 4.62,29.83 5.55,30.75 C6.48,31.68 7.41,32.25 8.5,32.68 C9.56,33.09 10.77,33.37 12.55,33.45 C14.33,33.53 14.899,33.55 19.42,33.55 C23.95,33.55 24.52,33.53 26.299,33.45 C28.069,33.37 29.29,33.09 30.35,32.68 C31.44,32.25 32.37,31.68 33.3,30.75 C34.23,29.83 34.8,28.9 35.22,27.8 C35.64,26.74 35.919,25.53 36,23.75 C36.08,21.97 36.1,21.41 36.1,16.88 C36.1,12.35 36.08,11.78 36,10 C35.919,8.23 35.64,7.02 35.22,5.96 Z" id="Fill-494"></path>
            </g>
        </g>
    </g>
</svg>