<?xml version="1.0" encoding="utf-8"?>
<!-- Generator: Adobe Illustrator 23.0.2, SVG Export Plug-In . SVG Version: 6.00 Build 0)  -->
<svg version="1.1" id="Layer_1" xmlns="http://www.w3.org/2000/svg" xmlns:xlink="http://www.w3.org/1999/xlink" x="0px" y="0px"
	 viewBox="0 0 179.38 179.07" style="enable-background:new 0 0 179.38 179.07;" xml:space="preserve" width="35px" height='35px'>
<style type="text/css">
	.st0{fill:#1F7FB5;}
</style>
<g>
	<rect x="2.95" y="59.46" class="st0" width="37.19" height="119.61"/>
	<path class="st0" d="M21.54,43.12C9.63,43.12,0,33.46,0,21.56C0,9.66,9.63,0,21.54,0c11.88,0,21.54,9.66,21.54,21.56
		C43.09,33.46,33.43,43.12,21.54,43.12z"/>
	<path class="st0" d="M179.38,179.07h-37.16V120.9c0-13.87-0.24-31.71-19.32-31.71c-19.35,0-22.3,15.12-22.3,30.72v59.16H63.45
		V59.46h35.66v16.36h0.51c4.96-9.41,17.09-19.32,35.17-19.32c37.64,0,44.59,24.76,44.59,56.97V179.07z"/>
</g>
</svg>
