<?xml version="1.0" encoding="UTF-8"?>
<svg width="124px" height="115px" viewBox="0 0 124 115" version="1.1" xmlns="http://www.w3.org/2000/svg" xmlns:xlink="http://www.w3.org/1999/xlink">
    <!-- Generator: Sketch 52.6 (67491) - http://www.bohemiancoding.com/sketch -->
    <title>Group</title>
    <desc>Created with Sketch.</desc>
    <g id="Page-1" stroke="none" stroke-width="1" fill="none" fill-rule="evenodd">
        <g id="19_INV_001_InnoventWebsite_r5-10" transform="translate(-5059.000000, -2563.000000)" fill="#FFFFFE">
            <g id="Group" transform="translate(5059.000000, 2563.000000)">
                <path d="M75.93,97.1 L100.99,111.91 L101.14,59.79 L75.97,45 L75.93,97.1 Z M102.48,114.53 L74.439,97.95 L74.47,42.38 L102.64,58.94 L102.48,114.53 Z" id="Fill-497"></path>
                <path d="M49.05,60.5 L49,111.89 L74.43,97.09 L74.45,75.19 L49.05,60.5 Z M47.5,114.49 L47.56,58.85 L48.24,58.31 L48.69,58.56 L75.95,74.33 L75.919,97.95 L47.5,114.49 Z" id="Fill-498"></path>
                <path d="M3.25,62.88 L48.28,89.13 L73.68,74.79 L28.6,48.65 L3.25,62.88 Z M48.26,90.85 L0.24,62.86 L28.609,46.93 L28.98,47.14 L76.689,74.8 L48.26,90.85 Z" id="Fill-499"></path>
                <path d="M29.359,47.36 L48.31,58.36 L73.68,43.7 L29.229,17.91 L29.359,47.36 Z M48.31,60.09 L27.87,48.22 L27.72,15.3 L75.91,43.27 L75.91,44.13 L75.54,44.35 L48.31,60.09 Z" id="Fill-500"></path>
                <path d="M49.17,28.8 L49.06,57.92 L94.27,31.86 L94.57,2.76 L49.17,28.8 Z M47.55,60.51 L47.68,27.94 L48.049,27.72 L96.09,0.16 L95.759,32.73 L47.55,60.51 Z" id="Fill-501"></path>
                <path d="M75.97,44.13 L75.95,73.49 L120.55,47.79 L95.02,33.17 L75.97,44.13 Z M74.45,76.03 L74.48,43.26 L95.009,31.45 L123.55,47.79 L74.45,76.03 Z" id="Fill-502"></path>
            </g>
        </g>
    </g>
</svg>