<?xml version="1.0" encoding="UTF-8"?>
<svg width="251px" height="56px" viewBox="0 0 251 56" version="1.1" xmlns="http://www.w3.org/2000/svg" xmlns:xlink="http://www.w3.org/1999/xlink">
    <!-- Generator: Sketch 52.6 (67491) - http://www.bohemiancoding.com/sketch -->
    <title>realpage</title>
    <desc>Created with Sketch.</desc>
    <g id="Page-1" stroke="none" stroke-width="1" fill="none" fill-rule="evenodd">
        <g id="19_INV_001_InnoventWebsite_r5-10" transform="translate(-2000.000000, -1920.000000)" fill="#6A6A67">
            <g id="realpage" transform="translate(2000.000000, 1920.000000)">
                <path d="M20.55,17.5 C20.55,19.91 18.59,21.86 16.18,21.86 C13.77,21.86 11.81,19.91 11.81,17.5 C11.81,15.08 13.77,13.13 16.18,13.13 C18.59,13.13 20.55,15.08 20.55,17.5" id="Fill-181"></path>
                <path d="M9.64,36.16 C9.64,38.57 7.69,40.53 5.28,40.53 C2.86,40.53 0.91,38.57 0.91,36.16 C0.91,33.75 2.86,31.79 5.28,31.79 C7.69,31.79 9.64,33.75 9.64,36.16" id="Fill-182"></path>
                <path d="M32.22,36.16 C32.22,38.57 30.27,40.53 27.85,40.53 C25.44,40.53 23.48,38.57 23.48,36.16 C23.48,33.75 25.44,31.79 27.85,31.79 C30.27,31.79 32.22,33.75 32.22,36.16" id="Fill-183"></path>
                <path d="M248.86,20.42 C248.8,20.39 248.7,20.37 248.54,20.37 L248.22,20.37 L248.22,21.02 L248.54,21.02 C248.84,21.02 248.99,20.91 248.99,20.67 C248.99,20.56 248.93,20.46 248.86,20.42 Z M249.03,22.07 L248.43,21.26 L248.22,21.26 L248.22,22.07 L247.88,22.07 L247.88,20.11 L248.59,20.11 C249.1,20.11 249.32,20.28 249.32,20.66 C249.32,20.99 249.13,21.2 248.79,21.23 L249.45,22.07 L249.03,22.07 Z M248.59,19.65 C247.8,19.65 247.16,20.29 247.16,21.09 C247.16,21.88 247.8,22.52 248.59,22.52 C249.39,22.52 250.03,21.88 250.03,21.09 C250.03,20.29 249.39,19.65 248.59,19.65 Z M248.59,22.79 C247.66,22.79 246.89,22.03 246.89,21.09 C246.89,20.15 247.66,19.39 248.59,19.39 C249.53,19.39 250.29,20.15 250.29,21.09 C250.29,22.03 249.53,22.79 248.59,22.79 Z" id="Fill-184"></path>
                <path d="M59.77,22.4 L57.96,22.4 L57.96,26.4 L59.77,26.4 C61.52,26.4 62.29,25.78 62.29,24.33 C62.29,22.95 61.57,22.4 59.77,22.4 M62.67,34.55 L59.35,28.75 L57.96,28.75 L57.96,34.55 L55.19,34.55 L55.19,20.05 L60.03,20.05 C62.14,20.05 63.1,20.31 63.96,21.12 C64.76,21.85 65.15,22.9 65.15,24.27 C65.15,25.39 64.89,26.29 64.36,26.99 C63.81,27.69 63.3,28 62.09,28.33 L65.7,34.55 L62.67,34.55" id="Fill-185"></path>
                <polyline id="Fill-186" points="81.22 34.55 81.22 20.05 90.05 20.05 90.05 22.4 83.99 22.4 83.99 25.98 88.96 25.98 88.96 28.33 83.99 28.33 83.99 32.2 90.34 32.2 90.34 34.55 81.22 34.55"></polyline>
                <path d="M110.39,23.36 L108.72,28.62 L112.08,28.62 L110.39,23.36 Z M113.97,34.55 L112.83,30.97 L107.97,30.97 L106.79,34.55 L103.88,34.55 L109.14,20.05 L111.62,20.05 L116.87,34.55 L113.97,34.55 Z" id="Fill-187"></path>
                <polyline id="Fill-188" points="132.09 34.55 132.09 20.05 134.85 20.05 134.85 32.2 140.79 32.2 140.79 34.55 132.09 34.55"></polyline>
                <path d="M160.42,22.4 L158.49,22.4 L158.49,27.23 L158.84,27.25 L159.19,27.25 C159.5,27.25 159.69,27.28 159.8,27.28 C161.96,27.28 162.9,26.49 162.9,24.7 C162.9,23.12 162.13,22.4 160.42,22.4 M164.11,28.4 C163.08,29.28 161.8,29.65 159.83,29.65 C159.28,29.65 158.97,29.63 158.49,29.58 L158.49,34.55 L155.72,34.55 L155.72,20.05 L160.68,20.05 C162.57,20.05 163.63,20.38 164.53,21.23 C165.34,22.05 165.76,23.14 165.76,24.48 C165.76,26.09 165.19,27.48 164.11,28.4" id="Fill-189"></path>
                <path d="M185.7,23.36 L184.03,28.62 L187.39,28.62 L185.7,23.36 Z M189.28,34.55 L188.14,30.97 L183.28,30.97 L182.09,34.55 L179.19,34.55 L184.45,20.05 L186.93,20.05 L192.18,34.55 L189.28,34.55 Z" id="Fill-190"></path>
                <path d="M217.46,34.35 C215.92,34.7 215.02,34.84 213.81,34.84 C209,34.84 205.66,31.76 205.66,27.28 C205.66,25.08 206.49,23.17 208.05,21.74 C209.55,20.38 211.22,19.8 213.72,19.8 C214.78,19.8 215.83,19.91 216.76,20.13 C217.46,20.31 217.9,20.46 218.91,20.9 L218.25,23.21 C217.72,23.01 217.33,22.88 217.06,22.79 C216.03,22.44 215,22.26 214.08,22.26 C210.82,22.26 208.56,24.27 208.56,27.14 C208.56,30.11 211.04,32.38 214.27,32.38 C214.93,32.38 215.31,32.31 216.16,32.07 L216.16,28.07 L218.93,28.07 L218.93,34 C218.27,34.16 217.79,34.27 217.46,34.35" id="Fill-191"></path>
                <polyline id="Fill-192" points="235.71 34.55 235.71 20.05 244.54 20.05 244.54 22.4 238.48 22.4 238.48 25.98 243.44 25.98 243.44 28.33 238.48 28.33 238.48 32.2 244.83 32.2 244.83 34.55 235.71 34.55"></polyline>
                <polygon id="Fill-193" points="43.67 55.26 44.49 55.26 44.49 0.85 43.67 0.85"></polygon>
            </g>
        </g>
    </g>
</svg>