<?xml version="1.0" encoding="UTF-8"?>
<svg width="34px" height="28px" viewBox="0 0 34 28" version="1.1" xmlns="http://www.w3.org/2000/svg" xmlns:xlink="http://www.w3.org/1999/xlink">
    <!-- Generator: Sketch 52.6 (67491) - http://www.bohemiancoding.com/sketch -->
    <title>Fill 490</title>
    <desc>Created with Sketch.</desc>
    <g id="Page-1" stroke="none" stroke-width="1" fill="none" fill-rule="evenodd">
        <g id="19_INV_001_InnoventWebsite_r5-10" transform="translate(-4889.000000, -2713.000000)" fill="#2A75A2">
            <path d="M4921.82,2714.03 C4920.49,2714.8 4919.03,2715.36 4917.47,2715.67 C4916.22,2714.36 4914.439,2713.54 4912.47,2713.54 C4908.7,2713.54 4905.629,2716.55 4905.629,2720.27 C4905.629,2720.8 4905.689,2721.32 4905.81,2721.81 C4900.12,2721.53 4895.08,2718.85 4891.71,2714.77 C4891.12,2715.77 4890.779,2716.92 4890.779,2718.16 C4890.779,2720.49 4891.99,2722.56 4893.82,2723.76 C4892.7,2723.73 4891.649,2723.43 4890.72,2722.92 L4890.72,2723.01 C4890.72,2726.27 4893.08,2728.99 4896.21,2729.61 C4895.64,2729.77 4895.04,2729.85 4894.41,2729.85 C4893.97,2729.85 4893.54,2729.8 4893.12,2729.73 C4894,2732.4 4896.52,2734.35 4899.51,2734.4 C4897.169,2736.21 4894.22,2737.29 4891.02,2737.29 C4890.46,2737.29 4889.92,2737.26 4889.38,2737.19 C4892.41,2739.1 4896.009,2740.22 4899.87,2740.22 C4912.459,2740.22 4919.339,2729.96 4919.339,2721.06 C4919.339,2720.76 4919.339,2720.47 4919.32,2720.18 C4920.66,2719.23 4921.82,2718.05 4922.74,2716.7 C4921.509,2717.23 4920.19,2717.59 4918.81,2717.76 C4920.22,2716.92 4921.3,2715.6 4921.82,2714.03" id="Fill-490"></path>
        </g>
    </g>
</svg>