<?xml version="1.0" encoding="UTF-8"?>
<svg width="192px" height="48px" viewBox="0 0 192 48" version="1.1" xmlns="http://www.w3.org/2000/svg" xmlns:xlink="http://www.w3.org/1999/xlink">
    <!-- Generator: Sketch 52.6 (67491) - http://www.bohemiancoding.com/sketch -->
    <title>zenefits</title>
    <desc>Created with Sketch.</desc>
    <defs>
        <polygon id="path-1" points="0.93 0.27 30.8 0.27 30.8 47.67 0.93 47.67"></polygon>
    </defs>
    <g id="Page-1" stroke="none" stroke-width="1" fill="none" fill-rule="evenodd">
        <g id="19_INV_001_InnoventWebsite_r5-10" transform="translate(-2366.000000, -1922.000000)">
            <g id="zenefits" transform="translate(2366.000000, 1922.000000)">
                <path d="M74.42,15.03 C70.53,15.03 67.42,17.09 65.89,20.82 C65.18,22.57 64.89,24.68 64.87,27.12 L64.87,27.41 C64.87,36.72 69.32,39.89 75.06,39.89 C78.68,39.89 81.48,38.22 83.39,36.03 L83.38,35.77 L80.66,33.15 L80.43,33.16 C78.84,34.81 77.42,35.54 75.16,35.54 C71.4,35.54 69.44,33.05 69.44,28.86 L69.44,28.85 L83.75,28.85 C83.85,28.85 83.92,28.78 83.92,28.68 L83.96,25.04 C83.96,19.13 80.45,15.03 74.42,15.03 Z M79.57,24.8 L69.53,24.8 L69.53,24.41 C69.57,23.28 69.66,22.74 70.1,21.9 C70.8,20.52 72.43,19.58 74.55,19.58 C76.66,19.58 78.25,20.52 78.96,21.9 C79.4,22.74 79.53,23.28 79.57,24.41 L79.57,24.8 Z" id="Fill-154" fill="#6A6A67"></path>
                <path d="M120.23,15.03 C116.34,15.03 113.24,17.09 111.7,20.82 C110.99,22.57 110.7,24.68 110.68,27.12 L110.68,27.41 C110.68,36.72 115.13,39.89 120.88,39.89 C124.49,39.89 127.3,38.22 129.2,36.03 L129.19,35.77 L126.47,33.15 L126.24,33.16 C124.66,34.81 123.23,35.54 120.97,35.54 C117.21,35.54 115.26,33.05 115.26,28.86 L115.26,28.85 L129.57,28.85 C129.66,28.85 129.73,28.78 129.73,28.68 L129.77,25.04 C129.77,19.13 126.26,15.03 120.23,15.03 Z M125.38,24.8 L115.34,24.8 L115.34,24.41 C115.38,23.28 115.47,22.74 115.91,21.9 C116.61,20.52 118.24,19.58 120.36,19.58 C122.47,19.58 124.06,20.52 124.77,21.9 C125.21,22.74 125.34,23.28 125.38,24.41 L125.38,24.8 Z" id="Fill-155" fill="#6A6A67"></path>
                <path d="M44.44,15.22 L44.44,19.37 C44.44,19.47 44.52,19.55 44.62,19.55 L55.26,19.55 L43.9,39.61 C43.83,39.73 43.92,39.89 44.05,39.89 L62.75,39.89 C62.84,39.89 62.92,39.81 62.92,39.7 L62.92,35.56 C62.92,35.45 62.84,35.37 62.75,35.37 L51.63,35.37 L62.94,15.31 C63.01,15.19 62.93,15.03 62.79,15.03 L44.62,15.03 C44.52,15.03 44.44,15.12 44.44,15.22" id="Fill-156" fill="#6A6A67"></path>
                <path d="M166.88,9.07 L162.76,9.07 C162.66,9.07 162.58,9.15 162.58,9.25 L162.58,15.35 L159.53,15.35 C159.43,15.35 159.36,15.43 159.36,15.53 L159.36,19.6 C159.36,19.7 159.43,19.78 159.53,19.78 L162.58,19.78 L162.58,32.53 C162.58,37.82 166.25,39.9 170.26,39.89 C170.67,39.89 170.92,39.89 171.15,39.88 C171.25,39.87 171.32,39.79 171.32,39.7 L171.32,35.54 C171.32,35.43 171.24,35.35 171.14,35.36 C170.92,35.37 170.72,35.36 170.45,35.35 C168.19,35.24 167.05,34 167.05,31.19 L167.05,19.78 L171.59,19.78 C171.69,19.78 171.77,19.7 171.77,19.6 L171.77,15.53 C171.77,15.43 171.69,15.35 171.59,15.35 L167.05,15.35 L167.05,9.25 C167.05,9.15 166.98,9.07 166.88,9.07" id="Fill-157" fill="#6A6A67"></path>
                <path d="M189.4,27.36 C187.84,26.25 185.56,25.63 182.7,25.12 C178.92,24.45 178.45,23.71 178.49,22.17 C178.52,21.16 179.01,20.51 179.72,20.11 C180.9,19.47 182.14,19.42 183.31,19.53 C184.66,19.65 186.36,20.17 187.57,21.52 L187.81,21.54 L190.66,18.89 L190.68,18.64 C190.17,17.97 189.51,17.33 188.76,16.83 C187.9,16.25 186.94,15.81 185.95,15.51 C184.88,15.18 183.67,15.06 182.56,15.04 C180.71,14.99 178.95,15.5 178.13,15.87 C177.16,16.3 176.25,16.91 175.55,17.74 C174.84,18.56 174.37,19.57 174.15,20.64 C173.9,21.88 173.93,23.22 174.29,24.43 C174.54,25.27 174.98,26.03 175.56,26.68 C177.24,28.57 179.88,29.1 182.46,29.58 C184.22,29.91 187.35,30.05 187.29,32.54 C187.23,34.97 184.37,35.72 182.46,35.72 C180.23,35.72 178.31,34.91 176.76,33.27 L176.52,33.26 L173.73,35.86 L173.72,36.11 C175.76,38.47 179.21,39.89 182.75,39.89 C187.27,39.89 191.55,37.63 191.79,32.81 C191.92,30.32 191.12,28.6 189.4,27.36" id="Fill-158" fill="#6A6A67"></path>
                <path d="M154.11,4.1 C152.26,4.1 150.77,5.66 150.77,7.58 C150.77,9.5 152.26,11.06 154.11,11.06 C155.95,11.06 157.45,9.5 157.45,7.58 C157.45,5.66 155.95,4.1 154.11,4.1" id="Fill-159" fill="#6A6A67"></path>
                <path d="M140.6,15.48 L140.6,12.11 C140.73,9.6 142.33,8.63 144.14,8.6 C144.94,8.58 146.07,8.64 146.99,8.77 C147.09,8.78 147.18,8.7 147.18,8.59 L147.18,4.55 L147.05,4.37 C146.13,4.19 145.16,4.1 144.22,4.1 L143.81,4.1 C139.36,4.1 136.2,6.77 136.2,11.68 L136.2,15.48 L132.8,15.48 C132.71,15.48 132.64,15.56 132.64,15.66 C132.64,16.38 132.64,19.02 132.64,19.74 C132.64,19.84 132.71,19.92 132.8,19.92 L136.2,19.92 L136.2,39.71 C136.2,39.81 136.27,39.89 136.37,39.89 L140.42,39.89 C140.52,39.89 140.59,39.81 140.59,39.71 L140.59,19.92 L151.15,19.92 L151.15,39.71 C151.15,39.81 151.22,39.89 151.32,39.89 L155.37,39.89 C155.46,39.89 155.54,39.81 155.54,39.71 C155.54,37.6 155.54,17.77 155.54,15.66 C155.54,15.56 155.47,15.48 155.37,15.48 L140.6,15.48" id="Fill-160" fill="#6A6A67"></path>
                <path d="M104.09,17.25 C102.61,15.81 100.68,15.03 98.14,15.03 C96.38,15.03 94.86,15.31 93.37,16.36 C93.03,16.59 92.69,16.88 92.46,17.09 L92.25,17.29 L92.25,15.51 C92.25,15.41 92.18,15.32 92.08,15.32 L87.95,15.32 C87.86,15.32 87.78,15.41 87.78,15.51 L87.78,39.71 C87.78,39.81 87.86,39.89 87.95,39.89 L92.08,39.89 C92.18,39.89 92.25,39.81 92.25,39.71 L92.25,23.66 C92.25,22.38 93.16,21.24 94.13,20.6 C95.32,19.82 97.34,19.72 98.7,19.96 C100.88,20.34 102.39,22.2 102.39,24.61 L102.39,39.71 C102.39,39.81 102.47,39.89 102.57,39.89 L106.69,39.89 C106.79,39.89 106.87,39.81 106.87,39.71 L106.87,24.61 C106.87,21.92 106.19,19.29 104.09,17.25" id="Fill-161" fill="#6A6A67"></path>
                <g id="Group-165">
                    <mask id="mask-2" fill="white">
                        <use xlink:href="#path-1"></use>
                    </mask>
                    <g id="Clip-164"></g>
                    <path d="M30.8,47.67 L0.93,39.85 L0.93,34.84 L30.8,18.58 L30.8,23.56 L18.9,30.03 L30.8,33.14 L30.8,37.7 L13.26,33.1 L6.53,36.77 L30.8,43.12 L30.8,47.67 M0.93,29.36 L0.93,24.38 L12.83,17.91 L0.93,14.8 L0.93,10.24 L18.47,14.84 L25.2,11.17 L0.93,4.82 L0.93,0.27 L30.8,8.09 L30.8,13.1 L0.93,29.36" id="Fill-163" fill="#6A6A67" mask="url(#mask-2)"></path>
                </g>
            </g>
        </g>
    </g>
</svg>