<?xml version="1.0" encoding="UTF-8"?>
<svg width="64px" height="64px" viewBox="0 0 64 64" version="1.1" xmlns="http://www.w3.org/2000/svg" xmlns:xlink="http://www.w3.org/1999/xlink">
    <!-- Generator: Sketch 44.1 (41455) - http://www.bohemiancoding.com/sketch -->
    <title>circle-icon</title>
    <desc>Created with Sketch.</desc>
    <defs></defs>
    <g id="Page-1" stroke="none" stroke-width="1" fill="none" fill-rule="evenodd">
        <g id="Artboard" transform="translate(-960.000000, -1330.000000)" fill="#46948D">
            <g id="circle-icon" transform="translate(960.000000, 1330.000000)">
                <path d="M32.073,46.21 C24.253,46.21 17.914,39.87 17.912,32.04 C17.914,24.22 24.253,17.88 32.073,17.88 C35.098,17.88 37.909,18.83 40.211,20.45 L38.898,22.32 C36.964,20.96 34.62,20.16 32.073,20.16 C25.511,20.17 20.205,25.48 20.194,32.04 C20.205,38.61 25.511,43.91 32.073,43.92 C38.636,43.91 43.94,38.61 43.95,32.04 C43.95,31.22 43.84,30.43 43.69,29.66 L41,32.53 L39.316,30.99 L44.78,25.1 L50.74,30.62 L49.2,32.31 L45.96,29.28 C46.13,30.17 46.24,31.1 46.24,32.04 C46.24,39.87 39.896,46.21 32.073,46.21" id="Fill-48"></path>
                <path d="M31.923,55.28 C19.051,55.28 8.619,44.85 8.617,31.98 C8.619,19.11 19.051,8.67 31.923,8.67 C44.79,8.67 55.23,19.11 55.23,31.98 C55.23,44.85 44.79,55.28 31.923,55.28 M31.923,10.95 C20.312,10.98 10.92,20.37 10.899,31.98 C10.92,43.59 20.312,52.98 31.923,53 C43.53,52.98 52.92,43.59 52.94,31.98 C52.92,20.37 43.53,10.98 31.923,10.95" id="Fill-49"></path>
                <path d="M31.923,63.2 C24.804,63.2 18.25,60.79 12.999,56.78 L12.941,60.76 L10.658,60.76 L10.746,52.72 L18.866,52.8 L18.865,55.09 L14.458,55.02 C19.315,58.71 25.352,60.92 31.923,60.92 C38.517,60.92 44.59,58.72 49.45,55.01 L49.46,55.01 L50.84,56.82 C45.59,60.82 39.028,63.2 31.923,63.2" id="Fill-50"></path>
                <path d="M55.72,52.3 L52.61,44.8 L54.71,43.91 L56.24,47.64 C59.16,43.12 60.86,37.76 60.86,31.98 C60.86,23.98 57.63,16.76 52.39,11.52 C47.15,6.28 39.918,3.04 31.923,3.04 C23.927,3.04 16.7,6.28 11.459,11.52 C6.218,16.76 2.982,23.98 2.982,31.98 C2.982,38.57 5.179,44.63 8.884,49.5 L7.069,50.88 C3.075,45.63 0.7,39.08 0.7,31.98 C0.702,14.74 14.679,0.76 31.923,0.76 C49.17,0.76 63.14,14.74 63.14,31.98 C63.14,38.17 61.33,43.93 58.22,48.78 L62.25,47.12 L62.25,47.13 L63.15,49.22 L55.72,52.3" id="Fill-51"></path>
            </g>
        </g>
    </g>
</svg>