<?xml version="1.0" encoding="UTF-8"?>
<svg width="51px" height="79px" viewBox="0 0 51 79" version="1.1" xmlns="http://www.w3.org/2000/svg" xmlns:xlink="http://www.w3.org/1999/xlink">
    <!-- Generator: Sketch 44.1 (41455) - http://www.bohemiancoding.com/sketch -->
    <title>light-icon</title>
    <desc>Created with Sketch.</desc>
    <defs></defs>
    <g id="Page-1" stroke="none" stroke-width="1" fill="none" fill-rule="evenodd">
        <g id="Artboard" transform="translate(-548.000000, -1332.000000)" fill="#46948D">
            <g id="light-icon" transform="translate(548.000000, 1332.000000)">
                <path d="M30.962,78.56 L19.683,78.56 L19.683,72.63 L14.981,72.63 L14.981,68.12 L12.344,68.12 L12.344,65.87 L14.981,65.87 L14.981,61.92 L12.344,61.92 L12.344,59.66 L14.981,59.66 L14.981,55.71 L12.344,55.71 L12.344,53.46 L14.981,53.46 L14.981,48.45 C6.327,44.52 0.31,35.8 0.309,25.67 C0.309,11.85 11.507,0.66 25.322,0.66 C39.138,0.66 50.336,11.85 50.336,25.67 C50.336,35.8 44.318,44.52 35.664,48.45 L35.664,53.46 L38.301,53.46 L38.301,55.71 L35.664,55.71 L35.664,59.66 L38.301,59.66 L38.301,61.92 L35.664,61.92 L35.664,65.87 L38.301,65.87 L38.301,68.12 L35.664,68.12 L35.664,72.63 L30.962,72.63 L30.962,78.56 L30.962,78.56 Z M21.932,76.31 L28.712,76.31 L28.712,72.63 L21.932,72.63 L21.932,76.31 Z M17.231,70.39 L33.412,70.39 L33.412,68.12 L17.231,68.12 L17.231,70.39 Z M17.231,65.87 L33.412,65.87 L33.412,61.92 L17.231,61.92 L17.231,65.87 Z M17.231,59.66 L33.412,59.66 L33.412,55.71 L17.231,55.71 L17.231,59.66 Z M35.079,18.1 L36.671,19.69 L29.38,26.98 L29.38,53.46 L33.412,53.46 L33.412,46.97 L34.104,46.68 C42.314,43.24 48.085,35.13 48.085,25.67 C48.085,19.38 45.539,13.7 41.417,9.57 C37.296,5.45 31.612,2.91 25.322,2.91 C19.034,2.91 13.347,5.45 9.226,9.57 C5.105,13.7 2.558,19.38 2.558,25.67 C2.556,35.13 8.329,43.24 16.542,46.68 L17.232,46.97 L17.231,53.46 L21.771,53.46 L21.771,26.98 L14.483,19.7 L16.073,18.1 L24.02,26.05 L24.02,53.46 L27.131,53.46 L27.131,26.05 L35.079,18.1 L35.079,18.1 Z" id="Fill-47"></path>
            </g>
        </g>
    </g>
</svg>