<?xml version="1.0" encoding="UTF-8"?>
<svg width="44px" height="75px" viewBox="0 0 44 75" version="1.1" xmlns="http://www.w3.org/2000/svg" xmlns:xlink="http://www.w3.org/1999/xlink">
    <!-- Generator: Sketch 44.1 (41455) - http://www.bohemiancoding.com/sketch -->
    <title>chess-icon</title>
    <desc>Created with Sketch.</desc>
    <defs></defs>
    <g id="Page-1" stroke="none" stroke-width="1" fill="none" fill-rule="evenodd">
        <g id="Artboard" transform="translate(-100.000000, -1329.000000)" fill="#46948D">
            <g id="chess-icon" transform="translate(100.000000, 1329.000000)">
                <path d="M40.703,65.72 L38.696,65.72 L38.697,58.97 C37.981,58.54 36.212,57.48 31.846,54.86 C29.015,53.15 27.481,50.14 26.619,47.04 C26.397,46.24 26.219,45.42 26.077,44.62 L26.764,44.62 L26.764,42.61 L25.793,42.61 C25.7,41.77 25.641,40.96 25.605,40.19 L26.395,40.19 L26.395,38.19 L25.559,38.19 C25.56,36.83 25.623,35.72 25.674,35.05 L27.686,35.05 C27.637,35.66 27.566,36.78 27.566,38.21 C27.566,40.54 27.765,43.67 28.553,46.51 C29.341,49.36 30.704,51.85 32.877,53.14 L40.216,57.55 L40.703,57.84 L40.703,65.72" id="Fill-40"></path>
                <path d="M37.265,35.05 L18.403,35.05 C18.368,34.59 18.339,34.33 18.338,34.32 L16.345,34.55 C16.345,34.55 16.365,34.73 16.391,35.05 L6.641,35.05 L6.641,26.44 L12.3,26.44 C9.392,22.67 7.624,17.27 7.618,11.3 L7.618,10.3 L18.255,10.3 C19.302,11.32 20.737,11.96 22.321,11.96 C23.904,11.96 25.339,11.32 26.386,10.3 L36.287,10.3 L36.287,11.3 C36.282,17.27 34.513,22.67 31.608,26.44 L37.265,26.44 L37.265,35.05 M8.647,28.45 L8.647,33.04 L35.258,33.04 L35.258,28.45 L26.932,28.45 L28.684,26.73 C31.829,23.65 34.048,18.38 34.263,12.3 L9.644,12.3 C9.86,18.38 12.077,23.65 15.222,26.73 L16.973,28.45 L8.647,28.45" id="Fill-41"></path>
                <path d="M22.321,11.96 C20.737,11.96 19.302,11.32 18.255,10.3 C17.186,9.24 16.523,7.78 16.523,6.16 C16.523,2.96 19.118,0.36 22.321,0.36 C25.523,0.36 28.118,2.96 28.119,6.16 C28.118,7.78 27.455,9.24 26.386,10.3 C25.339,11.32 23.904,11.96 22.321,11.96 M22.321,2.37 C20.227,2.37 18.533,4.07 18.528,6.16 C18.533,8.26 20.227,9.95 22.321,9.95 C24.413,9.95 26.108,8.26 26.111,6.16 C26.108,4.07 24.413,2.37 22.321,2.37" id="Fill-42"></path>
                <path d="M5.38,65.72 L3.375,65.72 L3.375,57.84 L3.862,57.55 L11.201,53.14 C13.372,51.85 14.735,49.36 15.523,46.51 C16.311,43.67 16.512,40.54 16.511,38.21 C16.511,36.78 16.44,35.66 16.391,35.05 C16.365,34.73 16.345,34.55 16.345,34.55 L18.338,34.32 C18.339,34.33 18.368,34.59 18.403,35.05 C18.454,35.72 18.517,36.83 18.517,38.19 L17.502,38.19 L17.502,40.19 L18.471,40.19 C18.436,40.96 18.377,41.77 18.284,42.61 L17.246,42.61 L17.246,44.62 L18,44.62 C17.858,45.42 17.68,46.24 17.458,47.04 C16.595,50.14 15.063,53.15 12.232,54.86 C7.865,57.48 6.097,58.54 5.38,58.97 L5.38,65.72" id="Fill-43"></path>
                <path d="M0.208,74.7 L43.697,74.7 L43.697,65.72 L0.208,65.72 L0.208,74.7 Z M2.213,72.69 L41.69,72.69 L41.69,67.73 L2.213,67.73 L2.213,72.69 Z" id="Fill-44"></path>
                <polygon id="Fill-45" points="17.502 40.19 26.395 40.19 26.395 38.19 17.502 38.19"></polygon>
                <polygon id="Fill-46" points="17.246 44.62 26.764 44.62 26.764 42.61 17.246 42.61"></polygon>
            </g>
        </g>
    </g>
</svg>