<?xml version="1.0" encoding="UTF-8"?>
<svg width="1200px" height="507px" viewBox="0 0 1200 507" version="1.1" xmlns="http://www.w3.org/2000/svg" xmlns:xlink="http://www.w3.org/1999/xlink">
    <!-- Generator: Sketch 52.6 (67491) - http://www.bohemiancoding.com/sketch -->
    <title>slide1</title>
    <desc>Created with Sketch.</desc>
    <defs>
        <rect id="path-1" x="0" y="-2.84217094e-14" width="1200" height="506.06"></rect>
    </defs>
    <g id="Page-1" stroke="none" stroke-width="1" fill="none" fill-rule="evenodd">
        <g id="slide1">
            <mask id="mask-2" fill="white">
                <use xlink:href="#path-1"></use>
            </mask>
            <use id="Rectangle-Copy" fill="#99CA43" xlink:href="#path-1"></use>
            <rect id="Rectangle" fill="#99CA43" mask="url(#mask-2)" x="0" y="-2.84217094e-14" width="1200" height="506.06"></rect>
            <path d="M911.78,253.03 C911.78,421.98 774.84,558.92 605.84,558.92 C436.95,558.92 299.97,421.97 299.97,253.03 C299.97,84.12 436.95,-52.87 605.84,-52.87 C774.83,-52.86 911.78,84.13 911.78,253.03 Z" id="Path" fill="#86B640" mask="url(#mask-2)"></path>
            <path d="M845.81,253.03 C845.81,385.57 738.41,492.95 605.84,492.95 C473.38,492.95 366,385.57 366,253.03 C366,120.54 473.38,13.16 605.84,13.16 C738.4,13.16 845.81,120.55 845.81,253.03 Z" id="Path" fill="#99CA43" mask="url(#mask-2)"></path>
            <path d="M769.29,253.03 C769.29,343.31 696.14,416.45 605.83,416.45 C515.62,416.45 442.45,343.3 442.45,253.03 C442.45,162.8 515.62,89.64 605.83,89.64 C696.14,89.64 769.29,162.8 769.29,253.03 Z" id="Path" fill="#86B640" mask="url(#mask-2)"></path>
            <path d="M685.71,253.03 C685.71,297.12 649.99,332.84 605.83,332.84 C561.79,332.84 526.08,297.12 526.08,253.03 C526.08,208.96 561.8,173.21 605.83,173.21 C649.99,173.22 685.71,208.96 685.71,253.03 Z" id="Path" fill="#99CA43" mask="url(#mask-2)"></path>
            <path d="M630.13,253.03 C630.13,266.43 619.26,277.27 605.83,277.27 C592.51,277.27 581.68,266.42 581.68,253.03 C581.68,239.66 592.51,228.8 605.83,228.8 C619.26,228.81 630.13,239.66 630.13,253.03 Z" id="Path" fill="#86B640" mask="url(#mask-2)"></path>
            <path d="M888.02,371.41 L820.81,331.08 L774.28,341.19 L611.14,244.2 C606.24,241.27 599.95,242.91 597.04,247.8 C594.12,252.64 595.76,258.99 600.64,261.91 L764.74,359.47 L777.18,403.72 L844.6,444.23 C862.27,422.2 876.97,397.76 888.02,371.41 Z" id="Path" fill="#88AF43" mask="url(#mask-2)"></path>
            <g id="Group" mask="url(#mask-2)">
                <g transform="translate(595.000000, 37.000000)" id="Path">
                    <polygon fill="#88AF43" points="290.72 0.16 182.18 65.38 165.42 124.89 273.97 59.68"></polygon>
                    <polygon fill="#88AF43" points="165.4 124.87 273.97 59.66 334.4 72.85 225.81 138.02"></polygon>
                    <path d="M10.92,226.34 C7.39,226.34 3.96,224.54 2.04,221.29 C-0.88,216.39 0.76,210.12 5.64,207.2 L282.79,42.36 C287.68,39.48 294.03,41.06 296.93,45.96 C299.83,50.86 298.23,57.17 293.3,60.07 L16.14,224.88 C14.49,225.85 12.69,226.34 10.92,226.34 Z" fill="#B0D35C"></path>
                </g>
            </g>
        </g>
    </g>
</svg>