<?xml version="1.0" encoding="UTF-8"?>
<svg width="1200px" height="507px" viewBox="0 0 1200 507" version="1.1" xmlns="http://www.w3.org/2000/svg" xmlns:xlink="http://www.w3.org/1999/xlink">
    <!-- Generator: Sketch 52.6 (67491) - http://www.bohemiancoding.com/sketch -->
    <title>Group 2</title>
    <desc>Created with Sketch.</desc>
    <defs>
        <rect id="path-1" x="0" y="-2.84217094e-14" width="1200" height="506.06"></rect>
    </defs>
    <g id="Page-1" stroke="none" stroke-width="1" fill="none" fill-rule="evenodd">
        <g id="Group-2">
            <mask id="mask-2" fill="white">
                <use xlink:href="#path-1"></use>
            </mask>
            <use id="path-1" fill="#000000" xlink:href="#path-1"></use>
            <g id="lightbulb" mask="url(#mask-2)">
                <g transform="translate(-352.000000, -550.000000)">
                    <rect id="Rectangle" fill="#F8D409" x="352" y="550" width="1200" height="702.06"></rect>
                    <g id="Group" stroke-width="1" fill="none">
                        <g fill="#FEDE3F" id="Path">
                            <path d="M721.87,552.39 C716.02,552.39 711.29,547.65 711.29,541.81 L711.29,11.28 C711.29,5.43 716.03,0.7 721.87,0.7 C727.72,0.7 732.45,5.44 732.45,11.28 L732.45,541.81 C732.45,547.66 727.71,552.39 721.87,552.39 Z"></path>
                            <path d="M599.51,602.4 C596.82,602.4 594.14,601.38 592.08,599.35 L211.91,224.21 C207.75,220.1 207.7,213.4 211.81,209.24 C215.92,205.08 222.62,205.04 226.78,209.14 L606.95,584.29 C611.11,588.4 611.15,595.1 607.05,599.26 C604.98,601.35 602.25,602.4 599.51,602.4 Z"></path>
                            <path d="M1224.39,1219.01 C1221.7,1219.01 1219.02,1217.99 1216.96,1215.96 L798.5,803.03 C794.34,798.92 794.29,792.22 798.4,788.06 C802.51,783.9 809.21,783.86 813.37,787.96 L1231.83,1200.9 C1235.99,1205.01 1236.03,1211.71 1231.93,1215.87 C1229.85,1217.96 1227.12,1219.01 1224.39,1219.01 Z"></path>
                            <path d="M548.83,723.14 L11.19,723.14 C5.34,723.14 0.61,718.4 0.61,712.56 C0.61,706.72 5.35,701.98 11.19,701.98 L548.83,701.98 C554.68,701.98 559.41,706.72 559.41,712.56 C559.41,718.4 554.68,723.14 548.83,723.14 Z"></path>
                            <path d="M1675.35,723.14 L894.9,723.14 C889.05,723.14 884.32,718.4 884.32,712.56 C884.32,706.72 889.06,701.98 894.9,701.98 L1675.35,701.98 C1681.2,701.98 1685.93,706.72 1685.93,712.56 C1685.93,718.4 1681.2,723.14 1675.35,723.14 Z"></path>
                            <path d="M219.34,1219.01 C216.61,1219.01 213.88,1217.96 211.81,1215.86 C207.7,1211.7 207.75,1205 211.91,1200.89 L592.08,825.75 C596.24,821.65 602.94,821.69 607.05,825.85 C611.16,830.01 611.11,836.71 606.95,840.82 L226.78,1215.96 C224.72,1218 222.03,1219.01 219.34,1219.01 Z"></path>
                            <path d="M844.22,602.4 C841.49,602.4 838.76,601.35 836.69,599.25 C832.58,595.09 832.63,588.39 836.79,584.28 L1216.96,209.14 C1221.12,205.04 1227.82,205.08 1231.93,209.24 C1236.04,213.4 1235.99,220.1 1231.83,224.21 L851.65,599.35 C849.59,601.39 846.91,602.4 844.22,602.4 Z"></path>
                            <path d="M721.87,552.39 C716.02,552.39 711.29,547.65 711.29,541.81 L711.29,11.28 C711.29,5.43 716.03,0.7 721.87,0.7 C727.72,0.7 732.45,5.44 732.45,11.28 L732.45,541.81 C732.45,547.66 727.71,552.39 721.87,552.39 Z"></path>
                            <path d="M662.16,664.23 C659.47,664.23 656.79,663.21 654.72,661.18 L211.9,224.22 C207.74,220.11 207.69,213.41 211.8,209.25 C215.91,205.09 222.61,205.05 226.77,209.15 L669.6,646.11 C673.76,650.22 673.81,656.92 669.7,661.08 C667.63,663.17 664.9,664.23 662.16,664.23 Z"></path>
                            <path d="M1224.39,1219.01 C1221.7,1219.01 1219.02,1217.99 1216.96,1215.96 L798.5,803.03 C794.34,798.92 794.29,792.22 798.4,788.06 C802.51,783.9 809.21,783.86 813.37,787.96 L1231.83,1200.9 C1235.99,1205.01 1236.03,1211.71 1231.93,1215.87 C1229.85,1217.96 1227.12,1219.01 1224.39,1219.01 Z"></path>
                            <path d="M599.51,723.14 L11.19,723.14 C5.34,723.14 0.61,718.4 0.61,712.56 C0.61,706.72 5.35,701.98 11.19,701.98 L599.51,701.98 C605.36,701.98 610.09,706.72 610.09,712.56 C610.09,718.4 605.36,723.14 599.51,723.14 Z"></path>
                            <path d="M1675.35,723.14 L770.9,723.14 C765.05,723.14 760.32,718.4 760.32,712.56 C760.32,706.72 765.06,701.98 770.9,701.98 L1675.35,701.98 C1681.2,701.98 1685.93,706.72 1685.93,712.56 C1685.93,718.4 1681.2,723.14 1675.35,723.14 Z"></path>
                            <path d="M219.34,1219.01 C216.61,1219.01 213.88,1217.96 211.81,1215.86 C207.7,1211.7 207.75,1205 211.91,1200.89 L634.05,784.33 C638.21,780.23 644.91,780.27 649.02,784.43 C653.13,788.59 653.08,795.29 648.92,799.4 L226.78,1215.96 C224.72,1218 222.03,1219.01 219.34,1219.01 Z"></path>
                            <path d="M816.17,630.08 C813.44,630.08 810.71,629.03 808.64,626.93 C804.53,622.77 804.58,616.07 808.74,611.96 L1216.96,209.14 C1221.12,205.04 1227.82,205.08 1231.93,209.24 C1236.04,213.4 1235.99,220.1 1231.83,224.21 L823.61,627.03 C821.55,629.06 818.86,630.08 816.17,630.08 Z"></path>
                            <path d="M672.83,591.44 C668.54,591.44 664.5,588.81 662.91,584.55 L510.56,175.33 C508.52,169.85 511.31,163.76 516.79,161.72 C522.27,159.68 528.36,162.47 530.4,167.95 L682.75,577.16 C684.79,582.64 682,588.73 676.52,590.77 C675.31,591.23 674.06,591.44 672.83,591.44 Z"></path>
                            <path d="M923.26,1264.06 C918.97,1264.06 914.92,1261.43 913.34,1257.17 L760.98,847.95 C758.94,842.47 761.73,836.38 767.21,834.34 C772.69,832.3 778.78,835.09 780.82,840.57 L933.18,1249.78 C935.22,1255.26 932.43,1261.35 926.95,1263.39 C925.73,1263.84 924.49,1264.06 923.26,1264.06 Z"></path>
                            <path d="M592.81,664.23 C591.34,664.23 589.85,663.92 588.42,663.27 L187.46,480.22 C182.14,477.79 179.8,471.51 182.23,466.2 C184.66,460.88 190.93,458.54 196.25,460.97 L597.21,644.01 C602.53,646.44 604.87,652.72 602.44,658.03 C600.67,661.93 596.83,664.23 592.81,664.23 Z"></path>
                            <path d="M1504.11,1085.76 C1502.64,1085.76 1501.15,1085.45 1499.72,1084.8 L846.52,781.1 C841.2,778.67 838.86,772.39 841.29,767.08 C843.72,761.76 849.99,759.42 855.31,761.85 L1508.51,1065.56 C1513.83,1067.99 1516.17,1074.27 1513.74,1079.58 C1511.97,1083.46 1508.13,1085.76 1504.11,1085.76 Z"></path>
                            <path d="M173.7,921.87 C169.37,921.87 165.31,919.2 163.75,914.89 C161.76,909.39 164.6,903.32 170.09,901.33 L584.79,750.99 C590.28,749 596.35,751.84 598.35,757.33 C600.34,762.83 597.5,768.9 592.01,770.89 L177.31,921.23 C176.12,921.66 174.9,921.87 173.7,921.87 Z"></path>
                            <path d="M855.33,674.76 C851,674.76 846.94,672.08 845.38,667.78 C843.39,662.28 846.23,656.21 851.72,654.22 L1266.42,503.88 C1271.93,501.89 1277.99,504.73 1279.98,510.22 C1281.97,515.72 1279.13,521.79 1273.64,523.78 L858.94,674.12 C857.75,674.55 856.53,674.76 855.33,674.76 Z"></path>
                            <path d="M476.65,1246.15 C475.14,1246.15 473.62,1245.83 472.16,1245.15 C466.87,1242.67 464.59,1236.37 467.07,1231.07 L652.58,835.4 C655.06,830.11 661.36,827.83 666.66,830.31 C671.95,832.79 674.23,839.09 671.75,844.39 L486.24,1240.05 C484.44,1243.89 480.63,1246.15 476.65,1246.15 Z"></path>
                            <path d="M781.56,595.8 C780.05,595.8 778.53,595.48 777.07,594.8 C771.78,592.32 769.5,586.02 771.98,580.72 L957.48,185.06 C959.96,179.77 966.26,177.49 971.56,179.97 C976.85,182.45 979.13,188.75 976.65,194.05 L791.15,589.71 C789.35,593.55 785.54,595.8 781.56,595.8 Z"></path>
                        </g>
                        <g transform="translate(572.000000, 559.000000)" fill="#FEE980" id="Path">
                            <path d="M295.21,146.05 C295.21,65.8 229.28,0.74 147.96,0.74 C66.63,0.74 0.71,65.8 0.71,146.05 C0.71,172.64 16.87,209.72 38.48,247.44 C66.16,295.74 80.96,350.18 80.96,405.66 C80.96,414.27 88.03,421.24 96.75,421.24 L199.16,421.24 C207.88,421.24 214.95,414.26 214.95,405.66 C214.95,350.17 229.75,295.74 257.43,247.44 C279.05,209.73 295.21,172.64 295.21,146.05 Z"></path>
                            <path d="M206.5,448.24 L89.43,448.24 C84.71,448.24 80.89,444.47 80.89,439.81 C80.89,435.15 84.71,431.38 89.43,431.38 L206.5,431.38 C211.22,431.38 215.04,435.15 215.04,439.81 C215.04,444.47 211.21,448.24 206.5,448.24 Z"></path>
                            <path d="M206.5,476.62 L89.43,476.62 C84.71,476.62 80.89,472.85 80.89,468.19 C80.89,463.53 84.71,459.76 89.43,459.76 L206.5,459.76 C211.22,459.76 215.04,463.53 215.04,468.19 C215.04,472.85 211.21,476.62 206.5,476.62 Z"></path>
                            <path d="M189.17,504.99 L106.75,504.99 C102.03,504.99 98.21,501.22 98.21,496.56 C98.21,491.9 102.03,488.13 106.75,488.13 L189.17,488.13 C193.89,488.13 197.71,491.9 197.71,496.56 C197.71,501.22 193.89,504.99 189.17,504.99 Z"></path>
                        </g>
                    </g>
                </g>
            </g>
        </g>
    </g>
</svg>