<?xml version="1.0" encoding="UTF-8"?>
<svg width="1200px" height="507px" viewBox="0 0 1200 507" version="1.1" xmlns="http://www.w3.org/2000/svg" xmlns:xlink="http://www.w3.org/1999/xlink">
    <!-- Generator: Sketch 52.6 (67491) - http://www.bohemiancoding.com/sketch -->
    <title>slide3</title>
    <desc>Created with Sketch.</desc>
    <defs>
        <rect id="path-1" x="0" y="1.98951966e-13" width="1200" height="506.06"></rect>
    </defs>
    <g id="Page-1" stroke="none" stroke-width="1" fill="none" fill-rule="evenodd">
        <g id="slide3">
            <mask id="mask-2" fill="white">
                <use xlink:href="#path-1"></use>
            </mask>
            <use id="Rectangle" fill="#449BD5" xlink:href="#path-1"></use>
            <rect id="Rectangle-Copy-3" fill="#449BD5" mask="url(#mask-2)" x="0" y="1.98951966e-13" width="1200" height="506.06"></rect>
            <g id="XMLID_1_" mask="url(#mask-2)">
                <g transform="translate(99.000000, -215.000000)">
                    <g id="XMLID_167_" transform="translate(101.000000, 718.000000)">
                        <rect id="XMLID_168_" fill="#56AFE0" transform="translate(71.374095, 88.254871) rotate(-38.777027) translate(-71.374095, -88.254871) " x="67.0740356" y="-20.2516399" width="8.60011975" height="217.013022"></rect>
                    </g>
                    <g id="XMLID_165_" transform="translate(101.000000, 718.000000)">
                        <rect id="XMLID_166_" fill="#2080B6" transform="translate(36.182632, 44.457588) rotate(-38.777027) translate(-36.182632, -44.457588) " x="31.8825716" y="-7.86814062" width="8.60011975" height="104.651457"></rect>
                    </g>
                    <g id="XMLID_163_" transform="translate(152.000000, 696.000000)">
                        <rect id="XMLID_164_" fill="#56AFE0" transform="translate(53.104482, 64.948494) rotate(-38.777027) translate(-53.104482, -64.948494) " x="48.8044221" y="-13.6926011" width="8.60011975" height="157.28219"></rect>
                    </g>
                    <g id="XMLID_161_" transform="translate(152.000000, 696.000000)">
                        <rect id="XMLID_162_" fill="#2080B6" transform="translate(31.915395, 38.571941) rotate(-38.777027) translate(-31.915395, -38.571941) " x="27.6153356" y="-6.23368291" width="8.60011975" height="89.6112478"></rect>
                    </g>
                    <g id="XMLID_136_" transform="translate(238.000000, 478.000000)">
                        <g id="XMLID_159_" transform="translate(86.000000, 8.000000)" fill="#56AFE0">
                            <rect id="XMLID_160_" transform="translate(97.194027, 120.370320) rotate(-38.777027) translate(-97.194027, -120.370320) " x="92.8939676" y="-29.3467648" width="8.60011975" height="299.43417"></rect>
                        </g>
                        <g id="XMLID_157_" transform="translate(175.000000, 120.000000)" fill="#2080B6">
                            <rect id="XMLID_158_" transform="translate(53.092043, 64.257296) rotate(-38.777027) translate(-53.092043, -64.257296) " x="48.7919831" y="-13.7637904" width="8.60011975" height="156.042173"></rect>
                        </g>
                        <g id="XMLID_155_" transform="translate(161.000000, 0.000000)" fill="#56AFE0">
                            <rect id="XMLID_156_" transform="translate(72.251617, 88.149530) rotate(-38.777027) translate(-72.251617, -88.149530) " x="67.9515576" y="-20.3569809" width="8.60011975" height="217.013022"></rect>
                        </g>
                        <g id="XMLID_153_" transform="translate(225.000000, 80.000000)" fill="#2080B6">
                            <rect id="XMLID_154_" transform="translate(40.249715, 47.973700) rotate(-38.777027) translate(-40.249715, -47.973700) " x="35.9496551" y="-9.44709957" width="8.60011975" height="114.841599"></rect>
                        </g>
                        <g id="XMLID_151_" transform="translate(231.000000, 1.000000)" fill="#56AFE0">
                            <rect id="XMLID_152_" transform="translate(44.257826, 53.392271) rotate(-38.777027) translate(-44.257826, -53.392271) " x="39.9577656" y="-10.4236176" width="8.60011975" height="127.631777"></rect>
                        </g>
                        <g id="XMLID_149_" transform="translate(267.000000, 46.000000)" fill="#2080B6">
                            <rect id="XMLID_150_" transform="translate(28.021070, 32.982045) rotate(-38.777027) translate(-28.021070, -32.982045) " x="23.7210101" y="-4.88848234" width="8.60011975" height="75.7410547"></rect>
                        </g>
                        <g id="XMLID_147_" transform="translate(38.000000, 46.000000)" fill="#56AFE0">
                            <rect id="XMLID_148_" transform="translate(98.006769, 120.268994) rotate(-38.777027) translate(-98.006769, -120.268994) " x="93.7067096" y="-29.4480908" width="8.60011975" height="299.43417"></rect>
                        </g>
                        <g id="XMLID_145_" transform="translate(128.000000, 158.000000)" fill="#2080B6">
                            <rect id="XMLID_146_" transform="translate(52.904885, 64.155870) rotate(-38.777027) translate(-52.904885, -64.155870) " x="48.6048251" y="-13.8652164" width="8.60011975" height="156.042173"></rect>
                        </g>
                        <g id="XMLID_143_" transform="translate(14.000000, 119.000000)" fill="#56AFE0">
                            <rect id="XMLID_144_" transform="translate(71.948179, 87.489184) rotate(-38.777027) translate(-71.948179, -87.489184) " x="67.6481196" y="-21.0173269" width="8.60011975" height="217.013022"></rect>
                        </g>
                        <g id="XMLID_141_" transform="translate(80.000000, 200.000000)" fill="#2080B6">
                            <rect id="XMLID_142_" transform="translate(38.720380, 47.285715) rotate(-38.777027) translate(-38.720380, -47.285715) " x="34.4203201" y="-8.8950673" width="8.60011975" height="112.361565"></rect>
                        </g>
                        <g id="XMLID_139_" transform="translate(0.000000, 187.000000)" fill="#56AFE0">
                            <rect id="XMLID_140_" transform="translate(36.518727, 44.009885) rotate(-38.777027) translate(-36.518727, -44.009885) " x="32.2186676" y="-7.96583875" width="8.60011975" height="103.951447"></rect>
                        </g>
                        <g id="XMLID_137_" transform="translate(36.000000, 232.000000)" fill="#2080B6">
                            <rect id="XMLID_138_" transform="translate(17.217593, 19.795761) rotate(-38.777027) translate(-17.217593, -19.795761) " x="12.9175331" y="-1.35453351" width="8.60011975" height="42.300589"></rect>
                        </g>
                    </g>
                    <g id="XMLID_134_" transform="translate(929.000000, 0.000000)">
                        <rect id="XMLID_135_" fill="#56AFE0" transform="translate(97.786215, 119.839511) rotate(-38.777027) translate(-97.786215, -119.839511) " x="93.4861556" y="-29.8775738" width="8.60011975" height="299.43417"></rect>
                    </g>
                    <g id="XMLID_132_" transform="translate(1019.000000, 112.000000)">
                        <rect id="XMLID_133_" fill="#2080B6" transform="translate(52.684331, 63.726487) rotate(-38.777027) translate(-52.684331, -63.726487) " x="48.3842711" y="-14.2945994" width="8.60011975" height="156.042173"></rect>
                    </g>
                    <g id="XMLID_130_" transform="translate(882.000000, 38.000000)">
                        <rect id="XMLID_131_" fill="#56AFE0" transform="translate(97.598024, 119.752544) rotate(-38.777027) translate(-97.598024, -119.752544) " x="93.2979646" y="-29.9645408" width="8.60011975" height="299.43417"></rect>
                    </g>
                    <g id="XMLID_128_" transform="translate(972.000000, 150.000000)">
                        <rect id="XMLID_129_" fill="#2080B6" transform="translate(52.496040, 63.639520) rotate(-38.777027) translate(-52.496040, -63.639520) " x="48.1959801" y="-14.3815664" width="8.60011975" height="156.042173"></rect>
                    </g>
                    <g id="XMLID_126_" transform="translate(858.000000, 110.000000)">
                        <rect id="XMLID_127_" fill="#56AFE0" transform="translate(71.533071, 87.964938) rotate(-38.777027) translate(-71.533071, -87.964938) " x="67.2330116" y="-20.5415729" width="8.60011975" height="217.013022"></rect>
                    </g>
                    <g id="XMLID_124_" transform="translate(923.000000, 192.000000)">
                        <rect id="XMLID_125_" fill="#2080B6" transform="translate(39.305372, 46.761569) rotate(-38.777027) translate(-39.305372, -46.761569) " x="35.0053121" y="-9.4192133" width="8.60011975" height="112.361565"></rect>
                    </g>
                    <g id="XMLID_122_" transform="translate(844.000000, 179.000000)">
                        <rect id="XMLID_123_" fill="#56AFE0" transform="translate(36.109983, 43.493535) rotate(-38.777027) translate(-36.109983, -43.493535) " x="31.8099226" y="-8.48218875" width="8.60011975" height="103.951447"></rect>
                    </g>
                    <g id="XMLID_120_" transform="translate(880.000000, 224.000000)">
                        <rect id="XMLID_121_" fill="#2080B6" transform="translate(16.808848, 19.279411) rotate(-38.777027) translate(-16.808848, -19.279411) " x="12.5087881" y="-1.87088351" width="8.60011975" height="42.300589"></rect>
                    </g>
                    <g id="XMLID_118_" transform="translate(620.000000, 248.000000)">
                        <rect id="XMLID_119_" fill="#56AFE0" transform="translate(97.675038, 120.177072) rotate(-38.777027) translate(-97.675038, -120.177072) " x="93.3749786" y="-29.5400128" width="8.60011975" height="299.43417"></rect>
                    </g>
                    <g id="XMLID_116_" transform="translate(620.000000, 248.000000)">
                        <rect id="XMLID_117_" fill="#2080B6" transform="translate(48.812585, 59.348420) rotate(-38.777027) translate(-48.812585, -59.348420) " x="44.5125251" y="-12.3425783" width="8.60011975" height="143.381997"></rect>
                    </g>
                    <g id="XMLID_114_" transform="translate(696.000000, 240.000000)">
                        <rect id="XMLID_115_" fill="#56AFE0" transform="translate(71.733128, 87.956482) rotate(-38.777027) translate(-71.733128, -87.956482) " x="67.4330686" y="-20.5500289" width="8.60011975" height="217.013022"></rect>
                    </g>
                    <g id="XMLID_112_" transform="translate(694.000000, 238.000000)">
                        <rect id="XMLID_113_" fill="#2080B6" transform="translate(36.723423, 43.891871) rotate(-38.777027) translate(-36.723423, -43.891871) " x="32.4233631" y="-8.86886368" width="8.60011975" height="105.521469"></rect>
                    </g>
                    <g id="XMLID_110_" transform="translate(766.000000, 241.000000)">
                        <rect id="XMLID_111_" fill="#56AFE0" transform="translate(43.745300, 53.206919) rotate(-38.777027) translate(-43.745300, -53.206919) " x="39.4452396" y="-10.6089696" width="8.60011975" height="127.631777"></rect>
                    </g>
                    <g id="XMLID_108_" transform="translate(758.000000, 232.000000)">
                        <rect id="XMLID_109_" fill="#2080B6" transform="translate(25.989757, 30.151029) rotate(-38.777027) translate(-25.989757, -30.151029) " x="21.6896971" y="-4.64945559" width="8.60011975" height="69.6009692"></rect>
                    </g>
                    <g id="XMLID_106_" transform="translate(573.000000, 286.000000)">
                        <rect id="XMLID_107_" fill="#56AFE0" transform="translate(97.494043, 120.083442) rotate(-38.777027) translate(-97.494043, -120.083442) " x="93.1939836" y="-29.6336428" width="8.60011975" height="299.43417"></rect>
                    </g>
                    <g id="XMLID_104_" transform="translate(573.000000, 286.000000)">
                        <rect id="XMLID_105_" fill="#2080B6" transform="translate(48.623794, 59.261053) rotate(-38.777027) translate(-48.623794, -59.261053) " x="44.3237341" y="-12.4299453" width="8.60011975" height="143.381997"></rect>
                    </g>
                    <g id="XMLID_102_" transform="translate(549.000000, 359.000000)">
                        <rect id="XMLID_103_" fill="#56AFE0" transform="translate(71.429691, 87.296236) rotate(-38.777027) translate(-71.429691, -87.296236) " x="67.1296306" y="-21.2102749" width="8.60011975" height="217.013022"></rect>
                    </g>
                    <g id="XMLID_100_" transform="translate(547.000000, 356.000000)">
                        <rect id="XMLID_101_" fill="#2080B6" transform="translate(35.710494, 43.344452) rotate(-38.777027) translate(-35.710494, -43.344452) " x="31.4104336" y="-8.28126687" width="8.60011975" height="103.251438"></rect>
                    </g>
                    <g id="XMLID_98_" transform="translate(549.000000, 446.000000)">
                        <rect id="XMLID_99_" fill="#56AFE0" transform="translate(36.833867, 43.288920) rotate(-38.777027) translate(-36.833867, -43.288920) " x="32.5338076" y="-8.68680375" width="8.60011975" height="103.951447"></rect>
                    </g>
                    <g id="XMLID_96_" transform="translate(538.000000, 431.000000)">
                        <rect id="XMLID_97_" fill="#2080B6" transform="translate(19.450840, 22.959246) rotate(-38.777027) translate(-19.450840, -22.959246) " x="15.1507806" y="-1.90610024" width="8.60011975" height="49.7306925"></rect>
                    </g>
                    <g id="XMLID_82_" transform="translate(835.000000, 324.000000)">
                        <path d="M4.43,29.36 C-1.68,21.76 -0.47,10.64 7.14,4.53 C14.74,-1.58 25.86,-0.37 31.97,7.24 C38.08,14.84 36.87,25.96 29.26,32.07 C21.66,38.17 10.54,36.96 4.43,29.36 Z" id="XMLID_83_" fill="#56AFE0"></path>
                    </g>
                    <g id="XMLID_80_" transform="translate(815.000000, 390.000000)">
                        <circle id="XMLID_81_" fill="#56AFE0" cx="28.83" cy="28.84" r="28.46"></circle>
                    </g>
                    <g id="XMLID_78_" transform="translate(785.000000, 455.000000)">
                        <circle id="XMLID_79_" fill="#56AFE0" cx="29.05" cy="28.93" r="28.39"></circle>
                    </g>
                    <g id="XMLID_76_" transform="translate(729.000000, 483.000000)">
                        <circle id="XMLID_77_" fill="#56AFE0" cx="28.68" cy="28.63" r="28.39"></circle>
                    </g>
                    <g id="XMLID_74_" transform="translate(651.000000, 490.000000)">
                        <circle id="XMLID_75_" fill="#56AFE0" cx="29.07" cy="28.41" r="28.39"></circle>
                    </g>
                    <g id="XMLID_72_" transform="translate(575.000000, 483.000000)">
                        <circle id="XMLID_73_" fill="#56AFE0" cx="29.24" cy="28.92" r="28.39"></circle>
                    </g>
                    <g id="XMLID_70_" transform="translate(513.000000, 462.000000)">
                        <circle id="XMLID_71_" fill="#56AFE0" cx="29.36" cy="29.14" r="28.39"></circle>
                    </g>
                    <g id="XMLID_68_" transform="translate(442.000000, 451.000000)">
                        <circle id="XMLID_69_" fill="#56AFE0" cx="28.81" cy="28.57" r="28.39"></circle>
                    </g>
                    <g id="XMLID_66_" transform="translate(370.000000, 447.000000)">
                        <circle id="XMLID_67_" fill="#56AFE0" cx="28.51" cy="28.61" r="28.39"></circle>
                    </g>
                    <g id="XMLID_64_" transform="translate(299.000000, 461.000000)">
                        <circle id="XMLID_65_" fill="#56AFE0" cx="28.98" cy="29.34" r="28.39"></circle>
                    </g>
                    <g id="XMLID_62_" transform="translate(253.000000, 502.000000)">
                        <circle id="XMLID_63_" fill="#56AFE0" cx="29.12" cy="28.73" r="28.39"></circle>
                    </g>
                    <g id="XMLID_60_" transform="translate(214.000000, 560.000000)">
                        <circle id="XMLID_61_" fill="#56AFE0" transform="translate(40.829052, 40.603494) rotate(-38.777027) translate(-40.829052, -40.603494) " cx="40.829052" cy="40.603494" r="28.4203957"></circle>
                    </g>
                    <g id="XMLID_58_" transform="translate(226.000000, 659.000000)">
                        <circle id="XMLID_59_" fill="#56AFE0" cx="18.01" cy="18.08" r="17.28"></circle>
                    </g>
                    <g id="XMLID_54_" transform="translate(1091.000000, 210.000000)">
                        <circle id="XMLID_55_" fill="#2080B6" cx="28.63" cy="28.43" r="28.39"></circle>
                    </g>
                    <g id="XMLID_52_" transform="translate(1028.000000, 243.000000)">
                        <circle id="XMLID_53_" fill="#2080B6" cx="28.55" cy="28.52" r="28.39"></circle>
                    </g>
                    <g id="XMLID_50_" transform="translate(955.000000, 245.000000)">
                        <circle id="XMLID_51_" fill="#2080B6" cx="29.31" cy="28.99" r="28.39"></circle>
                    </g>
                    <g id="XMLID_48_" transform="translate(884.000000, 235.000000)">
                        <circle id="XMLID_49_" fill="#2080B6" cx="28.5" cy="29.27" r="28.39"></circle>
                    </g>
                    <g id="XMLID_46_" transform="translate(812.000000, 222.000000)">
                        <circle id="XMLID_47_" fill="#2080B6" cx="29.23" cy="29.04" r="28.39"></circle>
                    </g>
                    <g id="XMLID_44_" transform="translate(741.000000, 211.000000)">
                        <circle id="XMLID_45_" fill="#2080B6" cx="28.69" cy="28.46" r="28.39"></circle>
                    </g>
                    <g id="XMLID_42_" transform="translate(667.000000, 208.000000)">
                        <circle id="XMLID_43_" fill="#2080B6" cx="29.04" cy="28.58" r="28.39"></circle>
                    </g>
                    <g id="XMLID_40_" transform="translate(597.000000, 222.000000)">
                        <circle id="XMLID_41_" fill="#2080B6" cx="28.51" cy="29.31" r="28.39"></circle>
                    </g>
                    <g id="XMLID_38_" transform="translate(549.000000, 264.000000)">
                        <circle id="XMLID_39_" fill="#2080B6" cx="29.3" cy="28.78" r="28.39"></circle>
                    </g>
                    <g id="XMLID_36_" transform="translate(522.000000, 334.000000)">
                        <circle id="XMLID_37_" fill="#2080B6" cx="29.01" cy="28.64" r="28.42"></circle>
                    </g>
                    <g id="XMLID_34_" transform="translate(525.000000, 419.000000)">
                        <circle id="XMLID_35_" fill="#2080B6" cx="17.88" cy="17.98" r="17.28"></circle>
                    </g>
                    <g id="XMLID_28_" transform="translate(529.000000, 557.000000)">
                        <circle id="XMLID_29_" fill="#2080B6" transform="translate(24.776907, 24.689937) rotate(-29.530973) translate(-24.776907, -24.689937) " cx="24.776907" cy="24.689937" r="17.6602156"></circle>
                    </g>
                    <g id="XMLID_26_" transform="translate(510.000000, 621.000000)">
                        <circle id="XMLID_27_" fill="#2080B6" transform="translate(35.751181, 36.152343) rotate(-16.158677) translate(-35.751181, -36.152343) " cx="35.751181" cy="36.152343" r="28.4601585"></circle>
                    </g>
                    <g id="XMLID_24_" transform="translate(487.000000, 693.000000)">
                        <circle id="XMLID_25_" fill="#2080B6" cx="28.96" cy="29.26" r="28.39"></circle>
                    </g>
                    <g id="XMLID_18_" transform="translate(285.000000, 715.000000)">
                        <circle id="XMLID_19_" fill="#2080B6" cx="29.2" cy="28.78" r="28.39"></circle>
                    </g>
                    <g id="XMLID_16_" transform="translate(213.000000, 703.000000)">
                        <circle id="XMLID_17_" fill="#2080B6" cx="28.59" cy="28.63" r="28.39"></circle>
                    </g>
                    <g id="XMLID_14_" transform="translate(142.000000, 690.000000)">
                        <circle id="XMLID_15_" fill="#2080B6" cx="29.38" cy="28.97" r="28.39"></circle>
                    </g>
                    <g id="XMLID_12_" transform="translate(70.000000, 686.000000)">
                        <circle id="XMLID_13_" fill="#2080B6" cx="29.08" cy="29.02" r="28.39"></circle>
                    </g>
                    <g id="XMLID_10_" transform="translate(0.000000, 701.000000)">
                        <circle id="XMLID_11_" fill="#2080B6" cx="28.55" cy="28.75" r="28.39"></circle>
                    </g>
                </g>
            </g>
        </g>
    </g>
</svg>